G05
M48
INCH,TZ
FMAT,2
T1C000.01220
T2C000.01614
T3C000.02008
T4C000.02795
T5C000.03000
T6C000.03189
T7C000.03500
T8C000.03543
T9C000.03937
T10C000.04016
T11C000.04724
T12C000.06299
T13C000.12795
%
T001
X1.12868Y2.73478
X1.13065Y2.83321
X1.13271Y3.03006
X1.13360Y2.93360
X1.35722Y2.97614
X1.39344Y2.87870
X1.48006Y2.22712
X1.65624Y2.35409
X1.65624Y2.48303
X1.68773Y2.26748
X1.75761Y2.35409
X1.80801Y1.25841
X1.83734Y2.26452
X1.87769Y2.09031
X1.92592Y2.06669
X1.94561Y1.30742
X1.94659Y1.20722
X1.94659Y1.25841
X1.98321Y2.47811
X1.99699Y0.80742
X2.03045Y1.00250
X2.05407Y2.51748
X2.07770Y1.28400
X2.10132Y0.97100
X2.10309Y2.51649
X2.13163Y1.92693
X2.13261Y2.04110
X2.13754Y2.27535
X2.16214Y2.04208
X2.16313Y1.92693
X2.19265Y1.92693
X2.19364Y2.04110
X2.30801Y1.20842
X2.31589Y0.80565
X2.31785Y0.85742
X2.31785Y0.90742
X2.31785Y0.95742
X2.33242Y1.10606
T002
X1.73990Y1.51944
X1.83931Y1.51944
T003
X0.14463Y1.99287
X0.43969Y1.69730
X0.56273Y1.86077
X0.59914Y1.11295
X1.09344Y1.87258
X1.09344Y1.93557
X1.09344Y1.99266
X1.09344Y2.05171
X1.09344Y2.10683
X1.29107Y2.66580
X1.51844Y2.27929
X1.61293Y0.72811
X1.63734Y2.12574
X1.70348Y1.28400
X1.74187Y2.12476
X1.89836Y1.53519
X1.89836Y1.63155
X2.09541Y0.85742
X2.14266Y1.45645
X2.37691Y0.42179
T004
X0.42986Y1.27732
X0.42986Y1.47732
T005
X0.93203Y0.13242
X0.93203Y0.23242
X1.16825Y0.13242
X1.16825Y0.23242
T006
X0.07158Y0.86549
X0.07453Y0.66481
X0.94461Y1.48174
X0.94658Y1.20222
X1.04030Y0.37061
X1.20150Y2.46433
X1.35702Y3.14817
X1.42494Y0.26256
X1.43203Y2.98500
X1.52533Y1.93480
X1.61293Y1.92496
X1.61391Y1.53815
X1.61687Y1.29011
X1.98321Y0.64838
X2.44836Y1.80311
T007
X0.31667Y2.08834
X1.28616Y1.74189
X1.58321Y0.53489
X1.68321Y0.53489
X1.78321Y0.53489
X1.88321Y0.53489
X1.98321Y0.53489
T008
X0.81982Y2.72199
X0.81982Y2.82199
X0.81982Y2.92199
X0.81982Y3.02199
X0.91982Y2.67199
X0.91982Y2.77199
X0.91982Y2.87199
X0.91982Y2.97199
T009
X2.37691Y0.34699
X2.37691Y0.60289
X2.55407Y0.34699
X2.55407Y0.60289
T010
X0.40998Y2.58557
X0.40998Y2.68557
X0.40998Y3.00841
X0.40998Y3.10841
T011
X1.75760Y2.63037
X1.75760Y2.73037
X1.85760Y2.63037
X1.85760Y2.73037
X1.95760Y2.63037
X1.95760Y2.73037
X2.05760Y2.63037
X2.05760Y2.73037
X2.15760Y2.63037
X2.15760Y2.73037
X2.25760Y2.63037
X2.25760Y2.73037
X2.35760Y2.63037
X2.35760Y2.73037
X2.45760Y2.63037
X2.45760Y2.73037
T012
X0.27138Y0.46639
X0.27138Y0.66639
X0.27138Y0.86639
X0.27138Y1.06639
X0.68990Y2.53793
X0.68990Y3.15604
T013
X0.14463Y0.12848
X0.14463Y3.39620
X0.56982Y2.62199
X0.56982Y3.07199
X2.55801Y0.12848
X2.55801Y3.39620
M30
