G04 DesignSpark PCB Gerber Version 9.0 Build 5138 *
G04 #@! TF.Part,Single*
G04 #@! TF.FileFunction,Soldermask,Bot *
G04 #@! TF.FilePolarity,Negative *
%FSLAX35Y35*%
%MOIN*%
G04 #@! TA.AperFunction,ComponentPad*
%ADD17R,0.06112X0.06112*%
%ADD71R,0.06600X0.06600*%
%ADD13R,0.10049X0.10049*%
%ADD20C,0.05391*%
%ADD18C,0.06112*%
%ADD16C,0.06506*%
G04 #@! TA.AperFunction,WasherPad*
%ADD12C,0.06600*%
G04 #@! TA.AperFunction,ComponentPad*
%ADD19C,0.06624*%
%ADD70C,0.06998*%
%ADD15C,0.07687*%
%ADD14C,0.10049*%
%ADD21R,0.08600X0.06600*%
X0Y0D02*
D02*
D12*
X51864Y68754D03*
D02*
D13*
X27061Y106549D03*
D02*
D14*
Y46549D03*
Y66549D03*
Y86549D03*
X68990Y253793D03*
Y315604D03*
D02*
D15*
X175683Y263045D03*
Y273045D03*
X185683Y263045D03*
Y273045D03*
X195683Y263045D03*
Y273045D03*
X205683Y263045D03*
Y273045D03*
X215683Y263045D03*
Y273045D03*
X225683Y263045D03*
Y273045D03*
X235683Y263045D03*
Y273045D03*
X245683Y263045D03*
Y273045D03*
D02*
D16*
X237691Y34699D03*
Y60289D03*
X255407Y34699D03*
Y60289D03*
D02*
D17*
X81982Y302199D03*
D02*
D18*
Y272199D03*
Y282199D03*
Y292199D03*
X91982Y267199D03*
Y277199D03*
Y287199D03*
Y297199D03*
D02*
D19*
X40998Y258557D03*
Y268557D03*
Y300841D03*
Y310841D03*
D02*
D70*
X56982Y262199D03*
Y307199D03*
D02*
D71*
X158321Y51628D03*
X168321D03*
X178321D03*
X188321D03*
X198321D03*
D02*
D20*
X40447Y133321D03*
X60447D03*
D02*
D21*
X93203Y13242D03*
Y23242D03*
X116825Y13242D03*
Y23242D03*
X0Y0D02*
M02*
