G04 DesignSpark PCB Gerber Version 9.0 Build 5138 *
G04 #@! TF.Part,Single*
G04 #@! TF.FileFunction,Drillmap *
G04 #@! TF.FilePolarity,Positive *
%FSLAX35Y35*%
%MOIN*%
%ADD10C,0.00500*%
G04 #@! TA.AperFunction,ViaPad*
%ADD22C,0.10000*%
X0Y0D02*
D02*
D10*
X17573Y92487D02*
X19135Y96237D01*
X20698Y92487*
X18198Y94049D02*
X20073D01*
X24463Y19411D02*
X24775Y19098D01*
X25400Y18786*
X26025Y19098*
X26338Y19411*
Y22536*
X26963*
X26338D02*
X25088D01*
X24463Y346183D02*
X24775Y345870D01*
X25400Y345557*
X26025Y345870*
X26338Y346183*
Y349307*
X26963*
X26338D02*
X25088D01*
X37061Y52487D02*
Y56237D01*
X38624Y54362*
X40186Y56237*
Y52487*
X37061Y72487D02*
Y76237D01*
X38624Y74362*
X40186Y76237*
Y72487*
X37061Y92487D02*
Y96237D01*
X38624Y94362*
X40186Y96237*
Y92487*
X37061Y112487D02*
Y116237D01*
X38624Y114362*
X40186Y116237*
Y112487*
X50447Y139258D02*
Y143008D01*
X53572*
X52947Y141133D02*
X50447D01*
X50998Y264494D02*
Y268244D01*
X53185*
X53811Y267932*
X54123Y267307*
X53811Y266682*
X53185Y266370*
X50998*
Y274494D02*
Y278244D01*
X53185*
X53811Y277932*
X54123Y277307*
X53811Y276682*
X53185Y276370*
X50998*
Y306778D02*
Y310528D01*
X53185*
X53811Y310216*
X54123Y309591*
X53811Y308966*
X53185Y308653*
X50998*
Y316778D02*
Y320528D01*
X53185*
X53811Y320216*
X54123Y319591*
X53811Y318966*
X53185Y318653*
X50998*
X51628Y175617D02*
Y179367D01*
Y177492D02*
X54753D01*
Y175617D02*
Y179367D01*
X64052Y76254D02*
X64989D01*
Y75941*
X64677Y75317*
X64364Y75004*
X63739Y74691*
X63114*
X62489Y75004*
X62177Y75317*
X61864Y75941*
Y77191*
X62177Y77817*
X62489Y78129*
X63114Y78441*
X63739*
X64364Y78129*
X64677Y77817*
X64989Y77191*
X66982Y268761D02*
X67295Y268449D01*
X67920Y268136*
X68545Y268449*
X68857Y268761*
Y271886*
X69482*
X68857D02*
X67607D01*
X66982Y313761D02*
X67295Y313449D01*
X67920Y313136*
X68545Y313449*
X68857Y313761*
Y316886*
X69482*
X68857D02*
X67607D01*
X70447Y139258D02*
Y143008D01*
X73572*
X72947Y141133D02*
X70447D01*
X78990Y259731D02*
Y263481D01*
X80553Y261606*
X82115Y263481*
Y259731*
X78990Y321542D02*
Y325292D01*
X80553Y323417*
X82115Y325292*
Y321542*
X91982Y278136D02*
Y281886D01*
X95107*
X94482Y280011D02*
X91982D01*
Y278136D02*
X95107D01*
X91982Y288136D02*
Y291886D01*
X95107*
X94482Y290011D02*
X91982D01*
Y288136D02*
X95107D01*
X91982Y298136D02*
Y301886D01*
X95107*
X94482Y300011D02*
X91982D01*
Y298136D02*
X95107D01*
X91982Y308136D02*
Y311886D01*
X95107*
X94482Y310011D02*
X91982D01*
Y308136D02*
X95107D01*
X92573Y157762D02*
Y161512D01*
Y159637D02*
X95698D01*
Y157762D02*
Y161512D01*
X101982Y273136D02*
Y276886D01*
X105107*
X104482Y275011D02*
X101982D01*
Y273136D02*
X105107D01*
X101982Y283136D02*
Y286886D01*
X105107*
X104482Y285011D02*
X101982D01*
Y283136D02*
X105107D01*
X101982Y293136D02*
Y296886D01*
X105107*
X104482Y295011D02*
X101982D01*
Y293136D02*
X105107D01*
X101982Y303136D02*
Y306886D01*
X105107*
X104482Y305011D02*
X101982D01*
Y303136D02*
X105107D01*
X103203Y20430D02*
Y21680D01*
X103515Y22305*
X103828Y22617*
X104453Y22930*
X105078*
X105703Y22617*
X106015Y22305*
X106328Y21680*
Y20430*
X106015Y19805*
X105703Y19492*
X105078Y19180*
X104453*
X103828Y19492*
X103515Y19805*
X103203Y20430*
X105390Y20117D02*
X106328Y19180D01*
X103203Y30430D02*
Y31680D01*
X103515Y32305*
X103828Y32617*
X104453Y32930*
X105078*
X105703Y32617*
X106015Y32305*
X106328Y31680*
Y30430*
X106015Y29805*
X105703Y29492*
X105078Y29180*
X104453*
X103828Y29492*
X103515Y29805*
X103203Y30430*
X105390Y30117D02*
X106328Y29180D01*
X107730Y75676D02*
Y79426D01*
Y77551D02*
X110856D01*
Y75676D02*
Y79426D01*
X114030Y42998D02*
Y46748D01*
Y44874D02*
X117155D01*
Y42998D02*
Y46748D01*
X119344Y193195D02*
Y196945D01*
Y195070D02*
X122470D01*
Y193195D02*
Y196945D01*
X119344Y199494D02*
Y203244D01*
Y201370D02*
X122470D01*
Y199494D02*
Y203244D01*
X119344Y205203D02*
Y208953D01*
Y207078D02*
X122470D01*
Y205203D02*
Y208953D01*
X119344Y211109D02*
Y214859D01*
Y212984D02*
X122470D01*
Y211109D02*
Y214859D01*
X119344Y216620D02*
Y220370D01*
Y218496D02*
X122470D01*
Y216620D02*
Y220370D01*
X120900Y283166D02*
Y279416D01*
X124025*
X121530Y293008D02*
Y289258D01*
X124655*
X121707Y312693D02*
Y308943D01*
X124832*
X122297Y303048D02*
Y299298D01*
X125422*
X126825Y20430D02*
Y21680D01*
X127137Y22305*
X127450Y22617*
X128075Y22930*
X128700*
X129325Y22617*
X129637Y22305*
X129950Y21680*
Y20430*
X129637Y19805*
X129325Y19492*
X128700Y19180*
X128075*
X127450Y19492*
X127137Y19805*
X126825Y20430*
X129012Y20117D02*
X129950Y19180D01*
X126825Y30430D02*
Y31680D01*
X127137Y32305*
X127450Y32617*
X128075Y32930*
X128700*
X129325Y32617*
X129637Y32305*
X129950Y31680*
Y30430*
X129637Y29805*
X129325Y29492*
X128700Y29180*
X128075*
X127450Y29492*
X127137Y29805*
X126825Y30430*
X129012Y30117D02*
X129950Y29180D01*
X129778Y255794D02*
X131340Y259544D01*
X132903Y255794*
X130403Y257356D02*
X132278D01*
X138833Y273707D02*
Y277457D01*
Y275582D02*
X141958D01*
Y273707D02*
Y277457D01*
X142573Y215439D02*
Y219189D01*
Y217315D02*
X145698D01*
Y215439D02*
Y219189D01*
X142573Y230203D02*
Y233953D01*
Y232078D02*
X145698D01*
Y230203D02*
Y233953D01*
X144148Y320754D02*
Y324504D01*
Y322630D02*
X147273D01*
Y320754D02*
Y324504D01*
X146660Y301660D02*
X147910D01*
X147285D02*
Y305410D01*
X146660D02*
X147910D01*
X146510Y196739D02*
Y200489D01*
Y198614D02*
X149635D01*
Y196739D02*
Y200489D01*
X149416Y287487D02*
X150666D01*
X150041D02*
Y291237D01*
X149416D02*
X150666D01*
X152219Y124298D02*
Y128048D01*
Y126173D02*
X155344D01*
Y124298D02*
Y128048D01*
X152219Y146739D02*
Y150489D01*
Y148614D02*
X155344D01*
Y146739D02*
Y150489D01*
X153203Y305400D02*
Y309150D01*
Y307275D02*
X156328D01*
Y305400D02*
Y309150D01*
X158274Y201660D02*
X159524D01*
X158899D02*
Y205410D01*
X158274D02*
X159524D01*
X162605Y239258D02*
X163855D01*
X163230D02*
Y243008D01*
X162605D02*
X163855D01*
X162848Y72723D02*
X164411Y76473D01*
X165974Y72723*
X163474Y74285D02*
X165348D01*
X164226Y255794D02*
X165789Y259544D01*
X167352Y255794*
X164852Y257356D02*
X166726D01*
X170508Y59128D02*
X171446D01*
Y58815*
X171133Y58191*
X170821Y57878*
X170196Y57565*
X169571*
X168946Y57878*
X168633Y58191*
X168321Y58815*
Y60065*
X168633Y60691*
X168946Y61003*
X169571Y61315*
X170196*
X170821Y61003*
X171133Y60691*
X171446Y60065*
X171168Y205991D02*
X172418D01*
X171793D02*
Y209741D01*
X171168D02*
X172418D01*
X175053Y176660D02*
Y180410D01*
Y178535D02*
X175991D01*
X178178Y180410*
X175991Y178535D02*
X178178Y176660D01*
X177762Y192802D02*
X179012D01*
X178387D02*
Y196552D01*
X177762D02*
X179012D01*
X177959Y235518D02*
X179209D01*
X178584D02*
Y239268D01*
X177959D02*
X179209D01*
X177907Y176660D02*
Y180410D01*
Y178535D02*
X178845D01*
X181033Y180410*
X178845Y178535D02*
X181033Y176660D01*
X177927Y134337D02*
Y138087D01*
Y136212D02*
X181052D01*
Y134337D02*
Y138087D01*
X180508Y59128D02*
X181446D01*
Y58815*
X181133Y58191*
X180821Y57878*
X180196Y57565*
X179571*
X178946Y57878*
X178633Y58191*
X178321Y58815*
Y60065*
X178633Y60691*
X178946Y61003*
X179571Y61315*
X180196*
X180821Y61003*
X181133Y60691*
X181446Y60065*
X181404Y205991D02*
X182654D01*
X182029D02*
Y209741D01*
X181404D02*
X182654D01*
X183668Y176463D02*
X184918D01*
X184293D02*
Y180213D01*
X183668D02*
X184918D01*
X185683Y268983D02*
Y272733D01*
X188808Y268983*
Y272733*
X185683Y278983D02*
Y282733D01*
X188808Y278983*
Y282733*
X187014Y176463D02*
X188264D01*
X187639D02*
Y180213D01*
X187014D02*
X188264D01*
X190508Y59128D02*
X191446D01*
Y58815*
X191133Y58191*
X190821Y57878*
X190196Y57565*
X189571*
X188946Y57878*
X188633Y58191*
X188321Y58815*
Y60065*
X188633Y60691*
X188946Y61003*
X189571Y61315*
X190196*
X190821Y61003*
X191133Y60691*
X191446Y60065*
X191739Y131778D02*
X192989D01*
X192364D02*
Y135528D01*
X191739D02*
X192989D01*
X195683Y268983D02*
Y272733D01*
X198808Y268983*
Y272733*
X195683Y278983D02*
Y282733D01*
X198808Y278983*
Y282733*
X200508Y59128D02*
X201446D01*
Y58815*
X201133Y58191*
X200821Y57878*
X200196Y57565*
X199571*
X198946Y57878*
X198633Y58191*
X198321Y58815*
Y60065*
X198633Y60691*
X198946Y61003*
X199571Y61315*
X200196*
X200821Y61003*
X201133Y60691*
X201446Y60065*
X201384Y160912D02*
X202634D01*
X202009D02*
Y164662D01*
X201384D02*
X202634D01*
X204140Y156187D02*
X205390D01*
X204765D02*
Y159937D01*
X204140D02*
X205390D01*
X204140Y167408D02*
X205390D01*
X204765D02*
Y171158D01*
X204140D02*
X205390D01*
X204187Y130410D02*
Y126660D01*
X207312*
X204187Y135528D02*
Y131778D01*
X207312*
X204187Y140430D02*
Y136680D01*
X207312*
X205683Y268983D02*
Y272733D01*
X208808Y268983*
Y272733*
X205683Y278983D02*
Y282733D01*
X208808Y278983*
Y282733*
X206699Y261896D02*
X207949D01*
X207324D02*
Y265646D01*
X206699D02*
X207949D01*
X210508Y59128D02*
X211446D01*
Y58815*
X211133Y58191*
X210821Y57878*
X210196Y57565*
X209571*
X208946Y57878*
X208633Y58191*
X208321Y58815*
Y60065*
X208633Y60691*
X208946Y61003*
X209571Y61315*
X210196*
X210821Y61003*
X211133Y60691*
X211446Y60065*
X209258Y245361D02*
X210508D01*
X209883D02*
Y249111D01*
X209258D02*
X210508D01*
X210636Y86680D02*
X211886D01*
X211261D02*
Y90430D01*
X210636D02*
X211886D01*
X213983Y106187D02*
X215233D01*
X214608D02*
Y109937D01*
X213983D02*
X215233D01*
X216345Y252447D02*
X217595D01*
X216970D02*
Y256197D01*
X216345D02*
X217595D01*
X215683Y268983D02*
Y272733D01*
X218808Y268983*
Y272733*
X215683Y278983D02*
Y282733D01*
X218808Y278983*
Y282733*
X218707Y134337D02*
X219957D01*
X219332D02*
Y138087D01*
X218707D02*
X219957D01*
X219541Y91680D02*
Y95430D01*
Y93555D02*
X222667D01*
Y91680D02*
Y95430D01*
X221069Y103038D02*
X222319D01*
X221694D02*
Y106788D01*
X221069D02*
X222319D01*
X221069Y245557D02*
X222319D01*
X221694D02*
Y249307D01*
X221069D02*
X222319D01*
X224266Y152054D02*
Y155804D01*
Y153929D02*
X227391D01*
Y152054D02*
Y155804D01*
X225683Y268983D02*
Y272733D01*
X228808Y268983*
Y272733*
X225683Y278983D02*
Y282733D01*
X228808Y278983*
Y282733*
X235683Y268983D02*
Y272733D01*
X238808Y268983*
Y272733*
X235683Y278983D02*
Y282733D01*
X238808Y278983*
Y282733*
X241739Y129022D02*
X242989D01*
X242364D02*
Y132772D01*
X241739D02*
X242989D01*
X241589Y86502D02*
Y90252D01*
Y88378D02*
X244714D01*
Y86502D02*
Y90252D01*
X241785Y91680D02*
Y95430D01*
Y93555D02*
X244911D01*
Y91680D02*
Y95430D01*
X241785Y96680D02*
Y100430D01*
Y98555D02*
X244911D01*
Y96680D02*
Y100430D01*
X241785Y101680D02*
Y105430D01*
Y103555D02*
X244911D01*
Y101680D02*
Y105430D01*
X244101Y118786D02*
X245351D01*
X244726D02*
Y122536D01*
X244101D02*
X245351D01*
X245683Y268983D02*
Y272733D01*
X248808Y268983*
Y272733*
X245683Y278983D02*
Y282733D01*
X248808Y278983*
Y282733*
X246857Y129022D02*
X248107D01*
X247482D02*
Y132772D01*
X246857D02*
X248107D01*
X246857Y170557D02*
X248107D01*
X247482D02*
Y174307D01*
X246857D02*
X248107D01*
X247691Y41886D02*
Y43136D01*
X248004Y43761*
X248316Y44074*
X248941Y44386*
X249566*
X250191Y44074*
X250504Y43761*
X250816Y43136*
Y41886*
X250504Y41261*
X250191Y40949*
X249566Y40636*
X248941*
X248316Y40949*
X248004Y41261*
X247691Y41886*
Y48117D02*
Y51867D01*
Y49992D02*
X250816D01*
Y48117D02*
Y51867D01*
X247691Y67477D02*
Y68727D01*
X248004Y69352*
X248316Y69665*
X248941Y69977*
X249566*
X250191Y69665*
X250504Y69352*
X250816Y68727*
Y67477*
X250504Y66852*
X250191Y66539*
X249566Y66227*
X248941*
X248316Y66539*
X248004Y66852*
X247691Y67477*
X249416Y134140D02*
X250666D01*
X250041D02*
Y137890D01*
X249416D02*
X250666D01*
X249416Y175085D02*
X250666D01*
X250041D02*
Y178835D01*
X249416D02*
X250666D01*
X252172Y138471D02*
X253422D01*
X252797D02*
Y142221D01*
X252172D02*
X253422D01*
X252172Y170164D02*
X253422D01*
X252797D02*
Y173914D01*
X252172D02*
X253422D01*
X255683Y268983D02*
Y272733D01*
X258808Y268983*
Y272733*
X255683Y278983D02*
Y282733D01*
X258808Y278983*
Y282733*
X256156Y76266D02*
X257718Y80016D01*
X259281Y76266*
X256781Y77829D02*
X258656D01*
X265407Y41886D02*
Y43136D01*
X265720Y43761*
X266033Y44074*
X266657Y44386*
X267283*
X267907Y44074*
X268220Y43761*
X268533Y43136*
Y41886*
X268220Y41261*
X267907Y40949*
X267283Y40636*
X266657*
X266033Y40949*
X265720Y41261*
X265407Y41886*
Y67477D02*
Y68727D01*
X265720Y69352*
X266033Y69665*
X266657Y69977*
X267283*
X267907Y69665*
X268220Y69352*
X268533Y68727*
Y67477*
X268220Y66852*
X267907Y66539*
X267283Y66227*
X266657*
X266033Y66539*
X265720Y66852*
X265407Y67477*
X265801Y19411D02*
X266114Y19098D01*
X266739Y18786*
X267364Y19098*
X267676Y19411*
Y22536*
X268301*
X267676D02*
X266426D01*
X265801Y346183D02*
X266114Y345870D01*
X266739Y345557*
X267364Y345870*
X267676Y346183*
Y349307*
X268301*
X267676D02*
X266426D01*
D02*
D22*
X7573Y86549D03*
X14463Y12848D03*
Y339620D03*
X27061Y46549D03*
Y66549D03*
Y86549D03*
Y106549D03*
X40447Y133321D03*
X40998Y258557D03*
Y268557D03*
Y300841D03*
Y310841D03*
X41628Y169679D03*
X51864Y68754D03*
X56982Y262199D03*
Y307199D03*
X60447Y133321D03*
X68990Y253793D03*
Y315604D03*
X81982Y272199D03*
Y282199D03*
Y292199D03*
Y302199D03*
X82573Y151825D03*
X91982Y267199D03*
Y277199D03*
Y287199D03*
Y297199D03*
X93203Y13242D03*
Y23242D03*
X97730Y69738D03*
X104030Y37061D03*
X109344Y187258D03*
Y193557D03*
Y199266D03*
Y205171D03*
Y210683D03*
X110900Y273478D03*
X111530Y283321D03*
X111707Y303006D03*
X112297Y293360D03*
X116825Y13242D03*
Y23242D03*
X119778Y249856D03*
X128833Y267770D03*
X132573Y209502D03*
Y224266D03*
X134148Y314817D03*
X135722Y295722D03*
X136510Y190801D03*
X138478Y281549D03*
X142219Y118360D03*
Y140801D03*
X143203Y299463D03*
X147337Y195722D03*
X151667Y233321D03*
X152848Y66785D03*
X154226Y249856D03*
X158321Y51628D03*
X160230Y200053D03*
X165053Y170722D03*
X166825Y186864D03*
X167022Y229581D03*
X167907Y170722D03*
X167927Y128400D03*
X168321Y51628D03*
X170467Y200053D03*
X172730Y170526D03*
X175683Y263045D03*
Y273045D03*
X176077Y170526D03*
X178321Y51628D03*
X180801Y125841D03*
X185683Y263045D03*
Y273045D03*
X188321Y51628D03*
X190447Y154974D03*
X193203Y150250D03*
Y161470D03*
X194187Y120722D03*
Y125841D03*
Y130742D03*
X195683Y263045D03*
Y273045D03*
X195762Y255959D03*
X198321Y51628D03*
Y239423D03*
X199699Y80742D03*
X203045Y100250D03*
X205407Y246510D03*
X205683Y263045D03*
Y273045D03*
X207770Y128400D03*
X209541Y85742D03*
X210132Y97100D03*
Y239620D03*
X214266Y146116D03*
X215683Y263045D03*
Y273045D03*
X225683Y263045D03*
Y273045D03*
X230801Y123085D03*
X231589Y80565D03*
X231785Y85742D03*
Y90742D03*
Y95742D03*
X233163Y112848D03*
X235683Y263045D03*
Y273045D03*
X235919Y123085D03*
Y164620D03*
X237691Y34699D03*
Y42179D03*
Y60289D03*
X238478Y128203D03*
Y169148D03*
X241234Y132533D03*
Y164226D03*
X245683Y263045D03*
Y273045D03*
X246156Y70329D03*
X255407Y34699D03*
Y60289D03*
X255801Y12848D03*
Y339620D03*
X0Y0D02*
M02*
