G04 DesignSpark PCB Gerber Version 9.0 Build 5138 *
G04 #@! TF.Part,Single*
G04 #@! TF.FileFunction,Legend,Top *
G04 #@! TF.FilePolarity,Positive *
%FSLAX35Y35*%
%MOIN*%
G04 #@! TA.AperFunction,SMDPad,CuDef*
%ADD131R,0.01172X0.06487*%
%ADD129R,0.01772X0.07087*%
G04 #@! TA.AperFunction,ViaPad*
%ADD76R,0.01890X0.03504*%
%ADD73R,0.02047X0.03504*%
G04 #@! TA.AperFunction,SMDPad,CuDef*
%ADD130R,0.02372X0.07687*%
%ADD92R,0.02471X0.03258*%
%ADD90R,0.03071X0.03858*%
%ADD95R,0.03140X0.09833*%
%ADD91R,0.03671X0.04458*%
%ADD93R,0.03740X0.10433*%
%ADD94R,0.04340X0.11033*%
%ADD101R,0.04500X0.05400*%
%ADD143R,0.04518X0.06487*%
%ADD116R,0.04900X0.05400*%
%ADD99R,0.05100X0.06000*%
%ADD141R,0.05118X0.07087*%
%ADD137R,0.05424X0.05817*%
%ADD114R,0.05500X0.06000*%
%ADD134R,0.05699X0.11802*%
%ADD100R,0.05700X0.06600*%
%ADD142R,0.05718X0.07687*%
%ADD135R,0.06024X0.06417*%
%ADD115R,0.06100X0.06600*%
%ADD113R,0.06290X0.11998*%
%ADD132R,0.06299X0.12402*%
%ADD136R,0.06624X0.07017*%
%ADD111R,0.06890X0.12598*%
%ADD133R,0.06899X0.13002*%
%ADD112R,0.07490X0.13198*%
%ADD161R,0.07865X0.08061*%
%ADD159R,0.08465X0.08661*%
%ADD160R,0.09065X0.09261*%
%ADD84R,0.09636X0.11605*%
%ADD82R,0.10236X0.12205*%
%ADD83R,0.10836X0.12805*%
%ADD140R,0.12589X0.13573*%
%ADD138R,0.13189X0.14173*%
%ADD139R,0.13789X0.14773*%
G04 #@! TA.AperFunction,ComponentPad*
%ADD147R,0.05512X0.05512*%
G04 #@! TA.AperFunction,SMDPad,CuDef*
%ADD165R,0.05700X0.05700*%
G04 #@! TA.AperFunction,ComponentPad*
%ADD162R,0.06000X0.06000*%
%ADD15R,0.06112X0.06112*%
G04 #@! TA.AperFunction,SMDPad,CuDef*
%ADD163R,0.06300X0.06300*%
G04 #@! TA.AperFunction,ComponentPad*
%ADD19R,0.06600X0.06600*%
G04 #@! TA.AperFunction,SMDPad,CuDef*
%ADD164R,0.06900X0.06900*%
G04 #@! TA.AperFunction,ComponentPad*
%ADD106R,0.09449X0.09449*%
%ADD11R,0.10049X0.10049*%
G04 #@! TD.AperFunction*
%ADD85C,0.00197*%
%ADD124C,0.00394*%
%ADD71C,0.00500*%
%ADD86C,0.00787*%
%ADD102C,0.00800*%
%ADD22C,0.00984*%
%ADD20C,0.01000*%
%ADD29C,0.01500*%
%ADD21C,0.01969*%
%ADD27C,0.02126*%
%ADD23C,0.02165*%
%ADD28C,0.02500*%
G04 #@! TA.AperFunction,ViaPad*
%ADD77C,0.02795*%
G04 #@! TD.AperFunction*
%ADD24C,0.03150*%
%ADD25C,0.03346*%
G04 #@! TA.AperFunction,ViaPad*
%ADD26C,0.03543*%
G04 #@! TA.AperFunction,ComponentPad*
%ADD148C,0.05512*%
G04 #@! TA.AperFunction,ViaPad*
%ADD72C,0.05591*%
G04 #@! TA.AperFunction,ComponentPad*
%ADD125C,0.05906*%
G04 #@! TA.AperFunction,WasherPad*
%ADD78C,0.06000*%
G04 #@! TA.AperFunction,ComponentPad*
%ADD149C,0.06024*%
%ADD16C,0.06112*%
%ADD14C,0.06506*%
G04 #@! TA.AperFunction,WasherPad*
%ADD10C,0.06600*%
G04 #@! TA.AperFunction,ComponentPad*
%ADD17C,0.06624*%
%ADD18C,0.06998*%
%ADD123C,0.07087*%
%ADD13C,0.07687*%
%ADD107C,0.09449*%
%ADD12C,0.10049*%
G04 #@! TA.AperFunction,SMDPad,CuDef*
%ADD155R,0.04321X0.01762*%
%ADD81R,0.05404X0.01959*%
%ADD119R,0.06683X0.01959*%
G04 #@! TA.AperFunction,ViaPad*
%ADD74R,0.03504X0.02047*%
%ADD75C,0.19685*%
G04 #@! TA.AperFunction,SMDPad,CuDef*
%ADD153R,0.04921X0.02362*%
%ADD79R,0.06004X0.02559*%
%ADD117R,0.07283X0.02559*%
%ADD154R,0.05521X0.02962*%
%ADD110R,0.06290X0.03140*%
%ADD80R,0.06604X0.03159*%
%ADD118R,0.07883X0.03159*%
%ADD108R,0.06890X0.03740*%
%ADD152R,0.04912X0.03928*%
%ADD158R,0.06487X0.04124*%
%ADD109R,0.07490X0.04340*%
%ADD128R,0.05400X0.04500*%
%ADD122R,0.06487X0.04518*%
%ADD150R,0.05512X0.04528*%
%ADD156R,0.07087X0.04724*%
%ADD146R,0.05400X0.04900*%
%ADD126R,0.06000X0.05100*%
%ADD120R,0.07087X0.05118*%
%ADD151R,0.06112X0.05128*%
%ADD157R,0.07687X0.05324*%
%ADD144R,0.06000X0.05500*%
%ADD127R,0.06600X0.05700*%
%ADD121R,0.07687X0.05718*%
%ADD145R,0.06600X0.06100*%
%ADD105R,0.08258X0.06290*%
%ADD103R,0.08858X0.06890*%
%ADD104R,0.09458X0.07490*%
%ADD89R,0.15739X0.07865*%
%ADD87R,0.16339X0.08465*%
%ADD88R,0.16939X0.09065*%
%ADD98R,0.26172X0.23416*%
%ADD96R,0.26772X0.24016*%
%ADD97R,0.27372X0.24616*%
X0Y0D02*
D02*
D10*
X49856Y68754D03*
D03*
D02*
D11*
X25053Y106549D03*
D03*
D02*
D12*
Y46549D03*
D03*
Y66549D03*
D03*
Y86549D03*
D03*
X66982Y253793D03*
D03*
Y315604D03*
D03*
D02*
D13*
X173675Y263045D03*
D03*
Y273045D03*
D03*
X183675Y263045D03*
D03*
Y273045D03*
D03*
X193675Y263045D03*
D03*
Y273045D03*
D03*
X203675Y263045D03*
D03*
Y273045D03*
D03*
X213675Y263045D03*
D03*
Y273045D03*
D03*
X223675Y263045D03*
D03*
Y273045D03*
D03*
X233675Y263045D03*
D03*
Y273045D03*
D03*
X243675Y263045D03*
D03*
Y273045D03*
D03*
D02*
D14*
X235683Y34699D03*
D03*
Y60289D03*
D03*
X253400Y34699D03*
D03*
Y60289D03*
D03*
D02*
D15*
X79974Y302199D03*
D03*
D02*
D16*
Y272199D03*
D03*
Y282199D03*
D03*
Y292199D03*
D03*
X89974Y267199D03*
D03*
Y277199D03*
D03*
Y287199D03*
D03*
Y297199D03*
D03*
D02*
D17*
X38990Y258557D03*
D03*
Y268557D03*
D03*
Y300841D03*
D03*
Y310841D03*
D03*
D02*
D18*
X54974Y262199D03*
D03*
Y307199D03*
D03*
D02*
D19*
X156313Y51628D03*
D03*
X166313D03*
D03*
X176313D03*
D03*
X186313D03*
D03*
X196313D03*
D03*
D02*
D71*
X2612Y84106D02*
Y17964D01*
G75*
G02X23547Y12848I9843J-5115*
G01*
G75*
G02X17570Y3006I-11093*
G01*
X248678*
G75*
G02X242701Y12848I5115J9843*
G01*
G75*
G02X263636Y17964I11093*
G01*
Y23872*
G75*
G03X259699Y27809I-3937*
G01*
X247888*
G75*
G03X243951Y23872J-3937*
G01*
Y22297*
G75*
G02X240014Y18360I-3937*
G01*
X36864*
G75*
G02X17179Y38045J19685*
G01*
Y302612*
G75*
G02X38833Y324266I21654*
G01*
X225841*
G75*
G02X249463Y300644J-23622*
G01*
Y86864*
G75*
G03X255368Y80959I5906*
G01*
X258518*
G75*
G03X263636Y86077J5118*
G01*
Y334983*
G75*
G02X242913Y339620I-9843J4637*
G01*
G75*
G02X249157Y349463I10880*
G01*
X17091*
G75*
G02X23335Y339620I-4637J-9843*
G01*
G75*
G02X2612Y334983I-10880*
G01*
Y88993*
G75*
G02X9398Y86549I2953J-2443*
G01*
G75*
G02X2612Y84106I-3833*
G01*
Y78596*
G75*
G03X4974Y76234I2362*
G01*
X8970*
Y84791*
G75*
G02X2612Y84106I-3406J1758*
G01*
Y225644D02*
Y88993D01*
G75*
G02X8970Y88307I2953J-2443*
G01*
Y142573*
G75*
G02X9628Y144263I2500*
G01*
Y148398*
X19874*
Y149856*
G75*
G03X19344Y150385I-529*
G01*
X15407*
G75*
G02X10378Y155415J5030*
G01*
Y157150*
X8156*
Y177209*
X10407*
Y179778*
G75*
G02X16344Y185715I5937*
G01*
X17740*
Y186697*
X23055*
Y204384*
G75*
G02X34502Y215831I11447*
G01*
X38961*
Y225644*
X2612*
Y334983D02*
Y193951D01*
X23055*
Y204384*
G75*
G02X34502Y215831I11447*
G01*
X38961*
Y225841*
X27022*
G75*
G02X17179Y235683J9843*
G01*
Y240407*
X16785Y300644*
G75*
G02X40407Y324266I23622*
G01*
X225841*
G75*
G02X249463Y300644J-23622*
G01*
Y245919*
G75*
G02X239620Y236077I-9843*
G01*
X204187*
G75*
G03X194344Y226234J-9843*
G01*
Y186864*
G75*
G03X204187Y177022I9843*
G01*
X239620*
G75*
G02X249463Y167179J-9843*
G01*
Y86864*
G75*
G03X255368Y80959I5906*
G01*
X258124*
G75*
G03X264030Y86864J5906*
G01*
Y335933*
G75*
G02X242913Y339620I-10236J3687*
G01*
G75*
G02X250107Y349856I10880*
G01*
X16141*
G75*
G02X23335Y339620I-3687J-10236*
G01*
G75*
G02X2612Y334983I-10880*
G01*
X10093Y250D02*
X256156D01*
G75*
G03X265998Y10093J9843*
G01*
Y341982*
G75*
G03X256156Y351825I-9843*
G01*
X10093*
G75*
G03X250Y341982J-9843*
G01*
Y10093*
G75*
G03X10093Y250I9843*
G01*
X10289Y52415D02*
Y39423D01*
G75*
G03X16195Y33518I5906*
G01*
X103793*
G75*
G03X105762Y35486J1969*
G01*
Y40407*
G75*
G03X103793Y42376I-1969*
G01*
X69738*
G75*
G02X67770Y44344J1969*
G01*
Y45722*
G75*
G03X67423Y46897I-2165*
G01*
Y39350*
X59848*
Y47425*
X66942*
G75*
G03X65604Y47888I-1338J-1703*
G01*
X34896*
G75*
G02X33124Y49659J1772*
G01*
Y50447*
G75*
G03X31156Y52415I-1969*
G01*
X26185*
G75*
G02X25914Y52246I-924J1182*
G01*
G75*
G02X30815Y46549I-861J-5697*
G01*
G75*
G02X19291I-5762*
G01*
G75*
G02X24193Y52246I5762*
G01*
G75*
G02X23921Y52415I653J1351*
G01*
X10289*
X89272Y40165D02*
X98236D01*
Y34350*
X89272*
Y40165*
X99213Y37061D02*
G75*
G02X104831I2809D01*
G01*
G75*
G02X99213I-2809*
G01*
X51384Y47425D02*
X58959D01*
Y39350*
X51384*
Y47425*
X12455Y3006D02*
X253793D01*
G75*
G03X263636Y12848J9843*
G01*
Y340014*
G75*
G03X254187Y349463I-9449*
G01*
X12455*
G75*
G03X2612Y339620J-9843*
G01*
Y12848*
G75*
G03X12455Y3006I9843*
G01*
X13242Y142723D02*
Y146473D01*
X15430*
X16055Y146161*
X16367Y145535*
X16055Y144911*
X15430Y144598*
X13242*
X15430D02*
X16367Y142723D01*
X18867D02*
X20117D01*
X19492D02*
Y146473D01*
X18867Y145848*
X13970Y78203D02*
Y60540D01*
G75*
G03X19994Y53916I8327J1521*
G01*
X23919*
G75*
G02X24846Y53596I2J-1500*
G01*
X25260*
G75*
G02X26185Y53916I925J-1181*
G01*
X31156*
G75*
G02X32609Y53596J-3469*
G01*
X51384*
Y56425*
X58959*
Y53596*
X59848*
Y56425*
X67423*
Y53596*
X68707*
Y61150*
X76281*
Y53596*
X77762*
Y61346*
X84957*
G75*
G02X81352Y66785I2300J5439*
G01*
Y76825*
G75*
G02X87258Y82730I5906*
G01*
X137455*
G75*
G03X141392Y86667J3937*
G01*
Y94344*
G75*
G03X137455Y98281I-3937*
G01*
X127272*
Y84154*
X118898*
Y98281*
X76431*
G75*
G03X71116Y92967J-5315*
G01*
Y66392*
G75*
G02X66589Y61864I-4528*
G01*
X42376*
G75*
G02X37455Y66785J4921*
G01*
Y78203*
X13970*
X19291Y66549D02*
G75*
G02X30815I5762D01*
G01*
G75*
G02X19291I-5762*
G01*
X13970Y139898D02*
Y76234D01*
X64030*
G75*
G03X67573Y79778J3543*
G01*
Y80906*
X57382*
Y91642*
X67573*
Y96313*
G75*
G02X72297Y101037I4724*
G01*
X103793*
G75*
G03X109699Y106943J5906*
G01*
Y122343*
X97933*
Y132882*
X109699*
Y154035*
X102067*
Y163000*
X109699*
Y163120*
X90211*
G75*
G02X89063Y163242I0J5439*
G01*
X87848*
G75*
G02X83911Y167179J3937*
G01*
Y179778*
G75*
G02X87848Y183715I3937*
G01*
X89423*
G75*
G03X93360Y187652J3937*
G01*
Y217770*
G75*
G03X85486Y225644I-7874*
G01*
X68232*
Y215720*
X78990*
G75*
G02X81913Y212797J-2923*
G01*
Y212524*
X86835*
Y195850*
X71146*
Y209874*
X68232*
Y199539*
X38961*
Y209866*
X34502*
G75*
G03X29020Y204384J-5482*
G01*
Y186018*
X29825*
G75*
G02X36262Y179581J-6437*
G01*
Y177209*
X38014*
Y172504*
X38547*
G75*
G02X42642Y169679I1073J-2825*
G01*
G75*
G02X38547Y166854I-3022*
G01*
X37801*
Y162362*
X29722*
Y166996*
X32878*
G75*
G02X32504Y167150I883J2684*
G01*
X29510*
Y177209*
X31262*
Y179581*
G75*
G03X29825Y181018I-1437*
G01*
X28823*
Y180339*
X17740*
Y181715*
X16344*
G75*
G03X14407Y179778J-1937*
G01*
Y177209*
X16659*
Y157150*
X14437*
Y155415*
G75*
G03X15407Y154445I970*
G01*
X19344*
G75*
G02X23933Y149856J-4589*
G01*
Y148398*
X24730*
Y139898*
X23904*
Y137358*
X30620*
Y129283*
X23443*
Y132044*
G75*
G02X23333Y131922I-1541J1277*
G01*
Y129071*
X15730*
Y137571*
X19904*
Y139898*
X13970*
X86713Y162803D02*
X97646D01*
Y153839*
X86713*
Y162803*
X76500Y133094D02*
X83094D01*
Y122130*
X64256*
Y133094*
X70850*
Y139846*
X57307*
Y133646*
X46343*
Y141815*
X36864*
G75*
G02X36090Y141919J2923*
G01*
X32463*
Y150719*
X41266*
Y147661*
X71047*
Y153508*
G75*
G02X70850Y154581I2825J1073*
G01*
G75*
G02X76894I3022*
G01*
G75*
G02X76697Y153508I-3022*
G01*
Y145491*
G75*
G02X76795Y144738I-2826J-752*
G01*
Y142770*
G75*
G02X76697Y142018I-2922*
G01*
Y141195*
G75*
G02X76500Y140159I-2826*
G01*
Y133094*
X41689Y192476D02*
X47504D01*
Y179969*
X41689*
Y192476*
X46555Y161917D02*
X57094D01*
Y151181*
X46555*
Y161917*
X59689Y192476D02*
X65504D01*
Y179969*
X59689*
Y192476*
X29510Y162209D02*
X38014D01*
Y157150*
X29510*
Y162209*
X32463Y137321D02*
X41266D01*
Y128522*
X39787*
Y113242*
G75*
G02X31028Y103664I-9616*
G01*
Y100575*
X19079*
Y112524*
X31028*
Y109571*
G75*
G03X33941Y113242I-856J3671*
G01*
Y128522*
X32463*
Y137321*
X19291Y86549D02*
G75*
G02X30815I5762D01*
G01*
G75*
G02X19291I-5762*
G01*
X16929Y174319D02*
X29240D01*
Y160039*
X16929*
Y174319*
X18163Y131502D02*
Y135252D01*
X20351*
X20976Y134940*
X21289Y134315*
X20976Y133690*
X20351Y133378*
X18163*
X20351D02*
X21289Y131502D01*
X25663D02*
X23163D01*
X25351Y133690*
X25663Y134315*
X25351Y134940*
X24726Y135252*
X23789*
X23163Y134940*
X19148Y53006D02*
Y38636D01*
G75*
G03X24463Y33321I5315*
G01*
X112848*
G75*
G03X118754Y39226J5906*
G01*
Y193754*
G75*
G02X120722Y195722I1969*
G01*
X125250*
G75*
G03X127219Y197691J1969*
G01*
Y209896*
G75*
G03X123281Y213833I-3937*
G01*
X101037*
G75*
G03X97100Y209896J-3937*
G01*
Y115014*
G75*
G02X57730Y75644I-39370*
G01*
X44935*
G75*
G03X39030Y69738J-5906*
G01*
Y63833*
G75*
G02X33124Y57927I-5906*
G01*
X24069*
G75*
G03X19148Y53006J-4921*
G01*
X104528Y187258D02*
G75*
G02X110146I2809D01*
G01*
G75*
G02X104528I-2809*
G01*
Y193557D02*
G75*
G02X110146I2809D01*
G01*
G75*
G02X104528I-2809*
G01*
Y199266D02*
G75*
G02X110146I2809D01*
G01*
G75*
G02X104528I-2809*
G01*
Y210683D02*
G75*
G02X110146I2809D01*
G01*
G75*
G02X107880Y207927I-2809*
G01*
G75*
G02X110146Y205171I-544J-2756*
G01*
G75*
G02X104528I-2809*
G01*
G75*
G02X106793Y207927I2809*
G01*
G75*
G02X104528Y210683I544J2756*
G01*
X99213Y37061D02*
G75*
G02X104831I2809D01*
G01*
G75*
G02X99213I-2809*
G01*
X92913Y69738D02*
G75*
G02X98531I2809D01*
G01*
G75*
G02X92913I-2809*
G01*
X45819Y68754D02*
G75*
G02X53894I4037D01*
G01*
G75*
G02X45819I-4037*
G01*
X19291Y46549D02*
G75*
G02X30815I5762D01*
G01*
G75*
G02X19291I-5762*
G01*
X22273Y182324D02*
X21960Y182012D01*
X21335Y181699*
X20398*
X19773Y182012*
X19460Y182324*
X19148Y182949*
Y184199*
X19460Y184824*
X19773Y185137*
X20398Y185449*
X21335*
X21960Y185137*
X22273Y184824*
X26648Y181699D02*
X24148D01*
X26335Y183887*
X26648Y184512*
X26335Y185137*
X25710Y185449*
X24773*
X24148Y185137*
X24022Y168117D02*
X25272D01*
X24647D02*
Y171867D01*
X24022D02*
X25272D01*
X31210Y168742D02*
X30897Y168429D01*
X30272Y168117*
X29335*
X28710Y168429*
X28397Y168742*
X28085Y169367*
Y170617*
X28397Y171242*
X28710Y171554*
X29335Y171867*
X30272*
X30897Y171554*
X31210Y171242*
X33710Y168117D02*
X34960D01*
X34335D02*
Y171867D01*
X33710Y171242*
X26616Y106549D02*
X26303Y106237D01*
X25991Y105612*
X26303Y104987*
X26616Y104674*
X29741*
Y104049*
Y104674D02*
Y105924D01*
X25991Y100924D02*
Y99674D01*
Y100299D02*
X29741D01*
X29116Y100924*
X26431Y237014D02*
Y240764D01*
X28619*
X29244Y240452*
X29556Y239827*
X29244Y239202*
X28619Y238889*
X26431*
X28619D02*
X29556Y237014D01*
X32056D02*
X33306D01*
X32681D02*
Y240764D01*
X32056Y240139*
X37994Y237014D02*
Y240764D01*
X36431Y238264*
X38931*
X38683Y135289D02*
X34933D01*
Y138415*
X36807Y137789D02*
Y135289D01*
X37745Y140289D02*
X38370Y140602D01*
X38683Y141227*
Y142477*
X38370Y143102*
X37745Y143415*
X37120Y143102*
X36807Y142477*
Y141227*
X36495Y140602*
X35870Y140289*
X35245Y140602*
X34933Y141227*
Y142477*
X35245Y143102*
X35870Y143415*
X38683Y147789D02*
Y145289D01*
X36495Y147477*
X35870Y147789*
X35245Y147477*
X34933Y146852*
Y145915*
X35245Y145289*
X40864Y128620D02*
Y150620D01*
X32864*
Y128620*
X40864*
X49463Y282521D02*
X49775Y282209D01*
X50400Y281896*
X51025Y282209*
X51338Y282521*
Y285646*
X51963*
X51338D02*
X50088D01*
X56025Y281896D02*
Y285646D01*
X54463Y283146*
X56963*
X50887Y147888D02*
X47137D01*
Y149763*
X47450Y150388*
X47762Y150700*
X48387Y151013*
X49637*
X50262Y150700*
X50575Y150388*
X50887Y149763*
Y147888*
Y155388D02*
Y152888D01*
X48700Y155075*
X48075Y155388*
X47450Y155075*
X47137Y154450*
Y153513*
X47450Y152888*
X51825Y236424D02*
Y240174D01*
X54012*
X54637Y239861*
X54950Y239236*
X54637Y238611*
X54012Y238299*
X51825*
X54012D02*
X54950Y236424D01*
X57450D02*
X58700D01*
X58075D02*
Y240174D01*
X57450Y239549*
X61825Y236736D02*
X62450Y236424D01*
X63387*
X64012Y236736*
X64325Y237361*
Y237674*
X64012Y238299*
X63387Y238611*
X61825*
Y240174*
X64325*
X51517Y202065D02*
X47767D01*
Y203940*
X48080Y204565*
X48392Y204878*
X49017Y205190*
X50267*
X50892Y204878*
X51205Y204565*
X51517Y203940*
Y202065*
Y207690D02*
Y208940D01*
Y208315D02*
X47767D01*
X48392Y207690*
X55971Y44714D02*
X56283Y44401D01*
X56596Y43776*
Y42839*
X56283Y42214*
X55971Y41901*
X55346Y41589*
X54096*
X53471Y41901*
X53158Y42214*
X52846Y42839*
Y43776*
X53158Y44401*
X53471Y44714*
X56596Y47214D02*
Y48464D01*
Y47839D02*
X52846D01*
X53471Y47214*
X56596Y54089D02*
Y51589D01*
X54408Y53776*
X53783Y54089*
X53158Y53776*
X52846Y53151*
Y52214*
X53158Y51589*
X58671Y39888D02*
Y55888D01*
X51671*
Y39888*
X58671*
X61714Y77612D02*
X57964D01*
Y79487*
X58276Y80112*
X58589Y80425*
X59214Y80737*
X60464*
X61089Y80425*
X61402Y80112*
X61714Y79487*
Y77612*
Y84175D02*
X57964D01*
X60464Y82612*
Y85112*
X64829Y48060D02*
X65142Y47748D01*
X65454Y47122*
Y46185*
X65142Y45560*
X64829Y45248*
X64204Y44935*
X62954*
X62329Y45248*
X62017Y45560*
X61704Y46185*
Y47122*
X62017Y47748*
X62329Y48060*
X65454Y49935D02*
X61704Y52435D01*
Y49935*
X67136Y39888D02*
Y55888D01*
X60136*
Y39888*
X67136*
X73687Y51997D02*
X74000Y51685D01*
X74313Y51059*
Y50122*
X74000Y49497*
X73687Y49185*
X73063Y48872*
X71813*
X71187Y49185*
X70875Y49497*
X70563Y50122*
Y51059*
X70875Y51685*
X71187Y51997*
X74313Y54809D02*
X74000Y55435D01*
X73375Y56059*
X72437Y56372*
X71500*
X70875Y56059*
X70563Y55435*
Y54809*
X70875Y54185*
X71500Y53872*
X72125Y54185*
X72437Y54809*
Y55435*
X72125Y56059*
X71500Y56372*
X75994Y44612D02*
Y60612D01*
X68994*
Y44612*
X75994*
X82546Y52391D02*
X82858Y52078D01*
X83171Y51453*
Y50516*
X82858Y49891*
X82546Y49578*
X81921Y49266*
X80671*
X80046Y49578*
X79733Y49891*
X79421Y50516*
Y51453*
X79733Y52078*
X80046Y52391*
X82858Y54266D02*
X83171Y54891D01*
Y55828*
X82858Y56453*
X82233Y56766*
X81921*
X81296Y56453*
X80983Y55828*
Y54266*
X79421*
Y56766*
X85049Y44809D02*
Y60809D01*
X78049*
Y44809*
X85049*
X85337Y61201D02*
Y53596D01*
X89272*
Y58276*
X98236*
Y53596*
X104384*
G75*
G03X106549Y55762J2165*
G01*
Y58715*
G75*
G03X104384Y60880I-2165*
G01*
X87258*
G75*
G02X85337Y61201J5906*
G01*
X87809Y165437D02*
G75*
G03X90211Y164620I2401J3120D01*
G01*
X114817*
G75*
G03X118754Y168557J3937*
G01*
Y193754*
G75*
G02X120722Y195722I1969*
G01*
X125250*
G75*
G03X125948Y195850J1969*
G01*
X111697*
Y212524*
X126213*
G75*
G03X123281Y213833I-2931J-2628*
G01*
X101037*
G75*
G03X97100Y209896J-3937*
G01*
Y176825*
X90211*
G75*
G03X86784Y174827J-3937*
G01*
X97858*
Y165437*
X87809*
X101854Y175024D02*
X113213D01*
Y165634*
X101854*
Y175024*
X104315Y187258D02*
G75*
G02X110358I3022D01*
G01*
G75*
G02X104315I-3022*
G01*
Y210683D02*
G75*
G02X110358I3022D01*
G01*
G75*
G02X108576Y207927I-3022*
G01*
G75*
G02X107978Y202219I-1239J-2756*
G01*
G75*
G02X108328Y196411I-642J-2953*
G01*
G75*
G02X110358Y193557I-992J-2854*
G01*
G75*
G02X104315I-3022*
G01*
G75*
G02X106345Y196411I3022*
G01*
G75*
G02X106695Y202219I992J2854*
G01*
G75*
G02X106098Y207927I642J2953*
G01*
G75*
G02X104315Y210683I1239J2756*
G01*
X91170Y126813D02*
X90858Y126500D01*
X90233Y126187*
X89295*
X88670Y126500*
X88358Y126813*
X88045Y127437*
Y128687*
X88358Y129313*
X88670Y129625*
X89295Y129937*
X90233*
X90858Y129625*
X91170Y129313*
X93670Y126187D02*
X94920D01*
X94295D02*
Y129937D01*
X93670Y129313*
X94148Y205134D02*
Y201384D01*
X97273*
X99773D02*
X101023D01*
X100398D02*
Y205134D01*
X99773Y204509*
X93766Y163611D02*
X94079Y163299D01*
X94391Y162674*
Y161736*
X94079Y161111*
X93766Y160799*
X93141Y160486*
X91891*
X91266Y160799*
X90954Y161111*
X90641Y161736*
Y162674*
X90954Y163299*
X91266Y163611*
X94079Y165799D02*
X94391Y166424D01*
Y167049*
X94079Y167674*
X93454Y167986*
X92829Y167674*
X92516Y167049*
Y166424*
Y167049D02*
X92204Y167674D01*
X91579Y167986*
X90954Y167674*
X90641Y167049*
Y166424*
X90954Y165799*
X95526Y70676D02*
Y74426D01*
X97401*
X98026Y74113*
X98338Y73801*
X98651Y73176*
Y71926*
X98338Y71301*
X98026Y70988*
X97401Y70676*
X95526*
X100838Y70988D02*
X101463Y70676D01*
X102088*
X102713Y70988*
X103026Y71613*
X102713Y72238*
X102088Y72551*
X101463*
X102088D02*
X102713Y72863D01*
X103026Y73488*
X102713Y74113*
X102088Y74426*
X101463*
X100838Y74113*
X98872Y66982D02*
G75*
G03X98957Y66170I3936D01*
G01*
Y73984*
X107055*
Y65492*
X99165*
G75*
G03X102809Y63045I3644J1490*
G01*
X104778*
G75*
G02X108715Y59108J-3937*
G01*
Y39030*
G75*
G03X114620Y33124I5906*
G01*
X194344*
G75*
G03X202219Y40998J7874*
G01*
Y67573*
X190998*
Y48478*
G75*
G02X187061Y44541I-3937*
G01*
X136470*
G75*
G02X130565Y50447J5906*
G01*
Y73085*
G75*
G03X127272Y78381I-5906*
G01*
Y64469*
X118898*
Y78945*
X125389*
G75*
G03X124659Y78990I-730J-5861*
G01*
X100841*
G75*
G03X98872Y77022J-1969*
G01*
Y66982*
X192276Y55665D02*
X200350D01*
Y47591*
X192276*
Y55665*
X114075Y53650D02*
X123039D01*
Y38976*
X114075*
Y53650*
X102172Y45282D02*
X103422D01*
X102797D02*
Y49032D01*
X102172D02*
X103422D01*
X109359Y45907D02*
X109047Y45594D01*
X108422Y45282*
X107484*
X106859Y45594*
X106547Y45907*
X106234Y46532*
Y47782*
X106547Y48407*
X106859Y48720*
X107484Y49032*
X108422*
X109047Y48720*
X109359Y48407*
X113734Y45282D02*
X111234D01*
X113422Y47470*
X113734Y48094*
X113422Y48720*
X112797Y49032*
X111859*
X111234Y48720*
X108727Y163415D02*
X109039Y163102D01*
X109352Y162477*
Y161539*
X109039Y160915*
X108727Y160602*
X108102Y160289*
X106852*
X106227Y160602*
X105914Y160915*
X105602Y161539*
Y162477*
X105914Y163102*
X106227Y163415*
X109352Y166852D02*
X105602D01*
X108102Y165289*
Y167789*
X116761Y314017D02*
X116448Y313705D01*
X115823Y313392*
X114886*
X114261Y313705*
X113948Y314017*
X113636Y314642*
Y315892*
X113948Y316517*
X114261Y316830*
X114886Y317142*
X115823*
X116448Y316830*
X116761Y316517*
X119261Y313392D02*
X120511D01*
X119886D02*
Y317142D01*
X119261Y316517*
X124573Y313392D02*
X125198Y313705D01*
X125823Y314330*
X126136Y315267*
Y316205*
X125823Y316830*
X125198Y317142*
X124573*
X123948Y316830*
X123636Y316205*
X123948Y315580*
X124573Y315267*
X125198*
X125823Y315580*
X126136Y316205*
X115211Y300597D02*
Y304347D01*
X117398*
X118023Y304035*
X118336Y303409*
X118023Y302785*
X117398Y302472*
X115211*
X117398D02*
X118336Y300597D01*
X120836D02*
X122086D01*
X121461D02*
Y304347D01*
X120836Y303722*
X127711Y300597D02*
X125211D01*
X127398Y302785*
X127711Y303409*
X127398Y304035*
X126773Y304347*
X125836*
X125211Y304035*
X115801Y291542D02*
Y295292D01*
X117989*
X118614Y294980*
X118926Y294354*
X118614Y293730*
X117989Y293417*
X115801*
X117989D02*
X118926Y291542D01*
X121426D02*
X122676D01*
X122051D02*
Y295292D01*
X121426Y294667*
X126114Y291854D02*
X126739Y291542D01*
X127364*
X127989Y291854*
X128301Y292480*
X127989Y293104*
X127364Y293417*
X126739*
X127364D02*
X127989Y293730D01*
X128301Y294354*
X127989Y294980*
X127364Y295292*
X126739*
X126114Y294980*
X121285Y83226D02*
X121598Y82914D01*
X121911Y82289*
Y81351*
X121598Y80726*
X121285Y80414*
X120661Y80101*
X119411*
X118785Y80414*
X118473Y80726*
X118161Y81351*
Y82289*
X118473Y82914*
X118785Y83226*
X121911Y85726D02*
Y86976D01*
Y86351D02*
X118161D01*
X118785Y85726*
X120973Y90101D02*
X120348Y90414D01*
X120035Y91039*
Y91664*
X120348Y92289*
X120973Y92601*
X121598Y92289*
X121911Y91664*
Y91039*
X121598Y90414*
X120973Y90101*
X120035*
X119098Y90414*
X118473Y91039*
X118161Y91664*
X126431Y284943D02*
Y281193D01*
X124244*
X123619Y281505*
X123306Y282130*
X123619Y282755*
X124244Y283067*
X126431*
X124244D02*
X123306Y284943D01*
X120806D02*
X119556D01*
X120181D02*
Y281193D01*
X120806Y281817*
X115806Y284943D02*
X114556D01*
X115181D02*
Y281193D01*
X115806Y281817*
X127612Y275691D02*
Y271941D01*
X125425*
X124800Y272253*
X124487Y272878*
X124800Y273503*
X125425Y273815*
X127612*
X125425D02*
X124487Y275691D01*
X121987D02*
X120737D01*
X121362D02*
Y271941D01*
X121987Y272565*
X117300Y275378D02*
X116675Y275691D01*
X116050*
X115425Y275378*
X115112Y274753*
Y272878*
X115425Y272253*
X116050Y271941*
X116675*
X117300Y272253*
X117612Y272878*
Y274753*
X117300Y275378*
X115425Y272253*
X131722Y122482D02*
X131409Y122169D01*
X130784Y121857*
X129846*
X129222Y122169*
X128909Y122482*
X128596Y123107*
Y124357*
X128909Y124982*
X129222Y125294*
X129846Y125607*
X130784*
X131409Y125294*
X131722Y124982*
X136096Y121857D02*
X133596D01*
X135784Y124044*
X136096Y124669*
X135784Y125294*
X135159Y125607*
X134222*
X133596Y125294*
X140159Y121857D02*
Y125607D01*
X138596Y123107*
X141096*
X129116Y318317D02*
X113116D01*
Y311317*
X129116*
Y318317*
X132706Y133309D02*
X132393Y132996D01*
X131768Y132683*
X130831*
X130206Y132996*
X129893Y133309*
X129581Y133933*
Y135183*
X129893Y135809*
X130206Y136121*
X130831Y136433*
X131768*
X132393Y136121*
X132706Y135809*
X137081Y132683D02*
X134581D01*
X136768Y134871*
X137081Y135496*
X136768Y136121*
X136143Y136433*
X135206*
X134581Y136121*
X139581Y132996D02*
X140206Y132683D01*
X141143*
X141768Y132996*
X142081Y133621*
Y133933*
X141768Y134559*
X141143Y134871*
X139581*
Y136433*
X142081*
X126672Y262073D02*
X126985Y262386D01*
X127610Y262698*
X128547*
X129172Y262386*
X129485Y262073*
X129797Y261448*
Y260198*
X129485Y259573*
X129172Y259261*
X128547Y258948*
X127610*
X126985Y259261*
X126672Y259573*
X124172Y262698D02*
X122922D01*
X123547D02*
Y258948D01*
X124172Y259573*
X119797Y262386D02*
X119172Y262698D01*
X118235*
X117610Y262386*
X117297Y261761*
Y261448*
X117610Y260823*
X118235Y260511*
X119797*
Y258948*
X117297*
X133100Y166183D02*
X132787Y165870D01*
X132162Y165557*
X131224*
X130600Y165870*
X130287Y166183*
X129974Y166807*
Y168057*
X130287Y168683*
X130600Y168995*
X131224Y169307*
X132162*
X132787Y168995*
X133100Y168683*
X135600Y165557D02*
X136850D01*
X136224D02*
Y169307D01*
X135600Y168683*
X140912Y167433D02*
X141537D01*
X142162Y167745*
X142474Y168370*
X142162Y168995*
X141537Y169307*
X140912*
X140287Y168995*
X139974Y168370*
X140287Y167745*
X140912Y167433*
X140287Y167120*
X139974Y166495*
X140287Y165870*
X140912Y165557*
X141537*
X142162Y165870*
X142474Y166495*
X142162Y167120*
X141537Y167433*
X130297Y265364D02*
X114297D01*
Y258364*
X130297*
Y265364*
X139005Y238427D02*
X138693Y238114D01*
X138067Y237802*
X137130*
X136505Y238114*
X136193Y238427*
X135880Y239052*
Y240302*
X136193Y240927*
X136505Y241239*
X137130Y241552*
X138067*
X138693Y241239*
X139005Y240927*
X143380Y237802D02*
X140880D01*
X143067Y239989*
X143380Y240614*
X143067Y241239*
X142443Y241552*
X141505*
X140880Y241239*
X146193Y238114D02*
X146817Y237802D01*
X147443*
X148067Y238114*
X148380Y238739*
Y240614*
X148067Y241239*
X147443Y241552*
X146817*
X146193Y241239*
X145880Y240614*
Y238739*
X146193Y238114*
X148067Y241239*
X138451Y226210D02*
X138764Y225897D01*
X139076Y225272*
Y224335*
X138764Y223710*
X138451Y223397*
X137826Y223085*
X136576*
X135951Y223397*
X135639Y223710*
X135326Y224335*
Y225272*
X135639Y225897*
X135951Y226210*
X139076Y230585D02*
Y228085D01*
X136889Y230272*
X136264Y230585*
X135639Y230272*
X135326Y229647*
Y228710*
X135639Y228085*
X139076Y233710D02*
Y234960D01*
Y234335D02*
X135326D01*
X135951Y233710*
X143486Y127372D02*
X127486D01*
Y120372*
X143486*
Y127372*
Y138199D02*
X127486D01*
Y131199*
X143486*
Y138199*
X144750Y59128D02*
X148500D01*
Y56941*
X148188Y56315*
X147563Y56003*
X146938Y56315*
X146626Y56941*
Y59128*
X148500Y54128D02*
X144750D01*
Y51003*
Y48503D02*
Y47253D01*
Y47878D02*
X148500D01*
X147876Y48503*
X143407Y305368D02*
X139657D01*
Y308493*
X141532Y307868D02*
Y305368D01*
X139657Y310368D02*
X143407D01*
Y313493*
Y315993D02*
Y317243D01*
Y316618D02*
X139657D01*
X140282Y315993*
X145376Y150053D02*
X141626D01*
Y152241*
X141938Y152866*
X142563Y153178*
X143188Y152866*
X143500Y152241*
Y150053*
Y152241D02*
X145376Y153178D01*
X144438Y155053D02*
X143813Y155366D01*
X143500Y155991*
Y156616*
X143813Y157241*
X144438Y157553*
X145063Y157241*
X145376Y156616*
Y155991*
X145063Y155366*
X144438Y155053*
X143500*
X142563Y155366*
X141938Y155991*
X141626Y156616*
X150841Y82927D02*
G75*
G03X158715Y75053I7874D01*
G01*
X208577*
Y75986*
X205766Y78797*
G75*
G02X205033Y80565I1768J1768*
G01*
Y83742*
X190280*
Y82742*
X194689*
Y83016*
X200693*
Y78469*
X194689*
Y78742*
X190280*
Y78213*
X180496*
Y98836*
G75*
G02X179184Y99427I69J1906*
G01*
X179043Y99574*
Y94685*
X169094*
Y100902*
X163245*
X163114Y100771*
Y94866*
X162683*
Y92833*
X166142*
Y84833*
X157642*
Y92833*
X158683*
Y94866*
X153528*
Y102091*
X159039*
X161082Y104134*
X153346*
Y111720*
X163295*
Y104717*
X169276*
Y111539*
X172069*
Y111998*
X168610*
Y119998*
X177110*
Y111998*
X176069*
Y111539*
X178862*
Y107650*
X180496*
Y108031*
X180315*
Y113453*
X180496*
Y120999*
G75*
G03X178392Y122839I-3474J-1852*
G01*
X176520*
Y123085*
X158518*
G75*
G03X150841Y115407J-7677*
G01*
Y82927*
X166461Y93014D02*
X175323D01*
Y84652*
X166461*
Y93014*
X159429Y120179D02*
X168291D01*
Y111817*
X159429*
Y120179*
X154037Y149856D02*
X150287D01*
Y152044*
X150599Y152669*
X151224Y152981*
X151849Y152669*
X152162Y152044*
Y149856*
Y152044D02*
X154037Y152981D01*
Y154856D02*
X150287Y157356D01*
Y154856*
X154396Y224903D02*
Y223028D01*
X155959Y221153*
X154396Y223028D02*
X152833Y221153D01*
X148459Y224903D02*
X150959D01*
X148771Y222715*
X148459Y222091*
X148771Y221465*
X149396Y221153*
X150333*
X150959Y221465*
X158392Y85333D02*
X174392D01*
Y92333*
X158392*
Y85333*
X158565Y194101D02*
Y195351D01*
Y194726D02*
X154815D01*
Y194101D02*
Y195351D01*
X157939Y201289D02*
X158252Y200976D01*
X158565Y200351*
Y199413*
X158252Y198789*
X157939Y198476*
X157315Y198163*
X156065*
X155439Y198476*
X155127Y198789*
X154815Y199413*
Y200351*
X155127Y200976*
X155439Y201289*
X158565Y204726D02*
X154815D01*
X157315Y203163*
Y205663*
X163415Y88624D02*
X163102Y88311D01*
X162477Y87998*
X161539*
X160915Y88311*
X160602Y88624*
X160289Y89248*
Y90498*
X160602Y91124*
X160915Y91436*
X161539Y91748*
X162477*
X163102Y91436*
X163415Y91124*
X167789Y87998D02*
X165289D01*
X167477Y90186*
X167789Y90811*
X167477Y91436*
X166852Y91748*
X165915*
X165289Y91436*
X170602Y88311D02*
X171227Y87998D01*
X171852*
X172477Y88311*
X172789Y88936*
X172477Y89561*
X171852Y89874*
X171227*
X171852D02*
X172477Y90186D01*
X172789Y90811*
X172477Y91436*
X171852Y91748*
X171227*
X170602Y91436*
X164989Y114805D02*
X164677Y114492D01*
X164052Y114180*
X163114*
X162489Y114492*
X162177Y114805*
X161864Y115430*
Y116680*
X162177Y117305*
X162489Y117617*
X163114Y117930*
X164052*
X164677Y117617*
X164989Y117305*
X169364Y114180D02*
X166864D01*
X169052Y116367*
X169364Y116992*
X169052Y117617*
X168427Y117930*
X167489*
X166864Y117617*
X174364Y114180D02*
X171864D01*
X174052Y116367*
X174364Y116992*
X174052Y117617*
X173427Y117930*
X172489*
X171864Y117617*
X164017Y101778D02*
Y103653D01*
X162455Y105528*
X164017Y103653D02*
X165580Y105528D01*
X167767Y102091D02*
X168392Y101778D01*
X169017*
X169642Y102091*
X169955Y102716*
X169642Y103341*
X169017Y103653*
X168392*
X169017D02*
X169642Y103966D01*
X169955Y104591*
X169642Y105216*
X169017Y105528*
X168392*
X167767Y105216*
X162305Y149659D02*
X158555D01*
Y151847*
X158867Y152472*
X159492Y152785*
X160117Y152472*
X160430Y151847*
Y149659*
Y151847D02*
X162305Y152785D01*
X160430Y155597D02*
Y156222D01*
X160117Y156847*
X159492Y157159*
X158867Y156847*
X158555Y156222*
Y155597*
X158867Y154972*
X159492Y154659*
X160117Y154972*
X160430Y155597*
X160742Y154972*
X161367Y154659*
X161992Y154972*
X162305Y155597*
Y156222*
X161992Y156847*
X161367Y157159*
X160742Y156847*
X160430Y156222*
X176360Y119498D02*
X160360D01*
Y112498*
X176360*
Y119498*
X175887Y134305D02*
X172137D01*
Y136493*
X172450Y137118*
X173075Y137430*
X173700Y137118*
X174012Y136493*
Y134305*
Y136493D02*
X175887Y137430D01*
Y139930D02*
Y141180D01*
Y140555D02*
X172137D01*
X172762Y139930*
X174950Y144305D02*
X174325Y144618D01*
X174012Y145243*
Y145868*
X174325Y146493*
X174950Y146805*
X175575Y146493*
X175887Y145868*
Y145243*
X175575Y144618*
X174950Y144305*
X174012*
X173075Y144618*
X172450Y145243*
X172137Y145868*
X190280Y88992D02*
Y87742D01*
X205269*
G75*
G02X210033Y84045I2265J-2000*
G01*
Y81600*
X212844Y78789*
G75*
G02X213577Y77022I-1768J-1768*
G01*
Y75053*
X215014*
G75*
G02X216189Y74707J-2165*
G01*
X224929*
Y66392*
X242611*
G75*
G02X239921Y70329I1537J3937*
G01*
G75*
G02X248374I4226*
G01*
G75*
G02X245685Y66392I-4226*
G01*
X246707*
G75*
G02X248675Y64423J-1969*
G01*
Y32140*
G75*
G03X250644Y30171I1969*
G01*
X256352*
G75*
G03X258321Y32140J1969*
G01*
Y73281*
G75*
G03X254384Y77219I-3937*
G01*
X217179*
G75*
G02X215014Y79384J2165*
G01*
X214817Y121904*
Y137258*
G75*
G02X215998Y138439I1181*
G01*
X216392*
G75*
G03X217126Y138695J1181*
G01*
Y142907*
G75*
G03X216392Y143163I-734J-925*
G01*
X212900*
G75*
G02X211954Y143110I-641J2953*
G01*
G75*
G03X210093Y140801I500J-2309*
G01*
Y120722*
G75*
G02X204187Y114817I-5906*
G01*
X201631*
G75*
G02X197691Y113992I-3940J8997*
G01*
X190280*
Y113453*
X190461*
Y108031*
X190280*
Y97492*
X197100*
G75*
G03X198762Y98257J2187*
G01*
Y103254*
X203313*
Y97246*
X202241*
G75*
G02X197100Y93992I-5140J2433*
G01*
X190280*
Y92492*
X204187*
G75*
G03X206296Y94098J2187*
G01*
X205850*
Y100102*
X210398*
Y94098*
X209844*
G75*
G02X204187Y88992I-5657J581*
G01*
X190280*
X249197Y34699D02*
G75*
G02X257602I4203D01*
G01*
G75*
G02X249197I-4203*
G01*
Y60289D02*
G75*
G02X257602I4203D01*
G01*
G75*
G02X249197I-4203*
G01*
X190061Y190801D02*
X186311D01*
Y192989*
X186623Y193614*
X187248Y193926*
X187873Y193614*
X188185Y192989*
Y190801*
Y192989D02*
X190061Y193926D01*
Y196739D02*
X189748Y197364D01*
X189123Y197989*
X188185Y198301*
X187248*
X186623Y197989*
X186311Y197364*
Y196739*
X186623Y196114*
X187248Y195801*
X187873Y196114*
X188185Y196739*
Y197364*
X187873Y197989*
X187248Y198301*
X198038Y113983D02*
X199288D01*
X198663D02*
Y117733D01*
X198038D02*
X199288D01*
X205226Y114608D02*
X204913Y114295D01*
X204288Y113983*
X203350*
X202726Y114295*
X202413Y114608*
X202100Y115233*
Y116483*
X202413Y117108*
X202726Y117420*
X203350Y117733*
X204288*
X204913Y117420*
X205226Y117108*
X207413Y114295D02*
X208038Y113983D01*
X208663*
X209288Y114295*
X209600Y114920*
X209288Y115545*
X208663Y115858*
X208038*
X208663D02*
X209288Y116170D01*
X209600Y116795*
X209288Y117420*
X208663Y117733*
X208038*
X207413Y117420*
X202219Y153550D02*
Y157300D01*
X204406*
X205031Y156987*
X205344Y156362*
X205031Y155737*
X204406Y155425*
X202219*
X204406D02*
X205344Y153550D01*
X207531Y153862D02*
X208156Y153550D01*
X208781*
X209406Y153862*
X209719Y154487*
X209406Y155112*
X208781Y155425*
X208156*
X208781D02*
X209406Y155737D01*
X209719Y156362*
X209406Y156987*
X208781Y157300*
X208156*
X207531Y156987*
X203006Y162211D02*
Y165961D01*
X205193*
X205819Y165649*
X206131Y165024*
X205819Y164399*
X205193Y164086*
X203006*
X205193D02*
X206131Y162211D01*
X209569D02*
Y165961D01*
X208006Y163461*
X210506*
X207998Y58167D02*
X223998D01*
Y65167*
X207998*
Y58167*
Y67026D02*
X223998D01*
Y74026*
X207998*
Y67026*
X209061Y48872D02*
X212811D01*
Y46685*
X212499Y46059*
X211874Y45747*
X211249Y46059*
X210937Y46685*
Y48872*
Y46685D02*
X209061Y45747D01*
X209374Y43872D02*
X209061Y43247D01*
Y42309*
X209374Y41685*
X209999Y41372*
X210311*
X210937Y41685*
X211249Y42309*
Y43872*
X212811*
Y41372*
X208675Y288880D02*
X208988Y288567D01*
X209613Y288254*
X210238Y288567*
X210550Y288880*
Y292004*
X211175*
X210550D02*
X209300D01*
X216175Y288254D02*
X213675D01*
X215863Y290442*
X216175Y291067*
X215863Y291692*
X215238Y292004*
X214300*
X213675Y291692*
X212627Y69726D02*
X212315Y69413D01*
X211689Y69101*
X210752*
X210127Y69413*
X209815Y69726*
X209502Y70351*
Y71601*
X209815Y72226*
X210127Y72539*
X210752Y72851*
X211689*
X212315Y72539*
X212627Y72226*
X215127Y69101D02*
X216377D01*
X215752D02*
Y72851D01*
X215127Y72226*
X221065Y69101D02*
Y72851D01*
X219502Y70351*
X222002*
X213021Y60277D02*
X212708Y59965D01*
X212083Y59652*
X211146*
X210521Y59965*
X210208Y60277*
X209896Y60902*
Y62152*
X210208Y62777*
X210521Y63090*
X211146Y63402*
X212083*
X212708Y63090*
X213021Y62777*
X215521Y59652D02*
X216771D01*
X216146D02*
Y63402D01*
X215521Y62777*
X219896Y59652D02*
X222396Y63402D01*
X219896*
X222703Y43533D02*
X223016Y43220D01*
X223328Y42595*
Y41657*
X223016Y41033*
X222703Y40720*
X222078Y40407*
X220828*
X220203Y40720*
X219891Y41033*
X219578Y41657*
Y42595*
X219891Y43220*
X220203Y43533*
X223328Y46033D02*
Y47283D01*
Y46657D02*
X219578D01*
X220203Y46033*
X223016Y50720D02*
X223328Y51345D01*
Y51970*
X223016Y52595*
X222391Y52907*
X220516*
X219891Y52595*
X219578Y51970*
Y51345*
X219891Y50720*
X220516Y50407*
X222391*
X223016Y50720*
X219891Y52595*
X224813Y38510D02*
Y54510D01*
X217813*
Y38510*
X224813*
X228246Y151163D02*
Y135163D01*
X235246*
Y151163*
X228246*
X230159Y145747D02*
X229846Y146059D01*
X229534Y146685*
Y147622*
X229846Y148247*
X230159Y148559*
X230784Y148872*
X232034*
X232659Y148559*
X232972Y148247*
X233284Y147622*
Y146685*
X232972Y146059*
X232659Y145747*
X231409Y142935D02*
Y142309D01*
X231722Y141685*
X232346Y141372*
X232972Y141685*
X233284Y142309*
Y142935*
X232972Y143559*
X232346Y143872*
X231722Y143559*
X231409Y142935*
X231096Y143559*
X230472Y143872*
X229846Y143559*
X229534Y142935*
Y142309*
X229846Y141685*
X230472Y141372*
X231096Y141685*
X231409Y142309*
X236249Y156143D02*
X235937Y155831D01*
X235311Y155518*
X234374*
X233749Y155831*
X233437Y156143*
X233124Y156768*
Y158018*
X233437Y158643*
X233749Y158956*
X234374Y159268*
X235311*
X235937Y158956*
X236249Y158643*
X238124Y156456D02*
X238437Y157081D01*
X239061Y157393*
X239687*
X240311Y157081*
X240624Y156456*
X240311Y155831*
X239687Y155518*
X239061*
X238437Y155831*
X238124Y156456*
Y157393*
X238437Y158331*
X239061Y158956*
X239687Y159268*
X237049Y107361D02*
X236736Y107674D01*
X236424Y108299*
Y109236*
X236736Y109861*
X237049Y110174*
X237674Y110486*
X238924*
X239549Y110174*
X239861Y109861*
X240174Y109236*
Y108299*
X239861Y107674*
X239549Y107361*
X236424Y104861D02*
Y103611D01*
Y104236D02*
X240174D01*
X239549Y104861*
X236736Y100174D02*
X236424Y99549D01*
Y98924*
X236736Y98299*
X237361Y97986*
X237986Y98299*
X238299Y98924*
Y99549*
Y98924D02*
X238611Y98299D01*
X239236Y97986*
X239861Y98299*
X240174Y98924*
Y99549*
X239861Y100174*
X236120Y151163D02*
Y135163D01*
X243120*
Y151163*
X236120*
X238820Y146928D02*
X238508Y147241D01*
X238195Y147866*
Y148803*
X238508Y149428*
X238820Y149741*
X239445Y150053*
X240695*
X241320Y149741*
X241633Y149428*
X241945Y148803*
Y147866*
X241633Y147241*
X241320Y146928*
X238195Y144428D02*
Y143178D01*
Y143803D02*
X241945D01*
X241320Y144428*
X238195Y139428D02*
Y138178D01*
Y138803D02*
X241945D01*
X241320Y139428*
X241392Y47794D02*
X241704Y47169D01*
X242329Y46857*
X243579*
X244204Y47169*
X244517Y47794*
X244204Y48419*
X243579Y48732*
X242329*
X241704Y49044*
X241392Y49669*
X241704Y50294*
X242329Y50607*
X243579*
X244204Y50294*
X244517Y49669*
X247017Y46857D02*
X248267D01*
X247642D02*
Y50607D01*
X247017Y49982*
D02*
D20*
X79974Y292199D02*
X100644D01*
X109522Y283321*
X89974Y277199D02*
X105171D01*
X89974D02*
X105368D01*
X108892Y273675*
Y273478*
X117563*
X89974Y297199D02*
X106549D01*
X110289Y293360*
X92179Y167187D02*
Y165187D01*
Y173077D02*
Y175077D01*
X96108Y170132D02*
X98108D01*
X103604Y170329D02*
X101604D01*
X106437Y186359D02*
X105023Y184944D01*
X106437Y188157D02*
X105023Y189571D01*
X106437Y192658D02*
X105023Y191244D01*
X106437Y194456D02*
X105023Y195870D01*
X106437Y198367D02*
X105023Y196952D01*
X106437Y200165D02*
X105023Y201579D01*
X106437Y204272D02*
X105023Y202858D01*
X106437Y206070D02*
X105023Y207485D01*
X106437Y209784D02*
X105023Y208370D01*
X106437Y211582D02*
X105023Y212996D01*
X107533Y167384D02*
Y165384D01*
Y173274D02*
Y175274D01*
X108236Y186359D02*
X109650Y184944D01*
X108236Y188157D02*
X109650Y189571D01*
X108236Y192658D02*
X109650Y191244D01*
X108236Y194456D02*
X109650Y195870D01*
X108236Y198367D02*
X109650Y196952D01*
X108236Y200165D02*
X109650Y201579D01*
X108236Y204272D02*
X109650Y202858D01*
X108236Y206070D02*
X109650Y207485D01*
X108236Y209784D02*
X109650Y208370D01*
X108236Y211582D02*
X109650Y212996D01*
X108892Y273478D02*
X121313D01*
G75*
G02X137061Y257730J-15748*
G01*
Y200644*
G75*
G03X159108Y178596I22047*
G01*
X164620*
G75*
G02X170722Y172494J-6102*
G01*
Y170526*
X109522Y283321D02*
X120722D01*
G75*
G02X139226Y264817J-18504*
G01*
Y202022*
G75*
G03X160683Y180565I21457*
G01*
X167376*
G75*
G02X174069Y173872J-6693*
G01*
Y170526*
X110388Y293360D02*
X117957D01*
X111463Y170329D02*
X113463D01*
X113447Y204187D02*
X111447D01*
X117760Y283321D02*
X109719D01*
X118754Y68557D02*
X110093D01*
Y94541*
X118754*
X119541Y210774D02*
Y212774D01*
X123234Y63839D02*
G75*
G02Y63457J-191D01*
G01*
Y63839D02*
G75*
G02Y63457J-191D01*
G01*
G75*
G02Y63839J191*
G01*
X127415Y68557D02*
X136077D01*
Y94541*
X127415*
X133715Y295722D02*
Y296116D01*
G75*
G03X126825Y303006I-6890*
G01*
X109699*
X136470Y281549D02*
Y284699D01*
G75*
G03X127809Y293360I-8661*
G01*
X110289*
X143557Y157346D02*
Y160289D01*
G75*
G02X145526Y162258I1969*
G01*
X146510*
G75*
G03X149266Y165014J2756*
G01*
Y168163*
G75*
G02X152415Y171313I3150*
G01*
X152907*
G75*
G03X155663Y174069J2756*
G01*
Y179187*
X149659Y222691D02*
Y218459D01*
X153104Y215014*
Y207140*
X155663D02*
Y216293D01*
X153990Y217967*
Y227809*
X154581Y228400*
X157730*
X158321Y228990*
X158222Y179187D02*
Y170526D01*
G75*
G02X156254Y168557I-1969*
G01*
X155171*
G75*
G03X152022Y165407J-3150*
G01*
Y157346*
X152219*
X160781Y179187D02*
X160683D01*
Y157346*
X163045Y170722D02*
Y179187D01*
X163341*
X165900Y170722D02*
Y179187D01*
X166313Y51628D02*
Y128006D01*
X165919Y128400*
X169148Y96904D02*
X163242D01*
X169148Y109502D02*
X163242D01*
X170722Y170526D02*
Y173085D01*
X171116Y173478*
Y178498*
X171018Y178596*
Y179187*
Y207140D02*
Y245329D01*
G75*
G03X160585Y255762I-10433*
G01*
X149463*
G75*
G02X133715Y271510J15748*
G01*
Y295722*
X173577Y179187D02*
X174069Y178695D01*
X173675Y177809*
X173577Y207140D02*
X173872D01*
Y245919*
G75*
G03X161077Y258715I-12795*
G01*
X149856*
G75*
G02X136470Y272100J13386*
G01*
Y281549*
X173675Y273045D02*
Y270722D01*
X178793Y265604*
Y254581*
G75*
G03X186864Y246510I8071*
G01*
X192770*
G75*
G02X198675Y240604J-5906*
G01*
Y122691*
G75*
G02X196707Y120722I-1969*
G01*
X192179*
X174069Y170526D02*
Y172888D01*
X173675Y173281*
Y179089*
X173577Y179187*
X174392Y111494D02*
G75*
G02X174856I232D01*
G01*
X174392D02*
G75*
G02X174856I232D01*
G01*
G75*
G02X174392I-232*
G01*
X176313Y51628D02*
Y123360D01*
X178793Y125841*
Y127809*
G75*
G02X181726Y130742I2933*
G01*
X185388*
Y90742D02*
X204187D01*
G75*
G03X208124Y94679J3937*
G01*
Y97100*
X185388Y95742D02*
X197100D01*
G75*
G03X201037Y99679J3937*
G01*
Y100250*
X185388Y100742D02*
Y100841D01*
X180565*
X178596Y102809*
X162455*
X159502Y99856*
Y98478*
X158321*
X185388Y105742D02*
X185033D01*
X185014Y105762*
X176431*
X174266Y107927*
X174069*
X185388Y115742D02*
X197691D01*
G75*
G03X205762Y123813J8071*
G01*
Y128400*
X185388Y120742D02*
X190801D01*
Y120722*
X192179*
X186313Y51628D02*
Y122100D01*
G75*
G02X190250Y126037I3937*
G01*
X190604*
X190801Y125841*
X192179*
X188439Y154974D02*
X166589D01*
G75*
G02X163045Y158518J3543*
G01*
Y170722*
X191195Y150250D02*
Y142514D01*
G75*
G02X189423Y140742I-1772*
G01*
X185388*
X191195Y161470D02*
X169344D01*
G75*
G02X165900Y164915J3445*
G01*
Y170722*
X191195Y161470D02*
Y150250D01*
X192179Y125841D02*
X193754D01*
G75*
G03X195132Y127219J1378*
G01*
Y143754*
X196313Y144935*
Y239423*
X192179Y125841D02*
X188439D01*
Y125742*
X185388*
X192179Y130742D02*
Y144738D01*
X193951Y146510*
Y237061*
G75*
G03X188045Y242967I-5906*
G01*
X184305*
G75*
G02X173675Y253596J10630*
G01*
Y263045*
X193675Y273045D02*
Y270722D01*
X188833Y265486*
Y253793*
G75*
G03X193754Y248872I4921*
G01*
X195329*
G75*
G02X201037Y243163J-5709*
G01*
Y100250*
X193754Y255959D02*
Y262730D01*
X193675Y262809*
Y263045*
X193754Y255959D02*
Y253203D01*
G75*
G03X195722Y251234I1969*
G01*
X202415*
G75*
G02X205762Y247888J-3346*
G01*
Y128400*
X196313Y239423D02*
Y241392D01*
G75*
G03X190604Y247100I-5709*
G01*
X187652*
G75*
G02X183715Y251037J3937*
G01*
Y263006*
X183675Y263045*
X197691Y80742D02*
X199463D01*
G75*
G03X203400Y84679J3937*
G01*
Y246510*
X201313Y56628D02*
X151313D01*
Y46628*
X201313*
Y56628*
X202799Y154974D02*
X188439D01*
X202799D02*
X200250D01*
Y142041*
G75*
G02X193951Y135742I-6299*
G01*
X185388*
X202799Y164423D02*
X193360D01*
G75*
G03X191195Y162258J-2165*
G01*
Y161470*
X203675Y263045D02*
X203793D01*
Y254778*
X203400Y249659*
Y246510*
X208124Y97100D02*
Y239620D01*
X213675Y273045D02*
Y272455D01*
X218754Y267376*
Y257337*
X222100Y249659*
Y90407*
X226766Y85742*
X229778*
X222199Y125742D02*
Y126431D01*
X235486*
G75*
G03X236470Y127415J984*
G01*
Y128203*
X223675Y273045D02*
Y270722D01*
X228793Y265801*
Y256352*
X226431Y249659*
Y98301*
X228990Y95742*
X229778*
X228793Y123085D02*
Y121923D01*
G75*
G02X227612Y120742I-1181*
G01*
X222199*
X229581Y80565D02*
X224069D01*
X219738Y84896*
Y246904*
G75*
G03X217179Y249463I-2559*
G01*
G75*
G02X214226Y252415J2953*
G01*
Y263045*
X213675*
X229778Y90742D02*
X227868D01*
X224266Y94344*
Y263045*
X223675*
X229778Y95742D02*
X222199D01*
X231156Y112848D02*
Y112120D01*
G75*
G02X229778Y110742I-1378*
G01*
X222199*
X233675Y263045D02*
X233518D01*
Y250053*
G75*
G02X231746Y248281I-1772*
G01*
X230565*
G75*
G03X228793Y246510J-1772*
G01*
Y123085*
X233911D02*
Y119344D01*
G75*
G02X230959Y116392I-2953*
G01*
X222199*
Y115742*
X233911Y164620D02*
Y123085D01*
Y164620D02*
Y166195D01*
G75*
G03X230368Y169738I-3543*
G01*
X195919*
G75*
G03X186077Y159896J-9843*
G01*
Y156352*
G75*
G02X179384Y149659I-6693*
G01*
X171116*
G75*
G03X168557Y147100J-2559*
G01*
Y146116*
G75*
G02X164817Y142376I-3740*
G01*
X147494*
G75*
G02X143557Y146313J3937*
G01*
Y149846*
X234108Y273045D02*
X233675D01*
X234502Y272691D02*
X234108D01*
X238833Y268557*
Y248872*
G75*
G02X235880Y245919I-2953*
G01*
X234699*
G75*
G03X231156Y242376J-3543*
G01*
Y112848*
X236470Y169148D02*
Y128203D01*
Y169148D02*
Y170526D01*
G75*
G03X234896Y172100I-1575*
G01*
X196116*
G75*
G03X184108Y160093J-12008*
G01*
Y156746*
G75*
G02X178990Y151628I-5118*
G01*
X169935*
G75*
G03X166392Y148085J-3543*
G01*
Y147691*
G75*
G02X163439Y144738I-2953*
G01*
X154187*
G75*
G02X152219Y146707J1969*
G01*
Y149846*
X239226Y132533D02*
Y164226D01*
Y132533D02*
X234502D01*
X232730Y130762*
Y130742*
X222199*
X239226Y164226D02*
Y171116D01*
G75*
G03X236274Y174069I-2953*
G01*
X195919*
G75*
G03X182140Y160289J-13780*
G01*
Y157533*
G75*
G02X178203Y153596I-3937*
G01*
X168163*
G75*
G03X164423Y149856J-3740*
G01*
X160683*
Y149846*
X243675Y263045D02*
X243754D01*
Y255565*
G75*
G02X237848Y249659I-5906*
G01*
X213242*
G75*
G03X208124Y244541J-5118*
G01*
Y239620*
D02*
D21*
X5565Y84738D02*
Y81982D01*
Y84738D02*
Y81982D01*
Y88360D02*
Y91116D01*
Y88360D02*
Y91116D01*
X6191Y333356D02*
X4242Y331407D01*
X6191Y333356D02*
X4242Y331407D01*
X7376Y86549D02*
X10132D01*
X18719Y333356D02*
X20667Y331407D01*
X18719Y333356D02*
X20667Y331407D01*
X18719Y345884D02*
X20667Y347833D01*
X18719Y345884D02*
X20667Y347833D01*
X21313Y66549D02*
X18557D01*
X21313Y86549D02*
X18557D01*
X22409Y43905D02*
X20460Y41956D01*
X22409Y43905D02*
X20460Y41956D01*
X22409Y49194D02*
X20460Y51143D01*
X22409Y49194D02*
X20460Y51143D01*
X23085Y162061D02*
Y159305D01*
Y172297D02*
Y175053D01*
X25053Y62809D02*
Y60053D01*
Y70289D02*
Y73045D01*
Y82809D02*
Y80053D01*
Y90289D02*
Y93045D01*
X27031Y131305D02*
Y128549D01*
Y135337D02*
Y138093D01*
X27698Y43905D02*
X29646Y41956D01*
X27698Y43905D02*
X29646Y41956D01*
X27698Y49194D02*
X29646Y51143D01*
X27698Y49194D02*
X29646Y51143D01*
X28597Y133321D02*
X31352D01*
X28793Y66549D02*
X31549D01*
X28793Y86549D02*
X31549D01*
X35780Y164679D02*
X38535D01*
X43711Y186222D02*
X40955D01*
X44596Y181990D02*
Y179234D01*
Y190455D02*
Y193211D01*
X45482Y186222D02*
X48238D01*
X47841Y68754D02*
X45085D01*
X48577Y156549D02*
X45821D01*
X49856Y66738D02*
Y63982D01*
Y70770D02*
Y73526D01*
X51825Y153203D02*
Y150447D01*
Y159896D02*
Y162652D01*
X51872Y68754D02*
X54628D01*
X53406Y43388D02*
X50650D01*
X55073Y156549D02*
X57829D01*
X55171Y41372D02*
Y38616D01*
Y54404D02*
Y57159D01*
X59404Y86274D02*
X56648D01*
X61711Y186222D02*
X58955D01*
X62596Y181990D02*
Y179234D01*
Y190455D02*
Y193211D01*
X62652Y82927D02*
Y80171D01*
Y89620D02*
Y92376D01*
X63482Y186222D02*
X66238D01*
X63636Y41372D02*
Y38616D01*
Y54404D02*
Y57159D01*
X70728Y57112D02*
X67972D01*
X72494Y59128D02*
Y61884D01*
X74260Y57112D02*
X77016D01*
X79783Y57309D02*
X77028D01*
X81549Y59325D02*
Y62081D01*
X83315Y57309D02*
X86071D01*
X88734Y158321D02*
X85978D01*
X91293Y37258D02*
X88537D01*
X91293Y55368D02*
X88537D01*
X92179Y155860D02*
Y153104D01*
X93754Y38144D02*
Y40900D01*
Y56254D02*
Y59010D01*
X94935Y69738D02*
X92179D01*
X95624Y158321D02*
X98380D01*
X95722Y68951D02*
Y66195D01*
Y70526D02*
Y73281D01*
X96215Y55368D02*
X98970D01*
X96510Y69738D02*
X99266D01*
X99955Y127612D02*
X97199D01*
X101465Y36504D02*
X99516Y34556D01*
X101465Y36504D02*
X99516Y34556D01*
X101465Y37618D02*
X99516Y39567D01*
X101465Y37618D02*
X99516Y39567D01*
X102578Y36504D02*
X104527Y34556D01*
X102578Y36504D02*
X104527Y34556D01*
X102578Y37618D02*
X104527Y39567D01*
X102578Y37618D02*
X104527Y39567D01*
X103006Y67514D02*
Y64758D01*
Y71963D02*
Y74719D01*
X104089Y158518D02*
X101333D01*
X105033Y69738D02*
X107789D01*
X106549Y210683D02*
X103793D01*
X106780Y186701D02*
X104831Y184752D01*
X106780Y187815D02*
X104831Y189763D01*
X106780Y193000D02*
X104831Y191052D01*
X106780Y194114D02*
X104831Y196063D01*
X106780Y198709D02*
X104831Y196760D01*
X106780Y199822D02*
X104831Y201771D01*
X106780Y204615D02*
X104831Y202666D01*
X106780Y205728D02*
X104831Y207677D01*
X107140Y124364D02*
Y121608D01*
Y130860D02*
Y133616D01*
X107533Y156057D02*
Y153301D01*
X107893Y186701D02*
X109842Y184752D01*
X107893Y187815D02*
X109842Y189763D01*
X107893Y193000D02*
X109842Y191052D01*
X107893Y194114D02*
X109842Y196063D01*
X107893Y198709D02*
X109842Y196760D01*
X107893Y199822D02*
X109842Y201771D01*
X107893Y204615D02*
X109842Y202666D01*
X107893Y205728D02*
X109842Y207677D01*
X108124Y210683D02*
X110880D01*
X116096Y46313D02*
X113341D01*
X118557Y40998D02*
Y38242D01*
Y51628D02*
Y54384D01*
X120631Y69253D02*
X118163Y66785D01*
X120631Y74160D02*
X118163Y76628D01*
X120631Y88938D02*
X118163Y86470D01*
X120631Y93845D02*
X118163Y96313D01*
X121018Y46313D02*
X123774D01*
X125538Y69253D02*
X128006Y66785D01*
X125538Y74160D02*
X128006Y76628D01*
X125538Y88938D02*
X128006Y86470D01*
X125538Y93845D02*
X128006Y96313D01*
X196313Y49612D02*
Y46856D01*
Y53644D02*
Y56400D01*
X198329Y51628D02*
X201085D01*
X247530Y333356D02*
X245581Y331407D01*
X247530Y333356D02*
X245581Y331407D01*
X247530Y345884D02*
X245581Y347833D01*
X247530Y345884D02*
X245581Y347833D01*
X260057Y333356D02*
X262006Y331407D01*
X260057Y333356D02*
X262006Y331407D01*
D02*
D22*
X155270Y107927D02*
X153104D01*
X158321Y106057D02*
Y103892D01*
Y109797D02*
Y111963D01*
X161352Y115998D02*
X159187D01*
X161372Y107927D02*
X163537D01*
X163860Y113740D02*
Y111575D01*
Y118256D02*
Y120421D01*
X168490Y86431D02*
X166469Y84409D01*
X168490Y91235D02*
X166469Y93256D01*
X171018Y98478D02*
X168852D01*
X173294Y86431D02*
X175315Y84409D01*
X173294Y91235D02*
X175315Y93256D01*
X174069Y96608D02*
Y94443D01*
X177120Y98478D02*
X179285D01*
X182238Y110742D02*
X180073D01*
X188537D02*
X190703D01*
X219049Y140742D02*
X216884D01*
X220498Y72783D02*
Y74949D01*
X223006Y70526D02*
X225171D01*
X242519Y68700D02*
X240988Y67169D01*
X242519Y71957D02*
X240988Y73489D01*
X245776Y68700D02*
X247307Y67169D01*
X245776Y71957D02*
X247307Y73489D01*
D02*
D23*
X253400Y36569D02*
Y39734D01*
Y58419D02*
Y55254D01*
Y62159D02*
Y65325D01*
D02*
D24*
X26037Y183518D02*
Y204384D01*
G75*
G02X34502Y212848I8465*
G01*
X56600*
X56549Y212797*
X53596*
X33762Y169679D02*
X39620D01*
X62596Y186222D02*
Y186077D01*
X44596*
Y186222*
X62596D02*
Y186077D01*
X66640*
G75*
G02X74514Y178203J-7874*
G01*
Y165407*
G75*
G03X82388Y157533I7874*
G01*
X92179*
Y158321*
X73675Y127612D02*
Y141195D01*
X73872*
Y154581*
Y159246*
G75*
G03X63439Y169679I-10433*
G01*
X39620*
D02*
D25*
X5565Y86549D02*
Y90407D01*
X12455Y339620D02*
X253793D01*
X12455D02*
Y209699D01*
X23085Y167179D02*
X25585Y164679D01*
X51825*
Y156549*
X25053Y46549D02*
X49463D01*
Y43163*
X63833*
Y37258*
X93754*
X25053Y66549D02*
Y86549D01*
X5565*
X25053D02*
Y86274D01*
X21904*
G75*
G02X16392Y91785J5512*
G01*
Y115211*
G75*
G02X21313Y120132I4921*
G01*
X22691*
G75*
G03X27809Y125250J5118*
G01*
Y133902*
X27031Y133321*
X36864Y132920D02*
Y113242D01*
G75*
G02X30171Y106549I-6693*
G01*
X25053*
X44596Y186222D02*
Y185880D01*
X51825*
Y164817*
X23085*
Y167179*
X49856Y68754D02*
X62455D01*
X62652Y68951*
X51825Y139226D02*
Y142770D01*
X73872*
Y144738*
X36864*
Y146320*
X78990Y204187D02*
Y212797D01*
X53596*
X92179Y158321D02*
X107337D01*
Y134896*
X107140Y134699*
Y127612*
X92179Y170132D02*
X100841D01*
X93754Y55368D02*
X32927D01*
G75*
G02X25053Y63242J7874*
G01*
Y66549*
X100841Y170132D02*
X103596D01*
Y170329*
X107533*
X100841Y170132D02*
X105565D01*
X107337Y171904*
Y204187*
X119541*
X107140Y127612D02*
Y117770D01*
G75*
G02X92179Y102809I-14961*
G01*
X73085*
G75*
G03X65998Y95722J-7087*
G01*
Y92376*
G75*
G02X60093Y86470I-5906*
G01*
X25919*
X25841Y86549*
X25053*
X107533Y158518D02*
X103596D01*
Y158321*
X92179*
X117770Y249856D02*
Y259868D01*
X117797Y259896*
Y261864*
X118557Y46313D02*
X93754D01*
X123085Y71707D02*
Y46510D01*
Y46313*
X118557*
X123085Y91392D02*
X84108D01*
G75*
G03X74069Y81352J-10039*
G01*
Y56352*
X72494Y57112*
X138242Y231559D02*
Y239413D01*
X137839Y239817*
X150841Y66785D02*
X196313D01*
X156313Y51628D02*
Y35880D01*
G75*
G03X164187Y28006I7874*
G01*
X236864*
G75*
G03X244738Y35880J7874*
G01*
Y70526*
X156313Y51628D02*
X148478D01*
G75*
G02X139620Y60486J8858*
G01*
Y83911*
G75*
G03X131746Y91785I-7874*
G01*
X123478*
X123085Y91392*
X196313Y66785D02*
X211077D01*
X219344Y69541D02*
Y62258D01*
X221313*
Y51010*
X219935Y70919D02*
X220329Y70526D01*
X220498*
Y61667D02*
X220132D01*
Y62061*
X219935*
X244148Y70329D02*
X220498D01*
Y70526*
X244935Y270683D02*
X244344D01*
Y273045*
X243675*
X253400Y60289D02*
Y66392D01*
G75*
G03X249463Y70329I-3937*
G01*
X244148*
X253400Y60289D02*
Y34699D01*
D02*
D26*
X39620Y169679D03*
D03*
X73872Y154581D03*
D03*
X95722Y69738D03*
D03*
X102022Y37061D03*
D03*
X107337Y187258D03*
D03*
Y193557D03*
D03*
Y199266D03*
D03*
Y205171D03*
D03*
Y210683D03*
D03*
X126825Y267770D03*
D03*
X130565Y209502D03*
D03*
Y224266D03*
D03*
X132140Y314817D03*
D03*
X134502Y190801D03*
D03*
X140211Y118360D03*
D03*
Y140801D03*
D03*
X141195Y299463D03*
D03*
X165919Y128400D03*
D03*
X207533Y85742D03*
D03*
X212258Y146116D03*
D03*
X229581Y80565D03*
D03*
X229778Y85742D03*
D03*
Y90742D03*
D03*
Y95742D03*
D03*
X235683Y42179D03*
D03*
D02*
D27*
X38990Y268557D02*
Y285289D01*
X66982*
X38990Y300841D02*
Y268793D01*
X66982Y253793D02*
Y253400D01*
G75*
G03X70526Y249856I3543*
G01*
X117770*
X66982Y253793D02*
Y285289D01*
Y315604*
X89974Y287199D02*
X94541D01*
G75*
G03X102415Y295073J7874*
G01*
Y306943*
G75*
G02X110289Y314817I7874*
G01*
X132140*
X116616D02*
X67770D01*
X66982Y315604*
X125616Y314817D02*
X132140D01*
X130565Y209502D02*
Y224266D01*
Y249856*
X117770*
X132140Y314817D02*
X141195D01*
X145329Y195722D02*
Y295329D01*
X141195Y299463*
X150644Y195919D02*
X150447D01*
X145329Y195722*
X158321Y107927D02*
X152022D01*
Y87652*
G75*
G03X157140Y82533I5118*
G01*
X167376*
G75*
G03X171707Y86864J4331*
G01*
Y89002*
X163860Y115998D02*
X164030D01*
Y122100*
X158518*
G75*
G03X152022Y115604J-6496*
G01*
Y107927*
X158321*
X164817Y195919D02*
X150644D01*
X174069Y98478D02*
X172100D01*
Y88833*
X170892*
X185388Y110742D02*
X181884D01*
G75*
G02X178990Y113636J2894*
G01*
Y120132*
G75*
G03X177022Y122100I-1969*
G01*
X163860*
Y115998*
X185388Y110742D02*
X185486D01*
Y110683*
X212061Y100742D02*
X222199D01*
X212061Y110742D02*
Y100742D01*
Y110742D02*
X185388D01*
X212258Y146116D02*
X212061D01*
Y85880*
X207337*
Y85742*
X207533*
X220498Y70526D02*
X218557D01*
Y75250*
X212061Y81746*
Y100742*
X222199Y140742D02*
X217967D01*
G75*
G03X212061Y134837J-5906*
G01*
Y110742*
X241589Y157140D02*
X243557D01*
G75*
G02X247494Y153203J-3937*
G01*
Y146707*
G75*
G02X241589Y140801I-5906*
G01*
X222258*
X222199Y140742*
D02*
D28*
X25053Y46549D02*
X25093D01*
X25053Y46510*
X17376*
G75*
G02X11470Y52415J5906*
G01*
Y142573*
X12652*
Y144148*
X13429*
X26037Y183518D02*
X29825D01*
G75*
G02X33762Y179581J-3937*
G01*
Y174679*
X88045Y69738D02*
X95722D01*
X93754Y46313D02*
Y46707D01*
X74266*
X72860Y48112*
X72494*
X95722Y69738D02*
Y53400D01*
X102022*
Y37061*
X97888*
Y37258*
X93754*
X110683Y158518D02*
X107533D01*
X123085Y91392D02*
X130762D01*
Y168163*
X130565*
Y186864*
X145427*
X130565Y209502D02*
Y186864D01*
X139986Y123872D02*
X140211D01*
Y118360*
X139986Y134699D02*
X140211D01*
Y123872*
X139986*
X140211Y140801D02*
Y134923D01*
X139986Y134699*
X140211Y140801D02*
X134502Y146510D01*
Y190801*
X142868Y195722D02*
X139423D01*
G75*
G03X134502Y190801J-4921*
G01*
X145329Y195722D02*
X142868D01*
X150841Y66785D02*
X150447D01*
G75*
G02X140211Y77022J10236*
G01*
Y118360*
X152219Y249856D02*
X130565D01*
Y224266*
X152219Y249856D02*
X156156D01*
G75*
G03X161077Y254778J4921*
G01*
Y270526*
G75*
G02X174856Y284305I13780*
G01*
X183715*
Y273085*
X183675Y273045*
X196313Y66785D02*
Y51628D01*
X203675Y273045D02*
Y284305D01*
X183715*
X210880Y49276D02*
Y69907D01*
X211498Y70526*
X211077Y66785D02*
Y77022D01*
X207533Y80565*
Y85742*
X211498Y70526D02*
Y71116D01*
X243675Y273045D02*
Y276431D01*
G75*
G03X235801Y284305I-7874*
G01*
X203675*
D02*
D29*
X20929Y144148D02*
X21904D01*
Y133321*
X19531*
X20929Y144148D02*
X21904D01*
Y149856*
G75*
G03X19344Y152415I-2559*
G01*
X15407*
G75*
G02X12407Y155415J3000*
G01*
Y159679*
X21116Y183715D02*
X16344D01*
G75*
G03X12407Y179778J-3937*
G01*
Y174679*
X38990Y258557D02*
G75*
G02X41982Y255565J-2992D01*
G01*
Y244148*
G75*
G03X47888Y238242I5906*
G01*
X55555*
X38990Y310841D02*
X34098D01*
G75*
G03X28193Y304935J-5906*
G01*
Y238045*
X103006Y69738D02*
X121116D01*
X123085Y71707*
X109699Y303006D02*
X79974D01*
Y302199*
X110289Y293360D02*
X117957D01*
X118350Y303006D02*
X109699D01*
X125260Y283321D02*
Y273675D01*
X125063Y273478*
X125616Y314817D02*
Y293520D01*
X125457Y293360*
X126797Y261864D02*
Y271744D01*
X125063Y273478*
X126797Y266589D02*
Y261864D01*
X126825Y267770D02*
Y266195D01*
G75*
G02X120919Y260289I-5906*
G01*
X78203*
G75*
G02X72297Y266195J5906*
G01*
Y276293*
G75*
G02X78203Y282199I5906*
G01*
X79974*
X141195Y307730D02*
Y299463D01*
X142868Y179187D02*
Y170427D01*
X140604Y168163*
X142868Y207140D02*
Y195722D01*
X145339Y239817D02*
Y237848D01*
X154778*
G75*
G02X158321Y234305J-3543*
G01*
Y228990*
X145427Y186864D02*
Y179187D01*
Y207140D02*
Y210486D01*
G75*
G03X139522Y216392I-5906*
G01*
X103990*
G75*
G02X98085Y222297J5906*
G01*
Y225447*
G75*
G03X92179Y231352I-5906*
G01*
X39630*
G75*
G02X35693Y235289J3937*
G01*
Y238045*
X147986Y207140D02*
Y211077D01*
G75*
G03X139915Y219148I-8071*
G01*
X107337*
G75*
G02X101431Y225053J5906*
G01*
Y232337*
G75*
G03X95526Y238242I-5906*
G01*
X63055*
X149659Y222691D02*
X139610D01*
X138242Y224059*
X149659Y228990D02*
Y233321D01*
X139030*
X138242Y232533*
Y231559*
X149659Y233321D02*
Y228990D01*
X150545Y207140D02*
X150644D01*
Y195919*
X158222Y200053D02*
Y186864D01*
X164817*
X158222Y207140D02*
Y200053D01*
X158321Y98478D02*
X160683D01*
Y89789*
X161892*
Y88833*
X158321Y222691D02*
Y222297D01*
X165014*
Y229581*
X158321Y222691D02*
Y207238D01*
X158222Y207140*
X160781D02*
X158222D01*
X164817Y186864D02*
X145526D01*
Y179482*
X145427Y179384*
Y179187*
X164817Y195919D02*
Y207140D01*
X165900*
X165014Y229581D02*
Y233321D01*
X149659*
X165900Y207140D02*
X163341D01*
X166313Y51628D02*
Y46116D01*
G75*
G03X170250Y42179I3937*
G01*
X235683*
X168459Y179187D02*
Y186864D01*
X164817*
X168459Y200053D02*
Y186864D01*
X164817*
X168459Y207140D02*
Y200053D01*
X174069Y107927D02*
Y114789D01*
X172860Y115998*
X174463Y136461D02*
X173980D01*
X165919Y128400*
X176136Y207140D02*
X176234D01*
Y195919*
X164817*
X185388Y80742D02*
X197691D01*
X185388Y85742D02*
X207533D01*
X185388Y130742D02*
X192179D01*
X185388Y145742D02*
X176244D01*
X174463Y143961*
X187848Y190791D02*
X182730D01*
X176136Y184197*
Y179187*
X187848Y198291D02*
Y197691D01*
X184699*
X173872Y186864*
X168459*
X212258Y146116D02*
Y162465D01*
X210299Y164423*
X221313Y42010D02*
X211114D01*
X210880Y41776*
X221313Y42010D02*
Y42179D01*
X235683*
X222199Y80742D02*
X229581D01*
Y80565*
X222199Y85742D02*
X229778D01*
X222199Y90742D02*
X229778D01*
X222199Y100742D02*
Y100644D01*
X232337*
X234010Y98970*
X238242*
Y98675*
X222199Y145742D02*
X222514D01*
X224659Y147888*
X231522*
X231746Y147663*
X222199Y145742D02*
X212632D01*
X212258Y146116*
X231746Y147663D02*
Y156746D01*
X231352Y157140*
X235683Y34699D02*
Y42179D01*
Y60289*
Y34699*
X238242Y108911D02*
X234305D01*
X231726Y106333*
X222199*
Y105742*
X239620Y147663D02*
X231746D01*
D02*
D72*
X5565Y86549D03*
D03*
X117770Y249856D03*
D03*
X150841Y66785D03*
D03*
X152219Y249856D03*
D03*
X244148Y70329D03*
D03*
D02*
D73*
X133715Y295722D03*
D03*
X136470Y281549D03*
D03*
X158222Y200053D03*
D03*
X165014Y229581D03*
D03*
X168459Y200053D03*
D03*
X170722Y170526D03*
D03*
X174069D03*
D03*
X178793Y125841D03*
D03*
X188439Y154974D03*
D03*
X191195Y150250D03*
D03*
Y161470D03*
D03*
X193754Y255959D03*
D03*
X196313Y239423D03*
D03*
X201037Y100250D03*
D03*
X203400Y246510D03*
D03*
X205762Y128400D03*
D03*
X208124Y97100D03*
D03*
Y239620D03*
D03*
X228793Y123085D03*
D03*
X231156Y112848D03*
D03*
X233911Y123085D03*
D03*
Y164620D03*
D03*
X236470Y128203D03*
D03*
Y169148D03*
D03*
X239226Y132533D03*
D03*
Y164226D03*
D03*
D02*
D74*
X145329Y195722D03*
D03*
X149659Y233321D03*
D03*
X164817Y186864D03*
D03*
X197691Y80742D03*
D03*
D02*
D75*
X12455Y12848D03*
D03*
Y339620D03*
D03*
X253793Y12848D03*
D03*
Y339620D03*
D03*
D02*
D76*
X163045Y170722D03*
D03*
X165900D03*
D03*
D02*
D77*
X108892Y273478D03*
D03*
X109522Y283321D03*
D03*
X109699Y303006D03*
D03*
X110289Y293360D03*
D03*
X192179Y120722D03*
D03*
Y125841D03*
D03*
Y130742D03*
D03*
D02*
D78*
X49856Y68754D03*
D03*
D02*
D79*
X12407Y159679D03*
Y164679D03*
Y169679D03*
Y174679D03*
X33762Y159679D03*
Y164679D03*
Y169679D03*
Y174679D03*
D02*
D80*
X12407Y159679D03*
Y164679D03*
Y169679D03*
Y174679D03*
X33762Y159679D03*
Y164679D03*
Y169679D03*
Y174679D03*
D02*
D81*
X12407Y159679D03*
Y164679D03*
Y169679D03*
Y174679D03*
X33762Y159679D03*
Y164679D03*
Y169679D03*
Y174679D03*
D02*
D82*
X23085Y167179D03*
D02*
D83*
D03*
D02*
D84*
D03*
D02*
D85*
X447Y119502D02*
X49659D01*
Y33596*
X447*
Y119502*
X8419Y178006D02*
X37750D01*
Y156352*
X8419*
Y178006*
X18400Y186037D02*
X28163D01*
Y180998*
X18400*
Y186037*
X43065Y133911D02*
Y161864D01*
X60585*
Y133911*
X43065*
X53911Y63636D02*
Y91589D01*
X71392*
Y63636*
X53911*
X63537Y150250D02*
X117278D01*
Y104974*
X63537*
Y150250*
X71411Y230368D02*
X127120D01*
Y178006*
X71411*
Y230368*
X84443Y75644D02*
X106608D01*
Y63833*
X84443*
Y75644*
X89325Y60486D02*
X122986D01*
Y32140*
X89325*
Y60486*
X99069Y174561D02*
Y153892D01*
X85289*
Y174561*
X99069*
X114423Y174758D02*
Y154089D01*
X100644*
Y174758*
X114423*
X137848Y174659D02*
Y211667D01*
X181156*
Y174659*
X137848*
X145132Y163636D02*
X125841D01*
Y172691*
X145132*
Y163636*
X180762Y149463D02*
X226825D01*
Y77022*
X180762*
Y149463*
X226825Y161667D02*
X246116D01*
Y152612*
X226825*
Y161667*
X242770Y113439D02*
Y94148D01*
X233715*
Y113439*
X242770*
D02*
D86*
X1431Y106549D02*
Y34581D01*
X48675*
Y118518*
X25053*
X9404Y177337D02*
X15407D01*
X40604Y197846D02*
Y195919D01*
X66589*
X44203Y179304D02*
G75*
G02Y178700J-302D01*
G01*
Y179304D02*
G75*
G02Y178700J-302D01*
G01*
G75*
G02Y179304J302*
G01*
X44691Y137356D02*
Y158419D01*
X55526Y88242D02*
Y66982D01*
X58959Y137356D02*
Y158419D01*
X65506Y147888D02*
X110683D01*
X66589Y199774D02*
Y195919D01*
X40604*
Y199774*
X69778Y66982D02*
Y88242D01*
X74659Y178990D02*
X123872D01*
X79581Y319344D02*
G75*
G02X80368I394D01*
G01*
X79581D02*
G75*
G03X80368I394D01*
G01*
X80270Y107337D02*
X110683D01*
X80368Y319344D02*
X85033Y74758*
X102415D01*
X86667Y171116D02*
Y157337D01*
X88636Y64719D02*
X102415D01*
X90309Y58616D02*
X97199D01*
X97691Y157337D02*
Y173577D01*
X99266Y59108D02*
X113045D01*
Y33518*
X99266*
Y59108*
X102022Y171313D02*
Y157533D01*
X113045D02*
Y173774D01*
X123872Y229384D02*
X74659D01*
X129187Y164915D02*
X144148D01*
X139128Y311274D02*
X143262D01*
X139423Y184108D02*
Y202219D01*
X179581*
Y184108*
X139423*
X140604Y175644D02*
Y182730D01*
X141785Y171411D02*
X129187D01*
X164620Y228990D02*
G75*
G02X165014I197D01*
G01*
G75*
G03X164620I-197*
G01*
X165014D02*
G75*
G02X164620I-197D01*
G01*
X165014D02*
X167770Y262652*
G75*
G03Y263439J394D01*
G01*
Y262652D02*
G75*
G02Y263439J394D01*
G01*
X181746Y148400D02*
X189030D01*
X190407Y148478D02*
X217179D01*
Y78006*
X190407*
Y148478*
X230171Y153892D02*
X242770D01*
X234994Y110093D02*
Y97494D01*
X241490D02*
Y112455D01*
X242770Y160388D02*
X227809D01*
D02*
D87*
X73675Y127612D03*
X107140D03*
D02*
D88*
X73675D03*
X107140D03*
D02*
D89*
X73675D03*
X107140D03*
D02*
D90*
X20526Y183518D03*
X26037D03*
D02*
D91*
X20526D03*
X26037D03*
D02*
D92*
X20526D03*
X26037D03*
D02*
D93*
X44596Y186222D03*
X62596D03*
D02*
D94*
X44596D03*
X62596D03*
D02*
D95*
X44596D03*
X62596D03*
D02*
D96*
X53596Y212797D03*
D02*
D97*
D03*
D02*
D98*
D03*
D02*
D99*
X13429Y144148D03*
X19531Y133321D03*
X20929Y144148D03*
X27031Y133321D03*
X28193Y238045D03*
X35693D03*
X55555Y238242D03*
X63055D03*
X117563Y273478D03*
X117760Y283321D03*
X117957Y293360D03*
X118350Y303006D03*
X125063Y273478D03*
X125260Y283321D03*
X125457Y293360D03*
X125850Y303006D03*
X137839Y239817D03*
X145339D03*
X202799Y154974D03*
Y164423D03*
X210299Y154974D03*
Y164423D03*
D02*
D100*
X13429Y144148D03*
X19531Y133321D03*
X20929Y144148D03*
X27031Y133321D03*
X28193Y238045D03*
X35693D03*
X55555Y238242D03*
X63055D03*
X117563Y273478D03*
X117760Y283321D03*
X117957Y293360D03*
X118350Y303006D03*
X125063Y273478D03*
X125260Y283321D03*
X125457Y293360D03*
X125850Y303006D03*
X137839Y239817D03*
X145339D03*
X202799Y154974D03*
Y164423D03*
X210299Y154974D03*
Y164423D03*
D02*
D101*
X13429Y144148D03*
X19531Y133321D03*
X20929Y144148D03*
X27031Y133321D03*
X28193Y238045D03*
X35693D03*
X55555Y238242D03*
X63055D03*
X117563Y273478D03*
X117760Y283321D03*
X117957Y293360D03*
X118350Y303006D03*
X125063Y273478D03*
X125260Y283321D03*
X125457Y293360D03*
X125850Y303006D03*
X137839Y239817D03*
X145339D03*
X202799Y154974D03*
Y164423D03*
X210299Y154974D03*
Y164423D03*
D02*
D102*
X23979Y147648D02*
Y140648D01*
X10379*
Y147648*
X23979*
X30081Y136821D02*
Y129821D01*
X16481*
Y136821*
X30081*
X38743Y241545D02*
Y234545D01*
X25143*
Y241545*
X38743*
X66105Y241742D02*
Y234742D01*
X52505*
Y241742*
X66105*
X128113Y276978D02*
Y269978D01*
X114513*
Y276978*
X128113*
X128310Y286821D02*
Y279821D01*
X114710*
Y286821*
X128310*
X128507Y296860D02*
Y289860D01*
X114907*
Y296860*
X128507*
X128900Y306506D02*
Y299506D01*
X115300*
Y306506*
X128900*
X134742Y234609D02*
X141742D01*
Y221009*
X134742*
Y234609*
X134789Y236317D02*
Y243317D01*
X148389*
Y236317*
X134789*
X140057Y160396D02*
X147057D01*
Y146796*
X140057*
Y160396*
X148719D02*
X155719D01*
Y146796*
X148719*
Y160396*
X157183D02*
X164183D01*
Y146796*
X157183*
Y160396*
X177963Y133411D02*
X170963D01*
Y147011*
X177963*
Y133411*
X191348Y187741D02*
X184348D01*
Y201341*
X191348*
Y187741*
X207380Y52326D02*
X214380D01*
Y38726*
X207380*
Y52326*
X213349Y158474D02*
Y151474D01*
X199749*
Y158474*
X213349*
Y167923D02*
Y160923D01*
X199749*
Y167923*
X213349*
D02*
D103*
X92179Y158321D03*
Y170132D03*
X107533Y158518D03*
Y170329D03*
D02*
D104*
X92179Y158321D03*
Y170132D03*
X107533Y158518D03*
Y170329D03*
D02*
D105*
X92179Y158321D03*
Y170132D03*
X107533Y158518D03*
Y170329D03*
D02*
D106*
X25053Y106549D03*
D03*
D02*
D107*
Y46549D03*
D03*
Y66549D03*
D03*
Y86549D03*
D03*
X66982Y253793D03*
D03*
Y315604D03*
D03*
D02*
D108*
X93754Y37258D03*
Y46313D03*
Y55368D03*
D02*
D109*
Y37258D03*
Y46313D03*
Y55368D03*
D02*
D110*
Y37258D03*
Y46313D03*
Y55368D03*
D02*
D111*
X118557Y46313D03*
D02*
D112*
D03*
D02*
D113*
D03*
D02*
D114*
X55171Y43388D03*
Y52388D03*
X63636Y43388D03*
Y52388D03*
X72494Y48112D03*
Y57112D03*
X81549Y48309D03*
Y57309D03*
X221313Y42010D03*
Y51010D03*
X231746Y138663D03*
Y147663D03*
X239620Y138663D03*
Y147663D03*
D02*
D115*
X55171Y43388D03*
Y52388D03*
X63636Y43388D03*
Y52388D03*
X72494Y48112D03*
Y57112D03*
X81549Y48309D03*
Y57309D03*
X221313Y42010D03*
Y51010D03*
X231746Y138663D03*
Y147663D03*
X239620Y138663D03*
Y147663D03*
D02*
D116*
X55171Y43388D03*
Y52388D03*
X63636Y43388D03*
Y52388D03*
X72494Y48112D03*
Y57112D03*
X81549Y48309D03*
Y57309D03*
X221313Y42010D03*
Y51010D03*
X231746Y138663D03*
Y147663D03*
X239620Y138663D03*
Y147663D03*
D02*
D117*
X185388Y80742D03*
Y85742D03*
Y90742D03*
Y95742D03*
Y100742D03*
Y105742D03*
Y110742D03*
Y115742D03*
Y120742D03*
Y125742D03*
Y130742D03*
Y135742D03*
Y140742D03*
Y145742D03*
X222199Y80742D03*
Y85742D03*
Y90742D03*
Y95742D03*
Y100742D03*
Y105742D03*
Y110742D03*
Y115742D03*
Y120742D03*
Y125742D03*
Y130742D03*
Y135742D03*
Y140742D03*
Y145742D03*
D02*
D118*
X185388Y80742D03*
Y85742D03*
Y90742D03*
Y95742D03*
Y100742D03*
Y105742D03*
Y110742D03*
Y115742D03*
Y120742D03*
Y125742D03*
Y130742D03*
Y135742D03*
Y140742D03*
Y145742D03*
X222199Y80742D03*
Y85742D03*
Y90742D03*
Y95742D03*
Y100742D03*
Y105742D03*
Y110742D03*
Y115742D03*
Y120742D03*
Y125742D03*
Y130742D03*
Y135742D03*
Y140742D03*
Y145742D03*
D02*
D119*
X185388Y80742D03*
Y85742D03*
Y90742D03*
Y95742D03*
Y100742D03*
Y105742D03*
Y110742D03*
Y115742D03*
Y120742D03*
Y125742D03*
Y130742D03*
Y135742D03*
Y140742D03*
Y145742D03*
X222199Y80742D03*
Y85742D03*
Y90742D03*
Y95742D03*
Y100742D03*
Y105742D03*
Y110742D03*
Y115742D03*
Y120742D03*
Y125742D03*
Y130742D03*
Y135742D03*
Y140742D03*
Y145742D03*
D02*
D120*
X130368Y168163D03*
X140604D03*
X231352Y157140D03*
X241589D03*
D02*
D121*
X130368Y168163D03*
X140604D03*
X231352Y157140D03*
X241589D03*
D02*
D122*
X130368Y168163D03*
X140604D03*
X231352Y157140D03*
X241589D03*
D02*
D123*
X173675Y263045D03*
D03*
Y273045D03*
D03*
X183675Y263045D03*
D03*
Y273045D03*
D03*
X193675Y263045D03*
D03*
Y273045D03*
D03*
X203675Y263045D03*
D03*
Y273045D03*
D03*
X213675Y263045D03*
D03*
Y273045D03*
D03*
X223675Y263045D03*
D03*
Y273045D03*
D03*
X233675Y263045D03*
D03*
Y273045D03*
D03*
X243675Y263045D03*
D03*
Y273045D03*
D03*
D02*
D124*
X61077Y315998D02*
X12652D01*
Y253400*
X61077*
X72888Y315998D02*
X96707D01*
Y253400*
X72888*
X100644Y324266D02*
Y245132D01*
X8715*
Y324266*
X100644*
X134797Y302612D02*
Y319935D01*
X147593*
Y302612*
X134797*
X151628Y317100D02*
X265722D01*
Y257533*
X151628*
Y317100*
X153596Y315132D02*
X263754D01*
Y280289*
X153596*
Y315132*
X168951Y216490D02*
X142967D01*
Y235191*
X168951*
Y216490*
X228793Y27809D02*
Y67179D01*
X260289*
Y27809*
X228793*
X232730Y39620D02*
Y55368D01*
X248478Y35683D02*
X240604D01*
X248478Y59305D02*
X240604D01*
X256352Y39620D02*
Y55368D01*
D02*
D125*
X235683Y34699D03*
D03*
Y60289D03*
D03*
X253400Y34699D03*
D03*
Y60289D03*
D03*
D02*
D126*
X138242Y224059D03*
Y231559D03*
X143557Y149846D03*
Y157346D03*
X152219Y149846D03*
Y157346D03*
X160683Y149846D03*
Y157346D03*
X174463Y136461D03*
Y143961D03*
X187848Y190791D03*
Y198291D03*
X210880Y41776D03*
Y49276D03*
D02*
D127*
X138242Y224059D03*
Y231559D03*
X143557Y149846D03*
Y157346D03*
X152219Y149846D03*
Y157346D03*
X160683Y149846D03*
Y157346D03*
X174463Y136461D03*
Y143961D03*
X187848Y190791D03*
Y198291D03*
X210880Y41776D03*
Y49276D03*
D02*
D128*
X138242Y224059D03*
Y231559D03*
X143557Y149846D03*
Y157346D03*
X152219Y149846D03*
Y157346D03*
X160683Y149846D03*
Y157346D03*
X174463Y136461D03*
Y143961D03*
X187848Y190791D03*
Y198291D03*
X210880Y41776D03*
Y49276D03*
D02*
D129*
X142868Y179187D03*
Y207140D03*
X145427Y179187D03*
Y207140D03*
X147986Y179187D03*
Y207140D03*
X150545Y179187D03*
Y207140D03*
X153104Y179187D03*
Y207140D03*
X155663Y179187D03*
Y207140D03*
X158222Y179187D03*
Y207140D03*
X160781Y179187D03*
Y207140D03*
X163341Y179187D03*
Y207140D03*
X165900Y179187D03*
Y207140D03*
X168459Y179187D03*
Y207140D03*
X171018Y179187D03*
Y207140D03*
X173577Y179187D03*
Y207140D03*
X176136Y179187D03*
Y207140D03*
D02*
D130*
X142868Y179187D03*
Y207140D03*
X145427Y179187D03*
Y207140D03*
X147986Y179187D03*
Y207140D03*
X150545Y179187D03*
Y207140D03*
X153104Y179187D03*
Y207140D03*
X155663Y179187D03*
Y207140D03*
X158222Y179187D03*
Y207140D03*
X160781Y179187D03*
Y207140D03*
X163341Y179187D03*
Y207140D03*
X165900Y179187D03*
Y207140D03*
X168459Y179187D03*
Y207140D03*
X171018Y179187D03*
Y207140D03*
X173577Y179187D03*
Y207140D03*
X176136Y179187D03*
Y207140D03*
D02*
D131*
X142868Y179187D03*
Y207140D03*
X145427Y179187D03*
Y207140D03*
X147986Y179187D03*
Y207140D03*
X150545Y179187D03*
Y207140D03*
X153104Y179187D03*
Y207140D03*
X155663Y179187D03*
Y207140D03*
X158222Y179187D03*
Y207140D03*
X160781Y179187D03*
Y207140D03*
X163341Y179187D03*
Y207140D03*
X165900Y179187D03*
Y207140D03*
X168459Y179187D03*
Y207140D03*
X171018Y179187D03*
Y207140D03*
X173577Y179187D03*
Y207140D03*
X176136Y179187D03*
Y207140D03*
D02*
D132*
X123085Y71707D03*
Y91392D03*
D02*
D133*
Y71707D03*
Y91392D03*
D02*
D134*
Y71707D03*
Y91392D03*
D02*
D135*
X88045Y69738D03*
X103006D03*
D02*
D136*
X88045D03*
X103006D03*
D02*
D137*
X88045D03*
X103006D03*
D02*
D138*
X78990Y204187D03*
X119541D03*
D02*
D139*
X78990D03*
X119541D03*
D02*
D140*
X78990D03*
X119541D03*
D02*
D141*
X238242Y98675D03*
Y108911D03*
D02*
D142*
Y98675D03*
Y108911D03*
D02*
D143*
Y98675D03*
Y108911D03*
D02*
D144*
X116616Y314817D03*
X117797Y261864D03*
X125616Y314817D03*
X126797Y261864D03*
X130986Y123872D03*
Y134699D03*
X139986Y123872D03*
Y134699D03*
X161892Y88833D03*
X163860Y115998D03*
X170892Y88833D03*
X172860Y115998D03*
X211498Y61667D03*
Y70526D03*
X220498Y61667D03*
Y70526D03*
D02*
D145*
X116616Y314817D03*
X117797Y261864D03*
X125616Y314817D03*
X126797Y261864D03*
X130986Y123872D03*
Y134699D03*
X139986Y123872D03*
Y134699D03*
X161892Y88833D03*
X163860Y115998D03*
X170892Y88833D03*
X172860Y115998D03*
X211498Y61667D03*
Y70526D03*
X220498Y61667D03*
Y70526D03*
D02*
D146*
X116616Y314817D03*
X117797Y261864D03*
X125616Y314817D03*
X126797Y261864D03*
X130986Y123872D03*
Y134699D03*
X139986Y123872D03*
Y134699D03*
X161892Y88833D03*
X163860Y115998D03*
X170892Y88833D03*
X172860Y115998D03*
X211498Y61667D03*
Y70526D03*
X220498Y61667D03*
Y70526D03*
D02*
D147*
X79974Y302199D03*
D03*
D02*
D148*
Y272199D03*
D03*
Y282199D03*
D03*
Y292199D03*
D03*
X89974Y267199D03*
D03*
Y277199D03*
D03*
Y287199D03*
D03*
Y297199D03*
D03*
D02*
D149*
X38990Y258557D03*
D03*
Y268557D03*
D03*
Y300841D03*
D03*
Y310841D03*
D03*
D02*
D150*
X149659Y222691D03*
Y228990D03*
X158321Y222691D03*
Y228990D03*
D02*
D151*
X149659Y222691D03*
Y228990D03*
X158321Y222691D03*
Y228990D03*
D02*
D152*
X149659Y222691D03*
Y228990D03*
X158321Y222691D03*
Y228990D03*
D02*
D153*
X141195Y307730D03*
Y314817D03*
D02*
D154*
Y307730D03*
Y314817D03*
D02*
D155*
Y307730D03*
Y314817D03*
D02*
D156*
X158321Y98478D03*
Y107927D03*
X174069Y98478D03*
Y107927D03*
D02*
D157*
X158321Y98478D03*
Y107927D03*
X174069Y98478D03*
Y107927D03*
D02*
D158*
X158321Y98478D03*
Y107927D03*
X174069Y98478D03*
Y107927D03*
D02*
D159*
X51825Y139226D03*
Y156549D03*
X62652Y68951D03*
Y86274D03*
D02*
D160*
X51825Y139226D03*
Y156549D03*
X62652Y68951D03*
Y86274D03*
D02*
D161*
X51825Y139226D03*
Y156549D03*
X62652Y68951D03*
Y86274D03*
D02*
D162*
X156313Y51628D03*
D03*
X166313D03*
D03*
X176313D03*
D03*
X186313D03*
D03*
X196313D03*
D03*
D02*
D163*
X36864Y132920D03*
Y146320D03*
D02*
D164*
Y132920D03*
Y146320D03*
D02*
D165*
Y132920D03*
Y146320D03*
X0Y0D02*
M02*
