G05
M48
INCH,TZ
FMAT,2
T1C000.01181
T2C000.01575
T3C000.01614
T4C000.02008
T5C000.03189
T6C000.03500
T7C000.03543
T8C000.03937
T9C000.04016
T10C000.04724
T11C000.06299
T12C000.12795
%
T001
X1.63045Y1.70722
X1.65900Y1.70722
T002
X1.33715Y2.95722
X1.36470Y2.81549
X1.45329Y1.95722
X1.49659Y2.33321
X1.58222Y2.00053
X1.64817Y1.86864
X1.65014Y2.29581
X1.68459Y2.00053
X1.70722Y1.70526
X1.74069Y1.70526
X1.78793Y1.25841
X1.88439Y1.54974
X1.91195Y1.50250
X1.91195Y1.61470
X1.93754Y2.55959
X1.96313Y2.39423
X1.97691Y0.80742
X2.01037Y1.00250
X2.03400Y2.46510
X2.05762Y1.28400
X2.08124Y0.97100
X2.08124Y2.39620
X2.28793Y1.23085
X2.31156Y1.12848
X2.33911Y1.23085
X2.33911Y1.64620
X2.36470Y1.28203
X2.36470Y1.69148
X2.39226Y1.32533
X2.39226Y1.64226
T003
X1.08892Y2.73478
X1.09522Y2.83321
X1.09699Y3.03006
X1.10289Y2.93360
X1.92179Y1.20722
X1.92179Y1.25841
X1.92179Y1.30742
T004
X0.39620Y1.69679
X0.73872Y1.54581
X0.95722Y0.69738
X1.02022Y0.37061
X1.07337Y1.87258
X1.07337Y1.93557
X1.07337Y1.99266
X1.07337Y2.05171
X1.07337Y2.10683
X1.26825Y2.67770
X1.30565Y2.09502
X1.30565Y2.24266
X1.32140Y3.14817
X1.34502Y1.90801
X1.40211Y1.18360
X1.40211Y1.40801
X1.41195Y2.99463
X1.65919Y1.28400
X2.07533Y0.85742
X2.12258Y1.46116
X2.29581Y0.80565
X2.29778Y0.85742
X2.29778Y0.90742
X2.29778Y0.95742
X2.35683Y0.42179
T005
X0.05565Y0.86549
X1.17770Y2.49856
X1.50841Y0.66785
X1.52219Y2.49856
X2.44148Y0.70329
T006
X0.49856Y0.68754
X1.56313Y0.51628
X1.66313Y0.51628
X1.76313Y0.51628
X1.86313Y0.51628
X1.96313Y0.51628
T007
X0.79974Y2.72199
X0.79974Y2.82199
X0.79974Y2.92199
X0.79974Y3.02199
X0.89974Y2.67199
X0.89974Y2.77199
X0.89974Y2.87199
X0.89974Y2.97199
T008
X2.35683Y0.34699
X2.35683Y0.60289
X2.53400Y0.34699
X2.53400Y0.60289
T009
X0.38990Y2.58557
X0.38990Y2.68557
X0.38990Y3.00841
X0.38990Y3.10841
T010
X1.73675Y2.63045
X1.73675Y2.73045
X1.83675Y2.63045
X1.83675Y2.73045
X1.93675Y2.63045
X1.93675Y2.73045
X2.03675Y2.63045
X2.03675Y2.73045
X2.13675Y2.63045
X2.13675Y2.73045
X2.23675Y2.63045
X2.23675Y2.73045
X2.33675Y2.63045
X2.33675Y2.73045
X2.43675Y2.63045
X2.43675Y2.73045
T011
X0.25053Y0.46549
X0.25053Y0.66549
X0.25053Y0.86549
X0.25053Y1.06549
X0.66982Y2.53793
X0.66982Y3.15604
T012
X0.12455Y0.12848
X0.12455Y3.39620
X0.54974Y2.62199
X0.54974Y3.07199
X2.53793Y0.12848
X2.53793Y3.39620
M30
