G04 DesignSpark PCB Gerber Version 9.0 Build 5138 *
G04 #@! TF.Part,Single*
G04 #@! TF.FileFunction,Copper,L2,Bot *
G04 #@! TF.FilePolarity,Positive *
%FSLAX35Y35*%
%MOIN*%
G04 #@! TA.AperFunction,ViaPad*
%ADD26R,0.01890X0.03504*%
%ADD23R,0.02047X0.03504*%
G04 #@! TA.AperFunction,ComponentPad*
%ADD95R,0.05512X0.05512*%
%ADD102R,0.06000X0.06000*%
%ADD79R,0.09449X0.09449*%
G04 #@! TD.AperFunction*
%ADD10C,0.00500*%
%ADD14C,0.01000*%
%ADD21C,0.01500*%
%ADD15C,0.01969*%
%ADD71C,0.02126*%
%ADD20C,0.02500*%
G04 #@! TA.AperFunction,ViaPad*
%ADD27C,0.02795*%
G04 #@! TD.AperFunction*
%ADD18C,0.03150*%
%ADD19C,0.03346*%
G04 #@! TA.AperFunction,ViaPad*
%ADD70C,0.03543*%
G04 #@! TA.AperFunction,ComponentPad*
%ADD96C,0.05512*%
G04 #@! TA.AperFunction,ViaPad*
%ADD22C,0.05591*%
%ADD24R,0.03504X0.02047*%
G04 #@! TA.AperFunction,ComponentPad*
%ADD87C,0.05906*%
G04 #@! TA.AperFunction,WasherPad*
%ADD28C,0.06000*%
G04 #@! TA.AperFunction,ComponentPad*
%ADD97C,0.06024*%
%ADD86C,0.07087*%
%ADD80C,0.09449*%
G04 #@! TA.AperFunction,ViaPad*
%ADD25C,0.19685*%
X0Y0D02*
D02*
D10*
X2612Y84106D02*
Y17964D01*
G75*
G02X23547Y12848I9843J-5115*
G01*
G75*
G02X17570Y3006I-11093*
G01*
X248678*
G75*
G02X242701Y12848I5115J9843*
G01*
G75*
G02X263636Y17964I11093*
G01*
Y23872*
G75*
G03X259699Y27809I-3937*
G01*
X247888*
G75*
G03X243951Y23872J-3937*
G01*
Y22297*
G75*
G02X240014Y18360I-3937*
G01*
X36864*
G75*
G02X17179Y38045J19685*
G01*
Y302612*
G75*
G02X38833Y324266I21654*
G01*
X225841*
G75*
G02X249463Y300644J-23622*
G01*
Y86864*
G75*
G03X255368Y80959I5906*
G01*
X258518*
G75*
G03X263636Y86077J5118*
G01*
Y334983*
G75*
G02X242913Y339620I-9843J4637*
G01*
G75*
G02X249157Y349463I10880*
G01*
X17091*
G75*
G02X23335Y339620I-4637J-9843*
G01*
G75*
G02X2612Y334983I-10880*
G01*
Y88993*
G75*
G02X9398Y86549I2953J-2443*
G01*
G75*
G02X2612Y84106I-3833*
G01*
G36*
Y17964*
G75*
G02X23547Y12848I9843J-5115*
G01*
G75*
G02X17570Y3006I-11093*
G01*
X248678*
G75*
G02X242701Y12848I5115J9843*
G01*
G75*
G02X263636Y17964I11093*
G01*
Y23872*
G75*
G03X259699Y27809I-3937*
G01*
X247888*
G75*
G03X243951Y23872J-3937*
G01*
Y22297*
G75*
G02X240014Y18360I-3937*
G01*
X36864*
G75*
G02X17179Y38045J19685*
G01*
Y302612*
G75*
G02X38833Y324266I21654*
G01*
X225841*
G75*
G02X249463Y300644J-23622*
G01*
Y86864*
G75*
G03X255368Y80959I5906*
G01*
X258518*
G75*
G03X263636Y86077J5118*
G01*
Y334983*
G75*
G02X242913Y339620I-9843J4637*
G01*
G75*
G02X249157Y349463I10880*
G01*
X17091*
G75*
G02X23335Y339620I-4637J-9843*
G01*
G75*
G02X2612Y334983I-10880*
G01*
Y88993*
G75*
G02X9398Y86549I2953J-2443*
G01*
G75*
G02X2612Y84106I-3833*
G01*
G37*
X19148Y53006D02*
Y38636D01*
G75*
G03X24463Y33321I5315*
G01*
X112848*
G75*
G03X118754Y39226J5906*
G01*
Y193754*
G75*
G02X120722Y195722I1969*
G01*
X125250*
G75*
G03X127219Y197691J1969*
G01*
Y209896*
G75*
G03X123281Y213833I-3937*
G01*
X101037*
G75*
G03X97100Y209896J-3937*
G01*
Y115014*
G75*
G02X57730Y75644I-39370*
G01*
X44935*
G75*
G03X39030Y69738J-5906*
G01*
Y63833*
G75*
G02X33124Y57927I-5906*
G01*
X24069*
G75*
G03X19148Y53006J-4921*
G01*
X104528Y187258D02*
G75*
G02X110146I2809D01*
G01*
G75*
G02X104528I-2809*
G01*
Y193557D02*
G75*
G02X110146I2809D01*
G01*
G75*
G02X104528I-2809*
G01*
Y199266D02*
G75*
G02X110146I2809D01*
G01*
G75*
G02X104528I-2809*
G01*
Y210683D02*
G75*
G02X110146I2809D01*
G01*
G75*
G02X107880Y207927I-2809*
G01*
G75*
G02X110146Y205171I-544J-2756*
G01*
G75*
G02X104528I-2809*
G01*
G75*
G02X106793Y207927I2809*
G01*
G75*
G02X104528Y210683I544J2756*
G01*
X99213Y37061D02*
G75*
G02X104831I2809D01*
G01*
G75*
G02X99213I-2809*
G01*
X92913Y69738D02*
G75*
G02X98531I2809D01*
G01*
G75*
G02X92913I-2809*
G01*
X45819Y68754D02*
G75*
G02X53894I4037D01*
G01*
G75*
G02X45819I-4037*
G01*
X19291Y46549D02*
G75*
G02X30815I5762D01*
G01*
G75*
G02X19291I-5762*
G01*
X19398Y37061D02*
G36*
Y37025D01*
G75*
G03X22852Y33571I5065J1611*
G01*
X114548*
G75*
G03X118343Y37061I-1700J5656*
G01*
X104831*
G75*
G02X99213I-2809*
G01*
X19398*
G37*
Y45448D02*
G36*
Y37061D01*
X99213*
G75*
G02X104831I2809*
G01*
X118343*
G75*
G03X118754Y39226I-5494J2166*
G01*
Y46549*
X30815*
G75*
G02X19398Y45448I-5762*
G01*
G37*
Y54555D02*
G36*
Y47651D01*
G75*
G02X30815Y46549I5656J-1102*
G01*
X118754*
Y69738*
X98531*
G75*
G02X92913I-2809*
G01*
X53772*
G75*
G02X53894Y68754I-3916J-983*
G01*
G75*
G02X45819I-4037*
G01*
G75*
G02X45941Y69738I4037J1*
G01*
X39030*
Y63833*
G75*
G02X33124Y57927I-5906*
G01*
X24069*
G75*
G03X19398Y54555I0J-4921*
G01*
G37*
X44935Y75644D02*
G36*
G75*
G03X39030Y69738J-5906D01*
G01*
X45941*
G75*
G02X53772I3916J-984*
G01*
X92913*
G75*
G02X98531I2809*
G01*
X118754*
Y187258*
X110146*
G75*
G02X104528I-2809*
G01*
X97100*
Y115014*
Y115013*
G75*
G02X57730Y75644I-39370*
G01*
X44935*
G37*
X97100Y193557D02*
G36*
Y187258D01*
X104528*
G75*
G02X110146I2809*
G01*
X118754*
Y193557*
X110146*
G75*
G02X104528I-2809*
G01*
X97100*
G37*
Y199266D02*
G36*
Y193557D01*
X104528*
G75*
G02X110146I2809*
G01*
X118754*
Y193754*
G75*
G02X120722Y195722I1969*
G01*
X125250*
G75*
G03X126969Y196731J1969*
G01*
Y199266*
X110146*
G75*
G02X104528I-2809*
G01*
X97100*
G37*
Y207927D02*
G36*
Y199266D01*
X104528*
G75*
G02X110146I2809*
G01*
X126969*
Y207927*
X107880*
G75*
G02X110146Y205172I-543J-2756*
G01*
Y205171*
G75*
G02X104528I-2809*
G01*
Y205172*
G75*
G02X106793Y207927I2809*
G01*
X97100*
G37*
Y209896D02*
G36*
Y207927D01*
X106793*
G75*
G02X104528Y210683I543J2756*
G01*
Y210683*
G75*
G02X110146I2809*
G01*
Y210683*
G75*
G02X107880Y207927I-2809*
G01*
X126969*
Y211276*
G75*
G03X124662Y213583I-3687J-1381*
G01*
X99657*
G75*
G03X97100Y209896I1381J-3687*
G01*
G37*
D02*
D14*
X108892Y273478D02*
X121313D01*
G75*
G02X137061Y257730J-15748*
G01*
Y200644*
G75*
G03X159108Y178596I22047*
G01*
X164620*
G75*
G02X170722Y172494J-6102*
G01*
Y170526*
X109522Y283321D02*
X120722D01*
G75*
G02X139226Y264817J-18504*
G01*
Y202022*
G75*
G03X160683Y180565I21457*
G01*
X167376*
G75*
G02X174069Y173872J-6693*
G01*
Y170526*
X133715Y295722D02*
Y296116D01*
G75*
G03X126825Y303006I-6890*
G01*
X109699*
X136470Y281549D02*
Y284699D01*
G75*
G03X127809Y293360I-8661*
G01*
X110289*
X166313Y51628D02*
Y128006D01*
X165919Y128400*
X173675Y273045D02*
Y270722D01*
X178793Y265604*
Y254581*
G75*
G03X186864Y246510I8071*
G01*
X192770*
G75*
G02X198675Y240604J-5906*
G01*
Y122691*
G75*
G02X196707Y120722I-1969*
G01*
X192179*
X176313Y51628D02*
Y123360D01*
X178793Y125841*
X186313Y51628D02*
Y122100D01*
G75*
G02X190250Y126037I3937*
G01*
X190604*
X190801Y125841*
X192179*
X188439Y154974D02*
X166589D01*
G75*
G02X163045Y158518J3543*
G01*
Y170722*
X191195Y161470D02*
X169344D01*
G75*
G02X165900Y164915J3445*
G01*
Y170722*
X191195Y161470D02*
Y150250D01*
X192179Y125841D02*
X193754D01*
G75*
G03X195132Y127219J1378*
G01*
Y143754*
X196313Y144935*
Y239423*
X192179Y130742D02*
Y144738D01*
X193951Y146510*
Y237061*
G75*
G03X188045Y242967I-5906*
G01*
X184305*
G75*
G02X173675Y253596J10630*
G01*
Y263045*
X193675Y273045D02*
Y270722D01*
X188833Y265486*
Y253793*
G75*
G03X193754Y248872I4921*
G01*
X195329*
G75*
G02X201037Y243163J-5709*
G01*
Y100250*
X193754Y255959D02*
Y253203D01*
G75*
G03X195722Y251234I1969*
G01*
X202415*
G75*
G02X205762Y247888J-3346*
G01*
Y128400*
X197691Y80742D02*
X199463D01*
G75*
G03X203400Y84679J3937*
G01*
Y246510*
X208124Y97100D02*
Y239620D01*
X213675Y273045D02*
Y272455D01*
X218754Y267376*
Y257337*
X222100Y249659*
Y90407*
X226766Y85742*
X229778*
X223675Y273045D02*
Y270722D01*
X228793Y265801*
Y256352*
X226431Y249659*
Y98301*
X228990Y95742*
X229778*
X229581Y80565D02*
X224069D01*
X219738Y84896*
Y246904*
G75*
G03X217179Y249463I-2559*
G01*
G75*
G02X214226Y252415J2953*
G01*
Y263045*
X213675*
X229778Y90742D02*
X227868D01*
X224266Y94344*
Y263045*
X223675*
X233675D02*
X233518D01*
Y250053*
G75*
G02X231746Y248281I-1772*
G01*
X230565*
G75*
G03X228793Y246510J-1772*
G01*
Y123085*
X233911Y164620D02*
Y123085D01*
X234108Y273045D02*
X233675D01*
X234502Y272691D02*
X234108D01*
X238833Y268557*
Y248872*
G75*
G02X235880Y245919I-2953*
G01*
X234699*
G75*
G03X231156Y242376J-3543*
G01*
Y112848*
X236470Y169148D02*
Y128203D01*
X239226Y132533D02*
Y164226D01*
D02*
D15*
X5565Y84738D02*
Y81982D01*
Y88360D02*
Y91116D01*
X6191Y333356D02*
X4242Y331407D01*
X7376Y86549D02*
X10132D01*
X18719Y333356D02*
X20667Y331407D01*
X18719Y345884D02*
X20667Y347833D01*
X22409Y43905D02*
X20460Y41956D01*
X22409Y49194D02*
X20460Y51143D01*
X27698Y43905D02*
X29646Y41956D01*
X27698Y49194D02*
X29646Y51143D01*
X47841Y68754D02*
X45085D01*
X49856Y66738D02*
Y63982D01*
Y70770D02*
Y73526D01*
X51872Y68754D02*
X54628D01*
X94935Y69738D02*
X92179D01*
X95722Y68951D02*
Y66195D01*
Y70526D02*
Y73281D01*
X96510Y69738D02*
X99266D01*
X101465Y36504D02*
X99516Y34556D01*
X101465Y37618D02*
X99516Y39567D01*
X102578Y36504D02*
X104527Y34556D01*
X102578Y37618D02*
X104527Y39567D01*
X106549Y210683D02*
X103793D01*
X106780Y186701D02*
X104831Y184752D01*
X106780Y187815D02*
X104831Y189763D01*
X106780Y193000D02*
X104831Y191052D01*
X106780Y194114D02*
X104831Y196063D01*
X106780Y198709D02*
X104831Y196760D01*
X106780Y199822D02*
X104831Y201771D01*
X106780Y204615D02*
X104831Y202666D01*
X106780Y205728D02*
X104831Y207677D01*
X107893Y186701D02*
X109842Y184752D01*
X107893Y187815D02*
X109842Y189763D01*
X107893Y193000D02*
X109842Y191052D01*
X107893Y194114D02*
X109842Y196063D01*
X107893Y198709D02*
X109842Y196760D01*
X107893Y199822D02*
X109842Y201771D01*
X107893Y204615D02*
X109842Y202666D01*
X107893Y205728D02*
X109842Y207677D01*
X108124Y210683D02*
X110880D01*
X247530Y333356D02*
X245581Y331407D01*
X247530Y345884D02*
X245581Y347833D01*
X260057Y333356D02*
X262006Y331407D01*
D02*
D18*
X73872Y154581D02*
Y159246D01*
G75*
G03X63439Y169679I-10433*
G01*
X39620*
D02*
D19*
X25053Y86549D02*
X5565D01*
X156313Y51628D02*
Y35880D01*
G75*
G03X164187Y28006I7874*
G01*
X236864*
G75*
G03X244738Y35880J7874*
G01*
Y70526*
D02*
D70*
X39620Y169679D03*
X73872Y154581D03*
X95722Y69738D03*
X102022Y37061D03*
X107337Y187258D03*
Y193557D03*
Y199266D03*
Y205171D03*
Y210683D03*
X126825Y267770D03*
X130565Y209502D03*
Y224266D03*
X132140Y314817D03*
X134502Y190801D03*
X140211Y118360D03*
Y140801D03*
X141195Y299463D03*
X165919Y128400D03*
X207533Y85742D03*
X212258Y146116D03*
X229581Y80565D03*
X229778Y85742D03*
Y90742D03*
Y95742D03*
X235683Y42179D03*
D02*
D71*
X66982Y253793D02*
Y253400D01*
G75*
G03X70526Y249856I3543*
G01*
X117770*
X89974Y287199D02*
X94541D01*
G75*
G03X102415Y295073J7874*
G01*
Y306943*
G75*
G02X110289Y314817I7874*
G01*
X132140*
X130565Y209502D02*
Y224266D01*
Y249856*
X117770*
X145329Y195722D02*
Y295329D01*
X141195Y299463*
X212258Y146116D02*
X212061D01*
Y85880*
X207337*
Y85742*
X207533*
D02*
D20*
X95722Y69738D02*
Y53400D01*
X102022*
Y37061*
X140211Y140801D02*
X134502Y146510D01*
Y190801*
X150841Y66785D02*
X150447D01*
G75*
G02X140211Y77022J10236*
G01*
Y118360*
X152219Y249856D02*
X156156D01*
G75*
G03X161077Y254778J4921*
G01*
Y270526*
G75*
G02X174856Y284305I13780*
G01*
X183715*
Y273085*
X183675Y273045*
X203675D02*
Y284305D01*
X183715*
X243675Y273045D02*
Y276431D01*
G75*
G03X235801Y284305I-7874*
G01*
X203675*
D02*
D21*
X126825Y267770D02*
Y266195D01*
G75*
G02X120919Y260289I-5906*
G01*
X78203*
G75*
G02X72297Y266195J5906*
G01*
Y276293*
G75*
G02X78203Y282199I5906*
G01*
X79974*
X158222Y200053D02*
Y186864D01*
X164817*
X165014Y229581D02*
Y233321D01*
X149659*
X166313Y51628D02*
Y46116D01*
G75*
G03X170250Y42179I3937*
G01*
X235683*
X168459Y200053D02*
Y186864D01*
X164817*
X235683Y34699D02*
Y42179D01*
Y60289*
D02*
D22*
X5565Y86549D03*
X117770Y249856D03*
X150841Y66785D03*
X152219Y249856D03*
X244148Y70329D03*
D02*
D23*
X133715Y295722D03*
X136470Y281549D03*
X158222Y200053D03*
X165014Y229581D03*
X168459Y200053D03*
X170722Y170526D03*
X174069D03*
X178793Y125841D03*
X188439Y154974D03*
X191195Y150250D03*
Y161470D03*
X193754Y255959D03*
X196313Y239423D03*
X201037Y100250D03*
X203400Y246510D03*
X205762Y128400D03*
X208124Y97100D03*
Y239620D03*
X228793Y123085D03*
X231156Y112848D03*
X233911Y123085D03*
Y164620D03*
X236470Y128203D03*
Y169148D03*
X239226Y132533D03*
Y164226D03*
D02*
D24*
X145329Y195722D03*
X149659Y233321D03*
X164817Y186864D03*
X197691Y80742D03*
D02*
D25*
X12455Y12848D03*
Y339620D03*
X253793Y12848D03*
Y339620D03*
D02*
D26*
X163045Y170722D03*
X165900D03*
D02*
D27*
X108892Y273478D03*
X109522Y283321D03*
X109699Y303006D03*
X110289Y293360D03*
X192179Y120722D03*
Y125841D03*
Y130742D03*
D02*
D28*
X49856Y68754D03*
D02*
D79*
X25053Y106549D03*
D02*
D80*
Y46549D03*
Y66549D03*
Y86549D03*
X66982Y253793D03*
Y315604D03*
D02*
D86*
X173675Y263045D03*
Y273045D03*
X183675Y263045D03*
Y273045D03*
X193675Y263045D03*
Y273045D03*
X203675Y263045D03*
Y273045D03*
X213675Y263045D03*
Y273045D03*
X223675Y263045D03*
Y273045D03*
X233675Y263045D03*
Y273045D03*
X243675Y263045D03*
Y273045D03*
D02*
D87*
X235683Y34699D03*
Y60289D03*
X253400Y34699D03*
Y60289D03*
D02*
D95*
X79974Y302199D03*
D02*
D96*
Y272199D03*
Y282199D03*
Y292199D03*
X89974Y267199D03*
Y277199D03*
Y287199D03*
Y297199D03*
D02*
D97*
X38990Y258557D03*
Y268557D03*
Y300841D03*
Y310841D03*
D02*
D102*
X156313Y51628D03*
X166313D03*
X176313D03*
X186313D03*
X196313D03*
X0Y0D02*
M02*
