G04 DesignSpark PCB Gerber Version 9.0 Build 5138 *
G04 #@! TF.Part,Single*
G04 #@! TF.FileFunction,Copper,L1,Top *
G04 #@! TF.FilePolarity,Positive *
%FSLAX35Y35*%
%MOIN*%
G04 #@! TA.AperFunction,SMDPad,CuDef*
%ADD89R,0.01772X0.07087*%
G04 #@! TA.AperFunction,ViaPad*
%ADD26R,0.01890X0.03504*%
%ADD23R,0.02047X0.03504*%
G04 #@! TA.AperFunction,SMDPad,CuDef*
%ADD74R,0.03071X0.03858*%
%ADD75R,0.03740X0.10433*%
%ADD77R,0.05100X0.06000*%
%ADD93R,0.05118X0.07087*%
%ADD83R,0.05500X0.06000*%
%ADD91R,0.06024X0.06417*%
%ADD90R,0.06299X0.12402*%
%ADD82R,0.06890X0.12598*%
%ADD101R,0.08465X0.08661*%
%ADD72R,0.10236X0.12205*%
%ADD92R,0.13189X0.14173*%
G04 #@! TA.AperFunction,ComponentPad*
%ADD95R,0.05512X0.05512*%
%ADD102R,0.06000X0.06000*%
G04 #@! TA.AperFunction,SMDPad,CuDef*
%ADD103R,0.06300X0.06300*%
G04 #@! TA.AperFunction,ComponentPad*
%ADD79R,0.09449X0.09449*%
G04 #@! TD.AperFunction*
%ADD10C,0.00500*%
%ADD16C,0.00984*%
%ADD14C,0.01000*%
%ADD21C,0.01500*%
%ADD15C,0.01969*%
%ADD71C,0.02126*%
%ADD17C,0.02165*%
%ADD20C,0.02500*%
G04 #@! TA.AperFunction,ViaPad*
%ADD27C,0.02795*%
G04 #@! TD.AperFunction*
%ADD18C,0.03150*%
%ADD19C,0.03346*%
G04 #@! TA.AperFunction,ViaPad*
%ADD70C,0.03543*%
G04 #@! TA.AperFunction,ComponentPad*
%ADD96C,0.05512*%
G04 #@! TA.AperFunction,ViaPad*
%ADD22C,0.05591*%
%ADD24R,0.03504X0.02047*%
G04 #@! TA.AperFunction,ComponentPad*
%ADD87C,0.05906*%
G04 #@! TA.AperFunction,WasherPad*
%ADD28C,0.06000*%
G04 #@! TA.AperFunction,ComponentPad*
%ADD97C,0.06024*%
%ADD86C,0.07087*%
%ADD80C,0.09449*%
G04 #@! TA.AperFunction,ViaPad*
%ADD25C,0.19685*%
G04 #@! TA.AperFunction,SMDPad,CuDef*
%ADD99R,0.04921X0.02362*%
%ADD29R,0.06004X0.02559*%
%ADD84R,0.07283X0.02559*%
%ADD81R,0.06890X0.03740*%
%ADD98R,0.05512X0.04528*%
%ADD100R,0.07087X0.04724*%
%ADD88R,0.06000X0.05100*%
%ADD85R,0.07087X0.05118*%
%ADD94R,0.06000X0.05500*%
%ADD78R,0.08858X0.06890*%
%ADD73R,0.16339X0.08465*%
%ADD76R,0.26772X0.24016*%
X0Y0D02*
D02*
D10*
X2612Y84106D02*
Y78596D01*
G75*
G03X4974Y76234I2362*
G01*
X8970*
Y84791*
G75*
G02X2612Y84106I-3406J1758*
G01*
G36*
Y78596*
G75*
G03X4974Y76234I2362*
G01*
X8970*
Y84791*
G75*
G02X2612Y84106I-3406J1758*
G01*
G37*
Y225644D02*
Y88993D01*
G75*
G02X8970Y88307I2953J-2443*
G01*
Y142573*
G75*
G02X9628Y144263I2500*
G01*
Y148398*
X19874*
Y149856*
G75*
G03X19344Y150385I-529*
G01*
X15407*
G75*
G02X10378Y155415J5030*
G01*
Y157150*
X8156*
Y177209*
X10407*
Y179778*
G75*
G02X16344Y185715I5937*
G01*
X17740*
Y186697*
X23055*
Y204384*
G75*
G02X34502Y215831I11447*
G01*
X38961*
Y225644*
X2612*
G36*
Y88993*
G75*
G02X8970Y88307I2953J-2443*
G01*
Y142573*
G75*
G02X9628Y144263I2500*
G01*
Y148398*
X19874*
Y149856*
G75*
G03X19344Y150385I-529*
G01*
X15407*
G75*
G02X10378Y155415J5030*
G01*
Y157150*
X8156*
Y177209*
X10407*
Y179778*
G75*
G02X16344Y185715I5937*
G01*
X17740*
Y186697*
X23055*
Y204384*
G75*
G02X34502Y215831I11447*
G01*
X38961*
Y225644*
X2612*
G37*
Y334983D02*
Y193951D01*
X23055*
Y204384*
G75*
G02X34502Y215831I11447*
G01*
X38961*
Y225841*
X27022*
G75*
G02X17179Y235683J9843*
G01*
Y240407*
X16785Y300644*
G75*
G02X40407Y324266I23622*
G01*
X225841*
G75*
G02X249463Y300644J-23622*
G01*
Y245919*
G75*
G02X239620Y236077I-9843*
G01*
X204187*
G75*
G03X194344Y226234J-9843*
G01*
Y186864*
G75*
G03X204187Y177022I9843*
G01*
X239620*
G75*
G02X249463Y167179J-9843*
G01*
Y86864*
G75*
G03X255368Y80959I5906*
G01*
X258124*
G75*
G03X264030Y86864J5906*
G01*
Y335933*
G75*
G02X242913Y339620I-10236J3687*
G01*
G75*
G02X250107Y349856I10880*
G01*
X16141*
G75*
G02X23335Y339620I-3687J-10236*
G01*
G75*
G02X2612Y334983I-10880*
G01*
G36*
Y193951*
X23055*
Y204384*
G75*
G02X34502Y215831I11447*
G01*
X38961*
Y225841*
X27022*
G75*
G02X17179Y235683J9843*
G01*
Y240407*
X16785Y300644*
G75*
G02X40407Y324266I23622*
G01*
X225841*
G75*
G02X249463Y300644J-23622*
G01*
Y245919*
G75*
G02X239620Y236077I-9843*
G01*
X204187*
G75*
G03X194344Y226234J-9843*
G01*
Y186864*
G75*
G03X204187Y177022I9843*
G01*
X239620*
G75*
G02X249463Y167179J-9843*
G01*
Y86864*
G75*
G03X255368Y80959I5906*
G01*
X258124*
G75*
G03X264030Y86864J5906*
G01*
Y335933*
G75*
G02X242913Y339620I-10236J3687*
G01*
G75*
G02X250107Y349856I10880*
G01*
X16141*
G75*
G02X23335Y339620I-3687J-10236*
G01*
G75*
G02X2612Y334983I-10880*
G01*
G37*
X10289Y52415D02*
Y39423D01*
G75*
G03X16195Y33518I5906*
G01*
X103793*
G75*
G03X105762Y35486J1969*
G01*
Y40407*
G75*
G03X103793Y42376I-1969*
G01*
X69738*
G75*
G02X67770Y44344J1969*
G01*
Y45722*
G75*
G03X67423Y46897I-2165*
G01*
Y39350*
X59848*
Y47425*
X66942*
G75*
G03X65604Y47888I-1338J-1703*
G01*
X34896*
G75*
G02X33124Y49659J1772*
G01*
Y50447*
G75*
G03X31156Y52415I-1969*
G01*
X26185*
G75*
G02X25914Y52246I-924J1182*
G01*
G75*
G02X30815Y46549I-861J-5697*
G01*
G75*
G02X19291I-5762*
G01*
G75*
G02X24193Y52246I5762*
G01*
G75*
G02X23921Y52415I653J1351*
G01*
X10289*
X89272Y40165D02*
X98236D01*
Y34350*
X89272*
Y40165*
X99213Y37061D02*
G75*
G02X104831I2809D01*
G01*
G75*
G02X99213I-2809*
G01*
X51384Y47425D02*
X58959D01*
Y39350*
X51384*
Y47425*
X10701Y37258D02*
G36*
G75*
G03X14495Y33768I5494J2165D01*
G01*
X104754*
G75*
G03X105512Y34526I-960J1718*
G01*
Y37258*
X104824*
G75*
G02X104831Y37061I-2802J-200*
G01*
G75*
G02X99213I-2809*
G01*
G75*
G02X99220Y37258I2809J-3*
G01*
X98236*
Y34350*
X89272*
Y37258*
X10701*
G37*
X10539Y43388D02*
G36*
Y37723D01*
G75*
G03X10701Y37258I5656J1701*
G01*
X89272*
Y40165*
X98236*
Y37258*
X99220*
G75*
G02X104824I2802J-197*
G01*
X105512*
Y41368*
G75*
G03X103793Y42376I-1719J-960*
G01*
X69738*
G75*
G02X68018Y43388J1969*
G01*
X67423*
Y39350*
X59848*
Y43388*
X58959*
Y39350*
X51384*
Y43388*
X29870*
G75*
G02X20236I-4817J3161*
G01*
X10539*
G37*
Y52165D02*
G36*
Y43388D01*
X20236*
G75*
G02X19291Y46549I4817J3162*
G01*
G75*
G02X23766Y52165I5763J-1*
G01*
X10539*
G37*
X30815Y46549D02*
G36*
G75*
G02X29870Y43388I-5762J0D01*
G01*
X51384*
Y47425*
X58959*
Y43388*
X59848*
Y47425*
X66942*
G75*
G03X65604Y47888I-1337J-1702*
G01*
X34896*
G75*
G02X33124Y49659J1772*
G01*
Y50447*
G75*
G03X32116Y52165I-1969*
G01*
X26341*
G75*
G02X30815Y46549I-1289J-5617*
G01*
G37*
X67423Y46897D02*
G36*
Y43388D01*
X68018*
G75*
G02X67770Y44344I1720J957*
G01*
Y45722*
G75*
G03X67423Y46897I-2170J-2*
G01*
G37*
X13970Y78203D02*
Y60540D01*
G75*
G03X19994Y53916I8327J1521*
G01*
X23919*
G75*
G02X24846Y53596I2J-1500*
G01*
X25260*
G75*
G02X26185Y53916I925J-1181*
G01*
X31156*
G75*
G02X32609Y53596J-3469*
G01*
X51384*
Y56425*
X58959*
Y53596*
X59848*
Y56425*
X67423*
Y53596*
X68707*
Y61150*
X76281*
Y53596*
X77762*
Y61346*
X84957*
G75*
G02X81352Y66785I2300J5439*
G01*
Y76825*
G75*
G02X87258Y82730I5906*
G01*
X137455*
G75*
G03X141392Y86667J3937*
G01*
Y94344*
G75*
G03X137455Y98281I-3937*
G01*
X127272*
Y84154*
X118898*
Y98281*
X76431*
G75*
G03X71116Y92967J-5315*
G01*
Y66392*
G75*
G02X66589Y61864I-4528*
G01*
X42376*
G75*
G02X37455Y66785J4921*
G01*
Y78203*
X13970*
X19291Y66549D02*
G75*
G02X30815I5762D01*
G01*
G75*
G02X19291I-5762*
G01*
X14220D02*
G36*
Y59528D01*
G75*
G03X19994Y53916I8077J2533*
G01*
X23919*
G75*
G02X24372Y53846I3J-1498*
G01*
X25734*
G75*
G02X26185Y53916I450J-1428*
G01*
X31156*
G75*
G02X31846Y53846I0J-3467*
G01*
X51384*
Y56425*
X58959*
Y53846*
X59848*
Y56425*
X67423*
Y53846*
X68707*
Y61150*
X76281*
Y53846*
X77762*
Y61346*
X84957*
G75*
G02X81357Y66549I2300J5439*
G01*
X71116*
Y66392*
Y66391*
G75*
G02X66589Y61864I-4528*
G01*
X42376*
G75*
G02X37460Y66549I0J4921*
G01*
X30815*
G75*
G02X19291I-5762*
G01*
X14220*
G37*
Y78203D02*
G36*
Y66549D01*
X19291*
G75*
G02X30815I5762*
G01*
X37460*
G75*
G02X37455Y66785I4913J233*
G01*
Y66785*
Y78203*
X14220*
G37*
X71116Y92967D02*
G36*
Y66549D01*
X81357*
G75*
G02X81352Y66785I5902J236*
G01*
Y76825*
G75*
G02X87258Y82730I5906*
G01*
X137455*
G75*
G03X141142Y85287I0J3937*
G01*
Y95725*
G75*
G03X138835Y98031I-3687J-1381*
G01*
X127272*
Y84154*
X118898*
Y98031*
X74820*
G75*
G03X71116Y92967I1611J-5065*
G01*
G37*
X13970Y139898D02*
Y76234D01*
X64030*
G75*
G03X67573Y79778J3543*
G01*
Y80906*
X57382*
Y91642*
X67573*
Y96313*
G75*
G02X72297Y101037I4724*
G01*
X103793*
G75*
G03X109699Y106943J5906*
G01*
Y122343*
X97933*
Y132882*
X109699*
Y154035*
X102067*
Y163000*
X109699*
Y163120*
X90211*
G75*
G02X89063Y163242I0J5439*
G01*
X87848*
G75*
G02X83911Y167179J3937*
G01*
Y179778*
G75*
G02X87848Y183715I3937*
G01*
X89423*
G75*
G03X93360Y187652J3937*
G01*
Y217770*
G75*
G03X85486Y225644I-7874*
G01*
X68232*
Y215720*
X78990*
G75*
G02X81913Y212797J-2923*
G01*
Y212524*
X86835*
Y195850*
X71146*
Y209874*
X68232*
Y199539*
X38961*
Y209866*
X34502*
G75*
G03X29020Y204384J-5482*
G01*
Y186018*
X29825*
G75*
G02X36262Y179581J-6437*
G01*
Y177209*
X38014*
Y172504*
X38547*
G75*
G02X42642Y169679I1073J-2825*
G01*
G75*
G02X38547Y166854I-3022*
G01*
X37801*
Y162362*
X29722*
Y166996*
X32878*
G75*
G02X32504Y167150I883J2684*
G01*
X29510*
Y177209*
X31262*
Y179581*
G75*
G03X29825Y181018I-1437*
G01*
X28823*
Y180339*
X17740*
Y181715*
X16344*
G75*
G03X14407Y179778J-1937*
G01*
Y177209*
X16659*
Y157150*
X14437*
Y155415*
G75*
G03X15407Y154445I970*
G01*
X19344*
G75*
G02X23933Y149856J-4589*
G01*
Y148398*
X24730*
Y139898*
X23904*
Y137358*
X30620*
Y129283*
X23443*
Y132044*
G75*
G02X23333Y131922I-1541J1277*
G01*
Y129071*
X15730*
Y137571*
X19904*
Y139898*
X13970*
X86713Y162803D02*
X97646D01*
Y153839*
X86713*
Y162803*
X76500Y133094D02*
X83094D01*
Y122130*
X64256*
Y133094*
X70850*
Y139846*
X57307*
Y133646*
X46343*
Y141815*
X36864*
G75*
G02X36090Y141919J2923*
G01*
X32463*
Y150719*
X41266*
Y147661*
X71047*
Y153508*
G75*
G02X70850Y154581I2825J1073*
G01*
G75*
G02X76894I3022*
G01*
G75*
G02X76697Y153508I-3022*
G01*
Y145491*
G75*
G02X76795Y144738I-2826J-752*
G01*
Y142770*
G75*
G02X76697Y142018I-2922*
G01*
Y141195*
G75*
G02X76500Y140159I-2826*
G01*
Y133094*
X41689Y192476D02*
X47504D01*
Y179969*
X41689*
Y192476*
X46555Y161917D02*
X57094D01*
Y151181*
X46555*
Y161917*
X59689Y192476D02*
X65504D01*
Y179969*
X59689*
Y192476*
X29510Y162209D02*
X38014D01*
Y157150*
X29510*
Y162209*
X32463Y137321D02*
X41266D01*
Y128522*
X39787*
Y113242*
G75*
G02X31028Y103664I-9616*
G01*
Y100575*
X19079*
Y112524*
X31028*
Y109571*
G75*
G03X33941Y113242I-856J3671*
G01*
Y128522*
X32463*
Y137321*
X19291Y86549D02*
G75*
G02X30815I5762D01*
G01*
G75*
G02X19291I-5762*
G01*
X16929Y174319D02*
X29240D01*
Y160039*
X16929*
Y174319*
X14220Y86549D02*
G36*
Y76484D01*
X65337*
G75*
G03X67573Y79778I-1307J3293*
G01*
Y80906*
X57382*
Y86549*
X30815*
G75*
G02X19291I-5762*
G01*
X14220*
G37*
Y118948D02*
G36*
Y86549D01*
X19291*
G75*
G02X30815I5762*
G01*
X57382*
Y91642*
X67573*
Y96313*
G75*
G02X72297Y101037I4724*
G01*
X103793*
G75*
G03X109449Y105243J5906*
G01*
Y118948*
X39787*
Y113242*
G75*
G02X31028Y103664I-9616*
G01*
Y100575*
X19079*
Y112524*
X31028*
Y109571*
G75*
G03X33941Y113242I-857J3672*
G01*
Y118948*
X14220*
G37*
Y139866D02*
G36*
Y118948D01*
X33941*
Y128522*
X32463*
Y137321*
X41266*
Y128522*
X39787*
Y118948*
X109449*
Y122343*
X97933*
Y132882*
X109449*
Y139866*
X76500*
Y133094*
X83094*
Y122130*
X64256*
Y133094*
X70850*
Y139846*
X57307*
Y133646*
X46343*
Y139866*
X23904*
Y137358*
X30620*
Y129283*
X23443*
Y132044*
G75*
G02X23333Y131922I-1696J1416*
G01*
Y129071*
X15730*
Y137571*
X19904*
Y139866*
X14220*
G37*
Y139898D02*
G36*
Y139866D01*
X19904*
Y139898*
X14220*
G37*
X14437Y157150D02*
G36*
Y155415D01*
G75*
G03X15407Y154445I970*
G01*
X19344*
G75*
G02X23933Y149856J-4589*
G01*
Y148398*
X24730*
Y139898*
X23904*
Y139866*
X46343*
Y141815*
X36864*
G75*
G02X36090Y141919I3J2943*
G01*
X32463*
Y150719*
X41266*
Y147661*
X71047*
Y153508*
G75*
G02X70850Y154581I2826J1073*
G01*
G75*
G02X76894I3022*
G01*
G75*
G02X76697Y153508I-3022*
G01*
Y145491*
G75*
G02X76795Y144738I-2835J-754*
G01*
Y142770*
G75*
G02X76697Y142018I-2933J2*
G01*
Y141195*
G75*
G02X76500Y140159I-2826*
G01*
Y139866*
X109449*
Y154035*
X102067*
Y158321*
X97646*
Y153839*
X86713*
Y158321*
X57094*
Y151181*
X46555*
Y158321*
X38014*
Y157150*
X29510*
Y158321*
X16659*
Y157150*
X14437*
G37*
X16659Y167179D02*
G36*
Y158321D01*
X29510*
Y162209*
X38014*
Y158321*
X46555*
Y161917*
X57094*
Y158321*
X86713*
Y162803*
X97646*
Y158321*
X102067*
Y163000*
X109449*
Y163120*
X90211*
G75*
G02X89063Y163242I0J5440*
G01*
X87848*
G75*
G02X83911Y167179J3937*
G01*
X41317*
G75*
G02X38547Y166854I-1697J2500*
G01*
X37801*
Y162362*
X29722*
Y166996*
X32878*
G75*
G02X32504Y167150I884J2685*
G01*
X29510*
Y167179*
X29240*
Y160039*
X16929*
Y167179*
X16659*
G37*
X14407Y179778D02*
G36*
Y177209D01*
X16659*
Y167179*
X16929*
Y174319*
X29240*
Y167179*
X29510*
Y177209*
X31262*
Y179581*
G75*
G03X29825Y181018I-1437*
G01*
X28823*
Y180339*
X17740*
Y181715*
X16344*
G75*
G03X14407Y179778J-1937*
G01*
G37*
X29020Y186222D02*
G36*
Y186018D01*
X29825*
G75*
G02X36262Y179581J-6437*
G01*
Y177209*
X38014*
Y172504*
X38547*
G75*
G02X42642Y169679I1072J-2825*
G01*
G75*
G02X41317Y167179I-3022J0*
G01*
X83911*
Y179778*
G75*
G02X87848Y183715I3937*
G01*
X89423*
G75*
G03X93092Y186222J3937*
G01*
X65504*
Y179969*
X59689*
Y186222*
X47504*
Y179969*
X41689*
Y186222*
X29020*
G37*
Y204384D02*
G36*
Y186222D01*
X41689*
Y192476*
X47504*
Y186222*
X59689*
Y192476*
X65504*
Y186222*
X93092*
G75*
G03X93360Y187652I-3669J1429*
G01*
Y217770*
G75*
G03X87454Y225394I-7874J0*
G01*
X68232*
Y215720*
X78990*
G75*
G02X81913Y212797J-2923*
G01*
Y212524*
X86835*
Y195850*
X71146*
Y209874*
X68232*
Y199539*
X38961*
Y209866*
X34502*
G75*
G03X29020Y204384J-5482*
G01*
G37*
X85337Y61201D02*
Y53596D01*
X89272*
Y58276*
X98236*
Y53596*
X104384*
G75*
G03X106549Y55762J2165*
G01*
Y58715*
G75*
G03X104384Y60880I-2165*
G01*
X87258*
G75*
G02X85337Y61201J5906*
G01*
G36*
Y53596*
X89272*
Y58276*
X98236*
Y53596*
X104384*
G75*
G03X106549Y55762J2165*
G01*
Y58715*
G75*
G03X104384Y60880I-2165*
G01*
X87258*
G75*
G02X85337Y61201J5906*
G01*
G37*
X87809Y165437D02*
G75*
G03X90211Y164620I2401J3120D01*
G01*
X114817*
G75*
G03X118754Y168557J3937*
G01*
Y193754*
G75*
G02X120722Y195722I1969*
G01*
X125250*
G75*
G03X125948Y195850J1969*
G01*
X111697*
Y212524*
X126213*
G75*
G03X123281Y213833I-2931J-2628*
G01*
X101037*
G75*
G03X97100Y209896J-3937*
G01*
Y176825*
X90211*
G75*
G03X86784Y174827J-3937*
G01*
X97858*
Y165437*
X87809*
X101854Y175024D02*
X113213D01*
Y165634*
X101854*
Y175024*
X104315Y187258D02*
G75*
G02X110358I3022D01*
G01*
G75*
G02X104315I-3022*
G01*
Y210683D02*
G75*
G02X110358I3022D01*
G01*
G75*
G02X108576Y207927I-3022*
G01*
G75*
G02X107978Y202219I-1239J-2756*
G01*
G75*
G02X108328Y196411I-642J-2953*
G01*
G75*
G02X110358Y193557I-992J-2854*
G01*
G75*
G02X104315I-3022*
G01*
G75*
G02X106345Y196411I3022*
G01*
G75*
G02X106695Y202219I992J2854*
G01*
G75*
G02X106098Y207927I642J2953*
G01*
G75*
G02X104315Y210683I1239J2756*
G01*
X87809Y165437D02*
G36*
G75*
G03X88830Y164870I2402J3120D01*
G01*
X116197*
G75*
G03X118754Y168557I-1381J3687*
G01*
Y170329*
X113213*
Y165634*
X101854*
Y170329*
X97858*
Y165437*
X87809*
G37*
X87034Y175214D02*
G36*
Y174827D01*
X97858*
Y170329*
X101854*
Y175024*
X113213*
Y170329*
X118754*
Y187258*
X110358*
G75*
G02X104315I-3022*
G01*
X97100*
Y176825*
X90211*
G75*
G03X87034Y175214I0J-3937*
G01*
G37*
X97100Y202120D02*
G36*
Y187258D01*
X104315*
G75*
G02X110358I3022*
G01*
X118754*
Y193754*
G75*
G02X120722Y195722I1969*
G01*
X125250*
G75*
G03X125948Y195850I0J1971*
G01*
X111697*
Y202120*
X108328*
G75*
G02X110358Y199266I-992J-2854*
G01*
G75*
G02X108328Y196411I-3022*
G01*
G75*
G02X110358Y193557I-991J-2854*
G01*
Y193557*
G75*
G02X104315I-3022*
G01*
Y193557*
G75*
G02X106345Y196411I3021*
G01*
G75*
G02X104315Y199266I992J2854*
G01*
G75*
G02X106345Y202120I3022*
G01*
X97100*
G37*
Y209896D02*
G36*
Y202120D01*
X106345*
G75*
G02X106695Y202219I992J-2855*
G01*
G75*
G02X104315Y205171I642J2953*
G01*
G75*
G02X106098Y207927I3022*
G01*
G75*
G02X104315Y210683I1240J2757*
G01*
G75*
G02X106487Y213583I3022*
G01*
X99657*
G75*
G03X97100Y209896I1381J-3687*
G01*
G37*
X107978Y202219D02*
G36*
G75*
G02X108328Y202120I-642J-2954D01*
G01*
X111697*
Y212524*
X125963*
Y212778*
G75*
G03X124662Y213583I-2681J-2883*
G01*
X108187*
G75*
G02X110358Y210683I-850J-2900*
G01*
G75*
G02X108576Y207927I-3022J1*
G01*
G75*
G02X110358Y205171I-1239J-2756*
G01*
G75*
G02X107978Y202219I-3022*
G01*
G37*
X98872Y66982D02*
G75*
G03X98957Y66170I3936D01*
G01*
Y73984*
X107055*
Y65492*
X99165*
G75*
G03X102809Y63045I3644J1490*
G01*
X104778*
G75*
G02X108715Y59108J-3937*
G01*
Y39030*
G75*
G03X114620Y33124I5906*
G01*
X194344*
G75*
G03X202219Y40998J7874*
G01*
Y67573*
X190998*
Y48478*
G75*
G02X187061Y44541I-3937*
G01*
X136470*
G75*
G02X130565Y50447J5906*
G01*
Y73085*
G75*
G03X127272Y78381I-5906*
G01*
Y64469*
X118898*
Y78945*
X125389*
G75*
G03X124659Y78990I-730J-5861*
G01*
X100841*
G75*
G03X98872Y77022J-1969*
G01*
Y66982*
X192276Y55665D02*
X200350D01*
Y47591*
X192276*
Y55665*
X114075Y53650D02*
X123039D01*
Y38976*
X114075*
Y53650*
X108715Y51628D02*
G36*
Y39030D01*
G75*
G03X112920Y33374I5906*
G01*
X196313*
G75*
G03X201969Y39030I-1969J7624*
G01*
Y51628*
X200350*
Y47591*
X192276*
Y51628*
X190998*
Y48478*
G75*
G02X187061Y44541I-3937*
G01*
X136470*
G75*
G02X130565Y50447J5906*
G01*
Y51628*
X123039*
Y38976*
X114075*
Y51628*
X108715*
G37*
X99122Y77982D02*
G36*
Y73984D01*
X107055*
Y65492*
X99165*
G75*
G03X102809Y63045I3644J1490*
G01*
X104778*
G75*
G02X108715Y59108J-3937*
G01*
Y51628*
X114075*
Y53650*
X123039*
Y51628*
X130565*
Y73085*
G75*
G03X127272Y78381I-5906*
G01*
Y64469*
X118898*
Y78740*
X99880*
G75*
G03X99122Y77982I960J-1718*
G01*
G37*
X190998Y67573D02*
G36*
Y51628D01*
X192276*
Y55665*
X200350*
Y51628*
X201969*
Y67573*
X190998*
G37*
X150841Y82927D02*
G75*
G03X158715Y75053I7874D01*
G01*
X208577*
Y75986*
X205766Y78797*
G75*
G02X205033Y80565I1768J1768*
G01*
Y83742*
X190280*
Y82742*
X194689*
Y83016*
X200693*
Y78469*
X194689*
Y78742*
X190280*
Y78213*
X180496*
Y98836*
G75*
G02X179184Y99427I69J1906*
G01*
X179043Y99574*
Y94685*
X169094*
Y100902*
X163245*
X163114Y100771*
Y94866*
X162683*
Y92833*
X166142*
Y84833*
X157642*
Y92833*
X158683*
Y94866*
X153528*
Y102091*
X159039*
X161082Y104134*
X153346*
Y111720*
X163295*
Y104717*
X169276*
Y111539*
X172069*
Y111998*
X168610*
Y119998*
X177110*
Y111998*
X176069*
Y111539*
X178862*
Y107650*
X180496*
Y108031*
X180315*
Y113453*
X180496*
Y120999*
G75*
G03X178392Y122839I-3474J-1852*
G01*
X176520*
Y123085*
X158518*
G75*
G03X150841Y115407J-7677*
G01*
Y82927*
X166461Y93014D02*
X175323D01*
Y84652*
X166461*
Y93014*
X159429Y120179D02*
X168291D01*
Y111817*
X159429*
Y120179*
X151091Y88833D02*
G36*
Y80959D01*
G75*
G03X156746Y75303I7624J1969*
G01*
X208327*
Y76236*
X205766Y78797*
G75*
G02X205033Y80564I1766J1767*
G01*
G75*
G02Y80565I2820J0*
G01*
Y83742*
X190280*
Y82742*
X194689*
Y83016*
X200693*
Y78469*
X194689*
Y78742*
X190280*
Y78213*
X180496*
Y88833*
X175323*
Y84652*
X166461*
Y88833*
X166142*
Y84833*
X157642*
Y88833*
X151091*
G37*
Y115998D02*
G36*
Y88833D01*
X157642*
Y92833*
X158683*
Y94866*
X153528*
Y102091*
X159039*
X161082Y104134*
X153346*
Y111720*
X163295*
Y104717*
X169276*
Y111539*
X172069*
Y111998*
X168610*
Y115998*
X168291*
Y111817*
X159429*
Y115998*
X151091*
G37*
X162683Y94866D02*
G36*
Y92833D01*
X166142*
Y88833*
X166461*
Y93014*
X175323*
Y88833*
X180496*
Y98836*
G75*
G02X179184Y99427I70J1907*
G01*
X179043Y99574*
Y94685*
X169094*
Y100902*
X163245*
X163114Y100771*
Y94866*
X162683*
G37*
X176069Y111998D02*
G36*
Y111539D01*
X178862*
Y107650*
X180496*
Y108031*
X180315*
Y113453*
X180496*
Y115998*
X177110*
Y111998*
X176069*
G37*
X151091Y117351D02*
G36*
Y115998D01*
X159429*
Y120179*
X168291*
Y115998*
X168610*
Y119998*
X177110*
Y115998*
X180496*
Y120999*
G75*
G03X178402Y122835I-3475J-1852*
G01*
X156574*
G75*
G03X151091Y117351I1943J-7427*
G01*
G37*
X190280Y88992D02*
Y87742D01*
X205269*
G75*
G02X210033Y84045I2265J-2000*
G01*
Y81600*
X212844Y78789*
G75*
G02X213577Y77022I-1768J-1768*
G01*
Y75053*
X215014*
G75*
G02X216189Y74707J-2165*
G01*
X224929*
Y66392*
X242611*
G75*
G02X239921Y70329I1537J3937*
G01*
G75*
G02X248374I4226*
G01*
G75*
G02X245685Y66392I-4226*
G01*
X246707*
G75*
G02X248675Y64423J-1969*
G01*
Y32140*
G75*
G03X250644Y30171I1969*
G01*
X256352*
G75*
G03X258321Y32140J1969*
G01*
Y73281*
G75*
G03X254384Y77219I-3937*
G01*
X217179*
G75*
G02X215014Y79384J2165*
G01*
X214817Y121904*
Y137258*
G75*
G02X215998Y138439I1181*
G01*
X216392*
G75*
G03X217126Y138695J1181*
G01*
Y142907*
G75*
G03X216392Y143163I-734J-925*
G01*
X212900*
G75*
G02X211954Y143110I-641J2953*
G01*
G75*
G03X210093Y140801I500J-2309*
G01*
Y120722*
G75*
G02X204187Y114817I-5906*
G01*
X201631*
G75*
G02X197691Y113992I-3940J8997*
G01*
X190280*
Y113453*
X190461*
Y108031*
X190280*
Y97492*
X197100*
G75*
G03X198762Y98257J2187*
G01*
Y103254*
X203313*
Y97246*
X202241*
G75*
G02X197100Y93992I-5140J2433*
G01*
X190280*
Y92492*
X204187*
G75*
G03X206296Y94098J2187*
G01*
X205850*
Y100102*
X210398*
Y94098*
X209844*
G75*
G02X204187Y88992I-5657J581*
G01*
X190280*
X249197Y34699D02*
G75*
G02X257602I4203D01*
G01*
G75*
G02X249197I-4203*
G01*
Y60289D02*
G75*
G02X257602I4203D01*
G01*
G75*
G02X249197I-4203*
G01*
X248675Y34699D02*
G36*
Y32140D01*
G75*
G03X249683Y30421I1969*
G01*
X257313*
G75*
G03X258071Y31180I-960J1718*
G01*
Y34699*
X257602*
G75*
G02X249197I-4203*
G01*
X248675*
G37*
Y60289D02*
G36*
Y34699D01*
X249197*
G75*
G02X257602I4203*
G01*
X258071*
Y60289*
X257602*
G75*
G02X249197I-4203*
G01*
X248675*
G37*
X190530Y88992D02*
G36*
Y87742D01*
X205269*
G75*
G02X210555Y85742I2265J-2000*
G01*
G75*
G02X210033Y84045I-3022*
G01*
Y81600*
X212844Y78789*
G75*
G02X213577Y77022I-1766J-1767*
G01*
Y75053*
X215014*
G75*
G02X216189Y74707I-1J-2167*
G01*
X224929*
Y66392*
X242611*
G75*
G02X239921Y70329I1538J3937*
G01*
G75*
G02X248374I4226*
G01*
G75*
G02X245685Y66392I-4227J0*
G01*
X246707*
G75*
G02X248675Y64423J-1969*
G01*
Y60289*
X249197*
G75*
G02X257602I4203*
G01*
X258071*
Y74662*
G75*
G03X254384Y77219I-3687J-1381*
G01*
X217179*
G75*
G02X215014Y79384J2165*
G01*
X214817Y121904*
Y137258*
G75*
G02X215998Y138439I1181*
G01*
X216392*
G75*
G03X217126Y138695J1181*
G01*
Y142907*
G75*
G03X217119Y142913I-735J-923*
G01*
X211397*
G75*
G03X210093Y140801I1058J-2112*
G01*
Y120722*
G75*
G02X204187Y114817I-5906*
G01*
X201631*
G75*
G02X197691Y113992I-3939J8991*
G01*
X190530*
Y97492*
X197100*
G75*
G03X198762Y98257J2186*
G01*
Y103254*
X203313*
Y97246*
X202241*
G75*
G02X197100Y93992I-5140J2433*
G01*
X190530*
Y92492*
X204187*
G75*
G03X206296Y94098J2187*
G01*
X205850*
Y100102*
X210398*
Y94098*
X209844*
G75*
G02X204187Y88992I-5657J581*
G01*
X190530*
G37*
D02*
D14*
X79974Y292199D02*
X100644D01*
X109522Y283321*
X89974Y277199D02*
X105171D01*
X89974D02*
X105368D01*
X108892Y273675*
Y273478*
X117563*
X89974Y297199D02*
X106549D01*
X110289Y293360*
X92179Y167187D02*
Y165187D01*
Y173077D02*
Y175077D01*
X96108Y170132D02*
X98108D01*
X103604Y170329D02*
X101604D01*
X106437Y186359D02*
X105023Y184944D01*
X106437Y188157D02*
X105023Y189571D01*
X106437Y192658D02*
X105023Y191244D01*
X106437Y194456D02*
X105023Y195870D01*
X106437Y198367D02*
X105023Y196952D01*
X106437Y200165D02*
X105023Y201579D01*
X106437Y204272D02*
X105023Y202858D01*
X106437Y206070D02*
X105023Y207485D01*
X106437Y209784D02*
X105023Y208370D01*
X106437Y211582D02*
X105023Y212996D01*
X107533Y167384D02*
Y165384D01*
Y173274D02*
Y175274D01*
X108236Y186359D02*
X109650Y184944D01*
X108236Y188157D02*
X109650Y189571D01*
X108236Y192658D02*
X109650Y191244D01*
X108236Y194456D02*
X109650Y195870D01*
X108236Y198367D02*
X109650Y196952D01*
X108236Y200165D02*
X109650Y201579D01*
X108236Y204272D02*
X109650Y202858D01*
X108236Y206070D02*
X109650Y207485D01*
X108236Y209784D02*
X109650Y208370D01*
X108236Y211582D02*
X109650Y212996D01*
X110388Y293360D02*
X117957D01*
X111463Y170329D02*
X113463D01*
X113447Y204187D02*
X111447D01*
X117760Y283321D02*
X109719D01*
X119541Y210774D02*
Y212774D01*
X143557Y157346D02*
Y160289D01*
G75*
G02X145526Y162258I1969*
G01*
X146510*
G75*
G03X149266Y165014J2756*
G01*
Y168163*
G75*
G02X152415Y171313I3150*
G01*
X152907*
G75*
G03X155663Y174069J2756*
G01*
Y179187*
X149659Y222691D02*
Y218459D01*
X153104Y215014*
Y207140*
X155663D02*
Y216293D01*
X153990Y217967*
Y227809*
X154581Y228400*
X157730*
X158321Y228990*
X158222Y179187D02*
Y170526D01*
G75*
G02X156254Y168557I-1969*
G01*
X155171*
G75*
G03X152022Y165407J-3150*
G01*
Y157346*
X152219*
X160781Y179187D02*
X160683D01*
Y157346*
X163045Y170722D02*
Y179187D01*
X163341*
X165900Y170722D02*
Y179187D01*
X170722Y170526D02*
Y173085D01*
X171116Y173478*
Y178498*
X171018Y178596*
Y179187*
Y207140D02*
Y245329D01*
G75*
G03X160585Y255762I-10433*
G01*
X149463*
G75*
G02X133715Y271510J15748*
G01*
Y295722*
X173577Y179187D02*
X174069Y178695D01*
X173675Y177809*
X173577Y207140D02*
X173872D01*
Y245919*
G75*
G03X161077Y258715I-12795*
G01*
X149856*
G75*
G02X136470Y272100J13386*
G01*
Y281549*
X174069Y170526D02*
Y172888D01*
X173675Y173281*
Y179089*
X173577Y179187*
X178793Y125841D02*
Y127809D01*
G75*
G02X181726Y130742I2933*
G01*
X185388*
Y90742D02*
X204187D01*
G75*
G03X208124Y94679J3937*
G01*
Y97100*
X185388Y95742D02*
X197100D01*
G75*
G03X201037Y99679J3937*
G01*
Y100250*
X185388Y100742D02*
Y100841D01*
X180565*
X178596Y102809*
X162455*
X159502Y99856*
Y98478*
X158321*
X185388Y105742D02*
X185033D01*
X185014Y105762*
X176431*
X174266Y107927*
X174069*
X185388Y115742D02*
X197691D01*
G75*
G03X205762Y123813J8071*
G01*
Y128400*
X185388Y120742D02*
X190801D01*
Y120722*
X192179*
X191195Y150250D02*
Y142514D01*
G75*
G02X189423Y140742I-1772*
G01*
X185388*
X192179Y125841D02*
X188439D01*
Y125742*
X185388*
X193754Y255959D02*
Y262730D01*
X193675Y262809*
Y263045*
X196313Y239423D02*
Y241392D01*
G75*
G03X190604Y247100I-5709*
G01*
X187652*
G75*
G02X183715Y251037J3937*
G01*
Y263006*
X183675Y263045*
X202799Y154974D02*
X188439D01*
X202799D02*
X200250D01*
Y142041*
G75*
G02X193951Y135742I-6299*
G01*
X185388*
X202799Y164423D02*
X193360D01*
G75*
G03X191195Y162258J-2165*
G01*
Y161470*
X203675Y263045D02*
X203793D01*
Y254778*
X203400Y249659*
Y246510*
X222199Y125742D02*
Y126431D01*
X235486*
G75*
G03X236470Y127415J984*
G01*
Y128203*
X228793Y123085D02*
Y121923D01*
G75*
G02X227612Y120742I-1181*
G01*
X222199*
X229778Y95742D02*
X222199D01*
X231156Y112848D02*
Y112120D01*
G75*
G02X229778Y110742I-1378*
G01*
X222199*
X233911Y123085D02*
Y119344D01*
G75*
G02X230959Y116392I-2953*
G01*
X222199*
Y115742*
X233911Y164620D02*
Y166195D01*
G75*
G03X230368Y169738I-3543*
G01*
X195919*
G75*
G03X186077Y159896J-9843*
G01*
Y156352*
G75*
G02X179384Y149659I-6693*
G01*
X171116*
G75*
G03X168557Y147100J-2559*
G01*
Y146116*
G75*
G02X164817Y142376I-3740*
G01*
X147494*
G75*
G02X143557Y146313J3937*
G01*
Y149846*
X236470Y169148D02*
Y170526D01*
G75*
G03X234896Y172100I-1575*
G01*
X196116*
G75*
G03X184108Y160093J-12008*
G01*
Y156746*
G75*
G02X178990Y151628I-5118*
G01*
X169935*
G75*
G03X166392Y148085J-3543*
G01*
Y147691*
G75*
G02X163439Y144738I-2953*
G01*
X154187*
G75*
G02X152219Y146707J1969*
G01*
Y149846*
X239226Y132533D02*
X234502D01*
X232730Y130762*
Y130742*
X222199*
X239226Y164226D02*
Y171116D01*
G75*
G03X236274Y174069I-2953*
G01*
X195919*
G75*
G03X182140Y160289J-13780*
G01*
Y157533*
G75*
G02X178203Y153596I-3937*
G01*
X168163*
G75*
G03X164423Y149856J-3740*
G01*
X160683*
Y149846*
X243675Y263045D02*
X243754D01*
Y255565*
G75*
G02X237848Y249659I-5906*
G01*
X213242*
G75*
G03X208124Y244541J-5118*
G01*
Y239620*
D02*
D15*
X5565Y84738D02*
Y81982D01*
Y88360D02*
Y91116D01*
X6191Y333356D02*
X4242Y331407D01*
X18719Y333356D02*
X20667Y331407D01*
X18719Y345884D02*
X20667Y347833D01*
X21313Y66549D02*
X18557D01*
X21313Y86549D02*
X18557D01*
X22409Y43905D02*
X20460Y41956D01*
X22409Y49194D02*
X20460Y51143D01*
X23085Y162061D02*
Y159305D01*
Y172297D02*
Y175053D01*
X25053Y62809D02*
Y60053D01*
Y70289D02*
Y73045D01*
Y82809D02*
Y80053D01*
Y90289D02*
Y93045D01*
X27031Y131305D02*
Y128549D01*
Y135337D02*
Y138093D01*
X27698Y43905D02*
X29646Y41956D01*
X27698Y49194D02*
X29646Y51143D01*
X28597Y133321D02*
X31352D01*
X28793Y66549D02*
X31549D01*
X28793Y86549D02*
X31549D01*
X35780Y164679D02*
X38535D01*
X43711Y186222D02*
X40955D01*
X44596Y181990D02*
Y179234D01*
Y190455D02*
Y193211D01*
X45482Y186222D02*
X48238D01*
X48577Y156549D02*
X45821D01*
X51825Y153203D02*
Y150447D01*
Y159896D02*
Y162652D01*
X53406Y43388D02*
X50650D01*
X55073Y156549D02*
X57829D01*
X55171Y41372D02*
Y38616D01*
Y54404D02*
Y57159D01*
X59404Y86274D02*
X56648D01*
X61711Y186222D02*
X58955D01*
X62596Y181990D02*
Y179234D01*
Y190455D02*
Y193211D01*
X62652Y82927D02*
Y80171D01*
Y89620D02*
Y92376D01*
X63482Y186222D02*
X66238D01*
X63636Y41372D02*
Y38616D01*
Y54404D02*
Y57159D01*
X70728Y57112D02*
X67972D01*
X72494Y59128D02*
Y61884D01*
X74260Y57112D02*
X77016D01*
X79783Y57309D02*
X77028D01*
X81549Y59325D02*
Y62081D01*
X83315Y57309D02*
X86071D01*
X88734Y158321D02*
X85978D01*
X91293Y37258D02*
X88537D01*
X91293Y55368D02*
X88537D01*
X92179Y155860D02*
Y153104D01*
X93754Y38144D02*
Y40900D01*
Y56254D02*
Y59010D01*
X95624Y158321D02*
X98380D01*
X96215Y55368D02*
X98970D01*
X99955Y127612D02*
X97199D01*
X101465Y36504D02*
X99516Y34556D01*
X101465Y37618D02*
X99516Y39567D01*
X102578Y36504D02*
X104527Y34556D01*
X102578Y37618D02*
X104527Y39567D01*
X103006Y67514D02*
Y64758D01*
Y71963D02*
Y74719D01*
X104089Y158518D02*
X101333D01*
X105033Y69738D02*
X107789D01*
X107140Y124364D02*
Y121608D01*
Y130860D02*
Y133616D01*
X107533Y156057D02*
Y153301D01*
X116096Y46313D02*
X113341D01*
X118557Y40998D02*
Y38242D01*
Y51628D02*
Y54384D01*
X120631Y69253D02*
X118163Y66785D01*
X120631Y74160D02*
X118163Y76628D01*
X120631Y88938D02*
X118163Y86470D01*
X120631Y93845D02*
X118163Y96313D01*
X121018Y46313D02*
X123774D01*
X125538Y69253D02*
X128006Y66785D01*
X125538Y74160D02*
X128006Y76628D01*
X125538Y88938D02*
X128006Y86470D01*
X125538Y93845D02*
X128006Y96313D01*
X196313Y49612D02*
Y46856D01*
Y53644D02*
Y56400D01*
X198329Y51628D02*
X201085D01*
X247530Y333356D02*
X245581Y331407D01*
X247530Y345884D02*
X245581Y347833D01*
X260057Y333356D02*
X262006Y331407D01*
D02*
D16*
X155270Y107927D02*
X153104D01*
X158321Y106057D02*
Y103892D01*
Y109797D02*
Y111963D01*
X161352Y115998D02*
X159187D01*
X161372Y107927D02*
X163537D01*
X163860Y113740D02*
Y111575D01*
Y118256D02*
Y120421D01*
X168490Y86431D02*
X166469Y84409D01*
X168490Y91235D02*
X166469Y93256D01*
X171018Y98478D02*
X168852D01*
X173294Y86431D02*
X175315Y84409D01*
X173294Y91235D02*
X175315Y93256D01*
X174069Y96608D02*
Y94443D01*
X177120Y98478D02*
X179285D01*
X182238Y110742D02*
X180073D01*
X188537D02*
X190703D01*
X219049Y140742D02*
X216884D01*
X220498Y72783D02*
Y74949D01*
X223006Y70526D02*
X225171D01*
X242519Y68700D02*
X240988Y67169D01*
X242519Y71957D02*
X240988Y73489D01*
X245776Y68700D02*
X247307Y67169D01*
X245776Y71957D02*
X247307Y73489D01*
D02*
D17*
X253400Y36569D02*
Y39734D01*
Y58419D02*
Y55254D01*
Y62159D02*
Y65325D01*
D02*
D18*
X26037Y183518D02*
Y204384D01*
G75*
G02X34502Y212848I8465*
G01*
X56600*
X56549Y212797*
X53596*
X33762Y169679D02*
X39620D01*
X62596Y186222D02*
Y186077D01*
X44596*
Y186222*
X62596D02*
Y186077D01*
X66640*
G75*
G02X74514Y178203J-7874*
G01*
Y165407*
G75*
G03X82388Y157533I7874*
G01*
X92179*
Y158321*
X73675Y127612D02*
Y141195D01*
X73872*
Y154581*
D02*
D19*
X5565Y86549D02*
Y90407D01*
X12455Y339620D02*
X253793D01*
X12455D02*
Y209699D01*
X23085Y167179D02*
X25585Y164679D01*
X51825*
Y156549*
X25053Y46549D02*
X49463D01*
Y43163*
X63833*
Y37258*
X93754*
X25053Y66549D02*
Y86549D01*
Y86274*
X21904*
G75*
G02X16392Y91785J5512*
G01*
Y115211*
G75*
G02X21313Y120132I4921*
G01*
X22691*
G75*
G03X27809Y125250J5118*
G01*
Y133902*
X27031Y133321*
X36864Y132920D02*
Y113242D01*
G75*
G02X30171Y106549I-6693*
G01*
X25053*
X44596Y186222D02*
Y185880D01*
X51825*
Y164817*
X23085*
Y167179*
X49856Y68754D02*
X62455D01*
X62652Y68951*
X51825Y139226D02*
Y142770D01*
X73872*
Y144738*
X36864*
Y146320*
X78990Y204187D02*
Y212797D01*
X53596*
X92179Y158321D02*
X107337D01*
Y134896*
X107140Y134699*
Y127612*
X92179Y170132D02*
X100841D01*
X93754Y55368D02*
X32927D01*
G75*
G02X25053Y63242J7874*
G01*
Y66549*
X100841Y170132D02*
X103596D01*
Y170329*
X107533*
X100841Y170132D02*
X105565D01*
X107337Y171904*
Y204187*
X119541*
X107140Y127612D02*
Y117770D01*
G75*
G02X92179Y102809I-14961*
G01*
X73085*
G75*
G03X65998Y95722J-7087*
G01*
Y92376*
G75*
G02X60093Y86470I-5906*
G01*
X25919*
X25841Y86549*
X25053*
X107533Y158518D02*
X103596D01*
Y158321*
X92179*
X117770Y249856D02*
Y259868D01*
X117797Y259896*
Y261864*
X118557Y46313D02*
X93754D01*
X123085Y71707D02*
Y46510D01*
Y46313*
X118557*
X123085Y91392D02*
X84108D01*
G75*
G03X74069Y81352J-10039*
G01*
Y56352*
X72494Y57112*
X138242Y231559D02*
Y239413D01*
X137839Y239817*
X150841Y66785D02*
X196313D01*
X156313Y51628D02*
X148478D01*
G75*
G02X139620Y60486J8858*
G01*
Y83911*
G75*
G03X131746Y91785I-7874*
G01*
X123478*
X123085Y91392*
X196313Y66785D02*
X211077D01*
X219344Y69541D02*
Y62258D01*
X221313*
Y51010*
X219935Y70919D02*
X220329Y70526D01*
X220498*
Y61667D02*
X220132D01*
Y62061*
X219935*
X244148Y70329D02*
X220498D01*
Y70526*
X244935Y270683D02*
X244344D01*
Y273045*
X243675*
X253400Y60289D02*
Y66392D01*
G75*
G03X249463Y70329I-3937*
G01*
X244148*
X253400Y60289D02*
Y34699D01*
D02*
D70*
X39620Y169679D03*
X73872Y154581D03*
X95722Y69738D03*
X102022Y37061D03*
X107337Y187258D03*
Y193557D03*
Y199266D03*
Y205171D03*
Y210683D03*
X126825Y267770D03*
X130565Y209502D03*
Y224266D03*
X132140Y314817D03*
X134502Y190801D03*
X140211Y118360D03*
Y140801D03*
X141195Y299463D03*
X165919Y128400D03*
X207533Y85742D03*
X212258Y146116D03*
X229581Y80565D03*
X229778Y85742D03*
Y90742D03*
Y95742D03*
X235683Y42179D03*
D02*
D71*
X38990Y268557D02*
Y285289D01*
X66982*
X38990Y300841D02*
Y268793D01*
X66982Y253793D02*
Y285289D01*
Y315604*
X116616Y314817D02*
X67770D01*
X66982Y315604*
X125616Y314817D02*
X132140D01*
X141195*
X150644Y195919D02*
X150447D01*
X145329Y195722*
X158321Y107927D02*
X152022D01*
Y87652*
G75*
G03X157140Y82533I5118*
G01*
X167376*
G75*
G03X171707Y86864J4331*
G01*
Y89002*
X163860Y115998D02*
X164030D01*
Y122100*
X158518*
G75*
G03X152022Y115604J-6496*
G01*
Y107927*
X158321*
X164817Y195919D02*
X150644D01*
X174069Y98478D02*
X172100D01*
Y88833*
X170892*
X185388Y110742D02*
X181884D01*
G75*
G02X178990Y113636J2894*
G01*
Y120132*
G75*
G03X177022Y122100I-1969*
G01*
X163860*
Y115998*
X185388Y110742D02*
X185486D01*
Y110683*
X212061Y100742D02*
X222199D01*
X212061Y110742D02*
Y100742D01*
Y110742D02*
X185388D01*
X220498Y70526D02*
X218557D01*
Y75250*
X212061Y81746*
Y100742*
X222199Y140742D02*
X217967D01*
G75*
G03X212061Y134837J-5906*
G01*
Y110742*
X241589Y157140D02*
X243557D01*
G75*
G02X247494Y153203J-3937*
G01*
Y146707*
G75*
G02X241589Y140801I-5906*
G01*
X222258*
X222199Y140742*
D02*
D20*
X25053Y46549D02*
X25093D01*
X25053Y46510*
X17376*
G75*
G02X11470Y52415J5906*
G01*
Y142573*
X12652*
Y144148*
X13429*
X26037Y183518D02*
X29825D01*
G75*
G02X33762Y179581J-3937*
G01*
Y174679*
X88045Y69738D02*
X95722D01*
X93754Y46313D02*
Y46707D01*
X74266*
X72860Y48112*
X72494*
X102022Y37061D02*
X97888D01*
Y37258*
X93754*
X110683Y158518D02*
X107533D01*
X123085Y91392D02*
X130762D01*
Y168163*
X130565*
Y186864*
X145427*
X130565Y209502D02*
Y186864D01*
X139986Y123872D02*
X140211D01*
Y118360*
X139986Y134699D02*
X140211D01*
Y123872*
X139986*
X140211Y140801D02*
Y134923D01*
X139986Y134699*
X142868Y195722D02*
X139423D01*
G75*
G03X134502Y190801J-4921*
G01*
X145329Y195722D02*
X142868D01*
X152219Y249856D02*
X130565D01*
Y224266*
X196313Y66785D02*
Y51628D01*
X210880Y49276D02*
Y69907D01*
X211498Y70526*
X211077Y66785D02*
Y77022D01*
X207533Y80565*
Y85742*
X211498Y70526D02*
Y71116D01*
D02*
D21*
X20929Y144148D02*
X21904D01*
Y133321*
X19531*
X20929Y144148D02*
X21904D01*
Y149856*
G75*
G03X19344Y152415I-2559*
G01*
X15407*
G75*
G02X12407Y155415J3000*
G01*
Y159679*
X21116Y183715D02*
X16344D01*
G75*
G03X12407Y179778J-3937*
G01*
Y174679*
X38990Y258557D02*
G75*
G02X41982Y255565J-2992D01*
G01*
Y244148*
G75*
G03X47888Y238242I5906*
G01*
X55555*
X38990Y310841D02*
X34098D01*
G75*
G03X28193Y304935J-5906*
G01*
Y238045*
X103006Y69738D02*
X121116D01*
X123085Y71707*
X109699Y303006D02*
X79974D01*
Y302199*
X110289Y293360D02*
X117957D01*
X118350Y303006D02*
X109699D01*
X125260Y283321D02*
Y273675D01*
X125063Y273478*
X125616Y314817D02*
Y293520D01*
X125457Y293360*
X126797Y261864D02*
Y271744D01*
X125063Y273478*
X126797Y266589D02*
Y261864D01*
X141195Y307730D02*
Y299463D01*
X142868Y179187D02*
Y170427D01*
X140604Y168163*
X142868Y207140D02*
Y195722D01*
X145339Y239817D02*
Y237848D01*
X154778*
G75*
G02X158321Y234305J-3543*
G01*
Y228990*
X145427Y186864D02*
Y179187D01*
Y207140D02*
Y210486D01*
G75*
G03X139522Y216392I-5906*
G01*
X103990*
G75*
G02X98085Y222297J5906*
G01*
Y225447*
G75*
G03X92179Y231352I-5906*
G01*
X39630*
G75*
G02X35693Y235289J3937*
G01*
Y238045*
X147986Y207140D02*
Y211077D01*
G75*
G03X139915Y219148I-8071*
G01*
X107337*
G75*
G02X101431Y225053J5906*
G01*
Y232337*
G75*
G03X95526Y238242I-5906*
G01*
X63055*
X149659Y222691D02*
X139610D01*
X138242Y224059*
X149659Y228990D02*
Y233321D01*
X139030*
X138242Y232533*
Y231559*
X149659Y233321D02*
Y228990D01*
X150545Y207140D02*
X150644D01*
Y195919*
X158222Y207140D02*
Y200053D01*
X158321Y98478D02*
X160683D01*
Y89789*
X161892*
Y88833*
X158321Y222691D02*
Y222297D01*
X165014*
Y229581*
X158321Y222691D02*
Y207238D01*
X158222Y207140*
X160781D02*
X158222D01*
X164817Y186864D02*
X145526D01*
Y179482*
X145427Y179384*
Y179187*
X164817Y195919D02*
Y207140D01*
X165900*
X163341*
X168459Y179187D02*
Y186864D01*
X164817*
X168459Y207140D02*
Y200053D01*
X174069Y107927D02*
Y114789D01*
X172860Y115998*
X174463Y136461D02*
X173980D01*
X165919Y128400*
X176136Y207140D02*
X176234D01*
Y195919*
X164817*
X185388Y80742D02*
X197691D01*
X185388Y85742D02*
X207533D01*
X185388Y130742D02*
X192179D01*
X185388Y145742D02*
X176244D01*
X174463Y143961*
X187848Y190791D02*
X182730D01*
X176136Y184197*
Y179187*
X187848Y198291D02*
Y197691D01*
X184699*
X173872Y186864*
X168459*
X212258Y146116D02*
Y162465D01*
X210299Y164423*
X221313Y42010D02*
X211114D01*
X210880Y41776*
X221313Y42010D02*
Y42179D01*
X235683*
X222199Y80742D02*
X229581D01*
Y80565*
X222199Y85742D02*
X229778D01*
X222199Y90742D02*
X229778D01*
X222199Y100742D02*
Y100644D01*
X232337*
X234010Y98970*
X238242*
Y98675*
X222199Y145742D02*
X222514D01*
X224659Y147888*
X231522*
X231746Y147663*
X222199Y145742D02*
X212632D01*
X212258Y146116*
X231746Y147663D02*
Y156746D01*
X231352Y157140*
X235683Y60289D02*
Y34699D01*
X238242Y108911D02*
X234305D01*
X231726Y106333*
X222199*
Y105742*
X239620Y147663D02*
X231746D01*
D02*
D22*
X5565Y86549D03*
X117770Y249856D03*
X150841Y66785D03*
X152219Y249856D03*
X244148Y70329D03*
D02*
D23*
X133715Y295722D03*
X136470Y281549D03*
X158222Y200053D03*
X165014Y229581D03*
X168459Y200053D03*
X170722Y170526D03*
X174069D03*
X178793Y125841D03*
X188439Y154974D03*
X191195Y150250D03*
Y161470D03*
X193754Y255959D03*
X196313Y239423D03*
X201037Y100250D03*
X203400Y246510D03*
X205762Y128400D03*
X208124Y97100D03*
Y239620D03*
X228793Y123085D03*
X231156Y112848D03*
X233911Y123085D03*
Y164620D03*
X236470Y128203D03*
Y169148D03*
X239226Y132533D03*
Y164226D03*
D02*
D24*
X145329Y195722D03*
X149659Y233321D03*
X164817Y186864D03*
X197691Y80742D03*
D02*
D25*
X12455Y12848D03*
Y339620D03*
X253793Y12848D03*
Y339620D03*
D02*
D26*
X163045Y170722D03*
X165900D03*
D02*
D27*
X108892Y273478D03*
X109522Y283321D03*
X109699Y303006D03*
X110289Y293360D03*
X192179Y120722D03*
Y125841D03*
Y130742D03*
D02*
D28*
X49856Y68754D03*
D02*
D29*
X12407Y159679D03*
Y164679D03*
Y169679D03*
Y174679D03*
X33762Y159679D03*
Y164679D03*
Y169679D03*
Y174679D03*
D02*
D72*
X23085Y167179D03*
D02*
D73*
X73675Y127612D03*
X107140D03*
D02*
D74*
X20526Y183518D03*
X26037D03*
D02*
D75*
X44596Y186222D03*
X62596D03*
D02*
D76*
X53596Y212797D03*
D02*
D77*
X13429Y144148D03*
X19531Y133321D03*
X20929Y144148D03*
X27031Y133321D03*
X28193Y238045D03*
X35693D03*
X55555Y238242D03*
X63055D03*
X117563Y273478D03*
X117760Y283321D03*
X117957Y293360D03*
X118350Y303006D03*
X125063Y273478D03*
X125260Y283321D03*
X125457Y293360D03*
X125850Y303006D03*
X137839Y239817D03*
X145339D03*
X202799Y154974D03*
Y164423D03*
X210299Y154974D03*
Y164423D03*
D02*
D78*
X92179Y158321D03*
Y170132D03*
X107533Y158518D03*
Y170329D03*
D02*
D79*
X25053Y106549D03*
D02*
D80*
Y46549D03*
Y66549D03*
Y86549D03*
X66982Y253793D03*
Y315604D03*
D02*
D81*
X93754Y37258D03*
Y46313D03*
Y55368D03*
D02*
D82*
X118557Y46313D03*
D02*
D83*
X55171Y43388D03*
Y52388D03*
X63636Y43388D03*
Y52388D03*
X72494Y48112D03*
Y57112D03*
X81549Y48309D03*
Y57309D03*
X221313Y42010D03*
Y51010D03*
X231746Y138663D03*
Y147663D03*
X239620Y138663D03*
Y147663D03*
D02*
D84*
X185388Y80742D03*
Y85742D03*
Y90742D03*
Y95742D03*
Y100742D03*
Y105742D03*
Y110742D03*
Y115742D03*
Y120742D03*
Y125742D03*
Y130742D03*
Y135742D03*
Y140742D03*
Y145742D03*
X222199Y80742D03*
Y85742D03*
Y90742D03*
Y95742D03*
Y100742D03*
Y105742D03*
Y110742D03*
Y115742D03*
Y120742D03*
Y125742D03*
Y130742D03*
Y135742D03*
Y140742D03*
Y145742D03*
D02*
D85*
X130368Y168163D03*
X140604D03*
X231352Y157140D03*
X241589D03*
D02*
D86*
X173675Y263045D03*
Y273045D03*
X183675Y263045D03*
Y273045D03*
X193675Y263045D03*
Y273045D03*
X203675Y263045D03*
Y273045D03*
X213675Y263045D03*
Y273045D03*
X223675Y263045D03*
Y273045D03*
X233675Y263045D03*
Y273045D03*
X243675Y263045D03*
Y273045D03*
D02*
D87*
X235683Y34699D03*
Y60289D03*
X253400Y34699D03*
Y60289D03*
D02*
D88*
X138242Y224059D03*
Y231559D03*
X143557Y149846D03*
Y157346D03*
X152219Y149846D03*
Y157346D03*
X160683Y149846D03*
Y157346D03*
X174463Y136461D03*
Y143961D03*
X187848Y190791D03*
Y198291D03*
X210880Y41776D03*
Y49276D03*
D02*
D89*
X142868Y179187D03*
Y207140D03*
X145427Y179187D03*
Y207140D03*
X147986Y179187D03*
Y207140D03*
X150545Y179187D03*
Y207140D03*
X153104Y179187D03*
Y207140D03*
X155663Y179187D03*
Y207140D03*
X158222Y179187D03*
Y207140D03*
X160781Y179187D03*
Y207140D03*
X163341Y179187D03*
Y207140D03*
X165900Y179187D03*
Y207140D03*
X168459Y179187D03*
Y207140D03*
X171018Y179187D03*
Y207140D03*
X173577Y179187D03*
Y207140D03*
X176136Y179187D03*
Y207140D03*
D02*
D90*
X123085Y71707D03*
Y91392D03*
D02*
D91*
X88045Y69738D03*
X103006D03*
D02*
D92*
X78990Y204187D03*
X119541D03*
D02*
D93*
X238242Y98675D03*
Y108911D03*
D02*
D94*
X116616Y314817D03*
X117797Y261864D03*
X125616Y314817D03*
X126797Y261864D03*
X130986Y123872D03*
Y134699D03*
X139986Y123872D03*
Y134699D03*
X161892Y88833D03*
X163860Y115998D03*
X170892Y88833D03*
X172860Y115998D03*
X211498Y61667D03*
Y70526D03*
X220498Y61667D03*
Y70526D03*
D02*
D95*
X79974Y302199D03*
D02*
D96*
Y272199D03*
Y282199D03*
Y292199D03*
X89974Y267199D03*
Y277199D03*
Y287199D03*
Y297199D03*
D02*
D97*
X38990Y258557D03*
Y268557D03*
Y300841D03*
Y310841D03*
D02*
D98*
X149659Y222691D03*
Y228990D03*
X158321Y222691D03*
Y228990D03*
D02*
D99*
X141195Y307730D03*
Y314817D03*
D02*
D100*
X158321Y98478D03*
Y107927D03*
X174069Y98478D03*
Y107927D03*
D02*
D101*
X51825Y139226D03*
Y156549D03*
X62652Y68951D03*
Y86274D03*
D02*
D102*
X156313Y51628D03*
X166313D03*
X176313D03*
X186313D03*
X196313D03*
D02*
D103*
X36864Y132920D03*
Y146320D03*
X0Y0D02*
M02*
