G04 DesignSpark PCB Gerber Version 9.0 Build 5138 *
G04 #@! TF.Part,Single*
G04 #@! TF.FileFunction,Drillmap *
G04 #@! TF.FilePolarity,Positive *
%FSLAX35Y35*%
%MOIN*%
%ADD71C,0.00500*%
G04 #@! TA.AperFunction,ViaPad*
%ADD70C,0.10000*%
X0Y0D02*
D02*
D70*
X5565Y86549D03*
X12455Y12848D03*
Y339620D03*
X25053Y46549D03*
Y66549D03*
Y86549D03*
Y106549D03*
X38990Y258557D03*
Y268557D03*
Y300841D03*
Y310841D03*
X39620Y169679D03*
X49856Y68754D03*
X54974Y262199D03*
Y307199D03*
X66982Y253793D03*
Y315604D03*
X73872Y154581D03*
X79974Y272199D03*
Y282199D03*
Y292199D03*
Y302199D03*
X89974Y267199D03*
Y277199D03*
Y287199D03*
Y297199D03*
X95722Y69738D03*
X102022Y37061D03*
X107337Y187258D03*
Y193557D03*
Y199266D03*
Y205171D03*
Y210683D03*
X108892Y273478D03*
X109522Y283321D03*
X109699Y303006D03*
X110289Y293360D03*
X117770Y249856D03*
X126825Y267770D03*
X130565Y209502D03*
Y224266D03*
X132140Y314817D03*
X133715Y295722D03*
X134502Y190801D03*
X136470Y281549D03*
X140211Y118360D03*
Y140801D03*
X141195Y299463D03*
X145329Y195722D03*
X149659Y233321D03*
X150841Y66785D03*
X152219Y249856D03*
X156313Y51628D03*
X158222Y200053D03*
X163045Y170722D03*
X164817Y186864D03*
X165014Y229581D03*
X165900Y170722D03*
X165919Y128400D03*
X166313Y51628D03*
X168459Y200053D03*
X170722Y170526D03*
X173675Y263045D03*
Y273045D03*
X174069Y170526D03*
X176313Y51628D03*
X178793Y125841D03*
X183675Y263045D03*
Y273045D03*
X186313Y51628D03*
X188439Y154974D03*
X191195Y150250D03*
Y161470D03*
X192179Y120722D03*
Y125841D03*
Y130742D03*
X193675Y263045D03*
Y273045D03*
X193754Y255959D03*
X196313Y51628D03*
Y239423D03*
X197691Y80742D03*
X201037Y100250D03*
X203400Y246510D03*
X203675Y263045D03*
Y273045D03*
X205762Y128400D03*
X207533Y85742D03*
X208124Y97100D03*
Y239620D03*
X212258Y146116D03*
X213675Y263045D03*
Y273045D03*
X223675Y263045D03*
Y273045D03*
X228793Y123085D03*
X229581Y80565D03*
X229778Y85742D03*
Y90742D03*
Y95742D03*
X231156Y112848D03*
X233675Y263045D03*
Y273045D03*
X233911Y123085D03*
Y164620D03*
X235683Y34699D03*
Y42179D03*
Y60289D03*
X236470Y128203D03*
Y169148D03*
X239226Y132533D03*
Y164226D03*
X243675Y263045D03*
Y273045D03*
X244148Y70329D03*
X253400Y34699D03*
Y60289D03*
X253793Y12848D03*
Y339620D03*
D02*
D71*
X15565Y92487D02*
X17128Y96237D01*
X18690Y92487*
X16190Y94049D02*
X18065D01*
X22455Y19411D02*
X22767Y19098D01*
X23392Y18786*
X24017Y19098*
X24330Y19411*
Y22536*
X24955*
X24330D02*
X23080D01*
X22455Y346183D02*
X22767Y345870D01*
X23392Y345557*
X24017Y345870*
X24330Y346183*
Y349307*
X24955*
X24330D02*
X23080D01*
X35053Y52487D02*
Y56237D01*
X36616Y54362*
X38178Y56237*
Y52487*
X35053Y72487D02*
Y76237D01*
X36616Y74362*
X38178Y76237*
Y72487*
X35053Y92487D02*
Y96237D01*
X36616Y94362*
X38178Y96237*
Y92487*
X35053Y112487D02*
Y116237D01*
X36616Y114362*
X38178Y116237*
Y112487*
X48990Y264494D02*
Y268244D01*
X51178*
X51803Y267932*
X52115Y267307*
X51803Y266682*
X51178Y266370*
X48990*
Y274494D02*
Y278244D01*
X51178*
X51803Y277932*
X52115Y277307*
X51803Y276682*
X51178Y276370*
X48990*
Y306778D02*
Y310528D01*
X51178*
X51803Y310216*
X52115Y309591*
X51803Y308966*
X51178Y308653*
X48990*
Y316778D02*
Y320528D01*
X51178*
X51803Y320216*
X52115Y319591*
X51803Y318966*
X51178Y318653*
X48990*
X49620Y175617D02*
Y179367D01*
Y177492D02*
X52745D01*
Y175617D02*
Y179367D01*
X62044Y76254D02*
X62981D01*
Y75941*
X62669Y75317*
X62356Y75004*
X61731Y74691*
X61106*
X60481Y75004*
X60169Y75317*
X59856Y75941*
Y77191*
X60169Y77817*
X60481Y78129*
X61106Y78441*
X61731*
X62356Y78129*
X62669Y77817*
X62981Y77191*
X64974Y268761D02*
X65287Y268449D01*
X65912Y268136*
X66537Y268449*
X66850Y268761*
Y271886*
X67474*
X66850D02*
X65600D01*
X64974Y313761D02*
X65287Y313449D01*
X65912Y313136*
X66537Y313449*
X66850Y313761*
Y316886*
X67474*
X66850D02*
X65600D01*
X76982Y259731D02*
Y263481D01*
X78545Y261606*
X80107Y263481*
Y259731*
X76982Y321542D02*
Y325292D01*
X78545Y323417*
X80107Y325292*
Y321542*
X83872Y160518D02*
Y164268D01*
Y162393D02*
X86997D01*
Y160518D02*
Y164268D01*
X89974Y278136D02*
Y281886D01*
X93100*
X92474Y280011D02*
X89974D01*
Y278136D02*
X93100D01*
X89974Y288136D02*
Y291886D01*
X93100*
X92474Y290011D02*
X89974D01*
Y288136D02*
X93100D01*
X89974Y298136D02*
Y301886D01*
X93100*
X92474Y300011D02*
X89974D01*
Y298136D02*
X93100D01*
X89974Y308136D02*
Y311886D01*
X93100*
X92474Y310011D02*
X89974D01*
Y308136D02*
X93100D01*
X99974Y273136D02*
Y276886D01*
X103100*
X102474Y275011D02*
X99974D01*
Y273136D02*
X103100D01*
X99974Y283136D02*
Y286886D01*
X103100*
X102474Y285011D02*
X99974D01*
Y283136D02*
X103100D01*
X99974Y293136D02*
Y296886D01*
X103100*
X102474Y295011D02*
X99974D01*
Y293136D02*
X103100D01*
X99974Y303136D02*
Y306886D01*
X103100*
X102474Y305011D02*
X99974D01*
Y303136D02*
X103100D01*
X105722Y75676D02*
Y79426D01*
Y77551D02*
X108848D01*
Y75676D02*
Y79426D01*
X112022Y42998D02*
Y46748D01*
Y44874D02*
X115147D01*
Y42998D02*
Y46748D01*
X117337Y193195D02*
Y196945D01*
Y195070D02*
X120462D01*
Y193195D02*
Y196945D01*
X117337Y199494D02*
Y203244D01*
Y201370D02*
X120462D01*
Y199494D02*
Y203244D01*
X117337Y205203D02*
Y208953D01*
Y207078D02*
X120462D01*
Y205203D02*
Y208953D01*
X117337Y211109D02*
Y214859D01*
Y212984D02*
X120462D01*
Y211109D02*
Y214859D01*
X117337Y216620D02*
Y220370D01*
Y218496D02*
X120462D01*
Y216620D02*
Y220370D01*
X118892Y283166D02*
Y279416D01*
X122017*
X119522Y293008D02*
Y289258D01*
X122647*
X119699Y312693D02*
Y308943D01*
X122824*
X120289Y303048D02*
Y299298D01*
X123415*
X127770Y255794D02*
X129332Y259544D01*
X130895Y255794*
X128395Y257356D02*
X130270D01*
X136825Y273707D02*
Y277457D01*
Y275582D02*
X139950D01*
Y273707D02*
Y277457D01*
X140565Y215439D02*
Y219189D01*
Y217315D02*
X143690D01*
Y215439D02*
Y219189D01*
X140565Y230203D02*
Y233953D01*
Y232078D02*
X143690D01*
Y230203D02*
Y233953D01*
X142140Y320754D02*
Y324504D01*
Y322630D02*
X145265D01*
Y320754D02*
Y324504D01*
X144652Y301660D02*
X145902D01*
X145277D02*
Y305410D01*
X144652D02*
X145902D01*
X144502Y196739D02*
Y200489D01*
Y198614D02*
X147627D01*
Y196739D02*
Y200489D01*
X147408Y287487D02*
X148658D01*
X148033D02*
Y291237D01*
X147408D02*
X148658D01*
X150211Y124298D02*
Y128048D01*
Y126173D02*
X153336D01*
Y124298D02*
Y128048D01*
X150211Y146739D02*
Y150489D01*
Y148614D02*
X153336D01*
Y146739D02*
Y150489D01*
X151195Y305400D02*
Y309150D01*
Y307275D02*
X154320D01*
Y305400D02*
Y309150D01*
X156266Y201660D02*
X157516D01*
X156891D02*
Y205410D01*
X156266D02*
X157516D01*
X160597Y239258D02*
X161847D01*
X161222D02*
Y243008D01*
X160597D02*
X161847D01*
X160841Y72723D02*
X162403Y76473D01*
X163966Y72723*
X161466Y74285D02*
X163341D01*
X162219Y255794D02*
X163781Y259544D01*
X165344Y255794*
X162844Y257356D02*
X164719D01*
X168500Y59128D02*
X169438D01*
Y58815*
X169126Y58191*
X168813Y57878*
X168188Y57565*
X167563*
X166938Y57878*
X166626Y58191*
X166313Y58815*
Y60065*
X166626Y60691*
X166938Y61003*
X167563Y61315*
X168188*
X168813Y61003*
X169126Y60691*
X169438Y60065*
X169160Y205991D02*
X170410D01*
X169785D02*
Y209741D01*
X169160D02*
X170410D01*
X173045Y176660D02*
Y180410D01*
Y178535D02*
X173983D01*
X176170Y180410*
X173983Y178535D02*
X176170Y176660D01*
X175754Y192802D02*
X177004D01*
X176380D02*
Y196552D01*
X175754D02*
X177004D01*
X175951Y235518D02*
X177201D01*
X176576D02*
Y239268D01*
X175951D02*
X177201D01*
X175900Y176660D02*
Y180410D01*
Y178535D02*
X176837D01*
X179025Y180410*
X176837Y178535D02*
X179025Y176660D01*
X175919Y134337D02*
Y138087D01*
Y136212D02*
X179044D01*
Y134337D02*
Y138087D01*
X178500Y59128D02*
X179438D01*
Y58815*
X179126Y58191*
X178813Y57878*
X178188Y57565*
X177563*
X176938Y57878*
X176626Y58191*
X176313Y58815*
Y60065*
X176626Y60691*
X176938Y61003*
X177563Y61315*
X178188*
X178813Y61003*
X179126Y60691*
X179438Y60065*
X179396Y205991D02*
X180646D01*
X180021D02*
Y209741D01*
X179396D02*
X180646D01*
X181660Y176463D02*
X182910D01*
X182285D02*
Y180213D01*
X181660D02*
X182910D01*
X183675Y268983D02*
Y272733D01*
X186800Y268983*
Y272733*
X183675Y278983D02*
Y282733D01*
X186800Y278983*
Y282733*
X185006Y176463D02*
X186256D01*
X185631D02*
Y180213D01*
X185006D02*
X186256D01*
X188500Y59128D02*
X189438D01*
Y58815*
X189126Y58191*
X188813Y57878*
X188188Y57565*
X187563*
X186938Y57878*
X186626Y58191*
X186313Y58815*
Y60065*
X186626Y60691*
X186938Y61003*
X187563Y61315*
X188188*
X188813Y61003*
X189126Y60691*
X189438Y60065*
X189731Y131778D02*
X190981D01*
X190356D02*
Y135528D01*
X189731D02*
X190981D01*
X193675Y268983D02*
Y272733D01*
X196800Y268983*
Y272733*
X193675Y278983D02*
Y282733D01*
X196800Y278983*
Y282733*
X198500Y59128D02*
X199438D01*
Y58815*
X199126Y58191*
X198813Y57878*
X198188Y57565*
X197563*
X196938Y57878*
X196626Y58191*
X196313Y58815*
Y60065*
X196626Y60691*
X196938Y61003*
X197563Y61315*
X198188*
X198813Y61003*
X199126Y60691*
X199438Y60065*
X199376Y160912D02*
X200626D01*
X200002D02*
Y164662D01*
X199376D02*
X200626D01*
X202132Y156187D02*
X203382D01*
X202757D02*
Y159937D01*
X202132D02*
X203382D01*
X202132Y167408D02*
X203382D01*
X202757D02*
Y171158D01*
X202132D02*
X203382D01*
X202179Y130410D02*
Y126660D01*
X205304*
X202179Y135528D02*
Y131778D01*
X205304*
X202179Y140430D02*
Y136680D01*
X205304*
X203675Y268983D02*
Y272733D01*
X206800Y268983*
Y272733*
X203675Y278983D02*
Y282733D01*
X206800Y278983*
Y282733*
X204691Y261896D02*
X205941D01*
X205317D02*
Y265646D01*
X204691D02*
X205941D01*
X208500Y59128D02*
X209438D01*
Y58815*
X209126Y58191*
X208813Y57878*
X208188Y57565*
X207563*
X206938Y57878*
X206626Y58191*
X206313Y58815*
Y60065*
X206626Y60691*
X206938Y61003*
X207563Y61315*
X208188*
X208813Y61003*
X209126Y60691*
X209438Y60065*
X207250Y245361D02*
X208500D01*
X207876D02*
Y249111D01*
X207250D02*
X208500D01*
X208628Y86680D02*
X209878D01*
X209254D02*
Y90430D01*
X208628D02*
X209878D01*
X211975Y106187D02*
X213225D01*
X212600D02*
Y109937D01*
X211975D02*
X213225D01*
X214337Y252447D02*
X215587D01*
X214962D02*
Y256197D01*
X214337D02*
X215587D01*
X213675Y268983D02*
Y272733D01*
X216800Y268983*
Y272733*
X213675Y278983D02*
Y282733D01*
X216800Y278983*
Y282733*
X216699Y134337D02*
X217949D01*
X217324D02*
Y138087D01*
X216699D02*
X217949D01*
X217533Y91680D02*
Y95430D01*
Y93555D02*
X220659D01*
Y91680D02*
Y95430D01*
X219061Y103038D02*
X220311D01*
X219687D02*
Y106788D01*
X219061D02*
X220311D01*
X219061Y245557D02*
X220311D01*
X219687D02*
Y249307D01*
X219061D02*
X220311D01*
X222258Y152054D02*
Y155804D01*
Y153929D02*
X225383D01*
Y152054D02*
Y155804D01*
X223675Y268983D02*
Y272733D01*
X226800Y268983*
Y272733*
X223675Y278983D02*
Y282733D01*
X226800Y278983*
Y282733*
X233675Y268983D02*
Y272733D01*
X236800Y268983*
Y272733*
X233675Y278983D02*
Y282733D01*
X236800Y278983*
Y282733*
X239731Y129022D02*
X240981D01*
X240356D02*
Y132772D01*
X239731D02*
X240981D01*
X239581Y86502D02*
Y90252D01*
Y88378D02*
X242706D01*
Y86502D02*
Y90252D01*
X239778Y91680D02*
Y95430D01*
Y93555D02*
X242903D01*
Y91680D02*
Y95430D01*
X239778Y96680D02*
Y100430D01*
Y98555D02*
X242903D01*
Y96680D02*
Y100430D01*
X239778Y101680D02*
Y105430D01*
Y103555D02*
X242903D01*
Y101680D02*
Y105430D01*
X242093Y118786D02*
X243343D01*
X242718D02*
Y122536D01*
X242093D02*
X243343D01*
X243675Y268983D02*
Y272733D01*
X246800Y268983*
Y272733*
X243675Y278983D02*
Y282733D01*
X246800Y278983*
Y282733*
X244849Y129022D02*
X246099D01*
X245474D02*
Y132772D01*
X244849D02*
X246099D01*
X244849Y170557D02*
X246099D01*
X245474D02*
Y174307D01*
X244849D02*
X246099D01*
X245683Y41886D02*
Y43136D01*
X245996Y43761*
X246308Y44074*
X246933Y44386*
X247558*
X248183Y44074*
X248496Y43761*
X248808Y43136*
Y41886*
X248496Y41261*
X248183Y40949*
X247558Y40636*
X246933*
X246308Y40949*
X245996Y41261*
X245683Y41886*
Y48117D02*
Y51867D01*
Y49992D02*
X248808D01*
Y48117D02*
Y51867D01*
X245683Y67477D02*
Y68727D01*
X245996Y69352*
X246308Y69665*
X246933Y69977*
X247558*
X248183Y69665*
X248496Y69352*
X248808Y68727*
Y67477*
X248496Y66852*
X248183Y66539*
X247558Y66227*
X246933*
X246308Y66539*
X245996Y66852*
X245683Y67477*
X247408Y134140D02*
X248658D01*
X248033D02*
Y137890D01*
X247408D02*
X248658D01*
X247408Y175085D02*
X248658D01*
X248033D02*
Y178835D01*
X247408D02*
X248658D01*
X250164Y138471D02*
X251414D01*
X250789D02*
Y142221D01*
X250164D02*
X251414D01*
X250164Y170164D02*
X251414D01*
X250789D02*
Y173914D01*
X250164D02*
X251414D01*
X253675Y268983D02*
Y272733D01*
X256800Y268983*
Y272733*
X253675Y278983D02*
Y282733D01*
X256800Y278983*
Y282733*
X254148Y76266D02*
X255710Y80016D01*
X257273Y76266*
X254773Y77829D02*
X256648D01*
X263400Y41886D02*
Y43136D01*
X263712Y43761*
X264025Y44074*
X264650Y44386*
X265275*
X265900Y44074*
X266212Y43761*
X266525Y43136*
Y41886*
X266212Y41261*
X265900Y40949*
X265275Y40636*
X264650*
X264025Y40949*
X263712Y41261*
X263400Y41886*
Y67477D02*
Y68727D01*
X263712Y69352*
X264025Y69665*
X264650Y69977*
X265275*
X265900Y69665*
X266212Y69352*
X266525Y68727*
Y67477*
X266212Y66852*
X265900Y66539*
X265275Y66227*
X264650*
X264025Y66539*
X263712Y66852*
X263400Y67477*
X263793Y19411D02*
X264106Y19098D01*
X264731Y18786*
X265356Y19098*
X265669Y19411*
Y22536*
X266293*
X265669D02*
X264419D01*
X263793Y346183D02*
X264106Y345870D01*
X264731Y345557*
X265356Y345870*
X265669Y346183*
Y349307*
X266293*
X265669D02*
X264419D01*
X0Y0D02*
M02*
