G04 DesignSpark PCB Gerber Version 9.0 Build 5138 *
G04 #@! TF.Part,Single*
G04 #@! TF.FileFunction,Other,RGB_Industrial_Display_PCB - Documentation *
G04 #@! TF.FilePolarity,Positive *
%FSLAX35Y35*%
%MOIN*%
%ADD106C,0.00197*%
%ADD15C,0.00394*%
X0Y0D02*
D02*
D15*
X31018Y144266D02*
X69876D01*
Y122376*
X31018*
Y144266*
X102652Y324266D02*
Y245132D01*
X10722*
Y324266*
X102652*
X136805Y302612D02*
Y319935D01*
X149600*
Y302612*
X136805*
X153636Y317100D02*
X267730D01*
Y257533*
X153636*
Y317100*
X170959Y216490D02*
X144974D01*
Y235191*
X170959*
Y216490*
X230801Y27809D02*
Y67179D01*
X262297*
Y27809*
X230801*
D02*
D106*
X2455Y119502D02*
X51667D01*
Y33596*
X2455*
Y119502*
X10427Y178006D02*
X39758D01*
Y156352*
X10427*
Y178006*
X49404Y146116D02*
Y174069D01*
X66923*
Y146116*
X49404*
X55919Y63636D02*
Y91589D01*
X73400*
Y63636*
X55919*
X72238Y150250D02*
X125978D01*
Y104974*
X72238*
Y150250*
X73419Y230368D02*
X129128D01*
Y178006*
X73419*
Y230368*
X86451Y75644D02*
X108616D01*
Y63833*
X86451*
Y75644*
X91333Y60486D02*
X124994D01*
Y32140*
X91333*
Y60486*
X101077Y174561D02*
Y153892D01*
X87297*
Y174561*
X101077*
X116431Y174758D02*
Y154089D01*
X102652*
Y174758*
X116431*
X139856Y174659D02*
Y211667D01*
X183163*
Y174659*
X139856*
X147140Y163636D02*
X127848D01*
Y172691*
X147140*
Y163636*
X182770Y149463D02*
X228833D01*
Y77022*
X182770*
Y149463*
X228833Y161667D02*
X248124D01*
Y152612*
X228833*
Y161667*
X244778Y113439D02*
Y94148D01*
X235722*
Y113439*
X244778*
X0Y0D02*
M02*
