G04 DesignSpark PCB Gerber Version 9.0 Build 5138 *
G04 #@! TF.Part,Single*
G04 #@! TF.FileFunction,Legend,Top *
G04 #@! TF.FilePolarity,Positive *
%FSLAX35Y35*%
%MOIN*%
%ADD13C,0.00394*%
%ADD10C,0.00500*%
%ADD11C,0.00787*%
%ADD12C,0.00800*%
%ADD14C,0.01000*%
X0Y0D02*
D02*
D10*
X12455Y3006D02*
X253793D01*
G75*
G03X263636Y12848J9843*
G01*
Y340014*
G75*
G03X254187Y349463I-9449*
G01*
X12455*
G75*
G03X2612Y339620J-9843*
G01*
Y12848*
G75*
G03X12455Y3006I9843*
G01*
X13242Y142723D02*
Y146473D01*
X15430*
X16055Y146161*
X16367Y145535*
X16055Y144911*
X15430Y144598*
X13242*
X15430D02*
X16367Y142723D01*
X18867D02*
X20117D01*
X19492D02*
Y146473D01*
X18867Y145848*
X18163Y131502D02*
Y135252D01*
X20351*
X20976Y134940*
X21289Y134315*
X20976Y133690*
X20351Y133378*
X18163*
X20351D02*
X21289Y131502D01*
X25663D02*
X23163D01*
X25351Y133690*
X25663Y134315*
X25351Y134940*
X24726Y135252*
X23789*
X23163Y134940*
X22273Y182324D02*
X21960Y182012D01*
X21335Y181699*
X20398*
X19773Y182012*
X19460Y182324*
X19148Y182949*
Y184199*
X19460Y184824*
X19773Y185137*
X20398Y185449*
X21335*
X21960Y185137*
X22273Y184824*
X26648Y181699D02*
X24148D01*
X26335Y183887*
X26648Y184512*
X26335Y185137*
X25710Y185449*
X24773*
X24148Y185137*
X24022Y168117D02*
X25272D01*
X24647D02*
Y171867D01*
X24022D02*
X25272D01*
X31210Y168742D02*
X30897Y168429D01*
X30272Y168117*
X29335*
X28710Y168429*
X28397Y168742*
X28085Y169367*
Y170617*
X28397Y171242*
X28710Y171554*
X29335Y171867*
X30272*
X30897Y171554*
X31210Y171242*
X33710Y168117D02*
X34960D01*
X34335D02*
Y171867D01*
X33710Y171242*
X26616Y106549D02*
X26303Y106237D01*
X25991Y105612*
X26303Y104987*
X26616Y104674*
X29741*
Y104049*
Y104674D02*
Y105924D01*
X25991Y100924D02*
Y99674D01*
Y100299D02*
X29741D01*
X29116Y100924*
X26431Y237014D02*
Y240764D01*
X28619*
X29244Y240452*
X29556Y239827*
X29244Y239202*
X28619Y238889*
X26431*
X28619D02*
X29556Y237014D01*
X32056D02*
X33306D01*
X32681D02*
Y240764D01*
X32056Y240139*
X37994Y237014D02*
Y240764D01*
X36431Y238264*
X38931*
X38683Y135289D02*
X34933D01*
Y138415*
X36807Y137789D02*
Y135289D01*
X37745Y140289D02*
X38370Y140602D01*
X38683Y141227*
Y142477*
X38370Y143102*
X37745Y143415*
X37120Y143102*
X36807Y142477*
Y141227*
X36495Y140602*
X35870Y140289*
X35245Y140602*
X34933Y141227*
Y142477*
X35245Y143102*
X35870Y143415*
X38683Y147789D02*
Y145289D01*
X36495Y147477*
X35870Y147789*
X35245Y147477*
X34933Y146852*
Y145915*
X35245Y145289*
X40864Y128620D02*
Y150620D01*
X32864*
Y128620*
X40864*
X49463Y282521D02*
X49775Y282209D01*
X50400Y281896*
X51025Y282209*
X51338Y282521*
Y285646*
X51963*
X51338D02*
X50088D01*
X56025Y281896D02*
Y285646D01*
X54463Y283146*
X56963*
X50887Y147888D02*
X47137D01*
Y149763*
X47450Y150388*
X47762Y150700*
X48387Y151013*
X49637*
X50262Y150700*
X50575Y150388*
X50887Y149763*
Y147888*
Y155388D02*
Y152888D01*
X48700Y155075*
X48075Y155388*
X47450Y155075*
X47137Y154450*
Y153513*
X47450Y152888*
X51825Y236424D02*
Y240174D01*
X54012*
X54637Y239861*
X54950Y239236*
X54637Y238611*
X54012Y238299*
X51825*
X54012D02*
X54950Y236424D01*
X57450D02*
X58700D01*
X58075D02*
Y240174D01*
X57450Y239549*
X61825Y236736D02*
X62450Y236424D01*
X63387*
X64012Y236736*
X64325Y237361*
Y237674*
X64012Y238299*
X63387Y238611*
X61825*
Y240174*
X64325*
X51517Y202065D02*
X47767D01*
Y203940*
X48080Y204565*
X48392Y204878*
X49017Y205190*
X50267*
X50892Y204878*
X51205Y204565*
X51517Y203940*
Y202065*
Y207690D02*
Y208940D01*
Y208315D02*
X47767D01*
X48392Y207690*
X55971Y44714D02*
X56283Y44401D01*
X56596Y43776*
Y42839*
X56283Y42214*
X55971Y41901*
X55346Y41589*
X54096*
X53471Y41901*
X53158Y42214*
X52846Y42839*
Y43776*
X53158Y44401*
X53471Y44714*
X56596Y47214D02*
Y48464D01*
Y47839D02*
X52846D01*
X53471Y47214*
X56596Y54089D02*
Y51589D01*
X54408Y53776*
X53783Y54089*
X53158Y53776*
X52846Y53151*
Y52214*
X53158Y51589*
X58671Y39888D02*
Y55888D01*
X51671*
Y39888*
X58671*
X61714Y77612D02*
X57964D01*
Y79487*
X58276Y80112*
X58589Y80425*
X59214Y80737*
X60464*
X61089Y80425*
X61402Y80112*
X61714Y79487*
Y77612*
Y84175D02*
X57964D01*
X60464Y82612*
Y85112*
X64829Y48060D02*
X65142Y47748D01*
X65454Y47122*
Y46185*
X65142Y45560*
X64829Y45248*
X64204Y44935*
X62954*
X62329Y45248*
X62017Y45560*
X61704Y46185*
Y47122*
X62017Y47748*
X62329Y48060*
X65454Y49935D02*
X61704Y52435D01*
Y49935*
X67136Y39888D02*
Y55888D01*
X60136*
Y39888*
X67136*
X73687Y51997D02*
X74000Y51685D01*
X74313Y51059*
Y50122*
X74000Y49497*
X73687Y49185*
X73063Y48872*
X71813*
X71187Y49185*
X70875Y49497*
X70563Y50122*
Y51059*
X70875Y51685*
X71187Y51997*
X74313Y54809D02*
X74000Y55435D01*
X73375Y56059*
X72437Y56372*
X71500*
X70875Y56059*
X70563Y55435*
Y54809*
X70875Y54185*
X71500Y53872*
X72125Y54185*
X72437Y54809*
Y55435*
X72125Y56059*
X71500Y56372*
X75994Y44612D02*
Y60612D01*
X68994*
Y44612*
X75994*
X82546Y52391D02*
X82858Y52078D01*
X83171Y51453*
Y50516*
X82858Y49891*
X82546Y49578*
X81921Y49266*
X80671*
X80046Y49578*
X79733Y49891*
X79421Y50516*
Y51453*
X79733Y52078*
X80046Y52391*
X82858Y54266D02*
X83171Y54891D01*
Y55828*
X82858Y56453*
X82233Y56766*
X81921*
X81296Y56453*
X80983Y55828*
Y54266*
X79421*
Y56766*
X85049Y44809D02*
Y60809D01*
X78049*
Y44809*
X85049*
X91170Y126813D02*
X90858Y126500D01*
X90233Y126187*
X89295*
X88670Y126500*
X88358Y126813*
X88045Y127437*
Y128687*
X88358Y129313*
X88670Y129625*
X89295Y129937*
X90233*
X90858Y129625*
X91170Y129313*
X93670Y126187D02*
X94920D01*
X94295D02*
Y129937D01*
X93670Y129313*
X94148Y205134D02*
Y201384D01*
X97273*
X99773D02*
X101023D01*
X100398D02*
Y205134D01*
X99773Y204509*
X93766Y163611D02*
X94079Y163299D01*
X94391Y162674*
Y161736*
X94079Y161111*
X93766Y160799*
X93141Y160486*
X91891*
X91266Y160799*
X90954Y161111*
X90641Y161736*
Y162674*
X90954Y163299*
X91266Y163611*
X94079Y165799D02*
X94391Y166424D01*
Y167049*
X94079Y167674*
X93454Y167986*
X92829Y167674*
X92516Y167049*
Y166424*
Y167049D02*
X92204Y167674D01*
X91579Y167986*
X90954Y167674*
X90641Y167049*
Y166424*
X90954Y165799*
X95526Y70676D02*
Y74426D01*
X97401*
X98026Y74113*
X98338Y73801*
X98651Y73176*
Y71926*
X98338Y71301*
X98026Y70988*
X97401Y70676*
X95526*
X100838Y70988D02*
X101463Y70676D01*
X102088*
X102713Y70988*
X103026Y71613*
X102713Y72238*
X102088Y72551*
X101463*
X102088D02*
X102713Y72863D01*
X103026Y73488*
X102713Y74113*
X102088Y74426*
X101463*
X100838Y74113*
X102172Y45282D02*
X103422D01*
X102797D02*
Y49032D01*
X102172D02*
X103422D01*
X109359Y45907D02*
X109047Y45594D01*
X108422Y45282*
X107484*
X106859Y45594*
X106547Y45907*
X106234Y46532*
Y47782*
X106547Y48407*
X106859Y48720*
X107484Y49032*
X108422*
X109047Y48720*
X109359Y48407*
X113734Y45282D02*
X111234D01*
X113422Y47470*
X113734Y48094*
X113422Y48720*
X112797Y49032*
X111859*
X111234Y48720*
X108727Y163415D02*
X109039Y163102D01*
X109352Y162477*
Y161539*
X109039Y160915*
X108727Y160602*
X108102Y160289*
X106852*
X106227Y160602*
X105914Y160915*
X105602Y161539*
Y162477*
X105914Y163102*
X106227Y163415*
X109352Y166852D02*
X105602D01*
X108102Y165289*
Y167789*
X116761Y314017D02*
X116448Y313705D01*
X115823Y313392*
X114886*
X114261Y313705*
X113948Y314017*
X113636Y314642*
Y315892*
X113948Y316517*
X114261Y316830*
X114886Y317142*
X115823*
X116448Y316830*
X116761Y316517*
X119261Y313392D02*
X120511D01*
X119886D02*
Y317142D01*
X119261Y316517*
X124573Y313392D02*
X125198Y313705D01*
X125823Y314330*
X126136Y315267*
Y316205*
X125823Y316830*
X125198Y317142*
X124573*
X123948Y316830*
X123636Y316205*
X123948Y315580*
X124573Y315267*
X125198*
X125823Y315580*
X126136Y316205*
X115211Y300597D02*
Y304347D01*
X117398*
X118023Y304035*
X118336Y303409*
X118023Y302785*
X117398Y302472*
X115211*
X117398D02*
X118336Y300597D01*
X120836D02*
X122086D01*
X121461D02*
Y304347D01*
X120836Y303722*
X127711Y300597D02*
X125211D01*
X127398Y302785*
X127711Y303409*
X127398Y304035*
X126773Y304347*
X125836*
X125211Y304035*
X115801Y291542D02*
Y295292D01*
X117989*
X118614Y294980*
X118926Y294354*
X118614Y293730*
X117989Y293417*
X115801*
X117989D02*
X118926Y291542D01*
X121426D02*
X122676D01*
X122051D02*
Y295292D01*
X121426Y294667*
X126114Y291854D02*
X126739Y291542D01*
X127364*
X127989Y291854*
X128301Y292480*
X127989Y293104*
X127364Y293417*
X126739*
X127364D02*
X127989Y293730D01*
X128301Y294354*
X127989Y294980*
X127364Y295292*
X126739*
X126114Y294980*
X121285Y83226D02*
X121598Y82914D01*
X121911Y82289*
Y81351*
X121598Y80726*
X121285Y80414*
X120661Y80101*
X119411*
X118785Y80414*
X118473Y80726*
X118161Y81351*
Y82289*
X118473Y82914*
X118785Y83226*
X121911Y85726D02*
Y86976D01*
Y86351D02*
X118161D01*
X118785Y85726*
X120973Y90101D02*
X120348Y90414D01*
X120035Y91039*
Y91664*
X120348Y92289*
X120973Y92601*
X121598Y92289*
X121911Y91664*
Y91039*
X121598Y90414*
X120973Y90101*
X120035*
X119098Y90414*
X118473Y91039*
X118161Y91664*
X126431Y284943D02*
Y281193D01*
X124244*
X123619Y281505*
X123306Y282130*
X123619Y282755*
X124244Y283067*
X126431*
X124244D02*
X123306Y284943D01*
X120806D02*
X119556D01*
X120181D02*
Y281193D01*
X120806Y281817*
X115806Y284943D02*
X114556D01*
X115181D02*
Y281193D01*
X115806Y281817*
X127612Y275691D02*
Y271941D01*
X125425*
X124800Y272253*
X124487Y272878*
X124800Y273503*
X125425Y273815*
X127612*
X125425D02*
X124487Y275691D01*
X121987D02*
X120737D01*
X121362D02*
Y271941D01*
X121987Y272565*
X117300Y275378D02*
X116675Y275691D01*
X116050*
X115425Y275378*
X115112Y274753*
Y272878*
X115425Y272253*
X116050Y271941*
X116675*
X117300Y272253*
X117612Y272878*
Y274753*
X117300Y275378*
X115425Y272253*
X131722Y122482D02*
X131409Y122169D01*
X130784Y121857*
X129846*
X129222Y122169*
X128909Y122482*
X128596Y123107*
Y124357*
X128909Y124982*
X129222Y125294*
X129846Y125607*
X130784*
X131409Y125294*
X131722Y124982*
X136096Y121857D02*
X133596D01*
X135784Y124044*
X136096Y124669*
X135784Y125294*
X135159Y125607*
X134222*
X133596Y125294*
X140159Y121857D02*
Y125607D01*
X138596Y123107*
X141096*
X129116Y318317D02*
X113116D01*
Y311317*
X129116*
Y318317*
X132706Y133309D02*
X132393Y132996D01*
X131768Y132683*
X130831*
X130206Y132996*
X129893Y133309*
X129581Y133933*
Y135183*
X129893Y135809*
X130206Y136121*
X130831Y136433*
X131768*
X132393Y136121*
X132706Y135809*
X137081Y132683D02*
X134581D01*
X136768Y134871*
X137081Y135496*
X136768Y136121*
X136143Y136433*
X135206*
X134581Y136121*
X139581Y132996D02*
X140206Y132683D01*
X141143*
X141768Y132996*
X142081Y133621*
Y133933*
X141768Y134559*
X141143Y134871*
X139581*
Y136433*
X142081*
X126672Y262073D02*
X126985Y262386D01*
X127610Y262698*
X128547*
X129172Y262386*
X129485Y262073*
X129797Y261448*
Y260198*
X129485Y259573*
X129172Y259261*
X128547Y258948*
X127610*
X126985Y259261*
X126672Y259573*
X124172Y262698D02*
X122922D01*
X123547D02*
Y258948D01*
X124172Y259573*
X119797Y262386D02*
X119172Y262698D01*
X118235*
X117610Y262386*
X117297Y261761*
Y261448*
X117610Y260823*
X118235Y260511*
X119797*
Y258948*
X117297*
X133100Y166183D02*
X132787Y165870D01*
X132162Y165557*
X131224*
X130600Y165870*
X130287Y166183*
X129974Y166807*
Y168057*
X130287Y168683*
X130600Y168995*
X131224Y169307*
X132162*
X132787Y168995*
X133100Y168683*
X135600Y165557D02*
X136850D01*
X136224D02*
Y169307D01*
X135600Y168683*
X140912Y167433D02*
X141537D01*
X142162Y167745*
X142474Y168370*
X142162Y168995*
X141537Y169307*
X140912*
X140287Y168995*
X139974Y168370*
X140287Y167745*
X140912Y167433*
X140287Y167120*
X139974Y166495*
X140287Y165870*
X140912Y165557*
X141537*
X142162Y165870*
X142474Y166495*
X142162Y167120*
X141537Y167433*
X130297Y265364D02*
X114297D01*
Y258364*
X130297*
Y265364*
X139005Y238427D02*
X138693Y238114D01*
X138067Y237802*
X137130*
X136505Y238114*
X136193Y238427*
X135880Y239052*
Y240302*
X136193Y240927*
X136505Y241239*
X137130Y241552*
X138067*
X138693Y241239*
X139005Y240927*
X143380Y237802D02*
X140880D01*
X143067Y239989*
X143380Y240614*
X143067Y241239*
X142443Y241552*
X141505*
X140880Y241239*
X146193Y238114D02*
X146817Y237802D01*
X147443*
X148067Y238114*
X148380Y238739*
Y240614*
X148067Y241239*
X147443Y241552*
X146817*
X146193Y241239*
X145880Y240614*
Y238739*
X146193Y238114*
X148067Y241239*
X138451Y226210D02*
X138764Y225897D01*
X139076Y225272*
Y224335*
X138764Y223710*
X138451Y223397*
X137826Y223085*
X136576*
X135951Y223397*
X135639Y223710*
X135326Y224335*
Y225272*
X135639Y225897*
X135951Y226210*
X139076Y230585D02*
Y228085D01*
X136889Y230272*
X136264Y230585*
X135639Y230272*
X135326Y229647*
Y228710*
X135639Y228085*
X139076Y233710D02*
Y234960D01*
Y234335D02*
X135326D01*
X135951Y233710*
X143486Y127372D02*
X127486D01*
Y120372*
X143486*
Y127372*
Y138199D02*
X127486D01*
Y131199*
X143486*
Y138199*
X144750Y59128D02*
X148500D01*
Y56941*
X148188Y56315*
X147563Y56003*
X146938Y56315*
X146626Y56941*
Y59128*
X148500Y54128D02*
X144750D01*
Y51003*
Y48503D02*
Y47253D01*
Y47878D02*
X148500D01*
X147876Y48503*
X143407Y305368D02*
X139657D01*
Y308493*
X141532Y307868D02*
Y305368D01*
X139657Y310368D02*
X143407D01*
Y313493*
Y315993D02*
Y317243D01*
Y316618D02*
X139657D01*
X140282Y315993*
X145376Y150053D02*
X141626D01*
Y152241*
X141938Y152866*
X142563Y153178*
X143188Y152866*
X143500Y152241*
Y150053*
Y152241D02*
X145376Y153178D01*
X144438Y155053D02*
X143813Y155366D01*
X143500Y155991*
Y156616*
X143813Y157241*
X144438Y157553*
X145063Y157241*
X145376Y156616*
Y155991*
X145063Y155366*
X144438Y155053*
X143500*
X142563Y155366*
X141938Y155991*
X141626Y156616*
X154037Y149856D02*
X150287D01*
Y152044*
X150599Y152669*
X151224Y152981*
X151849Y152669*
X152162Y152044*
Y149856*
Y152044D02*
X154037Y152981D01*
Y154856D02*
X150287Y157356D01*
Y154856*
X154396Y224903D02*
Y223028D01*
X155959Y221153*
X154396Y223028D02*
X152833Y221153D01*
X148459Y224903D02*
X150959D01*
X148771Y222715*
X148459Y222091*
X148771Y221465*
X149396Y221153*
X150333*
X150959Y221465*
X158392Y85333D02*
X174392D01*
Y92333*
X158392*
Y85333*
X158565Y194101D02*
Y195351D01*
Y194726D02*
X154815D01*
Y194101D02*
Y195351D01*
X157939Y201289D02*
X158252Y200976D01*
X158565Y200351*
Y199413*
X158252Y198789*
X157939Y198476*
X157315Y198163*
X156065*
X155439Y198476*
X155127Y198789*
X154815Y199413*
Y200351*
X155127Y200976*
X155439Y201289*
X158565Y204726D02*
X154815D01*
X157315Y203163*
Y205663*
X163415Y88624D02*
X163102Y88311D01*
X162477Y87998*
X161539*
X160915Y88311*
X160602Y88624*
X160289Y89248*
Y90498*
X160602Y91124*
X160915Y91436*
X161539Y91748*
X162477*
X163102Y91436*
X163415Y91124*
X167789Y87998D02*
X165289D01*
X167477Y90186*
X167789Y90811*
X167477Y91436*
X166852Y91748*
X165915*
X165289Y91436*
X170602Y88311D02*
X171227Y87998D01*
X171852*
X172477Y88311*
X172789Y88936*
X172477Y89561*
X171852Y89874*
X171227*
X171852D02*
X172477Y90186D01*
X172789Y90811*
X172477Y91436*
X171852Y91748*
X171227*
X170602Y91436*
X164989Y114805D02*
X164677Y114492D01*
X164052Y114180*
X163114*
X162489Y114492*
X162177Y114805*
X161864Y115430*
Y116680*
X162177Y117305*
X162489Y117617*
X163114Y117930*
X164052*
X164677Y117617*
X164989Y117305*
X169364Y114180D02*
X166864D01*
X169052Y116367*
X169364Y116992*
X169052Y117617*
X168427Y117930*
X167489*
X166864Y117617*
X174364Y114180D02*
X171864D01*
X174052Y116367*
X174364Y116992*
X174052Y117617*
X173427Y117930*
X172489*
X171864Y117617*
X164017Y101778D02*
Y103653D01*
X162455Y105528*
X164017Y103653D02*
X165580Y105528D01*
X167767Y102091D02*
X168392Y101778D01*
X169017*
X169642Y102091*
X169955Y102716*
X169642Y103341*
X169017Y103653*
X168392*
X169017D02*
X169642Y103966D01*
X169955Y104591*
X169642Y105216*
X169017Y105528*
X168392*
X167767Y105216*
X162305Y149659D02*
X158555D01*
Y151847*
X158867Y152472*
X159492Y152785*
X160117Y152472*
X160430Y151847*
Y149659*
Y151847D02*
X162305Y152785D01*
X160430Y155597D02*
Y156222D01*
X160117Y156847*
X159492Y157159*
X158867Y156847*
X158555Y156222*
Y155597*
X158867Y154972*
X159492Y154659*
X160117Y154972*
X160430Y155597*
X160742Y154972*
X161367Y154659*
X161992Y154972*
X162305Y155597*
Y156222*
X161992Y156847*
X161367Y157159*
X160742Y156847*
X160430Y156222*
X176360Y119498D02*
X160360D01*
Y112498*
X176360*
Y119498*
X175887Y134305D02*
X172137D01*
Y136493*
X172450Y137118*
X173075Y137430*
X173700Y137118*
X174012Y136493*
Y134305*
Y136493D02*
X175887Y137430D01*
Y139930D02*
Y141180D01*
Y140555D02*
X172137D01*
X172762Y139930*
X174950Y144305D02*
X174325Y144618D01*
X174012Y145243*
Y145868*
X174325Y146493*
X174950Y146805*
X175575Y146493*
X175887Y145868*
Y145243*
X175575Y144618*
X174950Y144305*
X174012*
X173075Y144618*
X172450Y145243*
X172137Y145868*
X190061Y190801D02*
X186311D01*
Y192989*
X186623Y193614*
X187248Y193926*
X187873Y193614*
X188185Y192989*
Y190801*
Y192989D02*
X190061Y193926D01*
Y196739D02*
X189748Y197364D01*
X189123Y197989*
X188185Y198301*
X187248*
X186623Y197989*
X186311Y197364*
Y196739*
X186623Y196114*
X187248Y195801*
X187873Y196114*
X188185Y196739*
Y197364*
X187873Y197989*
X187248Y198301*
X198038Y113983D02*
X199288D01*
X198663D02*
Y117733D01*
X198038D02*
X199288D01*
X205226Y114608D02*
X204913Y114295D01*
X204288Y113983*
X203350*
X202726Y114295*
X202413Y114608*
X202100Y115233*
Y116483*
X202413Y117108*
X202726Y117420*
X203350Y117733*
X204288*
X204913Y117420*
X205226Y117108*
X207413Y114295D02*
X208038Y113983D01*
X208663*
X209288Y114295*
X209600Y114920*
X209288Y115545*
X208663Y115858*
X208038*
X208663D02*
X209288Y116170D01*
X209600Y116795*
X209288Y117420*
X208663Y117733*
X208038*
X207413Y117420*
X202219Y153550D02*
Y157300D01*
X204406*
X205031Y156987*
X205344Y156362*
X205031Y155737*
X204406Y155425*
X202219*
X204406D02*
X205344Y153550D01*
X207531Y153862D02*
X208156Y153550D01*
X208781*
X209406Y153862*
X209719Y154487*
X209406Y155112*
X208781Y155425*
X208156*
X208781D02*
X209406Y155737D01*
X209719Y156362*
X209406Y156987*
X208781Y157300*
X208156*
X207531Y156987*
X203006Y162211D02*
Y165961D01*
X205193*
X205819Y165649*
X206131Y165024*
X205819Y164399*
X205193Y164086*
X203006*
X205193D02*
X206131Y162211D01*
X209569D02*
Y165961D01*
X208006Y163461*
X210506*
X207998Y58167D02*
X223998D01*
Y65167*
X207998*
Y58167*
Y67026D02*
X223998D01*
Y74026*
X207998*
Y67026*
X209061Y48872D02*
X212811D01*
Y46685*
X212499Y46059*
X211874Y45747*
X211249Y46059*
X210937Y46685*
Y48872*
Y46685D02*
X209061Y45747D01*
X209374Y43872D02*
X209061Y43247D01*
Y42309*
X209374Y41685*
X209999Y41372*
X210311*
X210937Y41685*
X211249Y42309*
Y43872*
X212811*
Y41372*
X208675Y288880D02*
X208988Y288567D01*
X209613Y288254*
X210238Y288567*
X210550Y288880*
Y292004*
X211175*
X210550D02*
X209300D01*
X216175Y288254D02*
X213675D01*
X215863Y290442*
X216175Y291067*
X215863Y291692*
X215238Y292004*
X214300*
X213675Y291692*
X212627Y69726D02*
X212315Y69413D01*
X211689Y69101*
X210752*
X210127Y69413*
X209815Y69726*
X209502Y70351*
Y71601*
X209815Y72226*
X210127Y72539*
X210752Y72851*
X211689*
X212315Y72539*
X212627Y72226*
X215127Y69101D02*
X216377D01*
X215752D02*
Y72851D01*
X215127Y72226*
X221065Y69101D02*
Y72851D01*
X219502Y70351*
X222002*
X213021Y60277D02*
X212708Y59965D01*
X212083Y59652*
X211146*
X210521Y59965*
X210208Y60277*
X209896Y60902*
Y62152*
X210208Y62777*
X210521Y63090*
X211146Y63402*
X212083*
X212708Y63090*
X213021Y62777*
X215521Y59652D02*
X216771D01*
X216146D02*
Y63402D01*
X215521Y62777*
X219896Y59652D02*
X222396Y63402D01*
X219896*
X222703Y43533D02*
X223016Y43220D01*
X223328Y42595*
Y41657*
X223016Y41033*
X222703Y40720*
X222078Y40407*
X220828*
X220203Y40720*
X219891Y41033*
X219578Y41657*
Y42595*
X219891Y43220*
X220203Y43533*
X223328Y46033D02*
Y47283D01*
Y46657D02*
X219578D01*
X220203Y46033*
X223016Y50720D02*
X223328Y51345D01*
Y51970*
X223016Y52595*
X222391Y52907*
X220516*
X219891Y52595*
X219578Y51970*
Y51345*
X219891Y50720*
X220516Y50407*
X222391*
X223016Y50720*
X219891Y52595*
X224813Y38510D02*
Y54510D01*
X217813*
Y38510*
X224813*
X228246Y151163D02*
Y135163D01*
X235246*
Y151163*
X228246*
X230159Y145747D02*
X229846Y146059D01*
X229534Y146685*
Y147622*
X229846Y148247*
X230159Y148559*
X230784Y148872*
X232034*
X232659Y148559*
X232972Y148247*
X233284Y147622*
Y146685*
X232972Y146059*
X232659Y145747*
X231409Y142935D02*
Y142309D01*
X231722Y141685*
X232346Y141372*
X232972Y141685*
X233284Y142309*
Y142935*
X232972Y143559*
X232346Y143872*
X231722Y143559*
X231409Y142935*
X231096Y143559*
X230472Y143872*
X229846Y143559*
X229534Y142935*
Y142309*
X229846Y141685*
X230472Y141372*
X231096Y141685*
X231409Y142309*
X236249Y156143D02*
X235937Y155831D01*
X235311Y155518*
X234374*
X233749Y155831*
X233437Y156143*
X233124Y156768*
Y158018*
X233437Y158643*
X233749Y158956*
X234374Y159268*
X235311*
X235937Y158956*
X236249Y158643*
X238124Y156456D02*
X238437Y157081D01*
X239061Y157393*
X239687*
X240311Y157081*
X240624Y156456*
X240311Y155831*
X239687Y155518*
X239061*
X238437Y155831*
X238124Y156456*
Y157393*
X238437Y158331*
X239061Y158956*
X239687Y159268*
X237049Y107361D02*
X236736Y107674D01*
X236424Y108299*
Y109236*
X236736Y109861*
X237049Y110174*
X237674Y110486*
X238924*
X239549Y110174*
X239861Y109861*
X240174Y109236*
Y108299*
X239861Y107674*
X239549Y107361*
X236424Y104861D02*
Y103611D01*
Y104236D02*
X240174D01*
X239549Y104861*
X236736Y100174D02*
X236424Y99549D01*
Y98924*
X236736Y98299*
X237361Y97986*
X237986Y98299*
X238299Y98924*
Y99549*
Y98924D02*
X238611Y98299D01*
X239236Y97986*
X239861Y98299*
X240174Y98924*
Y99549*
X239861Y100174*
X236120Y151163D02*
Y135163D01*
X243120*
Y151163*
X236120*
X238820Y146928D02*
X238508Y147241D01*
X238195Y147866*
Y148803*
X238508Y149428*
X238820Y149741*
X239445Y150053*
X240695*
X241320Y149741*
X241633Y149428*
X241945Y148803*
Y147866*
X241633Y147241*
X241320Y146928*
X238195Y144428D02*
Y143178D01*
Y143803D02*
X241945D01*
X241320Y144428*
X238195Y139428D02*
Y138178D01*
Y138803D02*
X241945D01*
X241320Y139428*
X241392Y47794D02*
X241704Y47169D01*
X242329Y46857*
X243579*
X244204Y47169*
X244517Y47794*
X244204Y48419*
X243579Y48732*
X242329*
X241704Y49044*
X241392Y49669*
X241704Y50294*
X242329Y50607*
X243579*
X244204Y50294*
X244517Y49669*
X247017Y46857D02*
X248267D01*
X247642D02*
Y50607D01*
X247017Y49982*
D02*
D11*
X1431Y106549D02*
Y34581D01*
X48675*
Y118518*
X25053*
X9404Y177337D02*
X15407D01*
X40604Y197846D02*
Y195919D01*
X66589*
X44203Y179304D02*
G75*
G02Y178700J-302D01*
G01*
Y179304D02*
G75*
G02Y178700J-302D01*
G01*
G75*
G02Y179304J302*
G01*
X44691Y137356D02*
Y158419D01*
X55526Y88242D02*
Y66982D01*
X58959Y137356D02*
Y158419D01*
X65506Y147888D02*
X110683D01*
X66589Y199774D02*
Y195919D01*
X40604*
Y199774*
X69778Y66982D02*
Y88242D01*
X74659Y178990D02*
X123872D01*
X79581Y319344D02*
G75*
G02X80368I394D01*
G01*
X79581D02*
G75*
G03X80368I394D01*
G01*
X80270Y107337D02*
X110683D01*
X80368Y319344D02*
X85033Y74758*
X102415D01*
X86667Y171116D02*
Y157337D01*
X88636Y64719D02*
X102415D01*
X90309Y58616D02*
X97199D01*
X97691Y157337D02*
Y173577D01*
X99266Y59108D02*
X113045D01*
Y33518*
X99266*
Y59108*
X102022Y171313D02*
Y157533D01*
X113045D02*
Y173774D01*
X123872Y229384D02*
X74659D01*
X129187Y164915D02*
X144148D01*
X139128Y311274D02*
X143262D01*
X139423Y184108D02*
Y202219D01*
X179581*
Y184108*
X139423*
X140604Y175644D02*
Y182730D01*
X141785Y171411D02*
X129187D01*
X164620Y228990D02*
G75*
G02X165014I197D01*
G01*
G75*
G03X164620I-197*
G01*
X165014D02*
G75*
G02X164620I-197D01*
G01*
X165014D02*
X167770Y262652*
G75*
G03Y263439J394D01*
G01*
Y262652D02*
G75*
G02Y263439J394D01*
G01*
X181746Y148400D02*
X189030D01*
X190407Y148478D02*
X217179D01*
Y78006*
X190407*
Y148478*
X230171Y153892D02*
X242770D01*
X234994Y110093D02*
Y97494D01*
X241490D02*
Y112455D01*
X242770Y160388D02*
X227809D01*
D02*
D12*
X23979Y147648D02*
Y140648D01*
X10379*
Y147648*
X23979*
X30081Y136821D02*
Y129821D01*
X16481*
Y136821*
X30081*
X38743Y241545D02*
Y234545D01*
X25143*
Y241545*
X38743*
X66105Y241742D02*
Y234742D01*
X52505*
Y241742*
X66105*
X128113Y276978D02*
Y269978D01*
X114513*
Y276978*
X128113*
X128310Y286821D02*
Y279821D01*
X114710*
Y286821*
X128310*
X128507Y296860D02*
Y289860D01*
X114907*
Y296860*
X128507*
X128900Y306506D02*
Y299506D01*
X115300*
Y306506*
X128900*
X134742Y234609D02*
X141742D01*
Y221009*
X134742*
Y234609*
X134789Y236317D02*
Y243317D01*
X148389*
Y236317*
X134789*
X140057Y160396D02*
X147057D01*
Y146796*
X140057*
Y160396*
X148719D02*
X155719D01*
Y146796*
X148719*
Y160396*
X157183D02*
X164183D01*
Y146796*
X157183*
Y160396*
X177963Y133411D02*
X170963D01*
Y147011*
X177963*
Y133411*
X191348Y187741D02*
X184348D01*
Y201341*
X191348*
Y187741*
X207380Y52326D02*
X214380D01*
Y38726*
X207380*
Y52326*
X213349Y158474D02*
Y151474D01*
X199749*
Y158474*
X213349*
Y167923D02*
Y160923D01*
X199749*
Y167923*
X213349*
D02*
D13*
X61077Y315998D02*
X12652D01*
Y253400*
X61077*
X72888Y315998D02*
X96707D01*
Y253400*
X72888*
X153596Y315132D02*
X263754D01*
Y280289*
X153596*
Y315132*
X232730Y39620D02*
Y55368D01*
X248478Y35683D02*
X240604D01*
X248478Y59305D02*
X240604D01*
X256352Y39620D02*
Y55368D01*
D02*
D14*
X118754Y68557D02*
X110093D01*
Y94541*
X118754*
X123234Y63839D02*
G75*
G02Y63457J-191D01*
G01*
Y63839D02*
G75*
G02Y63457J-191D01*
G01*
G75*
G02Y63839J191*
G01*
X127415Y68557D02*
X136077D01*
Y94541*
X127415*
X169148Y96904D02*
X163242D01*
X169148Y109502D02*
X163242D01*
X174392Y111494D02*
G75*
G02X174856I232D01*
G01*
X174392D02*
G75*
G02X174856I232D01*
G01*
G75*
G02X174392I-232*
G01*
X201313Y56628D02*
X151313D01*
Y46628*
X201313*
Y56628*
X0Y0D02*
M02*
