G04 DesignSpark PCB Gerber Version 9.0 Build 5138 *
G04 #@! TF.Part,Single*
G04 #@! TF.FileFunction,Copper,L1,Top *
G04 #@! TF.FilePolarity,Positive *
%FSLAX35Y35*%
%MOIN*%
G04 #@! TA.AperFunction,SMDPad,CuDef*
%ADD91R,0.01772X0.07087*%
G04 #@! TA.AperFunction,ViaPad*
%ADD28R,0.01890X0.03504*%
%ADD25R,0.02047X0.03504*%
G04 #@! TA.AperFunction,SMDPad,CuDef*
%ADD77R,0.03740X0.10433*%
%ADD79R,0.05100X0.06000*%
%ADD95R,0.05118X0.07087*%
%ADD85R,0.05500X0.06000*%
%ADD93R,0.06024X0.06417*%
%ADD92R,0.06299X0.12402*%
%ADD84R,0.06890X0.12598*%
%ADD102R,0.08465X0.08661*%
%ADD74R,0.10236X0.12205*%
%ADD94R,0.13189X0.14173*%
G04 #@! TA.AperFunction,ComponentPad*
%ADD96R,0.05512X0.05512*%
%ADD103R,0.06000X0.06000*%
%ADD81R,0.09449X0.09449*%
G04 #@! TD.AperFunction*
%ADD10C,0.00500*%
%ADD18C,0.00984*%
%ADD16C,0.01000*%
%ADD23C,0.01500*%
%ADD17C,0.01969*%
%ADD21C,0.02126*%
%ADD19C,0.02165*%
%ADD22C,0.02500*%
G04 #@! TA.AperFunction,ViaPad*
%ADD29C,0.02795*%
G04 #@! TD.AperFunction*
%ADD70C,0.03150*%
%ADD71C,0.03346*%
G04 #@! TA.AperFunction,ViaPad*
%ADD20C,0.03543*%
G04 #@! TA.AperFunction,ComponentPad*
%ADD104C,0.04791*%
%ADD97C,0.05512*%
G04 #@! TA.AperFunction,ViaPad*
%ADD24C,0.05591*%
%ADD26R,0.03504X0.02047*%
G04 #@! TA.AperFunction,ComponentPad*
%ADD89C,0.05906*%
G04 #@! TA.AperFunction,WasherPad*
%ADD72C,0.06000*%
G04 #@! TA.AperFunction,ComponentPad*
%ADD98C,0.06024*%
%ADD88C,0.07087*%
%ADD82C,0.09449*%
G04 #@! TA.AperFunction,ViaPad*
%ADD27C,0.19685*%
G04 #@! TA.AperFunction,SMDPad,CuDef*
%ADD100R,0.04921X0.02362*%
%ADD73R,0.06004X0.02559*%
%ADD86R,0.07283X0.02559*%
%ADD83R,0.06890X0.03740*%
%ADD99R,0.05512X0.04528*%
%ADD101R,0.07087X0.04724*%
%ADD90R,0.06000X0.05100*%
%ADD87R,0.07087X0.05118*%
%ADD76R,0.06000X0.05500*%
G04 #@! TA.AperFunction,ComponentPad*
%ADD105R,0.08000X0.06000*%
G04 #@! TA.AperFunction,SMDPad,CuDef*
%ADD80R,0.08858X0.06890*%
%ADD75R,0.16339X0.08465*%
%ADD78R,0.26772X0.24016*%
X0Y0D02*
D02*
D10*
X4620Y84106D02*
Y78596D01*
G75*
G03X6982Y76234I2362*
G01*
X9994*
Y83578*
G75*
G02X4620Y84106I-2421J2971*
G01*
G36*
Y78596*
G75*
G03X6982Y76234I2362*
G01*
X9994*
Y83578*
G75*
G02X4620Y84106I-2421J2971*
G01*
G37*
Y225644D02*
Y88993D01*
G75*
G02X9994Y89520I2953J-2444*
G01*
Y140094*
X7699*
Y148594*
X17000*
Y149344*
X12916Y153428*
G75*
G02X12275Y154974I1547J1547*
G01*
G75*
G02Y154975I683J0*
G01*
G75*
G02Y154978I793J2*
G01*
Y157150*
X10163*
Y177209*
X12415*
Y179778*
G75*
G02X16539Y185431I5937*
G01*
Y187518*
X25039*
Y184290*
G75*
G02Y183139I-1915J-576*
G01*
Y179518*
X16539*
Y180459*
G75*
G03X16415Y179778I1813J-682*
G01*
Y177209*
X18667*
Y157150*
X16650*
Y155880*
X20734Y151797*
G75*
G02X21374Y150250I-1547J-1547*
G01*
G75*
G02Y150249I-683J0*
G01*
G75*
G02Y150246I-793J-1*
G01*
Y148594*
X22801*
Y140094*
X21187*
Y137571*
X22781*
Y129071*
X15179*
Y137571*
X17187*
Y140094*
X14994*
Y76234*
X66037*
G75*
G03X69581Y79778J3543*
G01*
Y80906*
X59390*
Y91642*
X69581*
Y96313*
G75*
G02X74305Y101037I4724*
G01*
X105801*
G75*
G03X111707Y106943J5906*
G01*
Y122343*
X106634*
Y132882*
X111707*
Y154035*
X104075*
Y163000*
X111707*
Y163120*
X92219*
G75*
G02X91071Y163242I0J5439*
G01*
X89856*
G75*
G02X85919Y167179J3937*
G01*
Y179778*
G75*
G02X89856Y183715I3937*
G01*
X91431*
G75*
G03X95368Y187652J3937*
G01*
Y217770*
G75*
G03X87494Y225644I-7874*
G01*
X70240*
Y215720*
X80998*
G75*
G02X83921Y212797J-2923*
G01*
Y212524*
X88843*
Y195850*
X73154*
Y209874*
X70240*
Y199539*
X40969*
Y209866*
X36510*
G75*
G03X31029Y204495J-5482*
G01*
X32448Y187518*
X34039*
Y185628*
G75*
G02X38270Y179581I-2207J-6047*
G01*
Y177209*
X40022*
Y172504*
X40555*
G75*
G02X44650Y169679I1073J-2825*
G01*
G75*
G02X40555Y166854I-3022*
G01*
X39809*
Y162362*
X31730*
Y166996*
X34886*
G75*
G02X34512Y167150I883J2684*
G01*
X31518*
Y177209*
X33270*
Y179518*
X25539*
Y187518*
X26462*
X25073Y204135*
G75*
G02X25063Y204384I2973J247*
G01*
Y204387*
G75*
G02X36510Y215831I11447J-4*
G01*
X40969*
Y225644*
X4620*
X88720Y162803D02*
X99654D01*
Y153839*
X88720*
Y162803*
X43697Y192476D02*
X49512D01*
Y179969*
X43697*
Y192476*
X85398Y133094D02*
X91795D01*
Y122130*
X72957*
Y125284*
G75*
G02X71057Y126136I168J2919*
G01*
X66795Y130398*
X62625*
G75*
G02X56801Y133321I-2178J2923*
G01*
G75*
G02X62625Y136244I3646*
G01*
X66754*
G75*
G02X69876Y135585I1054J-2726*
G01*
X72957Y132504*
Y133094*
X79748*
Y148508*
X63646*
Y145850*
X52681*
Y157012*
X63646*
Y154354*
X80920*
G75*
G02X85398Y150752I1653J-2530*
G01*
Y133094*
X52894Y174122D02*
X63433D01*
Y163386*
X52894*
Y174122*
X61697Y192476D02*
X67512D01*
Y179969*
X61697*
Y192476*
X31518Y162209D02*
X40022D01*
Y157150*
X31518*
Y162209*
X40447Y136967D02*
G75*
G02X43370Y131143J-3646D01*
G01*
Y117573*
G75*
G02X33035Y104102I-13947*
G01*
Y100575*
X21087*
Y112524*
X33035*
Y110322*
G75*
G03X37524Y117573I-3612J7250*
G01*
Y131143*
G75*
G02X40447Y136967I2923J2178*
G01*
X21299Y86549D02*
G75*
G02X32823I5762D01*
G01*
G75*
G02X21299I-5762*
G01*
X18937Y174319D02*
X31248D01*
Y160039*
X18937*
Y174319*
X22892Y137358D02*
X30069D01*
Y129283*
X22892*
Y137358*
X14994Y86549D02*
G36*
Y76484D01*
X67345*
G75*
G03X69581Y79778I-1307J3293*
G01*
Y80906*
X59390*
Y86549*
X32823*
G75*
G02X21299I-5762*
G01*
X14994*
G37*
X4870Y118770D02*
G36*
Y89267D01*
G75*
G02X9994Y89520I2703J-2718*
G01*
Y118770*
X4870*
G37*
X14994D02*
G36*
Y86549D01*
X21299*
G75*
G02X32823I5762*
G01*
X59390*
Y91642*
X69581*
Y96313*
G75*
G02X74305Y101037I4724*
G01*
X105801*
G75*
G03X111457Y105243J5906*
G01*
Y118770*
X43370*
Y117573*
G75*
G02X33035Y104102I-13947*
G01*
Y100575*
X21087*
Y112524*
X33035*
Y110322*
G75*
G03X37524Y117573I-3613J7251*
G01*
Y118770*
X14994*
G37*
X4870Y133321D02*
G36*
Y118770D01*
X9994*
Y133321*
X4870*
G37*
X14994D02*
G36*
Y118770D01*
X37524*
Y131143*
G75*
G02X36801Y133321I2923J2178*
G01*
X30069*
Y129283*
X22892*
Y133321*
X22781*
Y129071*
X15179*
Y133321*
X14994*
G37*
X43370Y131143D02*
G36*
Y118770D01*
X111457*
Y122343*
X106634*
Y132882*
X111457*
Y133321*
X85398*
Y133094*
X91795*
Y122130*
X72957*
Y125284*
G75*
G02X71057Y126136I166J2915*
G01*
X66795Y130398*
X62625*
G75*
G02X56801Y133321I-2178J2923*
G01*
X44093*
G75*
G02X43370Y131143I-3646*
G01*
G37*
X72140Y133321D02*
G36*
X72957Y132504D01*
Y133094*
X79748*
Y133321*
X72140*
G37*
X4870Y139571D02*
G36*
Y133321D01*
X9994*
Y139571*
X4870*
G37*
X14994D02*
G36*
Y133321D01*
X15179*
Y137571*
X17187*
Y139571*
X14994*
G37*
X21187D02*
G36*
Y137571D01*
X22781*
Y133321*
X22892*
Y137358*
X30069*
Y133321*
X36801*
G75*
G02X40447Y136967I3646*
G01*
G75*
G02X44093Y133321J-3646*
G01*
X56801*
G75*
G02X62625Y136244I3646*
G01*
X66754*
G75*
G02X69876Y135585I1055J-2726*
G01*
X72140Y133321*
X79748*
Y139571*
X21187*
G37*
X85398D02*
G36*
Y133321D01*
X111457*
Y139571*
X85398*
G37*
X4870Y158321D02*
G36*
Y139571D01*
X9994*
Y140094*
X7699*
Y148594*
X17000*
Y149344*
X12916Y153428*
G75*
G02X12275Y154974I1549J1547*
G01*
Y154975*
Y154978*
Y157150*
X10163*
Y158321*
X4870*
G37*
X14994Y140094D02*
G36*
Y139571D01*
X17187*
Y140094*
X14994*
G37*
X16650Y157150D02*
G36*
Y155880D01*
X20734Y151797*
G75*
G02X21374Y150250I-1549J-1547*
G01*
Y150249*
Y150246*
Y148594*
X22801*
Y140094*
X21187*
Y139571*
X79748*
Y148508*
X63646*
Y145850*
X52681*
Y157012*
X63646*
Y154354*
X80920*
G75*
G02X85594Y151824I1652J-2530*
G01*
G75*
G02X85398Y150752I-3022J0*
G01*
Y139571*
X111457*
Y154035*
X104075*
Y158321*
X99654*
Y153839*
X88720*
Y158321*
X40022*
Y157150*
X31518*
Y158321*
X18667*
Y157150*
X16650*
G37*
X4870Y168754D02*
G36*
Y158321D01*
X10163*
Y168754*
X4870*
G37*
X18667D02*
G36*
Y158321D01*
X31518*
Y162209*
X40022*
Y158321*
X88720*
Y162803*
X99654*
Y158321*
X104075*
Y163000*
X111457*
Y163120*
X92219*
G75*
G02X91071Y163242I0J5440*
G01*
X89856*
G75*
G02X85919Y167179J3937*
G01*
Y168754*
X63433*
Y163386*
X52894*
Y168754*
X44504*
G75*
G02X40555Y166854I-2877J926*
G01*
X39809*
Y162362*
X31730*
Y166996*
X34886*
G75*
G02X34512Y167150I884J2685*
G01*
X31518*
Y168754*
X31248*
Y160039*
X18937*
Y168754*
X18667*
G37*
X4870Y186222D02*
G36*
Y168754D01*
X10163*
Y177209*
X12415*
Y179778*
G75*
G02X16539Y185431I5937J0*
G01*
Y186222*
X4870*
G37*
X16415Y179778D02*
G36*
Y177209D01*
X18667*
Y168754*
X18937*
Y174319*
X31248*
Y168754*
X31518*
Y177209*
X33270*
Y179518*
X25539*
Y186222*
X25039*
Y184290*
G75*
G02X25124Y183715I-1915J-576*
G01*
G75*
G02X25039Y183139I-2000*
G01*
Y179518*
X16539*
Y180459*
G75*
G03X16415Y179779I1804J-680*
G01*
G75*
G03Y179778I2051J-1*
G01*
G37*
X34039Y186222D02*
G36*
Y185628D01*
G75*
G02X38270Y179581I-2207J-6047*
G01*
Y177209*
X40022*
Y172504*
X40555*
G75*
G02X44650Y169679I1072J-2825*
G01*
G75*
G02X44504Y168754I-3022J0*
G01*
X52894*
Y174122*
X63433*
Y168754*
X85919*
Y179778*
G75*
G02X89856Y183715I3937*
G01*
X91431*
G75*
G03X95100Y186222J3937*
G01*
X67512*
Y179969*
X61697*
Y186222*
X49512*
Y179969*
X43697*
Y186222*
X34039*
G37*
X4870Y225394D02*
G36*
Y186222D01*
X16539*
Y187518*
X25039*
Y186222*
X25539*
Y187518*
X26462*
X25073Y204135*
G75*
G02X25063Y204375I2790J239*
G01*
G75*
G02Y204384I2804J5*
G01*
Y204387*
G75*
G02X36510Y215831I11447J-4*
G01*
X40969*
Y225394*
X4870*
G37*
X31029Y204495D02*
G36*
X32448Y187518D01*
X34039*
Y186222*
X43697*
Y192476*
X49512*
Y186222*
X61697*
Y192476*
X67512*
Y186222*
X95100*
G75*
G03X95368Y187652I-3669J1429*
G01*
Y217770*
G75*
G03X89462Y225394I-7874J0*
G01*
X70240*
Y215720*
X80998*
G75*
G02X83921Y212797J-2923*
G01*
Y212524*
X88843*
Y195850*
X73154*
Y209874*
X70240*
Y199539*
X40969*
Y209866*
X36510*
G75*
G03X31029Y204495J-5482*
G01*
G37*
X4620Y334983D02*
Y193951D01*
X25063*
Y204384*
G75*
G02X36510Y215831I11447*
G01*
X40969*
Y225841*
X29030*
G75*
G02X19187Y235683J9843*
G01*
Y240407*
X18793Y300644*
G75*
G02X42415Y324266I23622*
G01*
X227848*
G75*
G02X251470Y300644J-23622*
G01*
Y245919*
G75*
G02X241628Y236077I-9843*
G01*
X206195*
G75*
G03X196352Y226234J-9843*
G01*
Y186864*
G75*
G03X206195Y177022I9843*
G01*
X241628*
G75*
G02X251470Y167179J-9843*
G01*
Y86864*
G75*
G03X257376Y80959I5906*
G01*
X260132*
G75*
G03X266037Y86864J5906*
G01*
Y335933*
G75*
G02X244921Y339620I-10236J3687*
G01*
G75*
G02X252115Y349856I10880*
G01*
X18149*
G75*
G02X25343Y339620I-3687J-10236*
G01*
G75*
G02X4620Y334983I-10880*
G01*
G36*
Y193951*
X25063*
Y204384*
G75*
G02X36510Y215831I11447*
G01*
X40969*
Y225841*
X29030*
G75*
G02X19187Y235683J9843*
G01*
Y240407*
X18793Y300644*
G75*
G02X42415Y324266I23622*
G01*
X227848*
G75*
G02X251470Y300644J-23622*
G01*
Y245919*
G75*
G02X241628Y236077I-9843*
G01*
X206195*
G75*
G03X196352Y226234J-9843*
G01*
Y186864*
G75*
G03X206195Y177022I9843*
G01*
X241628*
G75*
G02X251470Y167179J-9843*
G01*
Y86864*
G75*
G03X257376Y80959I5906*
G01*
X260132*
G75*
G03X266037Y86864J5906*
G01*
Y335933*
G75*
G02X244921Y339620I-10236J3687*
G01*
G75*
G02X252115Y349856I10880*
G01*
X18149*
G75*
G02X25343Y339620I-3687J-10236*
G01*
G75*
G02X4620Y334983I-10880*
G01*
G37*
X12297Y52415D02*
Y39423D01*
G75*
G03X18203Y33518I5906*
G01*
X73417*
Y38691*
X81492*
Y33518*
X105801*
G75*
G03X107770Y35486J1969*
G01*
Y40407*
G75*
G03X105801Y42376I-1969*
G01*
X71746*
G75*
G02X69778Y44344J1969*
G01*
Y45722*
G75*
G03X69431Y46897I-2165*
G01*
Y39350*
X61856*
Y47425*
X68950*
G75*
G03X67612Y47888I-1338J-1703*
G01*
X36904*
G75*
G02X35132Y49659J1772*
G01*
Y50447*
G75*
G03X33163Y52415I-1969*
G01*
X28193*
G75*
G02X27922Y52246I-924J1182*
G01*
G75*
G02X32823Y46549I-861J-5697*
G01*
G75*
G02X21299I-5762*
G01*
G75*
G02X26200Y52246I5762*
G01*
G75*
G02X25929Y52415I653J1351*
G01*
X12297*
X91280Y40165D02*
X100244D01*
Y34350*
X91280*
Y40165*
X101220Y37061D02*
G75*
G02X106839I2809D01*
G01*
G75*
G02X101220I-2809*
G01*
X53392Y47425D02*
X60967D01*
Y39350*
X53392*
Y47425*
X12709Y37258D02*
G36*
G75*
G03X16503Y33768I5494J2165D01*
G01*
X73417*
Y37258*
X12709*
G37*
X81492D02*
G36*
Y33768D01*
X106761*
G75*
G03X107520Y34526I-960J1718*
G01*
Y37258*
X106831*
G75*
G02X106839Y37061I-2802J-200*
G01*
G75*
G02X101220I-2809*
G01*
G75*
G02X101228Y37258I2809J-3*
G01*
X100244*
Y34350*
X91280*
Y37258*
X81492*
G37*
X12547Y43388D02*
G36*
Y37723D01*
G75*
G03X12709Y37258I5656J1701*
G01*
X73417*
Y38691*
X81492*
Y37258*
X91280*
Y40165*
X100244*
Y37258*
X101228*
G75*
G02X106831I2802J-197*
G01*
X107520*
Y41368*
G75*
G03X105801Y42376I-1719J-960*
G01*
X71746*
G75*
G02X70026Y43388J1969*
G01*
X69431*
Y39350*
X61856*
Y43388*
X60967*
Y39350*
X53392*
Y43388*
X31878*
G75*
G02X22244I-4817J3161*
G01*
X12547*
G37*
Y52165D02*
G36*
Y43388D01*
X22244*
G75*
G02X21299Y46549I4817J3162*
G01*
G75*
G02X25774Y52165I5763J-1*
G01*
X12547*
G37*
X32823Y46549D02*
G36*
G75*
G02X31878Y43388I-5762J0D01*
G01*
X53392*
Y47425*
X60967*
Y43388*
X61856*
Y47425*
X68950*
G75*
G03X67612Y47888I-1337J-1702*
G01*
X36904*
G75*
G02X35132Y49659J1772*
G01*
Y50447*
G75*
G03X34124Y52165I-1969*
G01*
X28348*
G75*
G02X32823Y46549I-1289J-5617*
G01*
G37*
X69431Y46897D02*
G36*
Y43388D01*
X70026*
G75*
G02X69778Y44344I1720J957*
G01*
Y45722*
G75*
G03X69431Y46897I-2170J-2*
G01*
G37*
X15978Y78203D02*
Y60540D01*
G75*
G03X22002Y53916I8327J1521*
G01*
X25926*
G75*
G02X26854Y53596I2J-1500*
G01*
X27268*
G75*
G02X28193Y53916I925J-1181*
G01*
X33163*
G75*
G02X34617Y53596J-3469*
G01*
X53392*
Y56425*
X60967*
Y53596*
X61856*
Y56425*
X69431*
Y53596*
X70715*
Y61150*
X78289*
Y53596*
X79770*
Y61346*
X86965*
G75*
G02X83360Y66785I2300J5439*
G01*
Y76825*
G75*
G02X89266Y82730I5906*
G01*
X139463*
G75*
G03X143400Y86667J3937*
G01*
Y94344*
G75*
G03X139463Y98281I-3937*
G01*
X129280*
Y84154*
X120906*
Y98281*
X78439*
G75*
G03X73124Y92967J-5315*
G01*
Y66392*
G75*
G02X68596Y61864I-4528*
G01*
X44384*
G75*
G02X39463Y66785J4921*
G01*
Y78203*
X15978*
X21299Y66549D02*
G75*
G02X32823I5762D01*
G01*
G75*
G02X21299I-5762*
G01*
X16228D02*
G36*
Y59528D01*
G75*
G03X22002Y53916I8077J2533*
G01*
X25926*
G75*
G02X26380Y53846I3J-1498*
G01*
X27742*
G75*
G02X28193Y53916I450J-1428*
G01*
X33163*
G75*
G02X33854Y53846I0J-3467*
G01*
X53392*
Y56425*
X60967*
Y53846*
X61856*
Y56425*
X69431*
Y53846*
X70715*
Y61150*
X78289*
Y53846*
X79770*
Y61346*
X86965*
G75*
G02X83365Y66549I2300J5439*
G01*
X73124*
Y66392*
Y66391*
G75*
G02X68596Y61864I-4528*
G01*
X44384*
G75*
G02X39468Y66549I0J4921*
G01*
X32823*
G75*
G02X21299I-5762*
G01*
X16228*
G37*
Y78203D02*
G36*
Y66549D01*
X21299*
G75*
G02X32823I5762*
G01*
X39468*
G75*
G02X39463Y66785I4913J233*
G01*
Y66785*
Y78203*
X16228*
G37*
X73124Y92967D02*
G36*
Y66549D01*
X83365*
G75*
G02X83360Y66785I5902J236*
G01*
Y76825*
G75*
G02X89266Y82730I5906*
G01*
X139463*
G75*
G03X143150Y85287I0J3937*
G01*
Y95725*
G75*
G03X140843Y98031I-3687J-1381*
G01*
X129280*
Y84154*
X120906*
Y98031*
X76828*
G75*
G03X73124Y92967I1611J-5065*
G01*
G37*
X87344Y61201D02*
Y53596D01*
X91280*
Y58276*
X100244*
Y53596*
X106392*
G75*
G03X108557Y55762J2165*
G01*
Y58715*
G75*
G03X106392Y60880I-2165*
G01*
X89266*
G75*
G02X87344Y61201J5906*
G01*
G36*
Y53596*
X91280*
Y58276*
X100244*
Y53596*
X106392*
G75*
G03X108557Y55762J2165*
G01*
Y58715*
G75*
G03X106392Y60880I-2165*
G01*
X89266*
G75*
G02X87344Y61201J5906*
G01*
G37*
X89817Y165437D02*
G75*
G03X92219Y164620I2401J3120D01*
G01*
X116825*
G75*
G03X120762Y168557J3937*
G01*
Y193754*
G75*
G02X122730Y195722I1969*
G01*
X127258*
G75*
G03X127956Y195850J1969*
G01*
X113705*
Y212524*
X128221*
G75*
G03X125289Y213833I-2931J-2628*
G01*
X103045*
G75*
G03X99108Y209896J-3937*
G01*
Y176825*
X92219*
G75*
G03X88792Y174827J-3937*
G01*
X99866*
Y165437*
X89817*
X103862Y175024D02*
X115220D01*
Y165634*
X103862*
Y175024*
X106323Y187258D02*
G75*
G02X112366I3022D01*
G01*
G75*
G02X106323I-3022*
G01*
Y210683D02*
G75*
G02X112366I3022D01*
G01*
G75*
G02X110583Y207927I-3022*
G01*
G75*
G02X109986Y202219I-1239J-2756*
G01*
G75*
G02X110336Y196411I-642J-2953*
G01*
G75*
G02X112366Y193557I-992J-2854*
G01*
G75*
G02X106323I-3022*
G01*
G75*
G02X108353Y196411I3022*
G01*
G75*
G02X108703Y202219I992J2854*
G01*
G75*
G02X108106Y207927I642J2953*
G01*
G75*
G02X106323Y210683I1239J2756*
G01*
X89817Y165437D02*
G36*
G75*
G03X90838Y164870I2402J3120D01*
G01*
X118205*
G75*
G03X120762Y168557I-1381J3687*
G01*
Y170329*
X115220*
Y165634*
X103862*
Y170329*
X99866*
Y165437*
X89817*
G37*
X89042Y175214D02*
G36*
Y174827D01*
X99866*
Y170329*
X103862*
Y175024*
X115220*
Y170329*
X120762*
Y187258*
X112366*
G75*
G02X106323I-3022*
G01*
X99108*
Y176825*
X92219*
G75*
G03X89042Y175214I0J-3937*
G01*
G37*
X99108Y202120D02*
G36*
Y187258D01*
X106323*
G75*
G02X112366I3022*
G01*
X120762*
Y193754*
G75*
G02X122730Y195722I1969*
G01*
X127258*
G75*
G03X127956Y195850I0J1971*
G01*
X113705*
Y202120*
X110336*
G75*
G02X112366Y199266I-992J-2854*
G01*
G75*
G02X110336Y196411I-3022*
G01*
G75*
G02X112366Y193557I-991J-2854*
G01*
Y193557*
G75*
G02X106323I-3022*
G01*
Y193557*
G75*
G02X108353Y196411I3021*
G01*
G75*
G02X106323Y199266I992J2854*
G01*
G75*
G02X108353Y202120I3022*
G01*
X99108*
G37*
Y209896D02*
G36*
Y202120D01*
X108353*
G75*
G02X108703Y202219I992J-2855*
G01*
G75*
G02X106323Y205171I642J2953*
G01*
G75*
G02X108106Y207927I3022*
G01*
G75*
G02X106323Y210683I1240J2757*
G01*
G75*
G02X108494Y213583I3022*
G01*
X101665*
G75*
G03X99108Y209896I1381J-3687*
G01*
G37*
X109986Y202219D02*
G36*
G75*
G02X110336Y202120I-642J-2954D01*
G01*
X113705*
Y212524*
X127971*
Y212778*
G75*
G03X126670Y213583I-2681J-2883*
G01*
X110194*
G75*
G02X112366Y210683I-850J-2900*
G01*
G75*
G02X110583Y207927I-3022J1*
G01*
G75*
G02X112366Y205171I-1239J-2756*
G01*
G75*
G02X109986Y202219I-3022*
G01*
G37*
X100880Y66982D02*
G75*
G03X100965Y66170I3936D01*
G01*
Y73984*
X109063*
Y65492*
X101173*
G75*
G03X104817Y63045I3644J1490*
G01*
X106785*
G75*
G02X110722Y59108J-3937*
G01*
Y39030*
G75*
G03X116628Y33124I5906*
G01*
X196352*
G75*
G03X204226Y40998J7874*
G01*
Y67573*
X193006*
Y48478*
G75*
G02X189069Y44541I-3937*
G01*
X138478*
G75*
G02X132573Y50447J5906*
G01*
Y73085*
G75*
G03X129280Y78381I-5906*
G01*
Y64469*
X120906*
Y78945*
X127397*
G75*
G03X126667Y78990I-730J-5861*
G01*
X102848*
G75*
G03X100880Y77022J-1969*
G01*
Y66982*
X194283Y55665D02*
X202358D01*
Y47591*
X194283*
Y55665*
X116083Y53650D02*
X125047D01*
Y38976*
X116083*
Y53650*
X110722Y51628D02*
G36*
Y39030D01*
G75*
G03X114928Y33374I5906*
G01*
X198320*
G75*
G03X203976Y39030I-1969J7624*
G01*
Y51628*
X202358*
Y47591*
X194283*
Y51628*
X193006*
Y48478*
G75*
G02X189069Y44541I-3937*
G01*
X138478*
G75*
G02X132573Y50447J5906*
G01*
Y51628*
X125047*
Y38976*
X116083*
Y51628*
X110722*
G37*
X101130Y77982D02*
G36*
Y73984D01*
X109063*
Y65492*
X101173*
G75*
G03X104817Y63045I3644J1490*
G01*
X106785*
G75*
G02X110722Y59108J-3937*
G01*
Y51628*
X116083*
Y53650*
X125047*
Y51628*
X132573*
Y73085*
G75*
G03X129280Y78381I-5906*
G01*
Y64469*
X120906*
Y78740*
X101888*
G75*
G03X101130Y77982I960J-1718*
G01*
G37*
X193006Y67573D02*
G36*
Y51628D01*
X194283*
Y55665*
X202358*
Y51628*
X203976*
Y67573*
X193006*
G37*
X152848Y82927D02*
G75*
G03X160722Y75053I7874D01*
G01*
X210585*
Y75986*
X207774Y78797*
G75*
G02X207041Y80565I1768J1768*
G01*
Y83742*
X192287*
Y82742*
X196697*
Y83016*
X202701*
Y78469*
X196697*
Y78742*
X192287*
Y78213*
X182504*
Y98836*
G75*
G02X181192Y99427I69J1906*
G01*
X181051Y99574*
Y94685*
X171102*
Y100902*
X165253*
X165122Y100771*
Y94866*
X164691*
Y92833*
X168150*
Y84833*
X159650*
Y92833*
X160691*
Y94866*
X155535*
Y102091*
X161046*
X163090Y104134*
X155354*
Y111720*
X165303*
Y104717*
X171283*
Y111539*
X174077*
Y111998*
X170618*
Y119998*
X179118*
Y111998*
X178077*
Y111539*
X180870*
Y107650*
X182504*
Y108031*
X182323*
Y113453*
X182504*
Y120999*
G75*
G03X180400Y122839I-3474J-1852*
G01*
X178528*
Y123085*
X160526*
G75*
G03X152848Y115407J-7677*
G01*
Y82927*
X168469Y93014D02*
X177331D01*
Y84652*
X168469*
Y93014*
X161437Y120179D02*
X170299D01*
Y111817*
X161437*
Y120179*
X153098Y88833D02*
G36*
Y80959D01*
G75*
G03X158754Y75303I7624J1969*
G01*
X210335*
Y76236*
X207774Y78797*
G75*
G02X207041Y80564I1766J1767*
G01*
G75*
G02Y80565I2820J0*
G01*
Y83742*
X192287*
Y82742*
X196697*
Y83016*
X202701*
Y78469*
X196697*
Y78742*
X192287*
Y78213*
X182504*
Y88833*
X177331*
Y84652*
X168469*
Y88833*
X168150*
Y84833*
X159650*
Y88833*
X153098*
G37*
Y115998D02*
G36*
Y88833D01*
X159650*
Y92833*
X160691*
Y94866*
X155535*
Y102091*
X161046*
X163090Y104134*
X155354*
Y111720*
X165303*
Y104717*
X171283*
Y111539*
X174077*
Y111998*
X170618*
Y115998*
X170299*
Y111817*
X161437*
Y115998*
X153098*
G37*
X164691Y94866D02*
G36*
Y92833D01*
X168150*
Y88833*
X168469*
Y93014*
X177331*
Y88833*
X182504*
Y98836*
G75*
G02X181192Y99427I70J1907*
G01*
X181051Y99574*
Y94685*
X171102*
Y100902*
X165253*
X165122Y100771*
Y94866*
X164691*
G37*
X178077Y111998D02*
G36*
Y111539D01*
X180870*
Y107650*
X182504*
Y108031*
X182323*
Y113453*
X182504*
Y115998*
X179118*
Y111998*
X178077*
G37*
X153098Y117351D02*
G36*
Y115998D01*
X161437*
Y120179*
X170299*
Y115998*
X170618*
Y119998*
X179118*
Y115998*
X182504*
Y120999*
G75*
G03X180410Y122835I-3475J-1852*
G01*
X158582*
G75*
G03X153098Y117351I1943J-7427*
G01*
G37*
X192287Y88992D02*
Y87742D01*
X207276*
G75*
G02X212041Y84045I2265J-2000*
G01*
Y81600*
X214852Y78789*
G75*
G02X215585Y77022I-1768J-1768*
G01*
Y75053*
X217022*
G75*
G02X218196Y74707J-2165*
G01*
X226937*
Y66392*
X244619*
G75*
G02X241929Y70329I1537J3937*
G01*
G75*
G02X250382I4226*
G01*
G75*
G02X247693Y66392I-4226*
G01*
X248715*
G75*
G02X250683Y64423J-1969*
G01*
Y32140*
G75*
G03X252652Y30171I1969*
G01*
X258951*
G75*
G03X260919Y32140J1969*
G01*
Y73281*
G75*
G03X256982Y77219I-3937*
G01*
X219187*
G75*
G02X217022Y79384J2165*
G01*
X216825Y121904*
Y137258*
G75*
G02X218006Y138439I1181*
G01*
X218400*
G75*
G03X219134Y138695J1181*
G01*
Y142907*
G75*
G03X218400Y143163I-734J-925*
G01*
X214907*
G75*
G02X213962Y143110I-641J2953*
G01*
G75*
G03X212100Y140801I500J-2309*
G01*
Y120722*
G75*
G02X206195Y114817I-5906*
G01*
X203639*
G75*
G02X199699Y113992I-3940J8997*
G01*
X192287*
Y113453*
X192469*
Y108031*
X192287*
Y97492*
X199108*
G75*
G03X200770Y98257J2187*
G01*
Y103254*
X205321*
Y97246*
X204248*
G75*
G02X199108Y93992I-5140J2433*
G01*
X192287*
Y92492*
X206195*
G75*
G03X208304Y94098J2187*
G01*
X207858*
Y100102*
X212406*
Y94098*
X211852*
G75*
G02X206195Y88992I-5657J581*
G01*
X192287*
X251205Y34699D02*
G75*
G02X259610I4203D01*
G01*
G75*
G02X251205I-4203*
G01*
Y60289D02*
G75*
G02X259610I4203D01*
G01*
G75*
G02X251205I-4203*
G01*
X250683Y34699D02*
G36*
Y32140D01*
G75*
G03X251691Y30421I1969*
G01*
X259911*
G75*
G03X260669Y31180I-960J1718*
G01*
Y34699*
X259610*
G75*
G02X251205I-4203*
G01*
X250683*
G37*
Y60289D02*
G36*
Y34699D01*
X251205*
G75*
G02X259610I4203*
G01*
X260669*
Y60289*
X259610*
G75*
G02X251205I-4203*
G01*
X250683*
G37*
X192537Y88992D02*
G36*
Y87742D01*
X207276*
G75*
G02X212563Y85742I2265J-2000*
G01*
G75*
G02X212041Y84045I-3022*
G01*
Y81600*
X214852Y78789*
G75*
G02X215585Y77022I-1766J-1767*
G01*
Y75053*
X217022*
G75*
G02X218196Y74707I-1J-2167*
G01*
X226937*
Y66392*
X244619*
G75*
G02X241929Y70329I1538J3937*
G01*
G75*
G02X250382I4226*
G01*
G75*
G02X247693Y66392I-4227J0*
G01*
X248715*
G75*
G02X250683Y64423J-1969*
G01*
Y60289*
X251205*
G75*
G02X259610I4203*
G01*
X260669*
Y74662*
G75*
G03X256982Y77219I-3687J-1381*
G01*
X219187*
G75*
G02X217022Y79384J2165*
G01*
X216825Y121904*
Y137258*
G75*
G02X218006Y138439I1181*
G01*
X218400*
G75*
G03X219134Y138695J1181*
G01*
Y142907*
G75*
G03X219126Y142913I-735J-923*
G01*
X213405*
G75*
G03X212100Y140801I1058J-2112*
G01*
Y120722*
G75*
G02X206195Y114817I-5906*
G01*
X203639*
G75*
G02X199699Y113992I-3939J8991*
G01*
X192537*
Y97492*
X199108*
G75*
G03X200770Y98257J2186*
G01*
Y103254*
X205321*
Y97246*
X204248*
G75*
G02X199108Y93992I-5140J2433*
G01*
X192537*
Y92492*
X206195*
G75*
G03X208304Y94098J2187*
G01*
X207858*
Y100102*
X212406*
Y94098*
X211852*
G75*
G02X206195Y88992I-5657J581*
G01*
X192537*
G37*
D02*
D16*
X81982Y292199D02*
X102652D01*
X111530Y283321*
X91982Y277199D02*
X107179D01*
X91982D02*
X107376D01*
X110900Y273675*
Y273478*
X119571*
X91982Y297199D02*
X108557D01*
X112297Y293360*
X94187Y167187D02*
Y165187D01*
Y173077D02*
Y175077D01*
X98116Y170132D02*
X100116D01*
X105612Y170329D02*
X103612D01*
X108445Y186359D02*
X107031Y184944D01*
X108445Y188157D02*
X107031Y189571D01*
X108445Y192658D02*
X107031Y191244D01*
X108445Y194456D02*
X107031Y195870D01*
X108445Y198367D02*
X107031Y196952D01*
X108445Y200165D02*
X107031Y201579D01*
X108445Y204272D02*
X107031Y202858D01*
X108445Y206070D02*
X107031Y207485D01*
X108445Y209784D02*
X107031Y208370D01*
X108445Y211582D02*
X107031Y212996D01*
X109541Y167384D02*
Y165384D01*
Y173274D02*
Y175274D01*
X110244Y186359D02*
X111658Y184944D01*
X110244Y188157D02*
X111658Y189571D01*
X110244Y192658D02*
X111658Y191244D01*
X110244Y194456D02*
X111658Y195870D01*
X110244Y198367D02*
X111658Y196952D01*
X110244Y200165D02*
X111658Y201579D01*
X110244Y204272D02*
X111658Y202858D01*
X110244Y206070D02*
X111658Y207485D01*
X110244Y209784D02*
X111658Y208370D01*
X110244Y211582D02*
X111658Y212996D01*
X112396Y293360D02*
X119965D01*
X113470Y170329D02*
X115470D01*
X115455Y204187D02*
X113455D01*
X119768Y283321D02*
X111726D01*
X121549Y210774D02*
Y212774D01*
X145565Y157346D02*
Y160289D01*
G75*
G02X147533Y162258I1969*
G01*
X148518*
G75*
G03X151274Y165014J2756*
G01*
Y168163*
G75*
G02X154423Y171313I3150*
G01*
X154915*
G75*
G03X157671Y174069J2756*
G01*
Y179187*
X151667Y222691D02*
Y218459D01*
X155112Y215014*
Y207140*
X157671D02*
Y216293D01*
X155998Y217967*
Y227809*
X156589Y228400*
X159738*
X160329Y228990*
X160230Y179187D02*
Y170526D01*
G75*
G02X158262Y168557I-1969*
G01*
X157179*
G75*
G03X154030Y165407J-3150*
G01*
Y157346*
X154226*
X162789Y179187D02*
X162691D01*
Y157346*
X165053Y170722D02*
Y179187D01*
X165348*
X167907Y170722D02*
Y179187D01*
X172730Y170526D02*
Y173085D01*
X173124Y173478*
Y178498*
X173026Y178596*
Y179187*
Y207140D02*
Y245329D01*
G75*
G03X162593Y255762I-10433*
G01*
X151470*
G75*
G02X135722Y271510J15748*
G01*
Y295722*
X175585Y179187D02*
X176077Y178695D01*
X175683Y177809*
X175585Y207140D02*
X175880D01*
Y245919*
G75*
G03X163085Y258715I-12795*
G01*
X151864*
G75*
G02X138478Y272100J13386*
G01*
Y281549*
X176077Y170526D02*
Y172888D01*
X175683Y173281*
Y179089*
X175585Y179187*
X180801Y125841D02*
Y127809D01*
G75*
G02X183734Y130742I2933*
G01*
X187396*
Y90742D02*
X206195D01*
G75*
G03X210132Y94679J3937*
G01*
Y97100*
X187396Y95742D02*
X199108D01*
G75*
G03X203045Y99679J3937*
G01*
Y100250*
X187396Y100742D02*
Y100841D01*
X182573*
X180604Y102809*
X164463*
X161510Y99856*
Y98478*
X160329*
X187396Y105742D02*
X187041D01*
X187022Y105762*
X178439*
X176274Y107927*
X176077*
X187396Y115742D02*
X199699D01*
G75*
G03X207770Y123813J8071*
G01*
Y128400*
X187396Y120742D02*
X192809D01*
Y120722*
X194187*
X193203Y150250D02*
Y142514D01*
G75*
G02X191431Y140742I-1772*
G01*
X187396*
X194187Y125841D02*
X190447D01*
Y125742*
X187396*
X195762Y255959D02*
Y262730D01*
X195683Y262809*
Y263045*
X198321Y239423D02*
Y241392D01*
G75*
G03X192612Y247100I-5709*
G01*
X189659*
G75*
G02X185722Y251037J3937*
G01*
Y263006*
X185683Y263045*
X204807Y154974D02*
X190447D01*
X204807D02*
X202258D01*
Y142041*
G75*
G02X195959Y135742I-6299*
G01*
X187396*
X204807Y164423D02*
X195368D01*
G75*
G03X193203Y162258J-2165*
G01*
Y161470*
X205683Y263045D02*
X205801D01*
Y254778*
X205407Y249659*
Y246510*
X224207Y125742D02*
Y126431D01*
X237494*
G75*
G03X238478Y127415J984*
G01*
Y128203*
X230801Y123085D02*
Y121923D01*
G75*
G02X229620Y120742I-1181*
G01*
X224207*
X231785Y95742D02*
X224207D01*
X233163Y112848D02*
Y112120D01*
G75*
G02X231785Y110742I-1378*
G01*
X224207*
X235919Y123085D02*
Y119344D01*
G75*
G02X232967Y116392I-2953*
G01*
X224207*
Y115742*
X235919Y164620D02*
Y166195D01*
G75*
G03X232376Y169738I-3543*
G01*
X197927*
G75*
G03X188085Y159896J-9843*
G01*
Y156352*
G75*
G02X181392Y149659I-6693*
G01*
X173124*
G75*
G03X170565Y147100J-2559*
G01*
Y146116*
G75*
G02X166825Y142376I-3740*
G01*
X149502*
G75*
G02X145565Y146313J3937*
G01*
Y149846*
X238478Y169148D02*
Y170526D01*
G75*
G03X236904Y172100I-1575*
G01*
X198124*
G75*
G03X186116Y160093J-12008*
G01*
Y156746*
G75*
G02X180998Y151628I-5118*
G01*
X171943*
G75*
G03X168400Y148085J-3543*
G01*
Y147691*
G75*
G02X165447Y144738I-2953*
G01*
X156195*
G75*
G02X154226Y146707J1969*
G01*
Y149846*
X241234Y132533D02*
X236510D01*
X234738Y130762*
Y130742*
X224207*
X241234Y164226D02*
Y171116D01*
G75*
G03X238281Y174069I-2953*
G01*
X197927*
G75*
G03X184148Y160289J-13780*
G01*
Y157533*
G75*
G02X180211Y153596I-3937*
G01*
X170171*
G75*
G03X166431Y149856J-3740*
G01*
X162691*
Y149846*
X245683Y263045D02*
X245762D01*
Y255565*
G75*
G02X239856Y249659I-5906*
G01*
X215250*
G75*
G03X210132Y244541J-5118*
G01*
Y239620*
D02*
D17*
X7573Y84738D02*
Y81982D01*
Y88360D02*
Y91116D01*
X8199Y333356D02*
X6250Y331407D01*
X20726Y333356D02*
X22675Y331407D01*
X20726Y345884D02*
X22675Y347833D01*
X23321Y66549D02*
X20565D01*
X23321Y86549D02*
X20565D01*
X24417Y43905D02*
X22468Y41956D01*
X24417Y49194D02*
X22468Y51143D01*
X25093Y162061D02*
Y159305D01*
Y172297D02*
Y175053D01*
X26480Y131305D02*
Y128549D01*
Y135337D02*
Y138093D01*
X27061Y62809D02*
Y60053D01*
Y70289D02*
Y73045D01*
Y82809D02*
Y80053D01*
Y90289D02*
Y93045D01*
X28046Y133321D02*
X30801D01*
X29706Y43905D02*
X31654Y41956D01*
X29706Y49194D02*
X31654Y51143D01*
X30801Y66549D02*
X33557D01*
X30801Y86549D02*
X33557D01*
X37787Y164679D02*
X40543D01*
X45719Y186222D02*
X42963D01*
X46604Y181990D02*
Y179234D01*
Y190455D02*
Y193211D01*
X47490Y186222D02*
X50246D01*
X54915Y168754D02*
X52159D01*
X55413Y43388D02*
X52657D01*
X57179Y41372D02*
Y38616D01*
Y54404D02*
Y57159D01*
X58163Y165407D02*
Y162652D01*
Y172100D02*
Y174856D01*
X61411Y86274D02*
X58656D01*
X61411Y168754D02*
X64167D01*
X63719Y186222D02*
X60963D01*
X64604Y181990D02*
Y179234D01*
Y190455D02*
Y193211D01*
X64659Y82927D02*
Y80171D01*
Y89620D02*
Y92376D01*
X65490Y186222D02*
X68246D01*
X65644Y41372D02*
Y38616D01*
Y54404D02*
Y57159D01*
X72736Y57112D02*
X69980D01*
X74502Y59128D02*
Y61884D01*
X75439Y35102D02*
X72683D01*
X76268Y57112D02*
X79024D01*
X77455Y36668D02*
Y39423D01*
X79470Y35102D02*
X82226D01*
X81791Y57309D02*
X79035D01*
X83557Y59325D02*
Y62081D01*
X85323Y57309D02*
X88079D01*
X90742Y158321D02*
X87986D01*
X93301Y37258D02*
X90545D01*
X93301Y55368D02*
X90545D01*
X94187Y155860D02*
Y153104D01*
X95762Y38144D02*
Y40900D01*
Y56254D02*
Y59010D01*
X97632Y158321D02*
X100388D01*
X98222Y55368D02*
X100978D01*
X103473Y36504D02*
X101524Y34556D01*
X103473Y37618D02*
X101524Y39567D01*
X104586Y36504D02*
X106535Y34556D01*
X104586Y37618D02*
X106535Y39567D01*
X105014Y67514D02*
Y64758D01*
Y71963D02*
Y74719D01*
X106096Y158518D02*
X103341D01*
X107041Y69738D02*
X109797D01*
X109541Y156057D02*
Y153301D01*
X112304Y124076D02*
X109837Y121608D01*
X112304Y131148D02*
X109837Y133616D01*
X118104Y46313D02*
X115348D01*
X120565Y40998D02*
Y38242D01*
Y51628D02*
Y54384D01*
X122639Y69253D02*
X120171Y66785D01*
X122639Y74160D02*
X120171Y76628D01*
X122639Y88938D02*
X120171Y86470D01*
X122639Y93845D02*
X120171Y96313D01*
X123026Y46313D02*
X125781D01*
X127546Y69253D02*
X130014Y66785D01*
X127546Y74160D02*
X130014Y76628D01*
X127546Y88938D02*
X130014Y86470D01*
X127546Y93845D02*
X130014Y96313D01*
X198321Y49612D02*
Y46856D01*
Y53644D02*
Y56400D01*
X200337Y51628D02*
X203093D01*
X249537Y333356D02*
X247589Y331407D01*
X249537Y345884D02*
X247589Y347833D01*
X262065Y333356D02*
X264014Y331407D01*
D02*
D18*
X157278Y107927D02*
X155112D01*
X160329Y106057D02*
Y103892D01*
Y109797D02*
Y111963D01*
X163360Y115998D02*
X161195D01*
X163380Y107927D02*
X165545D01*
X165868Y113740D02*
Y111575D01*
Y118256D02*
Y120421D01*
X170498Y86431D02*
X168476Y84409D01*
X170498Y91235D02*
X168476Y93256D01*
X173026Y98478D02*
X170860D01*
X175302Y86431D02*
X177323Y84409D01*
X175302Y91235D02*
X177323Y93256D01*
X176077Y96608D02*
Y94443D01*
X179128Y98478D02*
X181293D01*
X184246Y110742D02*
X182081D01*
X190545D02*
X192711D01*
X221057Y140742D02*
X218892D01*
X222506Y72783D02*
Y74949D01*
X225014Y70526D02*
X227179D01*
X244527Y68700D02*
X242996Y67169D01*
X244527Y71957D02*
X242996Y73489D01*
X247784Y68700D02*
X249315Y67169D01*
X247784Y71957D02*
X249315Y73489D01*
D02*
D19*
X255407Y36569D02*
Y39734D01*
Y58419D02*
Y55254D01*
Y62159D02*
Y65325D01*
D02*
D70*
X29789Y183518D02*
X28045Y204384D01*
G75*
G02X36510Y212848I8465*
G01*
X58608*
X58557Y212797*
X55604*
X35770Y169679D02*
X41628D01*
X64604Y186222D02*
Y186077D01*
X46604*
Y186222*
X64604D02*
Y186077D01*
X68648*
G75*
G02X76522Y178203J-7874*
G01*
Y165407*
G75*
G03X84396Y157533I7874*
G01*
X94187*
Y158321*
X82376Y127612D02*
X82573D01*
Y151825*
D02*
D71*
X7573Y86549D02*
Y90407D01*
X14463Y339620D02*
X255801D01*
X14463D02*
Y209699D01*
X25093Y167179D02*
X27593Y164679D01*
X54226*
G75*
G03X58163Y168616J3937*
G01*
Y168754*
X27061Y46549D02*
X51470D01*
Y43163*
X65841*
Y37258*
X95762*
X27061Y66549D02*
Y86549D01*
Y86274*
X24502*
G75*
G02X17612Y93163J6890*
G01*
Y119935*
G75*
G02X21549Y123872I3937*
G01*
X24305*
G75*
G03X27455Y127022J3150*
G01*
Y133902*
X26874Y133321*
X26480*
X40447D02*
Y117573D01*
G75*
G02X29423Y106549I-11024*
G01*
X27061*
X46604Y186222D02*
Y185880D01*
X58557*
Y169541*
G75*
G02X53833Y164817I-4724*
G01*
X25093*
Y167179*
X51864Y68754D02*
X64463D01*
X64659Y68951*
X58163Y151431D02*
X82179D01*
X82573Y151825*
X80998Y204187D02*
Y212797D01*
X55604*
X82376Y127612D02*
Y128203D01*
X73124*
X67809Y133518*
Y133321*
X60447*
X94187Y158321D02*
X109541D01*
G75*
G02X115644Y152219J-6102*
G01*
Y134896*
X115841Y134699*
Y127612*
X94187Y170132D02*
X102848D01*
X95762Y55368D02*
X34935D01*
G75*
G02X27061Y63242J7874*
G01*
Y66549*
X102848Y170132D02*
X105604D01*
Y170329*
X109541*
X102848Y170132D02*
X107573D01*
X109344Y171904*
Y204187*
X121549*
X109541Y158518D02*
X105604D01*
Y158321*
X94187*
X115841Y127612D02*
Y124463D01*
G75*
G02X94187Y102809I-21654*
G01*
X75093*
G75*
G03X68006Y95722J-7087*
G01*
Y92376*
G75*
G02X62100Y86470I-5906*
G01*
X27927*
X27848Y86549*
X27061*
X116825Y13242D02*
X93203D01*
X119778Y249856D02*
Y259868D01*
X119805Y259896*
Y261864*
X120565Y46313D02*
X95762D01*
X125093Y71707D02*
Y46510D01*
Y46313*
X120565*
X125093Y91392D02*
X86116D01*
G75*
G03X76077Y81352J-10039*
G01*
Y56352*
X74502Y57112*
X140250Y231559D02*
Y239413D01*
X139846Y239817*
X152848Y66785D02*
X198321D01*
X158321Y51628D02*
X150486D01*
G75*
G02X141628Y60486J8858*
G01*
Y83911*
G75*
G03X133754Y91785I-7874*
G01*
X125486*
X125093Y91392*
X198321Y66785D02*
X213085D01*
X221352Y69541D02*
Y62258D01*
X223321*
Y51010*
X221943Y70919D02*
X222337Y70526D01*
X222506*
Y61667D02*
X222140D01*
Y62061*
X221943*
X246156Y70329D02*
X222506D01*
Y70526*
X246943Y270683D02*
X246352D01*
Y273045*
X245683*
X255407Y60289D02*
Y66392D01*
G75*
G03X251470Y70329I-3937*
G01*
X246156*
X255407Y60289D02*
Y34699D01*
D02*
D20*
X41628Y169679D03*
X82573Y151825D03*
X97730Y69738D03*
X104030Y37061D03*
X109344Y187258D03*
Y193557D03*
Y199266D03*
Y205171D03*
Y210683D03*
X128833Y267770D03*
X132573Y209502D03*
Y224266D03*
X134148Y314817D03*
X136510Y190801D03*
X142219Y118360D03*
Y140801D03*
X143203Y299463D03*
X167927Y128400D03*
X209541Y85742D03*
X214266Y146116D03*
X231589Y80565D03*
X231785Y85742D03*
Y90742D03*
Y95742D03*
X237691Y42179D03*
D02*
D21*
X40998Y268557D02*
Y285289D01*
X68990*
X40998Y300841D02*
Y268793D01*
X68990Y253793D02*
Y285289D01*
Y315604*
X118624Y314817D02*
X69778D01*
X68990Y315604*
X127624Y314817D02*
X134148D01*
X143203*
X152652Y195919D02*
X152455D01*
X147337Y195722*
X160329Y107927D02*
X154030D01*
Y87652*
G75*
G03X159148Y82533I5118*
G01*
X169384*
G75*
G03X173715Y86864J4331*
G01*
Y89002*
X165644Y195919D02*
X152652D01*
X165868Y115998D02*
X166037D01*
Y122100*
X160526*
G75*
G03X154030Y115604J-6496*
G01*
Y107927*
X160329*
X168400Y195919D02*
X165644D01*
X176077Y98478D02*
X174108D01*
Y88833*
X172900*
X187396Y110742D02*
X183892D01*
G75*
G02X180998Y113636J2894*
G01*
Y120132*
G75*
G03X179030Y122100I-1969*
G01*
X165868*
Y115998*
X187396Y110742D02*
X187494D01*
Y110683*
X214069Y100742D02*
X224207D01*
X214069Y110742D02*
Y100742D01*
Y110742D02*
X187396D01*
X222506Y70526D02*
X220565D01*
Y75250*
X214069Y81746*
Y100742*
X224207Y140742D02*
X219974D01*
G75*
G03X214069Y134837J-5906*
G01*
Y110742*
X243596Y157140D02*
X245565D01*
G75*
G02X249502Y153203J-3937*
G01*
Y146707*
G75*
G02X243596Y140801I-5906*
G01*
X224266*
X224207Y140742*
D02*
D22*
X27061Y46549D02*
X27100D01*
X27061Y46510*
X18400*
G75*
G02X12494Y52415J5906*
G01*
Y142376*
X11313*
Y144344*
X11500*
X29789Y183518D02*
X31833D01*
G75*
G02X35770Y179581J-3937*
G01*
Y174679*
X90053Y69738D02*
X97730D01*
X95762Y46313D02*
Y46707D01*
X76274*
X74868Y48112*
X74502*
X104030Y37061D02*
X99896D01*
Y37258*
X95762*
X112691Y158518D02*
X109541D01*
X125093Y91392D02*
X132770D01*
Y168163*
X132573*
Y186864*
X147435*
X132573Y209502D02*
Y186864D01*
X142219Y140801D02*
Y136443D01*
X143372Y135289*
Y125841D02*
X142219D01*
Y118360*
X143372Y135289D02*
X142219D01*
Y125841*
X143372*
X144876Y195722D02*
X141431D01*
G75*
G03X136510Y190801J-4921*
G01*
X147337Y195722D02*
X144876D01*
X154226Y249856D02*
X132573D01*
Y224266*
X198321Y66785D02*
Y51628D01*
X212888Y49276D02*
Y69907D01*
X213506Y70526*
X213085Y66785D02*
Y77022D01*
X209541Y80565*
Y85742*
X213506Y70526D02*
Y71116D01*
D02*
D23*
X19000Y144344D02*
X19187D01*
Y133321*
X18980*
X19000Y144344D02*
X19187D01*
Y150250*
X14463Y154974*
X14415*
Y159679*
X23124Y183715D02*
X18352D01*
G75*
G03X14415Y179778J-3937*
G01*
Y174679*
X40998Y258557D02*
G75*
G02X43990Y255565J-2992D01*
G01*
Y244148*
G75*
G03X49896Y238242I5906*
G01*
X57563*
X40998Y310841D02*
X36106D01*
G75*
G03X30201Y304935J-5906*
G01*
Y238045*
X77455Y27602D02*
X88843D01*
X93203Y23242*
X105014Y69738D02*
X123124D01*
X125093Y71707*
X111707Y303006D02*
X81982D01*
Y302199*
X112297Y293360D02*
X119965D01*
X120358Y303006D02*
X111707D01*
X127268Y283321D02*
Y273675D01*
X127071Y273478*
X127624Y314817D02*
Y293520D01*
X127465Y293360*
X128805Y261864D02*
Y271744D01*
X127071Y273478*
X128805Y266589D02*
Y261864D01*
X132179Y28783D02*
X122366D01*
X116825Y23242*
X144876Y179187D02*
Y170427D01*
X142612Y168163*
X144876Y207140D02*
Y195722D01*
X147346Y239817D02*
Y237848D01*
X156785*
G75*
G02X160329Y234305J-3543*
G01*
Y228990*
X147435Y186864D02*
Y179187D01*
Y207140D02*
Y210486D01*
G75*
G03X141530Y216392I-5906*
G01*
X105998*
G75*
G02X100093Y222297J5906*
G01*
Y225447*
G75*
G03X94187Y231352I-5906*
G01*
X41638*
G75*
G02X37701Y235289J3937*
G01*
Y238045*
X149994Y207140D02*
Y211077D01*
G75*
G03X141923Y219148I-8071*
G01*
X109344*
G75*
G02X103439Y225053J5906*
G01*
Y232337*
G75*
G03X97533Y238242I-5906*
G01*
X65063*
X151667Y222691D02*
X141618D01*
X140250Y224059*
X151667Y228990D02*
Y233321D01*
X141037*
X140250Y232533*
Y231559*
X151667Y233321D02*
Y228990D01*
X152553Y207140D02*
Y196018D01*
X152652Y195919*
X160230Y207140D02*
Y200053D01*
X160329Y98478D02*
X162691D01*
Y89789*
X163900*
Y88833*
X160329Y222691D02*
Y222297D01*
X167022*
Y229581*
X160329Y222691D02*
Y207238D01*
X160230Y207140*
X162789D02*
X160230D01*
X165348D02*
Y196215D01*
X165644Y195919*
X166825Y186864D02*
X147533D01*
Y179482*
X147435Y179384*
Y179187*
X167907Y207140D02*
X165348D01*
X170467Y179187D02*
Y186864D01*
X166825*
X170467Y207140D02*
Y200053D01*
X176077Y107927D02*
Y114789D01*
X174868Y115998*
X176470Y136461D02*
X175988D01*
X167927Y128400*
X178144Y207140D02*
Y200152D01*
G75*
G02X173911Y195919I-4232*
G01*
X165644*
X187396Y80742D02*
X199699D01*
X187396Y85742D02*
X209541D01*
X187396Y130742D02*
X194187D01*
X187396Y145742D02*
X178252D01*
X176470Y143961*
X189856Y190791D02*
X184738D01*
X178144Y184197*
Y179187*
X189856Y198291D02*
Y197691D01*
X186707*
X175880Y186864*
X170467*
X214266Y146116D02*
Y162465D01*
X212307Y164423*
X223321Y42010D02*
X213122D01*
X212888Y41776*
X223321Y42010D02*
Y42179D01*
X237691*
X224207Y80742D02*
X231589D01*
Y80565*
X224207Y85742D02*
X231785D01*
X224207Y90742D02*
X231785D01*
X224207Y100742D02*
Y100644D01*
X234344*
X236018Y98970*
X240250*
Y98675*
X224207Y145742D02*
X224522D01*
X226667Y147888*
X233530*
X233754Y147663*
X224207Y145742D02*
X214640D01*
X214266Y146116*
X233754Y147663D02*
Y156746D01*
X233360Y157140*
X237691Y60289D02*
Y34699D01*
X240250Y108911D02*
X236313D01*
X233734Y106333*
X224207*
Y105742*
X241628Y147663D02*
X233754D01*
D02*
D24*
X7573Y86549D03*
X119778Y249856D03*
X152848Y66785D03*
X154226Y249856D03*
X246156Y70329D03*
D02*
D25*
X135722Y295722D03*
X138478Y281549D03*
X160230Y200053D03*
X167022Y229581D03*
X170467Y200053D03*
X172730Y170526D03*
X176077D03*
X180801Y125841D03*
X190447Y154974D03*
X193203Y150250D03*
Y161470D03*
X195762Y255959D03*
X198321Y239423D03*
X203045Y100250D03*
X205407Y246510D03*
X207770Y128400D03*
X210132Y97100D03*
Y239620D03*
X230801Y123085D03*
X233163Y112848D03*
X235919Y123085D03*
Y164620D03*
X238478Y128203D03*
Y169148D03*
X241234Y132533D03*
Y164226D03*
D02*
D26*
X147337Y195722D03*
X151667Y233321D03*
X166825Y186864D03*
X199699Y80742D03*
D02*
D27*
X14463Y12848D03*
Y339620D03*
X255801Y12848D03*
Y339620D03*
D02*
D28*
X165053Y170722D03*
X167907D03*
D02*
D29*
X110900Y273478D03*
X111530Y283321D03*
X111707Y303006D03*
X112297Y293360D03*
X194187Y120722D03*
Y125841D03*
Y130742D03*
D02*
D72*
X51864Y68754D03*
D02*
D73*
X14415Y159679D03*
Y164679D03*
Y169679D03*
Y174679D03*
X35770Y159679D03*
Y164679D03*
Y169679D03*
Y174679D03*
D02*
D74*
X25093Y167179D03*
D02*
D75*
X82376Y127612D03*
X115841D03*
D02*
D76*
X20789Y183518D03*
X29789D03*
X118624Y314817D03*
X119805Y261864D03*
X127624Y314817D03*
X128805Y261864D03*
X134372Y125841D03*
Y135289D03*
X143372Y125841D03*
Y135289D03*
X163900Y88833D03*
X165868Y115998D03*
X172900Y88833D03*
X174868Y115998D03*
X213506Y61667D03*
Y70526D03*
X222506Y61667D03*
Y70526D03*
D02*
D77*
X46604Y186222D03*
X64604D03*
D02*
D78*
X55604Y212797D03*
D02*
D79*
X11500Y144344D03*
X18980Y133321D03*
X19000Y144344D03*
X26480Y133321D03*
X30201Y238045D03*
X37701D03*
X57563Y238242D03*
X65063D03*
X119571Y273478D03*
X119768Y283321D03*
X119965Y293360D03*
X120358Y303006D03*
X127071Y273478D03*
X127268Y283321D03*
X127465Y293360D03*
X127858Y303006D03*
X139846Y239817D03*
X147346D03*
X204807Y154974D03*
Y164423D03*
X212307Y154974D03*
Y164423D03*
D02*
D80*
X94187Y158321D03*
Y170132D03*
X109541Y158518D03*
Y170329D03*
D02*
D81*
X27061Y106549D03*
D02*
D82*
Y46549D03*
Y66549D03*
Y86549D03*
X68990Y253793D03*
Y315604D03*
D02*
D83*
X95762Y37258D03*
Y46313D03*
Y55368D03*
D02*
D84*
X120565Y46313D03*
D02*
D85*
X57179Y43388D03*
Y52388D03*
X65644Y43388D03*
Y52388D03*
X74502Y48112D03*
Y57112D03*
X83557Y48309D03*
Y57309D03*
X223321Y42010D03*
Y51010D03*
X233754Y138663D03*
Y147663D03*
X241628Y138663D03*
Y147663D03*
D02*
D86*
X187396Y80742D03*
Y85742D03*
Y90742D03*
Y95742D03*
Y100742D03*
Y105742D03*
Y110742D03*
Y115742D03*
Y120742D03*
Y125742D03*
Y130742D03*
Y135742D03*
Y140742D03*
Y145742D03*
X224207Y80742D03*
Y85742D03*
Y90742D03*
Y95742D03*
Y100742D03*
Y105742D03*
Y110742D03*
Y115742D03*
Y120742D03*
Y125742D03*
Y130742D03*
Y135742D03*
Y140742D03*
Y145742D03*
D02*
D87*
X132376Y168163D03*
X142612D03*
X233360Y157140D03*
X243596D03*
D02*
D88*
X175683Y263045D03*
Y273045D03*
X185683Y263045D03*
Y273045D03*
X195683Y263045D03*
Y273045D03*
X205683Y263045D03*
Y273045D03*
X215683Y263045D03*
Y273045D03*
X225683Y263045D03*
Y273045D03*
X235683Y263045D03*
Y273045D03*
X245683Y263045D03*
Y273045D03*
D02*
D89*
X237691Y34699D03*
Y60289D03*
X255407Y34699D03*
Y60289D03*
D02*
D90*
X77455Y27602D03*
Y35102D03*
X132179Y28783D03*
Y36283D03*
X140250Y224059D03*
Y231559D03*
X145565Y149846D03*
Y157346D03*
X154226Y149846D03*
Y157346D03*
X162691Y149846D03*
Y157346D03*
X176470Y136461D03*
Y143961D03*
X189856Y190791D03*
Y198291D03*
X212888Y41776D03*
Y49276D03*
D02*
D91*
X144876Y179187D03*
Y207140D03*
X147435Y179187D03*
Y207140D03*
X149994Y179187D03*
Y207140D03*
X152553Y179187D03*
Y207140D03*
X155112Y179187D03*
Y207140D03*
X157671Y179187D03*
Y207140D03*
X160230Y179187D03*
Y207140D03*
X162789Y179187D03*
Y207140D03*
X165348Y179187D03*
Y207140D03*
X167907Y179187D03*
Y207140D03*
X170467Y179187D03*
Y207140D03*
X173026Y179187D03*
Y207140D03*
X175585Y179187D03*
Y207140D03*
X178144Y179187D03*
Y207140D03*
D02*
D92*
X125093Y71707D03*
Y91392D03*
D02*
D93*
X90053Y69738D03*
X105014D03*
D02*
D94*
X80998Y204187D03*
X121549D03*
D02*
D95*
X240250Y98675D03*
Y108911D03*
D02*
D96*
X81982Y302199D03*
D02*
D97*
Y272199D03*
Y282199D03*
Y292199D03*
X91982Y267199D03*
Y277199D03*
Y287199D03*
Y297199D03*
D02*
D98*
X40998Y258557D03*
Y268557D03*
Y300841D03*
Y310841D03*
D02*
D99*
X151667Y222691D03*
Y228990D03*
X160329Y222691D03*
Y228990D03*
D02*
D100*
X143203Y307730D03*
Y314817D03*
D02*
D101*
X160329Y98478D03*
Y107927D03*
X176077Y98478D03*
Y107927D03*
D02*
D102*
X58163Y151431D03*
Y168754D03*
X64659Y68951D03*
Y86274D03*
D02*
D103*
X158321Y51628D03*
X168321D03*
X178321D03*
X188321D03*
X198321D03*
D02*
D104*
X40447Y133321D03*
X60447D03*
D02*
D105*
X93203Y13242D03*
Y23242D03*
X116825Y13242D03*
Y23242D03*
X0Y0D02*
M02*
