G04 DesignSpark PCB Gerber Version 9.0 Build 5138 *
G04 #@! TF.Part,Single*
G04 #@! TF.FileFunction,Paste,Top *
G04 #@! TF.FilePolarity,Positive *
%FSLAX35Y35*%
%MOIN*%
G04 #@! TA.AperFunction,SMDPad,CuDef*
%ADD156R,0.01172X0.06487*%
%ADD146R,0.03140X0.09833*%
%ADD148R,0.04500X0.05400*%
%ADD160R,0.04518X0.06487*%
%ADD152R,0.04900X0.05400*%
%ADD158R,0.05424X0.05817*%
%ADD157R,0.05699X0.11802*%
%ADD151R,0.06290X0.11998*%
%ADD164R,0.07865X0.08061*%
%ADD143R,0.09636X0.11605*%
%ADD159R,0.12589X0.13573*%
%ADD162R,0.04321X0.01762*%
%ADD142R,0.05404X0.01959*%
%ADD153R,0.06683X0.01959*%
%ADD150R,0.06290X0.03140*%
%ADD161R,0.04912X0.03928*%
%ADD163R,0.06487X0.04124*%
%ADD155R,0.05400X0.04500*%
%ADD154R,0.06487X0.04518*%
%ADD145R,0.05400X0.04900*%
%ADD149R,0.08258X0.06290*%
%ADD144R,0.15739X0.07865*%
%ADD147R,0.26172X0.23416*%
X0Y0D02*
D02*
D142*
X14415Y159679D03*
Y164679D03*
Y169679D03*
Y174679D03*
X35770Y159679D03*
Y164679D03*
Y169679D03*
Y174679D03*
D02*
D143*
X25093Y167179D03*
D02*
D144*
X82376Y127612D03*
X115841D03*
D02*
D145*
X20789Y183518D03*
X29789D03*
X118624Y314817D03*
X119805Y261864D03*
X127624Y314817D03*
X128805Y261864D03*
X134372Y125841D03*
Y135289D03*
X143372Y125841D03*
Y135289D03*
X163900Y88833D03*
X165868Y115998D03*
X172900Y88833D03*
X174868Y115998D03*
X213506Y61667D03*
Y70526D03*
X222506Y61667D03*
Y70526D03*
D02*
D146*
X46604Y186222D03*
X64604D03*
D02*
D147*
X55604Y212797D03*
D02*
D148*
X11500Y144344D03*
X18980Y133321D03*
X19000Y144344D03*
X26480Y133321D03*
X30201Y238045D03*
X37701D03*
X57563Y238242D03*
X65063D03*
X119571Y273478D03*
X119768Y283321D03*
X119965Y293360D03*
X120358Y303006D03*
X127071Y273478D03*
X127268Y283321D03*
X127465Y293360D03*
X127858Y303006D03*
X139846Y239817D03*
X147346D03*
X204807Y154974D03*
Y164423D03*
X212307Y154974D03*
Y164423D03*
D02*
D149*
X94187Y158321D03*
Y170132D03*
X109541Y158518D03*
Y170329D03*
D02*
D150*
X95762Y37258D03*
Y46313D03*
Y55368D03*
D02*
D151*
X120565Y46313D03*
D02*
D152*
X57179Y43388D03*
Y52388D03*
X65644Y43388D03*
Y52388D03*
X74502Y48112D03*
Y57112D03*
X83557Y48309D03*
Y57309D03*
X223321Y42010D03*
Y51010D03*
X233754Y138663D03*
Y147663D03*
X241628Y138663D03*
Y147663D03*
D02*
D153*
X187396Y80742D03*
Y85742D03*
Y90742D03*
Y95742D03*
Y100742D03*
Y105742D03*
Y110742D03*
Y115742D03*
Y120742D03*
Y125742D03*
Y130742D03*
Y135742D03*
Y140742D03*
Y145742D03*
X224207Y80742D03*
Y85742D03*
Y90742D03*
Y95742D03*
Y100742D03*
Y105742D03*
Y110742D03*
Y115742D03*
Y120742D03*
Y125742D03*
Y130742D03*
Y135742D03*
Y140742D03*
Y145742D03*
D02*
D154*
X132376Y168163D03*
X142612D03*
X233360Y157140D03*
X243596D03*
D02*
D155*
X77455Y27602D03*
Y35102D03*
X132179Y28783D03*
Y36283D03*
X140250Y224059D03*
Y231559D03*
X145565Y149846D03*
Y157346D03*
X154226Y149846D03*
Y157346D03*
X162691Y149846D03*
Y157346D03*
X176470Y136461D03*
Y143961D03*
X189856Y190791D03*
Y198291D03*
X212888Y41776D03*
Y49276D03*
D02*
D156*
X144876Y179187D03*
Y207140D03*
X147435Y179187D03*
Y207140D03*
X149994Y179187D03*
Y207140D03*
X152553Y179187D03*
Y207140D03*
X155112Y179187D03*
Y207140D03*
X157671Y179187D03*
Y207140D03*
X160230Y179187D03*
Y207140D03*
X162789Y179187D03*
Y207140D03*
X165348Y179187D03*
Y207140D03*
X167907Y179187D03*
Y207140D03*
X170467Y179187D03*
Y207140D03*
X173026Y179187D03*
Y207140D03*
X175585Y179187D03*
Y207140D03*
X178144Y179187D03*
Y207140D03*
D02*
D157*
X125093Y71707D03*
Y91392D03*
D02*
D158*
X90053Y69738D03*
X105014D03*
D02*
D159*
X80998Y204187D03*
X121549D03*
D02*
D160*
X240250Y98675D03*
Y108911D03*
D02*
D161*
X151667Y222691D03*
Y228990D03*
X160329Y222691D03*
Y228990D03*
D02*
D162*
X143203Y307730D03*
Y314817D03*
D02*
D163*
X160329Y98478D03*
Y107927D03*
X176077Y98478D03*
Y107927D03*
D02*
D164*
X58163Y151431D03*
Y168754D03*
X64659Y68951D03*
Y86274D03*
X0Y0D02*
M02*
