G04 DesignSpark PCB Gerber Version 9.0 Build 5138 *
G04 #@! TF.Part,Single*
G04 #@! TF.FileFunction,Legend,Top *
G04 #@! TF.FilePolarity,Positive *
%FSLAX35Y35*%
%MOIN*%
%ADD11C,0.00100*%
%ADD12C,0.00300*%
%ADD15C,0.00394*%
%ADD10C,0.00500*%
%ADD13C,0.00787*%
%ADD14C,0.00800*%
%ADD16C,0.01000*%
X0Y0D02*
D02*
D10*
X12100Y142920D02*
Y146670D01*
X14288*
X14913Y146357*
X15226Y145732*
X14913Y145107*
X14288Y144795*
X12100*
X14288D02*
X15226Y142920D01*
X17726D02*
X18976D01*
X18350D02*
Y146670D01*
X17726Y146045*
X14463Y3006D02*
X255801D01*
G75*
G03X265644Y12848J9843*
G01*
Y340014*
G75*
G03X256195Y349463I-9449*
G01*
X14463*
G75*
G03X4620Y339620J-9843*
G01*
Y12848*
G75*
G03X14463Y3006I9843*
G01*
X17289Y180018D02*
X33289D01*
Y187018*
X17289*
Y180018*
X18400Y131502D02*
Y135252D01*
X20587*
X21212Y134940*
X21525Y134315*
X21212Y133690*
X20587Y133378*
X18400*
X20587D02*
X21525Y131502D01*
X25900D02*
X23400D01*
X25587Y133690*
X25900Y134315*
X25587Y134940*
X24962Y135252*
X24025*
X23400Y134940*
X19731Y164967D02*
X20981D01*
X20356D02*
Y168717D01*
X19731D02*
X20981D01*
X26919Y165592D02*
X26606Y165280D01*
X25981Y164967*
X25043*
X24419Y165280*
X24106Y165592*
X23793Y166217*
Y167467*
X24106Y168092*
X24419Y168405*
X25043Y168717*
X25981*
X26606Y168405*
X26919Y168092*
X29419Y164967D02*
X30669D01*
X30043D02*
Y168717D01*
X29419Y168092*
X24674Y190080D02*
X24362Y189768D01*
X23737Y189455*
X22799*
X22174Y189768*
X21862Y190080*
X21549Y190705*
Y191955*
X21862Y192580*
X22174Y192893*
X22799Y193205*
X23737*
X24362Y192893*
X24674Y192580*
X29049Y189455D02*
X26549D01*
X28737Y191643*
X29049Y192268*
X28737Y192893*
X28112Y193205*
X27174*
X26549Y192893*
X25093Y28990D02*
Y14423D01*
X70368*
Y28203*
X29017Y83715D02*
X28705Y83402D01*
X28392Y82777*
X28705Y82152*
X29017Y81839*
X32142*
Y81215*
Y81839D02*
Y83089D01*
X28392Y78089D02*
Y76839D01*
Y77465D02*
X32142D01*
X31517Y78089*
X27848Y25053D02*
X37691D01*
Y17179*
X27848*
Y25053*
Y235833D02*
Y239583D01*
X30036*
X30661Y239271*
X30974Y238646*
X30661Y238021*
X30036Y237708*
X27848*
X30036D02*
X30974Y235833D01*
X33474D02*
X34724D01*
X34098D02*
Y239583D01*
X33474Y238958*
X39411Y235833D02*
Y239583D01*
X37848Y237083*
X40348*
X37691Y25053D02*
X47927D01*
Y17179*
X37691*
Y25053*
X46746Y131502D02*
Y135252D01*
X49871*
X49246Y133378D02*
X46746D01*
X52371Y131502D02*
X53621D01*
X52996D02*
Y135252D01*
X52371Y134628*
X47927Y25053D02*
X58163D01*
Y17179*
X47927*
Y25053*
X51470Y281896D02*
Y285646D01*
X54596*
X53970Y283771D02*
X51470D01*
Y281896D02*
X54596D01*
X58033D02*
Y285646D01*
X56470D02*
X59596D01*
X61470Y281896D02*
Y285646D01*
Y283771D02*
X64596D01*
Y281896D02*
Y285646D01*
X55014Y205518D02*
Y209268D01*
X56889*
X57514Y208956*
X57826Y208643*
X58139Y208018*
Y206768*
X57826Y206143*
X57514Y205831*
X56889Y205518*
X55014*
X60639D02*
X61889D01*
X61264D02*
Y209268D01*
X60639Y208643*
X55014Y236424D02*
Y240174D01*
X57201*
X57826Y239861*
X58139Y239236*
X57826Y238611*
X57201Y238299*
X55014*
X57201D02*
X58139Y236424D01*
X60639D02*
X61889D01*
X61264D02*
Y240174D01*
X60639Y239549*
X65014Y236736D02*
X65639Y236424D01*
X66576*
X67201Y236736*
X67514Y237361*
Y237674*
X67201Y238299*
X66576Y238611*
X65014*
Y240174*
X67514*
X58163Y25053D02*
X68400D01*
Y17179*
X58163*
Y25053*
X57979Y44714D02*
X58291Y44401D01*
X58604Y43776*
Y42839*
X58291Y42214*
X57979Y41901*
X57354Y41589*
X56104*
X55479Y41901*
X55166Y42214*
X54854Y42839*
Y43776*
X55166Y44401*
X55479Y44714*
X58604Y47214D02*
Y48464D01*
Y47839D02*
X54854D01*
X55479Y47214*
X58604Y54089D02*
Y51589D01*
X56416Y53776*
X55791Y54089*
X55166Y53776*
X54854Y53151*
Y52214*
X55166Y51589*
X59588Y157337D02*
X55838D01*
Y159212*
X56150Y159837*
X56463Y160149*
X57088Y160462*
X58338*
X58963Y160149*
X59276Y159837*
X59588Y159212*
Y157337*
Y164837D02*
Y162337D01*
X57400Y164524*
X56776Y164837*
X56150Y164524*
X55838Y163899*
Y162962*
X56150Y162337*
X60679Y39888D02*
Y55888D01*
X53679*
Y39888*
X60679*
X65887Y77612D02*
X62137D01*
Y79487*
X62450Y80112*
X62762Y80425*
X63387Y80737*
X64637*
X65262Y80425*
X65575Y80112*
X65887Y79487*
Y77612*
Y84175D02*
X62137D01*
X64637Y82612*
Y85112*
X66837Y48060D02*
X67150Y47748D01*
X67462Y47122*
Y46185*
X67150Y45560*
X66837Y45248*
X66212Y44935*
X64962*
X64337Y45248*
X64024Y45560*
X63712Y46185*
Y47122*
X64024Y47748*
X64337Y48060*
X67462Y49935D02*
X63712Y52435D01*
Y49935*
X69144Y39888D02*
Y55888D01*
X62144*
Y39888*
X69144*
X72730Y6224D02*
X73356Y5912D01*
X74293*
X74918Y6224*
X75230Y6850*
Y7162*
X74918Y7787*
X74293Y8100*
X72730*
Y9662*
X75230*
X77730D02*
X79293Y5912D01*
X80856Y9662*
X75695Y51997D02*
X76008Y51685D01*
X76320Y51059*
Y50122*
X76008Y49497*
X75695Y49185*
X75070Y48872*
X73820*
X73195Y49185*
X72883Y49497*
X72570Y50122*
Y51059*
X72883Y51685*
X73195Y51997*
X76320Y54809D02*
X76008Y55435D01*
X75383Y56059*
X74445Y56372*
X73508*
X72883Y56059*
X72570Y55435*
Y54809*
X72883Y54185*
X73508Y53872*
X74133Y54185*
X74445Y54809*
Y55435*
X74133Y56059*
X73508Y56372*
X78002Y44612D02*
Y60612D01*
X71002*
Y44612*
X78002*
X79273Y25447D02*
X75523D01*
Y27634*
X75835Y28259*
X76461Y28572*
X77085Y28259*
X77398Y27634*
Y25447*
Y27634D02*
X79273Y28572D01*
Y31072D02*
Y32322D01*
Y31697D02*
X75523D01*
X76148Y31072*
X79273Y35447D02*
X75523Y37947D01*
Y35447*
X84554Y52391D02*
X84866Y52078D01*
X85179Y51453*
Y50516*
X84866Y49891*
X84554Y49578*
X83929Y49266*
X82679*
X82054Y49578*
X81741Y49891*
X81429Y50516*
Y51453*
X81741Y52078*
X82054Y52391*
X84866Y54266D02*
X85179Y54891D01*
Y55828*
X84866Y56453*
X84241Y56766*
X83929*
X83304Y56453*
X82991Y55828*
Y54266*
X81429*
Y56766*
X87057Y44809D02*
Y60809D01*
X80057*
Y44809*
X87057*
X96156Y205134D02*
Y201384D01*
X99281*
X101781D02*
X103031D01*
X102406D02*
Y205134D01*
X101781Y204509*
X99871Y126813D02*
X99559Y126500D01*
X98933Y126187*
X97996*
X97371Y126500*
X97059Y126813*
X96746Y127437*
Y128687*
X97059Y129313*
X97371Y129625*
X97996Y129937*
X98933*
X99559Y129625*
X99871Y129313*
X102371Y126187D02*
X103621D01*
X102996D02*
Y129937D01*
X102371Y129313*
X95774Y163611D02*
X96087Y163299D01*
X96399Y162674*
Y161736*
X96087Y161111*
X95774Y160799*
X95149Y160486*
X93899*
X93274Y160799*
X92961Y161111*
X92649Y161736*
Y162674*
X92961Y163299*
X93274Y163611*
X96087Y165799D02*
X96399Y166424D01*
Y167049*
X96087Y167674*
X95461Y167986*
X94837Y167674*
X94524Y167049*
Y166424*
Y167049D02*
X94211Y167674D01*
X93587Y167986*
X92961Y167674*
X92649Y167049*
Y166424*
X92961Y165799*
X97533Y70676D02*
Y74426D01*
X99409*
X100033Y74113*
X100346Y73801*
X100659Y73176*
Y71926*
X100346Y71301*
X100033Y70988*
X99409Y70676*
X97533*
X102846Y70988D02*
X103471Y70676D01*
X104096*
X104721Y70988*
X105033Y71613*
X104721Y72238*
X104096Y72551*
X103471*
X104096D02*
X104721Y72863D01*
X105033Y73488*
X104721Y74113*
X104096Y74426*
X103471*
X102846Y74113*
X104203Y18242D02*
G75*
G03X93203Y29242I-11000D01*
G01*
G75*
G03X82203Y18242J-11000*
G01*
G75*
G03X86503Y7942I14583J41*
G01*
X99903*
G75*
G03X104203Y18242I-10283J10341*
G01*
X109982Y40557D02*
Y41807D01*
Y41183D02*
X106232D01*
Y40557D02*
Y41807D01*
X109357Y47745D02*
X109669Y47433D01*
X109982Y46807*
Y45870*
X109669Y45245*
X109357Y44933*
X108732Y44620*
X107482*
X106857Y44933*
X106544Y45245*
X106232Y45870*
Y46807*
X106544Y47433*
X106857Y47745*
X109982Y52120D02*
Y49620D01*
X107794Y51807*
X107169Y52120*
X106544Y51807*
X106232Y51183*
Y50245*
X106544Y49620*
X110735Y163415D02*
X111047Y163102D01*
X111360Y162477*
Y161539*
X111047Y160915*
X110735Y160602*
X110110Y160289*
X108860*
X108235Y160602*
X107922Y160915*
X107610Y161539*
Y162477*
X107922Y163102*
X108235Y163415*
X111360Y166852D02*
X107610D01*
X110110Y165289*
Y167789*
X118769Y314017D02*
X118456Y313705D01*
X117831Y313392*
X116894*
X116269Y313705*
X115956Y314017*
X115644Y314642*
Y315892*
X115956Y316517*
X116269Y316830*
X116894Y317142*
X117831*
X118456Y316830*
X118769Y316517*
X121269Y313392D02*
X122519D01*
X121894D02*
Y317142D01*
X121269Y316517*
X126581Y313392D02*
X127206Y313705D01*
X127831Y314330*
X128144Y315267*
Y316205*
X127831Y316830*
X127206Y317142*
X126581*
X125956Y316830*
X125644Y316205*
X125956Y315580*
X126581Y315267*
X127206*
X127831Y315580*
X128144Y316205*
X117219Y300597D02*
Y304347D01*
X119406*
X120031Y304035*
X120344Y303409*
X120031Y302785*
X119406Y302472*
X117219*
X119406D02*
X120344Y300597D01*
X122844D02*
X124094D01*
X123469D02*
Y304347D01*
X122844Y303722*
X129719Y300597D02*
X127219D01*
X129406Y302785*
X129719Y303409*
X129406Y304035*
X128781Y304347*
X127844*
X127219Y304035*
X117809Y291542D02*
Y295292D01*
X119996*
X120622Y294980*
X120934Y294354*
X120622Y293730*
X119996Y293417*
X117809*
X119996D02*
X120934Y291542D01*
X123434D02*
X124684D01*
X124059D02*
Y295292D01*
X123434Y294667*
X128122Y291854D02*
X128746Y291542D01*
X129372*
X129996Y291854*
X130309Y292480*
X129996Y293104*
X129372Y293417*
X128746*
X129372D02*
X129996Y293730D01*
X130309Y294354*
X129996Y294980*
X129372Y295292*
X128746*
X128122Y294980*
X121131Y260474D02*
X120819Y260161D01*
X120193Y259849*
X119256*
X118631Y260161*
X118319Y260474*
X118006Y261099*
Y262349*
X118319Y262974*
X118631Y263287*
X119256Y263599*
X120193*
X120819Y263287*
X121131Y262974*
X123631Y259849D02*
X124881D01*
X124256D02*
Y263599D01*
X123631Y262974*
X128006Y260161D02*
X128631Y259849D01*
X129569*
X130193Y260161*
X130506Y260787*
Y261099*
X130193Y261724*
X129569Y262037*
X128006*
Y263599*
X130506*
X123293Y83226D02*
X123606Y82914D01*
X123919Y82289*
Y81351*
X123606Y80726*
X123293Y80414*
X122669Y80101*
X121419*
X120793Y80414*
X120481Y80726*
X120169Y81351*
Y82289*
X120481Y82914*
X120793Y83226*
X123919Y85726D02*
Y86976D01*
Y86351D02*
X120169D01*
X120793Y85726*
X122981Y90101D02*
X122356Y90414D01*
X122043Y91039*
Y91664*
X122356Y92289*
X122981Y92601*
X123606Y92289*
X123919Y91664*
Y91039*
X123606Y90414*
X122981Y90101*
X122043*
X121106Y90414*
X120481Y91039*
X120169Y91664*
X127825Y18242D02*
G75*
G03X116825Y29242I-11000D01*
G01*
G75*
G03X105825Y18242J-11000*
G01*
G75*
G03X110125Y7942I14583J41*
G01*
X123525*
G75*
G03X127825Y18242I-10283J10341*
G01*
X128439Y284943D02*
Y281193D01*
X126252*
X125626Y281505*
X125314Y282130*
X125626Y282755*
X126252Y283067*
X128439*
X126252D02*
X125314Y284943D01*
X122814D02*
X121564D01*
X122189D02*
Y281193D01*
X122814Y281817*
X117814Y284943D02*
X116564D01*
X117189D02*
Y281193D01*
X117814Y281817*
X129620Y275691D02*
Y271941D01*
X127433*
X126807Y272253*
X126495Y272878*
X126807Y273503*
X127433Y273815*
X129620*
X127433D02*
X126495Y275691D01*
X123995D02*
X122745D01*
X123370D02*
Y271941D01*
X123995Y272565*
X119307Y275378D02*
X118683Y275691D01*
X118057*
X117433Y275378*
X117120Y274753*
Y272878*
X117433Y272253*
X118057Y271941*
X118683*
X119307Y272253*
X119620Y272878*
Y274753*
X119307Y275378*
X117433Y272253*
X131311Y6224D02*
X131935Y5912D01*
X132561*
X133185Y6224*
X133498Y6850*
X133185Y7474*
X132561Y7787*
X131935*
X132561D02*
X133185Y8100D01*
X133498Y8724*
X133185Y9350*
X132561Y9662*
X131935*
X131311Y9350*
X135998Y9662D02*
X137561Y5912D01*
X139123Y9662*
X131124Y318317D02*
X115124D01*
Y311317*
X131124*
Y318317*
X135107Y124450D02*
X134795Y124138D01*
X134170Y123825*
X133232*
X132607Y124138*
X132295Y124450*
X131982Y125075*
Y126325*
X132295Y126950*
X132607Y127263*
X133232Y127575*
X134170*
X134795Y127263*
X135107Y126950*
X139482Y123825D02*
X136982D01*
X139170Y126013*
X139482Y126638*
X139170Y127263*
X138545Y127575*
X137607*
X136982Y127263*
X143545Y123825D02*
Y127575D01*
X141982Y125075*
X144482*
X135107Y166183D02*
X134795Y165870D01*
X134170Y165557*
X133232*
X132607Y165870*
X132295Y166183*
X131982Y166807*
Y168057*
X132295Y168683*
X132607Y168995*
X133232Y169307*
X134170*
X134795Y168995*
X135107Y168683*
X137607Y165557D02*
X138857D01*
X138232D02*
Y169307D01*
X137607Y168683*
X142920Y167433D02*
X143545D01*
X144170Y167745*
X144482Y168370*
X144170Y168995*
X143545Y169307*
X142920*
X142295Y168995*
X141982Y168370*
X142295Y167745*
X142920Y167433*
X142295Y167120*
X141982Y166495*
X142295Y165870*
X142920Y165557*
X143545*
X144170Y165870*
X144482Y166495*
X144170Y167120*
X143545Y167433*
X132305Y265364D02*
X116305D01*
Y258364*
X132305*
Y265364*
X136092Y133899D02*
X135779Y133587D01*
X135154Y133274*
X134217*
X133592Y133587*
X133279Y133899*
X132967Y134524*
Y135774*
X133279Y136399*
X133592Y136712*
X134217Y137024*
X135154*
X135779Y136712*
X136092Y136399*
X140467Y133274D02*
X137967D01*
X140154Y135462*
X140467Y136087*
X140154Y136712*
X139529Y137024*
X138592*
X137967Y136712*
X142967Y133587D02*
X143592Y133274D01*
X144529*
X145154Y133587*
X145467Y134212*
Y134524*
X145154Y135149*
X144529Y135462*
X142967*
Y137024*
X145467*
X133998Y25841D02*
X130248D01*
Y28028*
X130560Y28653*
X131185Y28966*
X131810Y28653*
X132122Y28028*
Y25841*
Y28028D02*
X133998Y28966D01*
Y31466D02*
Y32716D01*
Y32091D02*
X130248D01*
X130872Y31466*
X132122Y36778D02*
Y37403D01*
X131810Y38028*
X131185Y38341*
X130560Y38028*
X130248Y37403*
Y36778*
X130560Y36153*
X131185Y35841*
X131810Y36153*
X132122Y36778*
X132435Y36153*
X133060Y35841*
X133685Y36153*
X133998Y36778*
Y37403*
X133685Y38028*
X133060Y38341*
X132435Y38028*
X132122Y37403*
X141013Y238427D02*
X140700Y238114D01*
X140075Y237802*
X139138*
X138513Y238114*
X138200Y238427*
X137888Y239052*
Y240302*
X138200Y240927*
X138513Y241239*
X139138Y241552*
X140075*
X140700Y241239*
X141013Y240927*
X145388Y237802D02*
X142888D01*
X145075Y239989*
X145388Y240614*
X145075Y241239*
X144450Y241552*
X143513*
X142888Y241239*
X148200Y238114D02*
X148825Y237802D01*
X149450*
X150075Y238114*
X150388Y238739*
Y240614*
X150075Y241239*
X149450Y241552*
X148825*
X148200Y241239*
X147888Y240614*
Y238739*
X148200Y238114*
X150075Y241239*
X140459Y226210D02*
X140772Y225897D01*
X141084Y225272*
Y224335*
X140772Y223710*
X140459Y223397*
X139834Y223085*
X138584*
X137959Y223397*
X137646Y223710*
X137334Y224335*
Y225272*
X137646Y225897*
X137959Y226210*
X141084Y230585D02*
Y228085D01*
X138896Y230272*
X138272Y230585*
X137646Y230272*
X137334Y229647*
Y228710*
X137646Y228085*
X141084Y233710D02*
Y234960D01*
Y234335D02*
X137334D01*
X137959Y233710*
X146872Y129341D02*
X130872D01*
Y122341*
X146872*
Y129341*
Y138789D02*
X130872D01*
Y131789*
X146872*
Y138789*
X147383Y150053D02*
X143633D01*
Y152241*
X143946Y152866*
X144571Y153178*
X145196Y152866*
X145508Y152241*
Y150053*
Y152241D02*
X147383Y153178D01*
X146446Y155053D02*
X145821Y155366D01*
X145508Y155991*
Y156616*
X145821Y157241*
X146446Y157553*
X147071Y157241*
X147383Y156616*
Y155991*
X147071Y155366*
X146446Y155053*
X145508*
X144571Y155366*
X143946Y155991*
X143633Y156616*
X151714Y305762D02*
X147964D01*
Y308887*
X149839Y308262D02*
Y305762D01*
X147964Y310762D02*
X151714D01*
Y313887*
Y316387D02*
Y317637D01*
Y317012D02*
X147964D01*
X148589Y316387*
X155164Y190951D02*
X156414D01*
X155789D02*
Y194701D01*
X155164D02*
X156414D01*
X162352Y191576D02*
X162039Y191264D01*
X161414Y190951*
X160476*
X159852Y191264*
X159539Y191576*
X159226Y192201*
Y193451*
X159539Y194076*
X159852Y194389*
X160476Y194701*
X161414*
X162039Y194389*
X162352Y194076*
X165789Y190951D02*
Y194701D01*
X164226Y192201*
X166726*
X156045Y149856D02*
X152295D01*
Y152044*
X152607Y152669*
X153232Y152981*
X153857Y152669*
X154170Y152044*
Y149856*
Y152044D02*
X156045Y152981D01*
Y154856D02*
X152295Y157356D01*
Y154856*
X156404Y224903D02*
Y223028D01*
X157967Y221153*
X156404Y223028D02*
X154841Y221153D01*
X150467Y224903D02*
X152967D01*
X150779Y222715*
X150467Y222091*
X150779Y221465*
X151404Y221153*
X152341*
X152967Y221465*
X160400Y85333D02*
X176400D01*
Y92333*
X160400*
Y85333*
X165422Y88624D02*
X165110Y88311D01*
X164485Y87998*
X163547*
X162922Y88311*
X162610Y88624*
X162297Y89248*
Y90498*
X162610Y91124*
X162922Y91436*
X163547Y91748*
X164485*
X165110Y91436*
X165422Y91124*
X169797Y87998D02*
X167297D01*
X169485Y90186*
X169797Y90811*
X169485Y91436*
X168860Y91748*
X167922*
X167297Y91436*
X172610Y88311D02*
X173235Y87998D01*
X173860*
X174485Y88311*
X174797Y88936*
X174485Y89561*
X173860Y89874*
X173235*
X173860D02*
X174485Y90186D01*
X174797Y90811*
X174485Y91436*
X173860Y91748*
X173235*
X172610Y91436*
X166997Y114805D02*
X166685Y114492D01*
X166059Y114180*
X165122*
X164497Y114492*
X164185Y114805*
X163872Y115430*
Y116680*
X164185Y117305*
X164497Y117617*
X165122Y117930*
X166059*
X166685Y117617*
X166997Y117305*
X171372Y114180D02*
X168872D01*
X171059Y116367*
X171372Y116992*
X171059Y117617*
X170435Y117930*
X169497*
X168872Y117617*
X176372Y114180D02*
X173872D01*
X176059Y116367*
X176372Y116992*
X176059Y117617*
X175435Y117930*
X174497*
X173872Y117617*
X166025Y101778D02*
Y103653D01*
X164463Y105528*
X166025Y103653D02*
X167588Y105528D01*
X169775Y102091D02*
X170400Y101778D01*
X171025*
X171650Y102091*
X171963Y102716*
X171650Y103341*
X171025Y103653*
X170400*
X171025D02*
X171650Y103966D01*
X171963Y104591*
X171650Y105216*
X171025Y105528*
X170400*
X169775Y105216*
X164313Y149659D02*
X160563D01*
Y151847*
X160875Y152472*
X161500Y152785*
X162125Y152472*
X162437Y151847*
Y149659*
Y151847D02*
X164313Y152785D01*
X162437Y155597D02*
Y156222D01*
X162125Y156847*
X161500Y157159*
X160875Y156847*
X160563Y156222*
Y155597*
X160875Y154972*
X161500Y154659*
X162125Y154972*
X162437Y155597*
X162750Y154972*
X163375Y154659*
X164000Y154972*
X164313Y155597*
Y156222*
X164000Y156847*
X163375Y157159*
X162750Y156847*
X162437Y156222*
X168400Y245919D02*
X178636D01*
Y239226*
X168400*
Y245919*
Y252612D02*
X178636D01*
Y245919*
X168400*
Y252612*
X168793Y41345D02*
Y45095D01*
X170981*
X171606Y44783*
X171919Y44157*
X171606Y43533*
X170981Y43220*
X168793*
X173793Y41345D02*
Y45095D01*
X175981*
X176606Y44783*
X176919Y44157*
X176606Y43533*
X175981Y43220*
X173793*
X175981D02*
X176919Y41345D01*
X180981Y42907D02*
X181919D01*
Y42595*
X181606Y41970*
X181293Y41657*
X180669Y41345*
X180043*
X179419Y41657*
X179106Y41970*
X178793Y42595*
Y43845*
X179106Y44470*
X179419Y44783*
X180043Y45095*
X180669*
X181293Y44783*
X181606Y44470*
X181919Y43845*
X183793Y41345D02*
Y45095D01*
X185356Y43220*
X186919Y45095*
Y41345*
X178368Y119498D02*
X162368D01*
Y112498*
X178368*
Y119498*
X178636Y245919D02*
X191628D01*
Y239226*
X178636*
Y245919*
Y252612D02*
X191628D01*
Y245919*
X178636*
Y252612*
X177895Y134305D02*
X174145D01*
Y136493*
X174457Y137118*
X175083Y137430*
X175707Y137118*
X176020Y136493*
Y134305*
Y136493D02*
X177895Y137430D01*
Y139930D02*
Y141180D01*
Y140555D02*
X174145D01*
X174770Y139930*
X176957Y144305D02*
X176333Y144618D01*
X176020Y145243*
Y145868*
X176333Y146493*
X176957Y146805*
X177583Y146493*
X177895Y145868*
Y145243*
X177583Y144618*
X176957Y144305*
X176020*
X175083Y144618*
X174457Y145243*
X174145Y145868*
X191628Y245919D02*
X203439D01*
Y239226*
X191628*
Y245919*
Y252612D02*
X203439D01*
Y245919*
X191628*
Y252612*
X192069Y190801D02*
X188319D01*
Y192989*
X188631Y193614*
X189256Y193926*
X189881Y193614*
X190193Y192989*
Y190801*
Y192989D02*
X192069Y193926D01*
Y196739D02*
X191756Y197364D01*
X191131Y197989*
X190193Y198301*
X189256*
X188631Y197989*
X188319Y197364*
Y196739*
X188631Y196114*
X189256Y195801*
X189881Y196114*
X190193Y196739*
Y197364*
X189881Y197989*
X189256Y198301*
X203439Y245919D02*
X217219D01*
Y239226*
X203439*
Y245919*
Y252612D02*
X217219D01*
Y245919*
X203439*
Y252612*
X204226Y153550D02*
Y157300D01*
X206414*
X207039Y156987*
X207352Y156362*
X207039Y155737*
X206414Y155425*
X204226*
X206414D02*
X207352Y153550D01*
X209539Y153862D02*
X210164Y153550D01*
X210789*
X211414Y153862*
X211726Y154487*
X211414Y155112*
X210789Y155425*
X210164*
X210789D02*
X211414Y155737D01*
X211726Y156362*
X211414Y156987*
X210789Y157300*
X210164*
X209539Y156987*
X205014Y162211D02*
Y165961D01*
X207201*
X207826Y165649*
X208139Y165024*
X207826Y164399*
X207201Y164086*
X205014*
X207201D02*
X208139Y162211D01*
X211576D02*
Y165961D01*
X210014Y163461*
X212514*
X207376Y294494D02*
Y298244D01*
X209563*
X210189Y297932*
X210501Y297307*
X210189Y296682*
X209563Y296370*
X207376*
X209563D02*
X210501Y294494D01*
X214563Y296057D02*
X215501D01*
Y295744*
X215189Y295120*
X214876Y294807*
X214251Y294494*
X213626*
X213001Y294807*
X212689Y295120*
X212376Y295744*
Y296994*
X212689Y297620*
X213001Y297932*
X213626Y298244*
X214251*
X214876Y297932*
X215189Y297620*
X215501Y296994*
X219563Y296370D02*
X220189Y296057D01*
X220501Y295432*
X220189Y294807*
X219563Y294494*
X217376*
Y298244*
X219563*
X220189Y297932*
X220501Y297307*
X220189Y296682*
X219563Y296370*
X217376*
X208407Y102219D02*
X204657D01*
Y104406*
X204969Y105031*
X205594Y105344*
X206219Y105031*
X206532Y104406*
Y102219*
X208407Y108156D02*
Y109406D01*
Y108781D02*
X204657D01*
Y108156D02*
Y109406D01*
X207782Y115344D02*
X208094Y115031D01*
X208407Y114406*
Y113469*
X208094Y112844*
X207782Y112531*
X207157Y112219*
X205907*
X205282Y112531*
X204969Y112844*
X204657Y113469*
Y114406*
X204969Y115031*
X205282Y115344*
X208094Y117531D02*
X208407Y118156D01*
Y118781*
X208094Y119406*
X207469Y119719*
X206844Y119406*
X206532Y118781*
Y118156*
Y118781D02*
X206219Y119406D01*
X205594Y119719*
X204969Y119406*
X204657Y118781*
Y118156*
X204969Y117531*
X208407Y124719D02*
Y122219D01*
X206219Y124406*
X205594Y124719*
X204969Y124406*
X204657Y123781*
Y122844*
X204969Y122219*
X210006Y58167D02*
X226006D01*
Y65167*
X210006*
Y58167*
Y67026D02*
X226006D01*
Y74026*
X210006*
Y67026*
X214635Y69726D02*
X214322Y69413D01*
X213697Y69101*
X212760*
X212135Y69413*
X211822Y69726*
X211510Y70351*
Y71601*
X211822Y72226*
X212135Y72539*
X212760Y72851*
X213697*
X214322Y72539*
X214635Y72226*
X217135Y69101D02*
X218385D01*
X217760D02*
Y72851D01*
X217135Y72226*
X223072Y69101D02*
Y72851D01*
X221510Y70351*
X224010*
X215029Y60277D02*
X214716Y59965D01*
X214091Y59652*
X213154*
X212529Y59965*
X212216Y60277*
X211904Y60902*
Y62152*
X212216Y62777*
X212529Y63090*
X213154Y63402*
X214091*
X214716Y63090*
X215029Y62777*
X217529Y59652D02*
X218779D01*
X218154D02*
Y63402D01*
X217529Y62777*
X221904Y59652D02*
X224404Y63402D01*
X221904*
X214706Y41982D02*
X210956D01*
Y44170*
X211269Y44795*
X211894Y45107*
X212519Y44795*
X212831Y44170*
Y41982*
Y44170D02*
X214706Y45107D01*
X214394Y46982D02*
X214706Y47607D01*
Y48545*
X214394Y49170*
X213769Y49482*
X213456*
X212831Y49170*
X212519Y48545*
Y46982*
X210956*
Y49482*
X217219Y245919D02*
X225486D01*
Y239226*
X217219*
Y245919*
Y252612D02*
X225486D01*
Y245919*
X217219*
Y252612*
X225486Y245919D02*
X233360D01*
Y239226*
X225486*
Y245919*
Y252612D02*
X233360D01*
Y245919*
X225486*
Y252612*
X224711Y43533D02*
X225024Y43220D01*
X225336Y42595*
Y41657*
X225024Y41033*
X224711Y40720*
X224086Y40407*
X222836*
X222211Y40720*
X221898Y41033*
X221586Y41657*
Y42595*
X221898Y43220*
X222211Y43533*
X225336Y46033D02*
Y47283D01*
Y46657D02*
X221586D01*
X222211Y46033*
X225024Y50720D02*
X225336Y51345D01*
Y51970*
X225024Y52595*
X224398Y52907*
X222524*
X221898Y52595*
X221586Y51970*
Y51345*
X221898Y50720*
X222524Y50407*
X224398*
X225024Y50720*
X221898Y52595*
X226821Y38510D02*
Y54510D01*
X219821*
Y38510*
X226821*
X230254Y151163D02*
Y135163D01*
X237254*
Y151163*
X230254*
X233360Y245919D02*
X246746D01*
Y239226*
X233360*
Y245919*
Y252612D02*
X246746D01*
Y245919*
X233360*
Y252612*
X238257Y156143D02*
X237944Y155831D01*
X237319Y155518*
X236382*
X235757Y155831*
X235444Y156143*
X235132Y156768*
Y158018*
X235444Y158643*
X235757Y158956*
X236382Y159268*
X237319*
X237944Y158956*
X238257Y158643*
X240132Y156456D02*
X240444Y157081D01*
X241069Y157393*
X241694*
X242319Y157081*
X242632Y156456*
X242319Y155831*
X241694Y155518*
X241069*
X240444Y155831*
X240132Y156456*
Y157393*
X240444Y158331*
X241069Y158956*
X241694Y159268*
X234947Y142745D02*
X235260Y142433D01*
X235572Y141807*
Y140870*
X235260Y140245*
X234947Y139933*
X234322Y139620*
X233072*
X232447Y139933*
X232135Y140245*
X231822Y140870*
Y141807*
X232135Y142433*
X232447Y142745*
X233697Y145557D02*
Y146183D01*
X233385Y146807*
X232760Y147120*
X232135Y146807*
X231822Y146183*
Y145557*
X232135Y144933*
X232760Y144620*
X233385Y144933*
X233697Y145557*
X234010Y144933*
X234635Y144620*
X235260Y144933*
X235572Y145557*
Y146183*
X235260Y146807*
X234635Y147120*
X234010Y146807*
X233697Y146183*
X238128Y151163D02*
Y135163D01*
X245128*
Y151163*
X238128*
X240841Y28746D02*
Y32496D01*
X243028*
X243653Y32184*
X243966Y31559*
X243653Y30934*
X243028Y30622*
X240841*
X243028D02*
X243966Y28746D01*
X245841Y29684D02*
X246153Y29059D01*
X246778Y28746*
X248028*
X248653Y29059*
X248966Y29684*
X248653Y30309*
X248028Y30622*
X246778*
X246153Y30934*
X245841Y31559*
X246153Y32184*
X246778Y32496*
X248028*
X248653Y32184*
X248966Y31559*
X252403Y28746D02*
Y32496D01*
X250841D02*
X253966D01*
X241640Y101407D02*
X241953Y101094D01*
X242265Y100469*
Y99531*
X241953Y98907*
X241640Y98594*
X241015Y98281*
X239765*
X239140Y98594*
X238828Y98907*
X238515Y99531*
Y100469*
X238828Y101094*
X239140Y101407*
X242265Y103907D02*
Y105157D01*
Y104531D02*
X238515D01*
X239140Y103907*
X241953Y108594D02*
X242265Y109219D01*
Y109844*
X241953Y110469*
X241328Y110781*
X240703Y110469*
X240390Y109844*
Y109219*
Y109844D02*
X240078Y110469D01*
X239453Y110781*
X238828Y110469*
X238515Y109844*
Y109219*
X238828Y108594*
X242428Y140777D02*
X242740Y140464D01*
X243053Y139839*
Y138902*
X242740Y138277*
X242428Y137964*
X241803Y137652*
X240553*
X239928Y137964*
X239615Y138277*
X239303Y138902*
Y139839*
X239615Y140464*
X239928Y140777*
X243053Y143277D02*
Y144527D01*
Y143902D02*
X239303D01*
X239928Y143277*
X243053Y148277D02*
Y149527D01*
Y148902D02*
X239303D01*
X239928Y148277*
X246746Y245919D02*
X259738D01*
Y239226*
X246746*
Y245919*
Y252612D02*
X259738D01*
Y245919*
X246746*
Y252612*
D02*
D11*
X30821Y20404D02*
X29571D01*
X30665Y21498*
X30821Y21810*
X30665Y22122*
X30352Y22279*
X29883*
X29571Y22122*
X32852Y20404D02*
Y22279D01*
X32071Y21029*
X33321*
X34571Y22279D02*
X35352Y20404D01*
X36133Y22279*
X40665Y21185D02*
X41133D01*
Y21029*
X40977Y20716*
X40821Y20560*
X40508Y20404*
X40196*
X39883Y20560*
X39727Y20716*
X39571Y21029*
Y21654*
X39727Y21966*
X39883Y22122*
X40196Y22279*
X40508*
X40821Y22122*
X40977Y21966*
X41133Y21654*
X42071Y20404D02*
Y22279D01*
X43633Y20404*
Y22279*
X44571Y20404D02*
Y22279D01*
X45508*
X45821Y22122*
X45977Y21966*
X46133Y21654*
Y21029*
X45977Y20716*
X45821Y20560*
X45508Y20404*
X44571*
X50665Y21185D02*
X51133D01*
Y21029*
X50977Y20716*
X50821Y20560*
X50508Y20404*
X50196*
X49883Y20560*
X49727Y20716*
X49571Y21029*
Y21654*
X49727Y21966*
X49883Y22122*
X50196Y22279*
X50508*
X50821Y22122*
X50977Y21966*
X51133Y21654*
X52071Y20404D02*
Y22279D01*
X53633Y20404*
Y22279*
X54571Y20404D02*
Y22279D01*
X55508*
X55821Y22122*
X55977Y21966*
X56133Y21654*
Y21029*
X55977Y20716*
X55821Y20560*
X55508Y20404*
X54571*
X62071Y20560D02*
X62383Y20404D01*
X62852*
X63165Y20560*
X63321Y20872*
Y21029*
X63165Y21341*
X62852Y21498*
X62071*
Y22279*
X63321*
X64571D02*
X65352Y20404D01*
X66133Y22279*
D02*
D12*
X170565Y241072D02*
Y243730D01*
X172115*
X172558Y243508*
X172780Y243065*
X172558Y242622*
X172115Y242401*
X170565*
X172115D02*
X172780Y241072D01*
X174551D02*
X175437D01*
X174994D02*
Y243730D01*
X174551Y243287*
X182745Y242401D02*
X183188Y242179D01*
X183409Y241736*
X183188Y241293*
X182745Y241072*
X181195*
Y243730*
X182745*
X183188Y243508*
X183409Y243065*
X183188Y242622*
X182745Y242401*
X181195*
X185181Y241072D02*
X186067D01*
X185624D02*
Y243730D01*
X185181Y243287*
X195368Y241072D02*
Y243730D01*
X196919*
X197361Y243508*
X197583Y243065*
X197361Y242622*
X196919Y242401*
X195368*
X196919D02*
X197583Y241072D01*
X200683D02*
X198911D01*
X200462Y242622*
X200683Y243065*
X200462Y243508*
X200019Y243730*
X199354*
X198911Y243508*
X211092Y242401D02*
X211535Y242179D01*
X211756Y241736*
X211535Y241293*
X211092Y241072*
X209541*
Y243730*
X211092*
X211535Y243508*
X211756Y243065*
X211535Y242622*
X211092Y242401*
X209541*
X214856Y241072D02*
X213085D01*
X214635Y242622*
X214856Y243065*
X214635Y243508*
X214192Y243730*
X213528*
X213085Y243508*
X220171Y241072D02*
X221279Y243730D01*
X222386Y241072*
X220614Y242179D02*
X221943D01*
X229472Y241515D02*
X229251Y241293D01*
X228808Y241072*
X228144*
X227701Y241293*
X227480Y241515*
X227258Y241958*
Y242844*
X227480Y243287*
X227701Y243508*
X228144Y243730*
X228808*
X229251Y243508*
X229472Y243287*
X236559Y241515D02*
X236338Y241293D01*
X235895Y241072*
X235230*
X234787Y241293*
X234566Y241515*
X234344Y241958*
Y242844*
X234566Y243287*
X234787Y243508*
X235230Y243730*
X235895*
X236338Y243508*
X236559Y243287*
X237888Y243730D02*
Y241072D01*
X240102*
X241431D02*
Y243730D01*
Y242401D02*
X242096D01*
X243646Y243730*
X242096Y242401D02*
X243646Y241072D01*
X252061Y241958D02*
Y242844D01*
X252283Y243287*
X252504Y243508*
X252947Y243730*
X253390*
X253833Y243508*
X254054Y243287*
X254276Y242844*
Y241958*
X254054Y241515*
X253833Y241293*
X253390Y241072*
X252947*
X252504Y241293*
X252283Y241515*
X252061Y241958*
X255604Y241072D02*
Y243730D01*
X257819*
X257376Y242401D02*
X255604D01*
Y241072D02*
X257819D01*
X172509Y249487D02*
X172952Y249266D01*
X173173Y248823*
X172952Y248380*
X172509Y248159*
X170959*
Y250816*
X172509*
X172952Y250594*
X173173Y250152*
X172952Y249709*
X172509Y249487*
X170959*
X174945Y248159D02*
X175831D01*
X175388D02*
Y250816D01*
X174945Y250373*
X183139Y249266D02*
X183803D01*
Y249044*
X183582Y248602*
X183360Y248380*
X182917Y248159*
X182474*
X182031Y248380*
X181810Y248602*
X181589Y249044*
Y249930*
X181810Y250373*
X182031Y250594*
X182474Y250816*
X182917*
X183360Y250594*
X183582Y250373*
X183803Y249930*
X185132Y248159D02*
Y250816D01*
X187346Y248159*
Y250816*
X188675Y248159D02*
Y250816D01*
X190004*
X190447Y250594*
X190669Y250373*
X190890Y249930*
Y249044*
X190669Y248602*
X190447Y248380*
X190004Y248159*
X188675*
X197312Y249266D02*
X197976D01*
Y249044*
X197755Y248602*
X197533Y248380*
X197091Y248159*
X196648*
X196205Y248380*
X195983Y248602*
X195762Y249044*
Y249930*
X195983Y250373*
X196205Y250594*
X196648Y250816*
X197091*
X197533Y250594*
X197755Y250373*
X197976Y249930*
X201077Y248159D02*
X199305D01*
X200856Y249709*
X201077Y250152*
X200856Y250594*
X200413Y250816*
X199748*
X199305Y250594*
X207942Y249266D02*
X208606D01*
Y249044*
X208385Y248602*
X208163Y248380*
X207720Y248159*
X207278*
X206835Y248380*
X206613Y248602*
X206392Y249044*
Y249930*
X206613Y250373*
X206835Y250594*
X207278Y250816*
X207720*
X208163Y250594*
X208385Y250373*
X208606Y249930*
X209935Y248159D02*
Y250816D01*
X212150Y248159*
Y250816*
X213478Y248159D02*
Y250816D01*
X214807*
X215250Y250594*
X215472Y250373*
X215693Y249930*
Y249044*
X215472Y248602*
X215250Y248380*
X214807Y248159*
X213478*
X222115Y249487D02*
X222558Y249266D01*
X222780Y248823*
X222558Y248380*
X222115Y248159*
X220565*
Y250816*
X222115*
X222558Y250594*
X222780Y250152*
X222558Y249709*
X222115Y249487*
X220565*
X227652Y248159D02*
Y250816D01*
X228980*
X229423Y250594*
X229645Y250373*
X229866Y249930*
Y249044*
X229645Y248602*
X229423Y248380*
X228980Y248159*
X227652*
X234738Y250816D02*
Y248159D01*
X236953*
X238281D02*
X239389Y250816D01*
X240496Y248159*
X238724Y249266D02*
X240053D01*
X242932Y248159D02*
Y250816D01*
X241825D02*
X244039D01*
X250462Y249266D02*
X251126D01*
Y249044*
X250905Y248602*
X250683Y248380*
X250240Y248159*
X249797*
X249354Y248380*
X249133Y248602*
X248911Y249044*
Y249930*
X249133Y250373*
X249354Y250594*
X249797Y250816*
X250240*
X250683Y250594*
X250905Y250373*
X251126Y249930*
X252455Y248159D02*
Y250816D01*
X254669Y248159*
Y250816*
X255998Y248159D02*
Y250816D01*
X257327*
X257770Y250594*
X257991Y250373*
X258213Y249930*
Y249044*
X257991Y248602*
X257770Y248380*
X257327Y248159*
X255998*
D02*
D13*
X3439Y106549D02*
Y34581D01*
X50683*
Y118518*
X27061*
X11411Y177337D02*
X17415D01*
X42612Y197846D02*
Y195919D01*
X68596*
X46211Y179304D02*
G75*
G02Y178700J-302D01*
G01*
Y179304D02*
G75*
G02Y178700J-302D01*
G01*
G75*
G02Y179304J302*
G01*
X51030Y149561D02*
Y170624D01*
X57533Y88242D02*
Y66982D01*
X65297Y149561D02*
Y170624D01*
X68596Y199774D02*
Y195919D01*
X42612*
Y199774*
X71785Y66982D02*
Y88242D01*
X74207Y147888D02*
X119384D01*
X76667Y178990D02*
X125880D01*
X81589Y319344D02*
G75*
G02X82376I394D01*
G01*
X81589D02*
G75*
G03X82376I394D01*
G01*
X87041Y74758D02*
X104423D01*
X88675Y171116D02*
Y157337D01*
X88970Y107337D02*
X119384D01*
X90644Y64719D02*
X104423D01*
X92317Y58616D02*
X99207D01*
X99699Y157337D02*
Y173577D01*
X101274Y59108D02*
X115053D01*
Y33518*
X101274*
Y59108*
X104030Y171313D02*
Y157533D01*
X115053D02*
Y173774D01*
X125880Y229384D02*
X76667D01*
X131195Y164915D02*
X146156D01*
X141136Y311274D02*
X145270D01*
X141431Y184108D02*
Y202219D01*
X181589*
Y184108*
X141431*
X142612Y175644D02*
Y182730D01*
X143793Y171411D02*
X131195D01*
X166628Y228990D02*
G75*
G02X167022I197D01*
G01*
G75*
G03X166628I-197*
G01*
X167022D02*
G75*
G02X166628I-197D01*
G01*
X167022D02*
X169778Y262652*
G75*
G03Y263439J394D01*
G01*
Y262652D02*
G75*
G02Y263439J394D01*
G01*
X183754Y148400D02*
X191037D01*
X192415Y148478D02*
X219187D01*
Y78006*
X192415*
Y148478*
X232179Y153892D02*
X244778D01*
X237002Y110093D02*
Y97494D01*
X243498D02*
Y112455D01*
X244778Y160388D02*
X229817D01*
D02*
D14*
X22050Y147844D02*
Y140844D01*
X8450*
Y147844*
X22050*
X29530Y136821D02*
Y129821D01*
X15930*
Y136821*
X29530*
X40751Y241545D02*
Y234545D01*
X27151*
Y241545*
X40751*
X68113Y241742D02*
Y234742D01*
X54513*
Y241742*
X68113*
X80955Y24552D02*
X73955D01*
Y38152*
X80955*
Y24552*
X130121Y276978D02*
Y269978D01*
X116521*
Y276978*
X130121*
X130318Y286821D02*
Y279821D01*
X116718*
Y286821*
X130318*
X130515Y296860D02*
Y289860D01*
X116915*
Y296860*
X130515*
X130908Y306506D02*
Y299506D01*
X117308*
Y306506*
X130908*
X135679Y25733D02*
X128679D01*
Y39333*
X135679*
Y25733*
X136750Y234609D02*
X143750D01*
Y221009*
X136750*
Y234609*
X136796Y236317D02*
Y243317D01*
X150396*
Y236317*
X136796*
X142065Y160396D02*
X149065D01*
Y146796*
X142065*
Y160396*
X150726D02*
X157726D01*
Y146796*
X150726*
Y160396*
X159191D02*
X166191D01*
Y146796*
X159191*
Y160396*
X179970Y133411D02*
X172970D01*
Y147011*
X179970*
Y133411*
X193356Y187741D02*
X186356D01*
Y201341*
X193356*
Y187741*
X209388Y52326D02*
X216388D01*
Y38726*
X209388*
Y52326*
X215357Y158474D02*
Y151474D01*
X201757*
Y158474*
X215357*
Y167923D02*
Y160923D01*
X201757*
Y167923*
X215357*
D02*
D15*
X34955Y140329D02*
X65939D01*
Y126313*
X34955*
Y140329*
X63085Y315998D02*
X14659D01*
Y253400*
X63085*
X74896Y315998D02*
X98715D01*
Y253400*
X74896*
X155604Y315132D02*
X265762D01*
Y280289*
X155604*
Y315132*
X234738Y39620D02*
Y55368D01*
X250486Y35683D02*
X242612D01*
X250486Y59305D02*
X242612D01*
X258360Y39620D02*
Y55368D01*
D02*
D16*
X120762Y68557D02*
X112100D01*
Y94541*
X120762*
X125242Y63839D02*
G75*
G02Y63457J-191D01*
G01*
Y63839D02*
G75*
G02Y63457J-191D01*
G01*
G75*
G02Y63839J191*
G01*
X129423Y68557D02*
X138085D01*
Y94541*
X129423*
X171156Y96904D02*
X165250D01*
X171156Y109502D02*
X165250D01*
X176400Y111494D02*
G75*
G02X176864I232D01*
G01*
X176400D02*
G75*
G02X176864I232D01*
G01*
G75*
G02X176400I-232*
G01*
X203321Y56628D02*
X153321D01*
Y46628*
X203321*
Y56628*
X0Y0D02*
M02*
