G04 DesignSpark PCB Gerber Version 9.0 Build 5138 *
G04 #@! TF.Part,Single*
G04 #@! TF.FileFunction,Other,RGB_Industrial_Display_PCB - Documentation *
G04 #@! TF.FilePolarity,Positive *
%FSLAX35Y35*%
%MOIN*%
%ADD104C,0.00197*%
%ADD13C,0.00394*%
X0Y0D02*
D02*
D13*
X100644Y324266D02*
Y245132D01*
X8715*
Y324266*
X100644*
X134797Y302612D02*
Y319935D01*
X147593*
Y302612*
X134797*
X151628Y317100D02*
X265722D01*
Y257533*
X151628*
Y317100*
X168951Y216490D02*
X142967D01*
Y235191*
X168951*
Y216490*
X228793Y27809D02*
Y67179D01*
X260289*
Y27809*
X228793*
D02*
D104*
X447Y119502D02*
X49659D01*
Y33596*
X447*
Y119502*
X8419Y178006D02*
X37750D01*
Y156352*
X8419*
Y178006*
X18400Y186037D02*
X28163D01*
Y180998*
X18400*
Y186037*
X43065Y133911D02*
Y161864D01*
X60585*
Y133911*
X43065*
X53911Y63636D02*
Y91589D01*
X71392*
Y63636*
X53911*
X63537Y150250D02*
X117278D01*
Y104974*
X63537*
Y150250*
X71411Y230368D02*
X127120D01*
Y178006*
X71411*
Y230368*
X84443Y75644D02*
X106608D01*
Y63833*
X84443*
Y75644*
X89325Y60486D02*
X122986D01*
Y32140*
X89325*
Y60486*
X99069Y174561D02*
Y153892D01*
X85289*
Y174561*
X99069*
X114423Y174758D02*
Y154089D01*
X100644*
Y174758*
X114423*
X137848Y174659D02*
Y211667D01*
X181156*
Y174659*
X137848*
X145132Y163636D02*
X125841D01*
Y172691*
X145132*
Y163636*
X180762Y149463D02*
X226825D01*
Y77022*
X180762*
Y149463*
X226825Y161667D02*
X246116D01*
Y152612*
X226825*
Y161667*
X242770Y113439D02*
Y94148D01*
X233715*
Y113439*
X242770*
X0Y0D02*
M02*
