G04 DesignSpark PCB Gerber Version 9.0 Build 5138 *
G04 #@! TF.Part,Single*
G04 #@! TF.FileFunction,Soldermask,Bot *
G04 #@! TF.FilePolarity,Negative *
%FSLAX35Y35*%
%MOIN*%
G04 #@! TA.AperFunction,ComponentPad*
%ADD15R,0.06112X0.06112*%
%ADD19R,0.06600X0.06600*%
%ADD11R,0.10049X0.10049*%
%ADD16C,0.06112*%
%ADD14C,0.06506*%
G04 #@! TA.AperFunction,WasherPad*
%ADD10C,0.06600*%
G04 #@! TA.AperFunction,ComponentPad*
%ADD17C,0.06624*%
%ADD18C,0.06998*%
%ADD13C,0.07687*%
%ADD12C,0.10049*%
X0Y0D02*
D02*
D10*
X49856Y68754D03*
D02*
D11*
X25053Y106549D03*
D02*
D12*
Y46549D03*
Y66549D03*
Y86549D03*
X66982Y253793D03*
Y315604D03*
D02*
D13*
X173675Y263045D03*
Y273045D03*
X183675Y263045D03*
Y273045D03*
X193675Y263045D03*
Y273045D03*
X203675Y263045D03*
Y273045D03*
X213675Y263045D03*
Y273045D03*
X223675Y263045D03*
Y273045D03*
X233675Y263045D03*
Y273045D03*
X243675Y263045D03*
Y273045D03*
D02*
D14*
X235683Y34699D03*
Y60289D03*
X253400Y34699D03*
Y60289D03*
D02*
D15*
X79974Y302199D03*
D02*
D16*
Y272199D03*
Y282199D03*
Y292199D03*
X89974Y267199D03*
Y277199D03*
Y287199D03*
Y297199D03*
D02*
D17*
X38990Y258557D03*
Y268557D03*
Y300841D03*
Y310841D03*
D02*
D18*
X54974Y262199D03*
Y307199D03*
D02*
D19*
X156313Y51628D03*
X166313D03*
X176313D03*
X186313D03*
X196313D03*
X0Y0D02*
M02*
