G04 DesignSpark PCB Gerber Version 9.0 Build 5138 *
G04 #@! TF.Part,Single*
G04 #@! TF.FileFunction,Soldermask,Top *
G04 #@! TF.FilePolarity,Negative *
%FSLAX35Y35*%
%MOIN*%
G04 #@! TA.AperFunction,SMDPad,CuDef*
%ADD124R,0.02372X0.07687*%
%ADD109R,0.03671X0.04458*%
%ADD110R,0.04340X0.11033*%
%ADD112R,0.05700X0.06600*%
%ADD128R,0.05718X0.07687*%
%ADD118R,0.06100X0.06600*%
%ADD126R,0.06624X0.07017*%
%ADD125R,0.06899X0.13002*%
%ADD117R,0.07490X0.13198*%
%ADD137R,0.09065X0.09261*%
%ADD107R,0.10836X0.12805*%
%ADD127R,0.13789X0.14773*%
G04 #@! TA.AperFunction,ComponentPad*
%ADD130R,0.06112X0.06112*%
%ADD138R,0.06600X0.06600*%
G04 #@! TA.AperFunction,SMDPad,CuDef*
%ADD139R,0.06900X0.06900*%
G04 #@! TA.AperFunction,ComponentPad*
%ADD114R,0.10049X0.10049*%
%ADD131C,0.06112*%
%ADD122C,0.06506*%
G04 #@! TA.AperFunction,WasherPad*
%ADD105C,0.06600*%
G04 #@! TA.AperFunction,ComponentPad*
%ADD132C,0.06624*%
%ADD133C,0.06998*%
%ADD121C,0.07687*%
%ADD115C,0.10049*%
G04 #@! TA.AperFunction,SMDPad,CuDef*
%ADD135R,0.05521X0.02962*%
%ADD106R,0.06604X0.03159*%
%ADD119R,0.07883X0.03159*%
%ADD116R,0.07490X0.04340*%
%ADD134R,0.06112X0.05128*%
%ADD136R,0.07687X0.05324*%
%ADD123R,0.06600X0.05700*%
%ADD120R,0.07687X0.05718*%
%ADD129R,0.06600X0.06100*%
%ADD113R,0.09458X0.07490*%
%ADD108R,0.16939X0.09065*%
%ADD111R,0.27372X0.24616*%
X0Y0D02*
D02*
D105*
X49856Y68754D03*
D02*
D106*
X12407Y159679D03*
Y164679D03*
Y169679D03*
Y174679D03*
X33762Y159679D03*
Y164679D03*
Y169679D03*
Y174679D03*
D02*
D107*
X23085Y167179D03*
D02*
D108*
X73675Y127612D03*
X107140D03*
D02*
D109*
X20526Y183518D03*
X26037D03*
D02*
D110*
X44596Y186222D03*
X62596D03*
D02*
D111*
X53596Y212797D03*
D02*
D112*
X13429Y144148D03*
X19531Y133321D03*
X20929Y144148D03*
X27031Y133321D03*
X28193Y238045D03*
X35693D03*
X55555Y238242D03*
X63055D03*
X117563Y273478D03*
X117760Y283321D03*
X117957Y293360D03*
X118350Y303006D03*
X125063Y273478D03*
X125260Y283321D03*
X125457Y293360D03*
X125850Y303006D03*
X137839Y239817D03*
X145339D03*
X202799Y154974D03*
Y164423D03*
X210299Y154974D03*
Y164423D03*
D02*
D113*
X92179Y158321D03*
Y170132D03*
X107533Y158518D03*
Y170329D03*
D02*
D114*
X25053Y106549D03*
D02*
D115*
Y46549D03*
Y66549D03*
Y86549D03*
X66982Y253793D03*
Y315604D03*
D02*
D116*
X93754Y37258D03*
Y46313D03*
Y55368D03*
D02*
D117*
X118557Y46313D03*
D02*
D118*
X55171Y43388D03*
Y52388D03*
X63636Y43388D03*
Y52388D03*
X72494Y48112D03*
Y57112D03*
X81549Y48309D03*
Y57309D03*
X221313Y42010D03*
Y51010D03*
X231746Y138663D03*
Y147663D03*
X239620Y138663D03*
Y147663D03*
D02*
D119*
X185388Y80742D03*
Y85742D03*
Y90742D03*
Y95742D03*
Y100742D03*
Y105742D03*
Y110742D03*
Y115742D03*
Y120742D03*
Y125742D03*
Y130742D03*
Y135742D03*
Y140742D03*
Y145742D03*
X222199Y80742D03*
Y85742D03*
Y90742D03*
Y95742D03*
Y100742D03*
Y105742D03*
Y110742D03*
Y115742D03*
Y120742D03*
Y125742D03*
Y130742D03*
Y135742D03*
Y140742D03*
Y145742D03*
D02*
D120*
X130368Y168163D03*
X140604D03*
X231352Y157140D03*
X241589D03*
D02*
D121*
X173675Y263045D03*
Y273045D03*
X183675Y263045D03*
Y273045D03*
X193675Y263045D03*
Y273045D03*
X203675Y263045D03*
Y273045D03*
X213675Y263045D03*
Y273045D03*
X223675Y263045D03*
Y273045D03*
X233675Y263045D03*
Y273045D03*
X243675Y263045D03*
Y273045D03*
D02*
D122*
X235683Y34699D03*
Y60289D03*
X253400Y34699D03*
Y60289D03*
D02*
D123*
X138242Y224059D03*
Y231559D03*
X143557Y149846D03*
Y157346D03*
X152219Y149846D03*
Y157346D03*
X160683Y149846D03*
Y157346D03*
X174463Y136461D03*
Y143961D03*
X187848Y190791D03*
Y198291D03*
X210880Y41776D03*
Y49276D03*
D02*
D124*
X142868Y179187D03*
Y207140D03*
X145427Y179187D03*
Y207140D03*
X147986Y179187D03*
Y207140D03*
X150545Y179187D03*
Y207140D03*
X153104Y179187D03*
Y207140D03*
X155663Y179187D03*
Y207140D03*
X158222Y179187D03*
Y207140D03*
X160781Y179187D03*
Y207140D03*
X163341Y179187D03*
Y207140D03*
X165900Y179187D03*
Y207140D03*
X168459Y179187D03*
Y207140D03*
X171018Y179187D03*
Y207140D03*
X173577Y179187D03*
Y207140D03*
X176136Y179187D03*
Y207140D03*
D02*
D125*
X123085Y71707D03*
Y91392D03*
D02*
D126*
X88045Y69738D03*
X103006D03*
D02*
D127*
X78990Y204187D03*
X119541D03*
D02*
D128*
X238242Y98675D03*
Y108911D03*
D02*
D129*
X116616Y314817D03*
X117797Y261864D03*
X125616Y314817D03*
X126797Y261864D03*
X130986Y123872D03*
Y134699D03*
X139986Y123872D03*
Y134699D03*
X161892Y88833D03*
X163860Y115998D03*
X170892Y88833D03*
X172860Y115998D03*
X211498Y61667D03*
Y70526D03*
X220498Y61667D03*
Y70526D03*
D02*
D130*
X79974Y302199D03*
D02*
D131*
Y272199D03*
Y282199D03*
Y292199D03*
X89974Y267199D03*
Y277199D03*
Y287199D03*
Y297199D03*
D02*
D132*
X38990Y258557D03*
Y268557D03*
Y300841D03*
Y310841D03*
D02*
D133*
X54974Y262199D03*
Y307199D03*
D02*
D134*
X149659Y222691D03*
Y228990D03*
X158321Y222691D03*
Y228990D03*
D02*
D135*
X141195Y307730D03*
Y314817D03*
D02*
D136*
X158321Y98478D03*
Y107927D03*
X174069Y98478D03*
Y107927D03*
D02*
D137*
X51825Y139226D03*
Y156549D03*
X62652Y68951D03*
Y86274D03*
D02*
D138*
X156313Y51628D03*
X166313D03*
X176313D03*
X186313D03*
X196313D03*
D02*
D139*
X36864Y132920D03*
Y146320D03*
X0Y0D02*
M02*
