G04 DesignSpark PCB Gerber Version 9.0 Build 5138 *
G04 #@! TF.Part,Single*
G04 #@! TF.FileFunction,Copper,L2,Bot *
G04 #@! TF.FilePolarity,Positive *
%FSLAX35Y35*%
%MOIN*%
G04 #@! TA.AperFunction,ViaPad*
%ADD28R,0.01890X0.03504*%
%ADD25R,0.02047X0.03504*%
G04 #@! TA.AperFunction,ComponentPad*
%ADD96R,0.05512X0.05512*%
%ADD103R,0.06000X0.06000*%
%ADD81R,0.09449X0.09449*%
G04 #@! TD.AperFunction*
%ADD10C,0.00500*%
%ADD16C,0.01000*%
%ADD23C,0.01500*%
%ADD17C,0.01969*%
%ADD21C,0.02126*%
%ADD22C,0.02500*%
G04 #@! TA.AperFunction,ViaPad*
%ADD29C,0.02795*%
G04 #@! TD.AperFunction*
%ADD70C,0.03150*%
%ADD71C,0.03346*%
G04 #@! TA.AperFunction,ViaPad*
%ADD20C,0.03543*%
G04 #@! TA.AperFunction,ComponentPad*
%ADD104C,0.04791*%
%ADD97C,0.05512*%
G04 #@! TA.AperFunction,ViaPad*
%ADD24C,0.05591*%
%ADD26R,0.03504X0.02047*%
G04 #@! TA.AperFunction,ComponentPad*
%ADD89C,0.05906*%
G04 #@! TA.AperFunction,WasherPad*
%ADD72C,0.06000*%
G04 #@! TA.AperFunction,ComponentPad*
%ADD98C,0.06024*%
%ADD88C,0.07087*%
%ADD82C,0.09449*%
G04 #@! TA.AperFunction,ViaPad*
%ADD27C,0.19685*%
G04 #@! TA.AperFunction,ComponentPad*
%ADD105R,0.08000X0.06000*%
X0Y0D02*
D02*
D10*
X4620Y84106D02*
Y17964D01*
G75*
G02X25555Y12848I9843J-5115*
G01*
G75*
G02X19578Y3006I-11093*
G01*
X250686*
G75*
G02X244709Y12848I5115J9843*
G01*
G75*
G02X265644Y17964I11093*
G01*
Y23872*
G75*
G03X261707Y27809I-3937*
G01*
X249896*
G75*
G03X245959Y23872J-3937*
G01*
Y22297*
G75*
G02X242022Y18360I-3937*
G01*
X38872*
G75*
G02X19187Y38045J19685*
G01*
Y302612*
G75*
G02X40841Y324266I21654*
G01*
X227848*
G75*
G02X251470Y300644J-23622*
G01*
Y86864*
G75*
G03X257376Y80959I5906*
G01*
X260526*
G75*
G03X265644Y86077J5118*
G01*
Y334983*
G75*
G02X244921Y339620I-9843J4637*
G01*
G75*
G02X251165Y349463I10880*
G01*
X19099*
G75*
G02X25343Y339620I-4637J-9843*
G01*
G75*
G02X4620Y334983I-10880*
G01*
Y88993*
G75*
G02X11406Y86549I2953J-2443*
G01*
G75*
G02X4620Y84106I-3833*
G01*
X88165Y17280D02*
X98240D01*
Y9205*
X88165*
Y17280*
X111787D02*
X121862D01*
Y9205*
X111787*
Y17280*
X25555Y12848D02*
G36*
G75*
G02X20033Y3256I-11093J1D01*
G01*
X250231*
G75*
G02X244709Y12848I5570J9593*
G01*
G75*
G02X244716Y13242I11098J-3*
G01*
X121862*
Y9205*
X111787*
Y13242*
X98240*
Y9205*
X88165*
Y13242*
X25548*
G75*
G02X25555Y12848I-11091J-396*
G01*
G37*
X4870Y83832D02*
G36*
Y18419D01*
G75*
G02X25548Y13242I9593J-5570*
G01*
X88165*
Y17280*
X98240*
Y13242*
X111787*
Y17280*
X121862*
Y13242*
X244716*
G75*
G02X265394Y18419I11085J-394*
G01*
Y25252*
G75*
G03X261707Y27809I-3687J-1381*
G01*
X249896*
G75*
G03X245959Y23872J-3937*
G01*
Y22297*
G75*
G02X242022Y18360I-3937*
G01*
X38872*
G75*
G02X19187Y38045J19685*
G01*
Y302612*
G75*
G02X40841Y324266I21654*
G01*
X227848*
G75*
G02X251470Y300644J-23622*
G01*
Y86864*
G75*
G03X257376Y80959I5906*
G01*
X260526*
G75*
G03X265394Y84497I0J5119*
G01*
Y334486*
G75*
G02X244921Y339620I-9593J5134*
G01*
G75*
G02X250667Y349213I10880*
G01*
X19596*
G75*
G02X25343Y339620I-5134J-9593*
G01*
G75*
G02X4870Y334486I-10880*
G01*
Y89267*
G75*
G02X11406Y86549I2703J-2717*
G01*
G75*
G02X4870Y83832I-3833*
G01*
G37*
X21156Y53006D02*
Y38636D01*
G75*
G03X26470Y33321I5315*
G01*
X114856*
G75*
G03X120762Y39226J5906*
G01*
Y193754*
G75*
G02X122730Y195722I1969*
G01*
X127258*
G75*
G03X129226Y197691J1969*
G01*
Y209896*
G75*
G03X125289Y213833I-3937*
G01*
X103045*
G75*
G03X99108Y209896J-3937*
G01*
Y115014*
G75*
G02X59738Y75644I-39370*
G01*
X46943*
G75*
G03X41037Y69738J-5906*
G01*
Y63833*
G75*
G02X35132Y57927I-5906*
G01*
X26077*
G75*
G03X21156Y53006J-4921*
G01*
X106535Y187258D02*
G75*
G02X112154I2809D01*
G01*
G75*
G02X106535I-2809*
G01*
Y193557D02*
G75*
G02X112154I2809D01*
G01*
G75*
G02X106535I-2809*
G01*
Y199266D02*
G75*
G02X112154I2809D01*
G01*
G75*
G02X106535I-2809*
G01*
Y210683D02*
G75*
G02X112154I2809D01*
G01*
G75*
G02X109888Y207927I-2809*
G01*
G75*
G02X112154Y205171I-544J-2756*
G01*
G75*
G02X106535I-2809*
G01*
G75*
G02X108801Y207927I2809*
G01*
G75*
G02X106535Y210683I544J2756*
G01*
X101220Y37061D02*
G75*
G02X106839I2809D01*
G01*
G75*
G02X101220I-2809*
G01*
X94921Y69738D02*
G75*
G02X100539I2809D01*
G01*
G75*
G02X94921I-2809*
G01*
X47827Y68754D02*
G75*
G02X55902I4037D01*
G01*
G75*
G02X47827I-4037*
G01*
X21299Y46549D02*
G75*
G02X32823I5762D01*
G01*
G75*
G02X21299I-5762*
G01*
X21406Y37061D02*
G36*
Y37025D01*
G75*
G03X24859Y33571I5065J1611*
G01*
X116556*
G75*
G03X120350Y37061I-1700J5656*
G01*
X106839*
G75*
G02X101220I-2809*
G01*
X21406*
G37*
Y45448D02*
G36*
Y37061D01*
X101220*
G75*
G02X106839I2809*
G01*
X120350*
G75*
G03X120762Y39226I-5494J2166*
G01*
Y46549*
X32823*
G75*
G02X21406Y45448I-5762*
G01*
G37*
Y54555D02*
G36*
Y47651D01*
G75*
G02X32823Y46549I5656J-1102*
G01*
X120762*
Y69738*
X100539*
G75*
G02X94921I-2809*
G01*
X55780*
G75*
G02X55902Y68754I-3916J-983*
G01*
G75*
G02X47827I-4037*
G01*
G75*
G02X47948Y69738I4037J1*
G01*
X41037*
Y63833*
G75*
G02X35132Y57927I-5906*
G01*
X26077*
G75*
G03X21406Y54555I0J-4921*
G01*
G37*
X46943Y75644D02*
G36*
G75*
G03X41037Y69738J-5906D01*
G01*
X47948*
G75*
G02X55780I3916J-984*
G01*
X94921*
G75*
G02X100539I2809*
G01*
X120762*
Y187258*
X112154*
G75*
G02X106535I-2809*
G01*
X99108*
Y115014*
Y115013*
G75*
G02X59738Y75644I-39370*
G01*
X46943*
G37*
X99108Y193557D02*
G36*
Y187258D01*
X106535*
G75*
G02X112154I2809*
G01*
X120762*
Y193557*
X112154*
G75*
G02X106535I-2809*
G01*
X99108*
G37*
Y199266D02*
G36*
Y193557D01*
X106535*
G75*
G02X112154I2809*
G01*
X120762*
Y193754*
G75*
G02X122730Y195722I1969*
G01*
X127258*
G75*
G03X128976Y196731J1969*
G01*
Y199266*
X112154*
G75*
G02X106535I-2809*
G01*
X99108*
G37*
Y207927D02*
G36*
Y199266D01*
X106535*
G75*
G02X112154I2809*
G01*
X128976*
Y207927*
X109888*
G75*
G02X112154Y205172I-543J-2756*
G01*
Y205171*
G75*
G02X106535I-2809*
G01*
Y205172*
G75*
G02X108801Y207927I2809*
G01*
X99108*
G37*
Y209896D02*
G36*
Y207927D01*
X108801*
G75*
G02X106535Y210683I543J2756*
G01*
Y210683*
G75*
G02X112154I2809*
G01*
Y210683*
G75*
G02X109888Y207927I-2809*
G01*
X128976*
Y211276*
G75*
G03X126670Y213583I-3687J-1381*
G01*
X101665*
G75*
G03X99108Y209896I1381J-3687*
G01*
G37*
D02*
D16*
X110900Y273478D02*
X123321D01*
G75*
G02X139069Y257730J-15748*
G01*
Y200644*
G75*
G03X161116Y178596I22047*
G01*
X166628*
G75*
G02X172730Y172494J-6102*
G01*
Y170526*
X111530Y283321D02*
X122730D01*
G75*
G02X141234Y264817J-18504*
G01*
Y202022*
G75*
G03X162691Y180565I21457*
G01*
X169384*
G75*
G02X176077Y173872J-6693*
G01*
Y170526*
X135722Y295722D02*
Y296116D01*
G75*
G03X128833Y303006I-6890*
G01*
X111707*
X138478Y281549D02*
Y284699D01*
G75*
G03X129817Y293360I-8661*
G01*
X112297*
X168321Y51628D02*
Y128006D01*
X167927Y128400*
X175683Y273045D02*
Y270722D01*
X180801Y265604*
Y254581*
G75*
G03X188872Y246510I8071*
G01*
X194778*
G75*
G02X200683Y240604J-5906*
G01*
Y122691*
G75*
G02X198715Y120722I-1969*
G01*
X194187*
X178321Y51628D02*
Y123360D01*
X180801Y125841*
X188321Y51628D02*
Y122100D01*
G75*
G02X192258Y126037I3937*
G01*
X192612*
X192809Y125841*
X194187*
X190447Y154974D02*
X168596D01*
G75*
G02X165053Y158518J3543*
G01*
Y170722*
X193203Y161470D02*
X171352D01*
G75*
G02X167907Y164915J3445*
G01*
Y170722*
X193203Y161470D02*
Y150250D01*
X194187Y125841D02*
X195762D01*
G75*
G03X197140Y127219J1378*
G01*
Y143754*
X198321Y144935*
Y239423*
X194187Y130742D02*
Y144738D01*
X195959Y146510*
Y237061*
G75*
G03X190053Y242967I-5906*
G01*
X186313*
G75*
G02X175683Y253596J10630*
G01*
Y263045*
X195683Y273045D02*
Y270722D01*
X190841Y265486*
Y253793*
G75*
G03X195762Y248872I4921*
G01*
X197337*
G75*
G02X203045Y243163J-5709*
G01*
Y100250*
X195762Y255959D02*
Y253203D01*
G75*
G03X197730Y251234I1969*
G01*
X204423*
G75*
G02X207770Y247888J-3346*
G01*
Y128400*
X199699Y80742D02*
X201470D01*
G75*
G03X205407Y84679J3937*
G01*
Y246510*
X210132Y97100D02*
Y239620D01*
X215683Y273045D02*
Y272455D01*
X220762Y267376*
Y257337*
X224108Y249659*
Y90407*
X228774Y85742*
X231785*
X225683Y273045D02*
Y270722D01*
X230801Y265801*
Y256352*
X228439Y249659*
Y98301*
X230998Y95742*
X231785*
X231589Y80565D02*
X226077D01*
X221746Y84896*
Y246904*
G75*
G03X219187Y249463I-2559*
G01*
G75*
G02X216234Y252415J2953*
G01*
Y263045*
X215683*
X231785Y90742D02*
X229876D01*
X226274Y94344*
Y263045*
X225683*
X233163Y112848D02*
Y242376D01*
G75*
G02X236707Y245919I3543*
G01*
X237888*
G75*
G03X240841Y248872J2953*
G01*
Y268557*
X236116Y272691*
X236037*
X235683Y273045*
Y263045D02*
X235526D01*
Y250053*
G75*
G02X233754Y248281I-1772*
G01*
X232573*
G75*
G03X230801Y246510J-1772*
G01*
Y123085*
X235919Y164620D02*
Y123085D01*
X236116Y273045D02*
X235683D01*
X238478Y169148D02*
Y128203D01*
X241234Y132533D02*
Y164226D01*
D02*
D17*
X7573Y84738D02*
Y81982D01*
Y88360D02*
Y91116D01*
X8199Y333356D02*
X6250Y331407D01*
X9384Y86549D02*
X12140D01*
X20726Y333356D02*
X22675Y331407D01*
X20726Y345884D02*
X22675Y347833D01*
X24417Y43905D02*
X22468Y41956D01*
X24417Y49194D02*
X22468Y51143D01*
X29706Y43905D02*
X31654Y41956D01*
X29706Y49194D02*
X31654Y51143D01*
X49848Y68754D02*
X47093D01*
X51864Y66738D02*
Y63982D01*
Y70770D02*
Y73526D01*
X53880Y68754D02*
X56636D01*
X90187Y13242D02*
X87431D01*
X93203Y11226D02*
Y8470D01*
X96219Y13242D02*
X98974D01*
X96943Y69738D02*
X94187D01*
X97730Y68951D02*
Y66195D01*
Y70526D02*
Y73281D01*
X98518Y69738D02*
X101274D01*
X103473Y36504D02*
X101524Y34556D01*
X103473Y37618D02*
X101524Y39567D01*
X104586Y36504D02*
X106535Y34556D01*
X104586Y37618D02*
X106535Y39567D01*
X108557Y210683D02*
X105801D01*
X108788Y186701D02*
X106839Y184752D01*
X108788Y187815D02*
X106839Y189763D01*
X108788Y193000D02*
X106839Y191052D01*
X108788Y194114D02*
X106839Y196063D01*
X108788Y198709D02*
X106839Y196760D01*
X108788Y199822D02*
X106839Y201771D01*
X108788Y204615D02*
X106839Y202666D01*
X108788Y205728D02*
X106839Y207677D01*
X109901Y186701D02*
X111850Y184752D01*
X109901Y187815D02*
X111850Y189763D01*
X109901Y193000D02*
X111850Y191052D01*
X109901Y194114D02*
X111850Y196063D01*
X109901Y198709D02*
X111850Y196760D01*
X109901Y199822D02*
X111850Y201771D01*
X109901Y204615D02*
X111850Y202666D01*
X109901Y205728D02*
X111850Y207677D01*
X110132Y210683D02*
X112888D01*
X113809Y13242D02*
X111053D01*
X116825Y11226D02*
Y8470D01*
X119841Y13242D02*
X122596D01*
X249537Y333356D02*
X247589Y331407D01*
X249537Y345884D02*
X247589Y347833D01*
X262065Y333356D02*
X264014Y331407D01*
D02*
D70*
X82573Y151825D02*
Y152553D01*
G75*
G03X65447Y169679I-17126*
G01*
X41628*
D02*
D71*
X27061Y86549D02*
X7573D01*
X158321Y51628D02*
Y35880D01*
G75*
G03X166195Y28006I7874*
G01*
X238872*
G75*
G03X246746Y35880J7874*
G01*
Y70526*
D02*
D20*
X41628Y169679D03*
X82573Y151825D03*
X97730Y69738D03*
X104030Y37061D03*
X109344Y187258D03*
Y193557D03*
Y199266D03*
Y205171D03*
Y210683D03*
X128833Y267770D03*
X132573Y209502D03*
Y224266D03*
X134148Y314817D03*
X136510Y190801D03*
X142219Y118360D03*
Y140801D03*
X143203Y299463D03*
X167927Y128400D03*
X209541Y85742D03*
X214266Y146116D03*
X231589Y80565D03*
X231785Y85742D03*
Y90742D03*
Y95742D03*
X237691Y42179D03*
D02*
D21*
X68990Y253793D02*
Y253400D01*
G75*
G03X72533Y249856I3543*
G01*
X119778*
X91982Y287199D02*
X96549D01*
G75*
G03X104423Y295073J7874*
G01*
Y306943*
G75*
G02X112297Y314817I7874*
G01*
X134148*
X132573Y209502D02*
Y224266D01*
Y249856*
X119778*
X147337Y195722D02*
Y295329D01*
X143203Y299463*
X214266Y146116D02*
X214069D01*
Y85880*
X209344*
Y85742*
X209541*
D02*
D22*
X97730Y69738D02*
Y53400D01*
X104030*
Y37061*
X142219Y140801D02*
X136510Y146510D01*
Y190801*
X152848Y66785D02*
X152455D01*
G75*
G02X142219Y77022J10236*
G01*
Y118360*
X154226Y249856D02*
X158163D01*
G75*
G03X163085Y254778J4921*
G01*
Y270526*
G75*
G02X176864Y284305I13780*
G01*
X185722*
Y273085*
X185683Y273045*
X205683D02*
Y284305D01*
X185722*
X245683Y273045D02*
Y276431D01*
G75*
G03X237809Y284305I-7874*
G01*
X205683*
D02*
D23*
X128833Y267770D02*
Y266195D01*
G75*
G02X122927Y260289I-5906*
G01*
X80211*
G75*
G02X74305Y266195J5906*
G01*
Y276293*
G75*
G02X80211Y282199I5906*
G01*
X81982*
X160230Y200053D02*
Y186864D01*
X166825*
X167022Y229581D02*
Y233321D01*
X151667*
X168321Y51628D02*
Y46116D01*
G75*
G03X172258Y42179I3937*
G01*
X237691*
X170467Y200053D02*
Y186864D01*
X166825*
X237691Y34699D02*
Y42179D01*
Y60289*
D02*
D24*
X7573Y86549D03*
X119778Y249856D03*
X152848Y66785D03*
X154226Y249856D03*
X246156Y70329D03*
D02*
D25*
X135722Y295722D03*
X138478Y281549D03*
X160230Y200053D03*
X167022Y229581D03*
X170467Y200053D03*
X172730Y170526D03*
X176077D03*
X180801Y125841D03*
X190447Y154974D03*
X193203Y150250D03*
Y161470D03*
X195762Y255959D03*
X198321Y239423D03*
X203045Y100250D03*
X205407Y246510D03*
X207770Y128400D03*
X210132Y97100D03*
Y239620D03*
X230801Y123085D03*
X233163Y112848D03*
X235919Y123085D03*
Y164620D03*
X238478Y128203D03*
Y169148D03*
X241234Y132533D03*
Y164226D03*
D02*
D26*
X147337Y195722D03*
X151667Y233321D03*
X166825Y186864D03*
X199699Y80742D03*
D02*
D27*
X14463Y12848D03*
Y339620D03*
X255801Y12848D03*
Y339620D03*
D02*
D28*
X165053Y170722D03*
X167907D03*
D02*
D29*
X110900Y273478D03*
X111530Y283321D03*
X111707Y303006D03*
X112297Y293360D03*
X194187Y120722D03*
Y125841D03*
Y130742D03*
D02*
D72*
X51864Y68754D03*
D02*
D81*
X27061Y106549D03*
D02*
D82*
Y46549D03*
Y66549D03*
Y86549D03*
X68990Y253793D03*
Y315604D03*
D02*
D88*
X175683Y263045D03*
Y273045D03*
X185683Y263045D03*
Y273045D03*
X195683Y263045D03*
Y273045D03*
X205683Y263045D03*
Y273045D03*
X215683Y263045D03*
Y273045D03*
X225683Y263045D03*
Y273045D03*
X235683Y263045D03*
Y273045D03*
X245683Y263045D03*
Y273045D03*
D02*
D89*
X237691Y34699D03*
Y60289D03*
X255407Y34699D03*
Y60289D03*
D02*
D96*
X81982Y302199D03*
D02*
D97*
Y272199D03*
Y282199D03*
Y292199D03*
X91982Y267199D03*
Y277199D03*
Y287199D03*
Y297199D03*
D02*
D98*
X40998Y258557D03*
Y268557D03*
Y300841D03*
Y310841D03*
D02*
D103*
X158321Y51628D03*
X168321D03*
X178321D03*
X188321D03*
X198321D03*
D02*
D104*
X40447Y133321D03*
X60447D03*
D02*
D105*
X93203Y13242D03*
Y23242D03*
X116825Y13242D03*
Y23242D03*
X0Y0D02*
M02*
