G05
M48
METRIC,TZ
FMAT,2
T1C000.30000
T2C000.31000
T3C000.41000
T4C000.51000
T5C000.71000
T6C000.76200
T7C000.81000
T8C000.88900
T9C000.90000
T10C001.00000
T11C001.02000
T12C001.20000
T13C001.25000
T14C001.60000
T15C003.25000
%
T001
X5.49310Y41.28630
X5.49310Y42.38630
X5.49310Y43.58630
X6.39310Y41.28630
X6.39310Y42.38630
X6.39310Y43.58630
X7.29310Y41.28630
X7.29310Y42.38630
X7.29310Y43.58630
T002
X28.66840Y69.46350
X28.71840Y71.96350
X28.77090Y76.96350
X28.79340Y74.51350
X34.47350Y75.59390
X35.39340Y73.11890
X37.59340Y56.56890
X42.06840Y59.79390
X42.06840Y63.06890
X42.86840Y57.59390
X44.64340Y59.79390
X45.92350Y31.96350
X46.66840Y57.51890
X47.69340Y53.09390
X48.91840Y52.49390
X49.41840Y33.20850
X49.44340Y30.66350
X49.44340Y31.96350
X50.37350Y62.94390
X50.72350Y20.50850
X51.57350Y25.46350
X52.17350Y63.94390
X52.77350Y32.61350
X53.37350Y24.66350
X53.41840Y63.91890
X54.14340Y48.94390
X54.16840Y51.84390
X54.29340Y57.79390
X54.91840Y51.86890
X54.94340Y48.94390
X55.69340Y48.94390
X55.71840Y51.84390
X58.62350Y30.69390
X58.82350Y20.46350
X58.87350Y21.77850
X58.87350Y23.04850
X58.87350Y24.31850
X59.24340Y28.09390
T003
X44.19340Y38.59390
X46.71840Y38.59390
T004
X2.89310Y34.88630
X3.67350Y50.61890
X8.89310Y34.88630
X11.16810Y43.11130
X14.47700Y47.68630
X14.94310Y8.78630
X14.94310Y27.41130
X27.77350Y47.56350
X27.77350Y49.16350
X27.77350Y50.61350
X27.77350Y52.11350
X27.77350Y53.51350
X32.79310Y67.71130
X38.56840Y57.89390
X40.96840Y18.49390
X41.58840Y53.99390
X43.09310Y32.83630
X44.24340Y53.96890
X48.21840Y38.99390
X48.21840Y41.44140
X53.22350Y21.77850
X54.42350Y36.99390
X60.37350Y10.71350
T005
X10.59310Y32.44390
X10.59310Y37.52390
T006
X23.67350Y3.36350
X23.67350Y5.90350
X29.67350Y3.36350
X29.67350Y5.90350
T007
X1.81810Y21.98350
X1.89310Y16.88630
X11.39310Y3.51130
X16.44310Y3.51130
X23.99310Y37.63630
X24.04310Y30.53630
X27.49310Y9.48630
X30.51810Y62.59390
X34.46840Y79.96350
X35.99310Y6.78630
X36.37350Y75.81890
X38.74340Y49.14390
X40.96840Y48.89390
X40.99340Y39.06890
X41.06840Y32.76890
X50.37350Y16.46890
X62.18830Y45.79900
T008
X8.04340Y53.04390
X32.66840Y44.24390
X40.21350Y13.58630
X42.75350Y13.58630
X45.29350Y13.58630
X47.83350Y13.58630
X50.37350Y13.58630
T009
X20.82350Y69.13850
X20.82350Y71.67850
X20.82350Y74.21850
X20.82350Y76.75850
X23.36350Y67.86850
X23.36350Y70.40850
X23.36350Y72.94850
X23.36350Y75.48850
T010
X60.37350Y8.81350
X60.37350Y15.31350
X64.87350Y8.81350
X64.87350Y15.31350
T011
X10.41350Y65.67350
X10.41350Y68.21350
X10.41350Y76.41350
X10.41350Y78.95350
T012
X44.64310Y66.81130
X44.64310Y69.35130
X47.18310Y66.81130
X47.18310Y69.35130
X49.72310Y66.81130
X49.72310Y69.35130
X52.26310Y66.81130
X52.26310Y69.35130
X54.80310Y66.81130
X54.80310Y69.35130
X57.34310Y66.81130
X57.34310Y69.35130
X59.88310Y66.81130
X59.88310Y69.35130
X62.42310Y66.81130
X62.42310Y69.35130
T013
X6.89310Y11.84630
X6.89310Y16.92630
X6.89310Y22.00630
X6.89310Y27.08630
T014
X17.52350Y64.46350
X17.52350Y80.16350
T015
X3.74310Y3.26130
X3.76810Y86.31130
X14.47350Y66.59850
X14.47350Y78.02850
X64.94310Y3.23630
X64.99310Y86.31130
M30
