G05
M48
METRIC,TZ
FMAT,2
T1C000.31000
T2C000.41000
T3C000.51000
T4C000.71000
T5C000.76200
T6C000.81000
T7C000.88900
T8C000.90000
T9C001.00000
T10C001.02000
T11C001.20000
T12C001.25000
T13C001.30000
T14C001.60000
T15C003.25000
%
T001
X32.48810Y70.78630
X32.53810Y73.53630
X32.74920Y75.29740
X33.33810Y67.88630
X36.63810Y65.75630
X38.28810Y73.33630
X39.03810Y71.33630
X42.52810Y55.52630
X46.84810Y59.01630
X47.29810Y63.06630
X47.42810Y31.75630
X47.88810Y34.98630
X48.06340Y57.59390
X49.18810Y28.38630
X49.28810Y38.59390
X49.38810Y34.98630
X49.59810Y69.23630
X49.74810Y59.01630
X50.23810Y44.28630
X50.45810Y72.26630
X50.93810Y32.83630
X51.03810Y36.64630
X51.86340Y57.51890
X51.91340Y38.59390
X52.44810Y48.38630
X52.49810Y67.29130
X53.47810Y43.38390
X53.75810Y48.38630
X54.58810Y31.88630
X54.61340Y33.20850
X54.63840Y30.66350
X54.71310Y69.83630
X54.91810Y48.35630
X55.91850Y20.50850
X56.18810Y77.24910
X56.78810Y75.38630
X57.38810Y25.44630
X57.98810Y77.31670
X58.58810Y75.23630
X58.60810Y30.70630
X59.21810Y25.44630
X59.80810Y44.12630
X59.85810Y38.39630
X60.29810Y48.88630
X60.38810Y43.04630
X60.43810Y63.57630
X60.72810Y31.93850
X60.72810Y33.20850
X60.72810Y34.47850
X60.83810Y39.84630
X60.94810Y38.41630
X60.95810Y49.94630
X60.98810Y44.11630
X61.22810Y83.25630
X61.58810Y78.52630
X62.78810Y78.48630
X63.98810Y78.48630
X64.01850Y20.46350
X64.02810Y30.76390
X64.06850Y21.77850
X64.06850Y24.31850
X64.30810Y23.04850
X64.61810Y28.09390
X64.61810Y81.33630
X68.13810Y51.68630
X69.73810Y28.63630
X69.73810Y33.19630
X69.74810Y30.83630
X71.16810Y51.43630
T002
X11.18810Y38.88630
X11.18810Y39.68630
X11.18810Y40.48630
X11.18810Y41.28630
X11.18810Y42.08630
X11.18810Y42.88630
X11.18810Y43.68630
X12.08810Y38.88630
X12.08810Y39.68630
X12.08810Y40.48630
X12.08810Y41.28630
X12.08810Y42.08630
X12.08810Y42.88630
X12.08810Y43.68630
T003
X8.18810Y35.18630
X13.98810Y35.18630
X16.36310Y43.11130
X20.13810Y8.78630
X20.13810Y27.41130
X31.43810Y47.48630
X31.43810Y49.03630
X31.43810Y50.43630
X31.43810Y51.83630
X31.43810Y53.23630
X32.73810Y48.98630
X32.76850Y47.48630
X32.76850Y50.43630
X32.76850Y51.83630
X32.76850Y53.23630
X34.08810Y47.48630
X34.08810Y48.98630
X34.13810Y50.43630
X35.43810Y47.48630
X35.43810Y48.98630
X35.43810Y50.48630
X36.73810Y47.48630
X36.73810Y48.98630
X36.73810Y50.48630
X37.93810Y47.48630
X37.93810Y48.98630
X37.93810Y50.48630
X46.81810Y53.99390
X49.18810Y53.07630
X65.56850Y8.78630
T004
X16.54810Y32.44390
X16.54810Y37.52390
X19.78810Y47.08630
X23.78810Y36.68630
X30.28810Y19.98630
X30.28810Y23.88630
X31.18810Y39.78630
X34.28810Y62.58630
X37.33810Y21.58630
X37.38810Y35.48630
X37.58810Y31.28630
X38.84810Y77.32630
X39.01340Y11.76350
X40.74810Y73.58630
X42.13810Y57.41630
X43.03810Y48.58630
X43.08810Y34.28630
X43.08810Y40.38630
X45.23810Y50.58630
X45.24810Y18.00630
X45.33810Y34.33630
X45.34810Y40.43630
X46.85810Y73.23630
X49.01810Y61.05630
X49.18810Y20.85630
X53.38810Y41.48630
X55.56850Y16.46890
X58.35810Y16.65630
X58.35810Y21.77850
X60.13810Y37.03630
X66.09810Y62.57630
X70.35810Y39.74630
X71.60810Y71.24630
T005
X28.86850Y3.36350
X28.86850Y5.90350
X34.86850Y3.36350
X34.86850Y5.90350
T006
X7.01310Y21.98350
X7.08810Y16.88630
X16.58810Y3.51130
X17.53810Y52.58630
X17.53810Y54.33630
X17.53810Y56.08630
X19.28810Y52.58630
X19.28810Y54.33630
X19.28810Y56.08630
X21.03810Y52.58630
X21.03810Y54.33630
X21.03810Y56.08630
X21.63810Y3.51130
X29.18810Y37.63630
X29.23810Y30.53630
X32.68810Y9.45630
X41.18810Y6.78630
T007
X13.23840Y53.04390
X37.86340Y44.24390
X45.40850Y13.58630
X47.94850Y13.58630
X50.48850Y13.58630
X53.02850Y13.58630
X55.56850Y13.58630
X68.28810Y58.74630
X70.82810Y58.74630
T008
X26.01850Y69.13850
X26.01850Y71.67850
X26.01850Y74.21850
X26.01850Y76.75850
X28.55850Y67.86850
X28.55850Y70.40850
X28.55850Y72.94850
X28.55850Y75.48850
T009
X65.56850Y8.81350
X65.56850Y15.31350
X70.06850Y8.81350
X70.06850Y15.31350
T010
X15.60850Y65.67350
X15.60850Y68.21350
X15.60850Y76.41350
X15.60850Y78.95350
T011
X41.23810Y83.08630
X41.23810Y85.62630
X43.77810Y83.08630
X43.77810Y85.62630
X46.31810Y83.08630
X46.31810Y85.62630
X48.85810Y83.08630
X48.85810Y85.62630
X51.39810Y83.08630
X51.39810Y85.62630
X53.93810Y83.08630
X53.93810Y85.62630
X56.47810Y83.08630
X56.47810Y85.62630
X59.01810Y83.08630
X59.01810Y85.62630
T012
X12.08810Y11.84630
X12.08810Y16.92630
X12.08810Y22.00630
X12.08810Y27.08630
T013
X68.06810Y65.87630
X68.06810Y70.87630
T014
X22.71850Y64.46350
X22.71850Y80.16350
T015
X8.88810Y3.18630
X8.88810Y86.38630
X19.66850Y66.59850
X19.66850Y78.02850
X70.28810Y3.18630
X70.28810Y86.38630
M30
